<svg width="126" height="126" viewBox="0 0 126 126" fill="none" xmlns="http://www.w3.org/2000/svg">
<path d="M41.1356 81.9662C40.0333 83.3297 39.5971 85.1116 39.9481 86.8173C39.4678 87.2178 39.0202 87.6721 38.618 88.1673C36.2146 91.1265 35.9228 94.8708 37.9662 96.5302C39.126 97.4706 40.8573 97.5698 42.6437 96.7981C42.9427 97.3186 43.3283 97.7761 43.7855 98.1528C46.1276 100.055 52.2495 101.925 54.3794 99.3027C55.5285 97.8828 56.0506 96.0789 55.8029 94.3842C56.5303 94.241 54.6564 91.4243 55.0936 90.8898C56.1143 89.625 55.9206 87.6632 54.629 86.1851C55.2813 85.8057 55.8665 85.3062 56.3514 84.7148L59.5778 72.4957L48.114 78.0247C47.6455 78.608 47.2827 79.2671 47.0453 79.9664C44.8677 79.4293 42.5629 80.2093 41.1356 81.9662Z" fill="white"/>
<path opacity="0.455" d="M33.406 100.963C32.9563 102.657 33.2854 104.462 34.302 105.876C34.027 106.438 33.8038 107.035 33.6387 107.651C32.6525 111.334 33.9144 114.871 36.4571 115.552C37.8997 115.937 39.5208 115.321 40.8366 113.887C41.322 114.24 41.8608 114.501 42.4319 114.658C45.3464 115.439 51.6986 114.647 52.5725 111.384C53.042 109.618 52.7823 107.758 51.8645 106.313C52.4701 105.885 49.6097 104.078 49.7907 103.412C50.2063 101.841 49.2287 100.129 47.4463 99.3065C47.8869 98.694 48.2172 97.9992 48.4185 97.2613L46.3766 84.7896L38.1679 94.5161C37.9783 95.2398 37.9161 95.9896 37.9848 96.7249C35.7776 97.1234 33.9919 98.7761 33.406 100.963Z" fill="white"/>
<path opacity="0.5" d="M88.7614 34.1118C86.7233 34.117 84.0671 35.1913 81.1802 36.9496C80.8595 37.145 80.5357 37.3489 80.2098 37.5606C79.8839 37.7723 79.5559 37.9919 79.2259 38.2189C78.8958 38.446 78.5639 38.6805 78.2308 38.9217C75.2282 41.0967 72.1338 43.8351 69.3159 46.7374C69.0078 47.0547 68.6926 47.3677 68.3919 47.6885C67.1713 48.9909 66.0158 50.3184 64.9589 51.6372C64.4305 52.2966 63.9266 52.9538 63.4518 53.6047C63.1371 54.0369 62.8311 54.4721 62.534 54.9095C62.237 55.3469 61.9489 55.7864 61.67 56.2275C61.1124 57.1097 60.5918 57.998 60.1104 58.8861C59.7985 59.4617 59.5091 60.0369 59.2306 60.6109C55.8259 62.889 46.9167 67.0693 43.7602 66.4604C43.7602 66.4604 52.002 72.6481 56.1331 73.7831C56.2475 73.8145 56.362 73.8336 56.4767 73.8445L60.5296 76.7755L59.6473 77.985C59.473 78.2239 59.5259 78.556 59.7658 78.7296C60.0058 78.9031 60.3393 78.8502 60.5135 78.6113L61.3958 77.4017L64.7977 79.8616C64.8013 79.8608 64.8055 79.8595 64.8093 79.8587C67.1735 83.4191 75.6292 89.3053 75.6292 89.3053C74.052 86.4706 75.3382 76.5416 76.4714 72.7115C76.5038 72.6802 76.5367 72.6514 76.5689 72.6199C76.9241 72.2736 77.277 71.9178 77.6267 71.5525C78.6758 70.4566 79.6975 69.2771 80.6751 68.0274C81.001 67.6108 81.3221 67.1866 81.6376 66.7549C82.1124 66.104 82.584 65.4236 83.0504 64.7193C84.9157 61.9022 86.692 58.6999 88.2047 55.4539C88.5828 54.6423 88.9444 53.8283 89.2869 53.0167C89.9719 51.3933 90.5803 49.7803 91.0899 48.2203C91.2173 47.8303 91.3386 47.4435 91.4533 47.0608C91.568 46.6781 91.6763 46.2993 91.7777 45.9253C91.8791 45.5512 91.9737 45.1818 92.0611 44.8176C92.1179 44.5809 92.1664 44.3503 92.2171 44.1183C93.179 39.7099 93.0169 36.1738 91.0788 34.7724C90.4511 34.3184 89.6672 34.1095 88.7614 34.1118Z" fill="black"/>
<path d="M71.2799 63.4807L75.4064 66.4648C74.3388 66.1218 71.7693 81.0043 73.7594 84.5811C73.7594 84.5811 65.2998 78.6921 62.9379 75.1319C60.5759 71.5717 71.256 63.4848 71.256 63.4848C71.2616 63.4772 71.2722 63.4751 71.2799 63.4807Z" fill="#FFA206" stroke="black" stroke-width="2.99685" stroke-linecap="round" stroke-linejoin="round"/>
<path d="M62.8111 57.5563L58.6844 54.5725C59.3423 55.4772 45.9224 62.5138 41.8905 61.736C41.8905 61.736 50.1322 67.9237 54.2632 69.0587C58.3943 70.1937 62.8146 57.5802 62.8146 57.5802C62.8201 57.5726 62.8188 57.5619 62.8111 57.5563Z" fill="#FFA206" stroke="black" stroke-width="2.99685" stroke-linecap="round" stroke-linejoin="round"/>
<path d="M89.2089 30.0479C84.1871 26.4167 69.1784 38.4671 61.5822 48.8804C56.5457 55.7958 53.741 63.4696 54.2728 68.8787L62.9279 75.1373C68.2589 73.9675 74.7206 68.9381 79.7677 62.0304C87.3639 51.6171 94.2307 33.6792 89.2089 30.0479Z" fill="#FFA206" stroke="black" stroke-width="2.99685" stroke-linecap="round" stroke-linejoin="round"/>
<path d="M90.3474 39.394C90.0345 39.3945 89.7134 39.3762 89.3859 39.3391C88.7944 39.2472 88.1887 39.0968 87.5803 38.8905C86.9719 38.6843 86.3645 38.4236 85.7697 38.1133C85.1749 37.8031 84.5962 37.4452 84.0448 37.0465C83.4934 36.6477 82.9726 36.2106 82.4922 35.7433C82.0119 35.2761 81.575 34.7817 81.1897 34.2695C80.8045 33.7572 80.4734 33.2303 80.2027 32.6987C80.0802 32.4277 79.9742 32.1569 79.8851 31.8877C79.6939 31.9992 79.5039 32.1077 79.3106 32.2254C78.9898 32.4208 78.6662 32.6246 78.3402 32.8363C78.0143 33.048 77.6861 33.2677 77.3561 33.4948C77.026 33.7218 76.6942 33.9561 76.3611 34.1974C75.6949 34.68 75.0236 35.19 74.3517 35.7232C73.6797 36.2564 73.0069 36.8128 72.3376 37.3882C71.6683 37.9635 71.0026 38.5578 70.3445 39.1669C69.6863 39.7759 69.0359 40.3998 68.3975 41.0341C67.759 41.6684 67.1325 42.3132 66.5222 42.9644C65.912 43.6155 65.318 44.273 64.7444 44.9325C64.1708 45.592 63.6177 46.2535 63.0893 46.9129C62.5609 47.5723 62.057 48.2295 61.5822 48.8804C61.2675 49.3126 60.9614 49.7478 60.6643 50.1852C60.3672 50.6226 60.0793 51.0622 59.8004 51.5034C59.5216 51.9445 59.252 52.3871 58.992 52.8304C58.7319 53.2738 58.4814 53.7179 58.2407 54.162C58 54.6061 57.769 55.0502 57.5482 55.4936C57.3273 55.9369 57.1165 56.3796 56.916 56.8208C56.7156 57.262 56.5254 57.7017 56.3458 58.1392C56.1663 58.5768 55.9976 59.0121 55.8396 59.4445C55.6815 59.8768 55.5342 60.3063 55.3982 60.7321C55.2622 61.1578 55.1374 61.5798 55.024 61.9975C54.9105 62.4151 54.8085 62.8284 54.7182 63.2365C54.6278 63.6446 54.5491 64.0474 54.4824 64.4444C54.4156 64.8415 54.3609 65.2327 54.3184 65.6172C54.2759 66.0017 54.2455 66.3796 54.2276 66.7501C54.2098 67.1206 54.2046 67.4837 54.212 67.8388C54.2195 68.1938 54.2397 68.5407 54.273 68.8788L62.9281 75.1374C63.2613 75.0643 63.5988 74.976 63.9402 74.8732C64.2816 74.7705 64.6269 74.6531 64.9752 74.5216C65.3236 74.3901 65.675 74.2445 66.0291 74.0853C66.3832 73.9261 66.74 73.7533 67.0986 73.5673C67.4571 73.3813 67.8176 73.1822 68.1794 72.9704C68.5412 72.7586 68.9044 72.5341 69.2682 72.2975C69.632 72.0609 69.9966 71.8121 70.3611 71.5517C70.7257 71.2912 71.0903 71.019 71.4544 70.7356C71.8184 70.4522 72.182 70.1576 72.5443 69.8523C72.9067 69.547 73.2678 69.231 73.6272 68.9047C73.9866 68.5785 74.3443 68.242 74.6994 67.8957C75.0546 67.5494 75.4073 67.1934 75.757 66.8281C76.1067 66.4629 76.4533 66.0882 76.7963 65.7048C77.1393 65.3215 77.4787 64.9293 77.8137 64.5289C78.1488 64.1284 78.4797 63.7198 78.8055 63.3032C79.1314 62.8866 79.4524 62.4622 79.7678 62.0305C80.2426 61.3796 80.7145 60.6993 81.1808 59.995C81.6471 59.2907 82.108 58.5625 82.5605 57.8154C83.0129 57.0683 83.4571 56.3025 83.8902 55.5233C84.3234 54.7441 84.7454 53.9514 85.1538 53.1507C85.5621 52.35 85.9568 51.5412 86.335 50.7297C86.7131 49.9182 87.0748 49.104 87.4172 48.2923C87.7597 47.4807 88.0831 46.6716 88.3845 45.8704C88.6859 45.0693 88.9654 44.2759 89.2202 43.4959C89.3476 43.1059 89.4688 42.7192 89.5835 42.3365C89.6983 41.9538 89.8066 41.5751 89.908 41.201C90.0094 40.827 90.1039 40.4574 90.1913 40.0933C90.2481 39.8566 90.2968 39.6261 90.3474 39.394Z" fill="#E0E0E0" stroke="black" stroke-width="2.99685" stroke-linecap="round" stroke-linejoin="round"/>
<path d="M72.4338 53.4112C74.8322 55.1456 78.1888 54.6157 79.9307 52.2277C81.6727 49.8397 81.1405 46.4979 78.742 44.7635C76.3435 43.0291 72.987 43.559 71.245 45.947C69.5031 48.335 70.0353 51.6769 72.4338 53.4112Z" fill="#FFA206" stroke="black" stroke-width="3.29653" stroke-linecap="round" stroke-linejoin="round"/>
<path d="M73.2939 52.2319C75.0382 53.4933 77.4793 53.1079 78.7462 51.3712C80.0131 49.6345 79.6261 47.204 77.8817 45.9427C76.1373 44.6813 73.6962 45.0667 72.4294 46.8034C71.1625 48.5402 71.5495 50.9706 73.2939 52.2319Z" fill="#6ADCF3" stroke="black" stroke-width="2.99685" stroke-linecap="round" stroke-linejoin="round"/>
<path d="M66.9111 62.5539C67.0848 62.3157 67.0317 61.9824 66.7925 61.8094C66.5533 61.6364 66.2185 61.6893 66.0448 61.9275L57.7775 73.2607C57.6038 73.4989 57.6569 73.8322 57.8961 74.0051C58.1353 74.1781 58.4701 74.1253 58.6438 73.8871L66.9111 62.5539Z" fill="#FFA206" stroke="black" stroke-width="2.99685" stroke-linecap="round" stroke-linejoin="round"/>
<path d="M73.7305 10.3422C72.6481 10.4583 71.9429 12.1013 72.1494 14.026L72.9277 21.2811C73.1342 23.2058 74.1718 24.6619 75.2542 24.5458C76.3365 24.4297 77.0418 22.7867 76.8353 20.8619L76.057 13.6068C75.8505 11.6821 74.8128 10.2261 73.7305 10.3422ZM75.4389 26.2681C74.8428 26.3321 74.2964 26.6302 73.9201 27.097C73.5438 27.5638 73.3683 28.1609 73.4322 28.7571C73.4961 29.3533 73.7943 29.8996 74.2611 30.276C74.7279 30.6523 75.325 30.8279 75.9212 30.7639C76.2164 30.7323 76.5025 30.6428 76.7631 30.5005C77.0237 30.3583 77.2538 30.1661 77.4402 29.935C77.6265 29.7039 77.7655 29.4383 77.8492 29.1534C77.9329 28.8686 77.9597 28.57 77.928 28.2748C77.8641 27.6786 77.5659 27.1323 77.0991 26.7559C76.6323 26.3796 76.0351 26.2041 75.4389 26.2681Z" fill="#F30000"/>
<path d="M61.7559 21.3749C61.15 21.8608 61.3578 23.1193 62.2219 24.1966L65.4786 28.2576C66.3426 29.335 67.5259 29.8112 68.1318 29.3253C68.7377 28.8394 68.5299 27.5809 67.6659 26.5035L64.4091 22.4425C63.5451 21.3652 62.3617 20.889 61.7559 21.3749ZM68.9049 30.2894C68.5712 30.557 68.3575 30.9462 68.3108 31.3714C68.2641 31.7966 68.3881 32.2229 68.6557 32.5566C68.9234 32.8904 69.3126 33.1041 69.7378 33.1508C70.163 33.1976 70.5894 33.0735 70.9231 32.8059C71.0883 32.6734 71.2258 32.5096 71.3278 32.3239C71.4298 32.1383 71.4941 31.9343 71.5173 31.7238C71.5404 31.5132 71.5219 31.3002 71.4627 31.0968C71.4035 30.8934 71.3048 30.7037 71.1723 30.5385C70.9046 30.2048 70.5154 29.9911 70.0902 29.9443C69.665 29.8976 69.2386 30.0217 68.9049 30.2894Z" fill="#F30000"/>
</svg>
