<?xml version="1.0" encoding="UTF-8" standalone="no"?>
<!-- Created with Inkscape (http://www.inkscape.org/) -->

<svg
   width="432mm"
   height="432mm"
   viewBox="0 0 432 432"
   version="1.1"
   id="svg1"
   xml:space="preserve"
   inkscape:version="1.3 (0e150ed, 2023-07-21)"
   sodipodi:docname="blastoff_icon.svg"
   inkscape:export-filename="godot-specific/main_icon.png"
   inkscape:export-xdpi="25.400002"
   inkscape:export-ydpi="25.400002"
   xmlns:inkscape="http://www.inkscape.org/namespaces/inkscape"
   xmlns:sodipodi="http://sodipodi.sourceforge.net/DTD/sodipodi-0.dtd"
   xmlns:xlink="http://www.w3.org/1999/xlink"
   xmlns="http://www.w3.org/2000/svg"
   xmlns:svg="http://www.w3.org/2000/svg"><sodipodi:namedview
     id="namedview1"
     pagecolor="#b4dafe"
     bordercolor="#666666"
     borderopacity="1.0"
     inkscape:showpageshadow="2"
     inkscape:pageopacity="0.0"
     inkscape:pagecheckerboard="0"
     inkscape:deskcolor="#d1d1d1"
     inkscape:document-units="mm"
     inkscape:zoom="0.16882525"
     inkscape:cx="858.87626"
     inkscape:cy="1080.9994"
     inkscape:window-width="1366"
     inkscape:window-height="699"
     inkscape:window-x="0"
     inkscape:window-y="0"
     inkscape:window-maximized="1"
     inkscape:current-layer="layer1" /><defs
     id="defs1"><linearGradient
       id="paint0_linear_21428_292"
       x1="-2.75"
       y1="-1.75"
       x2="108"
       y2="108"
       gradientUnits="userSpaceOnUse"
       gradientTransform="matrix(4.0162782,0,0,4.0162782,-0.53060878,-1.8490765)"><stop
         offset="0.0249942"
         stop-color="#94B9FF"
         id="stop1" /><stop
         offset="0.988775"
         stop-color="#4385FF"
         id="stop2" /></linearGradient><linearGradient
       id="linearGradient12"
       inkscape:collect="always"><stop
         style="stop-color:#ffffff;stop-opacity:1;"
         offset="0.4643189"
         id="stop12" /><stop
         style="stop-color:#9be6f8;stop-opacity:1;"
         offset="1"
         id="stop13" /></linearGradient><radialGradient
       inkscape:collect="always"
       xlink:href="#linearGradient12"
       id="radialGradient13"
       cx="109.775"
       cy="99.203911"
       fx="109.775"
       fy="99.203911"
       r="10.755774"
       gradientUnits="userSpaceOnUse"
       spreadMethod="pad" /></defs><g
     inkscape:label="Layer 1"
     inkscape:groupmode="layer"
     id="layer1"><rect
       width="433.75806"
       height="433.75806"
       fill="url(#paint0_linear_21428_292)"
       id="rect1"
       x="-0.53058529"
       y="-1.8491569"
       style="display:inline;fill:url(#paint0_linear_21428_292);stroke-width:4.01628" /><g
       id="g1"
       inkscape:label="Foreground"
       transform="translate(0.1573973,-6.1477556)"
       style="display:inline"><g
         id="g78"
         inkscape:label="Icon"
         transform="matrix(1.2168798,0,0,1.2168798,130.03556,10.993382)"
         style="display:inline"><g
           id="g81"><path
             id="path78"
             style="fill:#ffffff;fill-opacity:1;stroke-width:6.61458;stroke-linecap:round;stroke-linejoin:round;stroke-dashoffset:47.2176"
             d="m 24.743116,213.22485 c -2.307479,2.85428 -3.220567,6.58453 -2.485787,10.15524 -1.005486,0.83831 -1.942563,1.78937 -2.784474,2.82602 -5.031186,6.19485 -5.642074,14.03301 -1.364442,17.50682 2.427869,1.96863 6.052202,2.17627 9.791868,0.56097 0.625921,1.08952 1.433175,2.04733 2.39015,2.83591 4.902953,3.98199 17.718508,7.89727 22.177177,2.40721 2.405535,-2.97242 3.498489,-6.74886 2.979942,-10.29646 1.522696,-0.29981 -2.400029,-6.19627 -1.484892,-7.31511 2.136748,-2.64767 1.73125,-6.75457 -0.97244,-9.84893 1.36552,-0.79413 2.590431,-1.8398 3.605516,-3.07792 l 6.754143,-25.57921 -23.998181,11.5744 c -0.980818,1.22097 -1.740278,2.60074 -2.237285,4.06464 -4.558573,-1.12426 -9.383288,0.50842 -12.371295,4.18642 z"
             sodipodi:nodetypes="ccccccccccccccc"
             inkscape:label="smoke" /><path
             id="path34"
             style="opacity:0.455;fill:#ffffff;fill-opacity:1;stroke-width:6.61458;stroke-linecap:round;stroke-linejoin:round;stroke-dashoffset:47.2176"
             d="m 8.5620711,252.99193 c -0.941516,3.54753 -0.252542,7.3256 1.8756699,10.28542 -0.5757529,1.17571 -1.0430349,2.42642 -1.3885039,3.71642 -2.064527,7.70887 0.577016,15.11375 5.8999819,16.53906 3.019944,0.80623 6.413384,-0.48353 9.168061,-3.48454 1.016109,0.73916 2.144,1.28407 3.339499,1.61337 6.101248,1.63401 19.398761,-0.0225 21.228298,-6.85429 0.982812,-3.69539 0.439187,-7.58904 -1.482191,-10.61603 1.267714,-0.89521 -4.720085,-4.67704 -4.341313,-6.07197 0.869984,-3.28922 -1.176474,-6.87294 -4.907696,-8.59427 0.922464,-1.28232 1.613896,-2.73689 2.035226,-4.2815 L 35.7146,219.13531 18.530633,239.49681 c -0.397046,1.51497 -0.527197,3.08455 -0.383414,4.62382 -4.620446,0.83428 -8.3585809,4.29403 -9.5851479,8.8713 z"
             sodipodi:nodetypes="ccccccccccccccc"
             inkscape:label="smoke" /></g><g
           id="g76"
           transform="translate(-17.723507,36.676743)"><path
             id="path12-1"
             style="display:inline;opacity:0.5;fill:#000000;fill-opacity:1;stroke:none;stroke-width:2.26695;stroke-linecap:round;stroke-linejoin:round;stroke-dasharray:none;stroke-dashoffset:47.2176;stroke-opacity:1"
             inkscape:label="rocket shadow"
             d="m 103.65859,43.366596 c -4.057376,2.962763 -7.791902,8.96233 -10.991559,16.666462 -0.355452,0.855858 -0.704537,1.733447 -1.046504,2.629547 -0.342028,0.89627 -0.676669,1.811287 -1.004626,2.744158 -0.327957,0.93287 -0.648828,1.883445 -0.962135,2.84926 -2.824276,8.70625 -5.011681,18.674351 -6.409425,28.570162 -0.152872,1.081803 -0.3261,2.16546 -0.459035,3.243745 -0.539609,4.37691 -0.912901,8.71013 -1.102049,12.88297 -0.09457,2.08635 -0.143329,4.13276 -0.143328,6.12423 0.001,1.32179 0.02406,2.63691 0.06794,3.94344 0.04387,1.30653 0.108644,2.60415 0.194302,3.89169 l 3.59e-4,4.9e-4 c 0.171316,2.5749 0.425052,5.10801 0.757064,7.58452 l 3.59e-4,4.9e-4 c 0.215162,1.60485 0.474632,3.17585 0.754312,4.72903 -3.476138,9.49553 -15.163318,30.77474 -22.344716,34.12731 0,0 25.440443,0.45682 35.331043,-3.25361 0.273884,-0.10274 0.530064,-0.23026 0.77477,-0.37462 l 12.347478,5.2e-4 2e-4,3.70107 c 0,0.73103 0.5885,1.31978 1.31953,1.31978 0.73104,0 1.31927,-0.58893 1.31927,-1.31997 l -2e-4,-3.70107 10.36391,-6e-5 c 0.006,-0.007 0.0124,-0.0155 0.0188,-0.0227 9.8954,3.7077 35.32384,3.25065 35.32384,3.25065 -7.26982,-3.39385 -19.15029,-25.14709 -22.46255,-34.4612 0.0189,-0.1095 0.0426,-0.21494 0.0612,-0.3247 l 4.9e-4,-3.6e-4 c 0.20458,-1.20812 0.39022,-2.43178 0.55623,-3.67011 l -3.6e-4,-5e-4 c 0.49803,-3.71498 0.82005,-7.55722 0.95164,-11.47679 0.0439,-1.30652 0.0671,-2.6216 0.0682,-3.94338 0,-1.99146 -0.0493,-4.03777 -0.14387,-6.12411 -0.37829,-8.34542 -1.49444,-17.333338 -3.20022,-26.027024 -0.42645,-2.173419 -0.88965,-4.327809 -1.38746,-6.449879 -0.99561,-4.244144 -2.12898,-8.356734 -3.38221,-12.219998 -0.31331,-0.965815 -0.63424,-1.916178 -0.9622,-2.849048 -0.32796,-0.932871 -0.66312,-1.848313 -1.00515,-2.744583 -0.34203,-0.89627 -0.69079,-1.773333 -1.04629,-2.629346 -0.23111,-0.556444 -0.46973,-1.088765 -0.70632,-1.626924 -4.49508,-10.224329 -9.96321,-17.073142 -15.86761,-17.073165 -1.91237,9e-6 -3.77993,0.71688 -5.5832,2.033663 z"
             transform="matrix(0.68714398,0.49687808,-0.49906013,0.68413955,92.580299,-4.8045952)" /></g><g
           id="g80"><path
             id="path75"
             style="fill:#f30000;fill-opacity:1;stroke:none;stroke-width:1.28452;stroke-linecap:round;stroke-linejoin:round;stroke-dashoffset:47.2176"
             d="m 92.976979,63.287637 c -2.26585,0.243072 -3.74196,3.682549 -3.30972,7.711749 l 1.62928,15.187764 c 0.43224,4.0292 2.60431,7.077315 4.87016,6.834244 2.26585,-0.243073 3.7422,-3.682576 3.30997,-7.711775 l -1.62929,-15.187765 c -0.43224,-4.0292 -2.60456,-7.07729 -4.8704,-6.834217 z m 3.5765,33.339173 a 4.7328667,4.7328667 0 0 0 -4.20086,5.21047 4.7328667,4.7328667 0 0 0 5.2105,4.20111 4.7328667,4.7328667 0 0 0 4.201071,-5.21075 4.7328667,4.7328667 0 0 0 -5.210711,-4.20083 z"
             inkscape:label="Exclamation mark" /><path
             id="path77"
             style="fill:#f30000;fill-opacity:1;stroke:none;stroke-width:0.916399;stroke-linecap:round;stroke-linejoin:round;stroke-dashoffset:47.2176"
             d="m 67.909406,86.383478 c -1.268287,1.017121 -0.833203,3.65166 0.975497,5.906971 l 6.817686,8.501311 c 1.8087,2.25532 4.285847,3.2522 5.554147,2.23507 1.2683,-1.01712 0.833337,-3.651763 -0.975338,-5.90709 l -6.81771,-8.501292 c -1.8087,-2.255323 -4.285982,-3.252101 -5.554282,-2.23497 z M 82.87519,105.04496 a 3.3765117,3.3765117 0 0 0 -0.521637,4.74632 3.3765117,3.3765117 0 0 0 4.746443,0.52177 3.3765117,3.3765117 0 0 0 0.521649,-4.74658 3.3765117,3.3765117 0 0 0 -4.746455,-0.52151 z"
             inkscape:label="Exclamation mark" /></g></g><g
         inkscape:label="Layer 1"
         id="layer1-5"
         transform="matrix(0.6410089,0.44160711,-0.44160711,0.6410089,243.7187,44.354584)"><path
           id="path12"
           style="display:none;fill:#ffffff;fill-opacity:1;stroke:#ffffff;stroke-width:11.3357;stroke-linecap:round;stroke-linejoin:round;stroke-dasharray:none;stroke-dashoffset:47.2176;stroke-opacity:1"
           inkscape:label="Outline"
           d="m 109.24158,41.332808 c -5.92703,2.9e-5 -11.414976,6.902139 -15.919748,17.191687 -0.219014,0.500258 -0.440238,0.99265 -0.65452,1.508598 -0.355516,0.856013 -0.70458,1.733134 -1.046606,2.629404 -0.342028,0.89627 -0.676863,1.811737 -1.004821,2.744609 -0.327957,0.93287 -0.648947,1.883064 -0.962253,2.848879 -0.626615,1.93163 -1.223292,3.925747 -1.787823,5.96722 -0.564532,2.041473 -1.096705,4.130624 -1.594513,6.252694 -0.497809,2.122069 -0.961092,4.276881 -1.387535,6.450299 -0.426444,2.17342 -0.81606,4.365296 -1.166498,6.560819 -0.350438,2.195521 -0.662003,4.394704 -0.931792,6.583073 -0.269791,2.18839 -0.497747,4.36588 -0.682247,6.51786 -0.184502,2.152 -0.325243,4.27843 -0.419815,6.36478 -0.09457,2.08635 -0.143323,4.13274 -0.143322,6.12421 0.001,1.32179 0.02369,2.63699 0.06756,3.94352 0.04387,1.30654 0.109214,2.60443 0.194871,3.89197 0.08566,1.28754 0.191905,2.56468 0.318278,3.82949 0.126374,1.26481 0.272933,2.51734 0.43895,3.75568 0.166017,1.23833 0.351518,2.46241 0.556108,3.67054 0.0606,0.35783 0.134486,0.70374 0.198386,1.05871 -3.475985,9.49537 -15.163179,30.77458 -22.344662,34.12719 0,0 25.440186,0.45697 35.330786,-3.25346 0.273737,-0.10269 0.530211,-0.23025 0.774802,-0.37451 h 12.347614 v 3.70139 c 0,0.73104 0.58856,1.31958 1.31959,1.31958 0.73104,0 1.31958,-0.58854 1.31958,-1.31958 v -3.70139 h 10.36375 c 0.006,-0.007 0.0124,-0.0155 0.0187,-0.0226 9.8957,3.70753 35.32376,3.25072 35.32376,3.25072 -7.26956,-3.39373 -19.14909,-25.14607 -22.46182,-34.46069 1.05912,-6.13561 1.63118,-12.68734 1.6363,-19.41651 0,-1.99147 -0.0487,-4.03786 -0.14332,-6.12421 -0.0946,-2.08635 -0.23492,-4.21278 -0.41943,-6.36478 -0.738,-8.607959 -2.17722,-17.623764 -4.16846,-26.112051 -0.49781,-2.12207 -1.02998,-4.211221 -1.59451,-6.252694 -0.56453,-2.041473 -1.16121,-4.03559 -1.78782,-5.96722 -0.31331,-0.965815 -0.6343,-1.916009 -0.96226,-2.848879 -0.32796,-0.932872 -0.66279,-1.848339 -1.00482,-2.744609 -0.34203,-0.89627 -0.6911,-1.773391 -1.0466,-2.629404 -0.23111,-0.556444 -0.46948,-1.088769 -0.70607,-1.626927 -4.49509,-10.224359 -9.9634,-17.073335 -15.86781,-17.073358 z"
           transform="matrix(1.3232558,0,0,1.3232558,-39.52117,11.541872)" /><g
           id="g10"
           inkscape:label="Rocket"
           transform="matrix(1.3232558,0,0,1.3232558,-39.521171,11.541872)"
           style="display:inline"><g
             id="g9"
             inkscape:label="mainbody"
             style="display:inline;stroke:#000000;stroke-width:2.26714;stroke-dasharray:none;stroke-opacity:1"><path
               id="path2"
               style="display:inline;fill:#fb4343;fill-opacity:1;stroke:#000000;stroke-width:2.26714;stroke-linecap:round;stroke-linejoin:round;stroke-dasharray:none;stroke-dashoffset:47.2176;stroke-opacity:1"
               d="m 122.12367,134.27696 12.57184,5.2e-4 c -2.62847,0.85924 13.89946,34.39436 23.0725,38.67671 0,0 -25.44019,0.457 -35.3308,-3.25343 -9.8906,-3.71043 -0.3552,-35.38095 -0.3552,-35.38095 -1e-5,-0.0233 0.0186,-0.0429 0.0419,-0.0429 z"
               sodipodi:nodetypes="ccccscc"
               inkscape:label="leg_right" /><path
               id="path3"
               style="display:inline;fill:#fb4343;fill-opacity:1;stroke:#000000;stroke-width:2.26714;stroke-linecap:round;stroke-linejoin:round;stroke-dasharray:none;stroke-dashoffset:47.2176;stroke-opacity:1"
               d="m 96.613873,134.67686 -12.57184,5.2e-4 c 2.62847,0.85924 -13.89946,34.39436 -23.0725,38.67671 0,0 25.44019,0.457 35.3308,-3.25343 9.890597,-3.71043 0.3552,-35.38095 0.3552,-35.38095 10e-6,-0.0233 -0.0186,-0.0429 -0.0419,-0.0429 z"
               sodipodi:nodetypes="ccccscc"
               inkscape:label="leg_left" /><path
               id="path5"
               style="display:inline;fill:#fb4343;fill-opacity:1;stroke:#000000;stroke-width:2.26714;stroke-linecap:round;stroke-linejoin:round;stroke-dasharray:none;stroke-dashoffset:47.2176;stroke-opacity:1"
               d="m 109.24139,41.332878 c -15.298936,7.3e-5 -27.701153,45.880546 -27.701147,77.744092 0.0162,21.14869 5.586876,40.58388 14.51746,50.6491 H 122.4256 c 8.93039,-10.0655 14.50085,-29.50064 14.51695,-50.6491 10e-6,-31.863556 -12.40222,-77.744034 -27.70116,-77.744092 z"
               sodipodi:nodetypes="cccccc"
               inkscape:label="tip" /><path
               d="m 125.10939,58.406166 a 22.435568,14.411161 0 0 1 -1.99754,1.282874 22.435568,14.411161 0 0 1 -4.25399,1.716748 22.435568,14.411161 0 0 1 -4.74175,1.065742 22.435568,14.411161 0 0 1 -4.99247,0.361626 22.435568,14.411161 0 0 1 -4.99247,-0.361626 22.435568,14.411161 0 0 1 -4.742143,-1.065742 22.435568,14.411161 0 0 1 -4.253988,-1.716748 22.435568,14.411161 0 0 1 -1.813207,-1.164545 c -0.219014,0.500259 -0.440238,0.99265 -0.65452,1.508598 -0.355517,0.856014 -0.704579,1.733133 -1.046606,2.629404 -0.342028,0.896271 -0.676863,1.811737 -1.004821,2.744609 -0.327957,0.932871 -0.648946,1.883063 -0.962253,2.848879 -0.626615,1.931632 -1.223291,3.925745 -1.787823,5.96722 -0.564532,2.041475 -1.096704,4.130622 -1.594513,6.252694 -0.497809,2.122071 -0.961091,4.276878 -1.387535,6.450299 -0.426444,2.173422 -0.81606,4.365294 -1.166498,6.560819 -0.350438,2.195524 -0.662002,4.394697 -0.931792,6.583073 -0.269791,2.18839 -0.497746,4.36587 -0.682247,6.51786 -0.184502,2.152 -0.325243,4.27843 -0.419815,6.36478 -0.09457,2.08635 -0.143323,4.13274 -0.143322,6.12421 0.001,1.32179 0.02369,2.63699 0.06756,3.94352 0.04387,1.30654 0.109213,2.60443 0.194871,3.89197 0.08566,1.28754 0.191905,2.56468 0.318278,3.82949 0.126374,1.26481 0.272933,2.51734 0.43895,3.75568 0.166017,1.23833 0.351518,2.46241 0.556108,3.67054 0.204589,1.20813 0.42805,2.4003 0.67014,3.57447 0.24209,1.17418 0.502531,2.33059 0.78105,3.46708 0.278519,1.1365 0.575348,2.25291 0.889225,3.34797 0.313877,1.09507 0.644942,2.16881 0.993105,3.21871 0.348163,1.0499 0.713264,2.07595 1.094641,3.07695 0.381378,1.001 0.779143,1.97667 1.192663,2.92503 0.41352,0.94836 0.842579,1.86942 1.28717,2.7614 0.444592,0.89198 0.904743,1.75498 1.379334,2.58684 0.474591,0.83186 0.963683,1.63294 1.467202,2.40094 0.50352,0.76801 1.021351,1.50294 1.552727,2.20334 0.531376,0.70041 1.076576,1.36612 1.634737,1.9952 H 122.4257 c 0.55815,-0.6291 1.10298,-1.29477 1.63435,-1.9952 0.53136,-0.70042 1.04922,-1.43571 1.55272,-2.20373 0.50351,-0.76801 0.99263,-1.56868 1.4672,-2.40055 0.47458,-0.83187 0.93476,-1.69485 1.37934,-2.58684 0.44458,-0.89199 0.87366,-1.81304 1.28717,-2.7614 0.41351,-0.94837 0.8113,-1.92403 1.19266,-2.92503 0.38137,-1.00101 0.74649,-2.02744 1.09464,-3.07734 0.34815,-1.0499 0.67924,-2.12325 0.99311,-3.21832 0.31386,-1.09506 0.61032,-2.21187 0.88883,-3.34836 0.27851,-1.13648 0.53897,-2.29251 0.78105,-3.46669 0.24208,-1.17417 0.46595,-2.36635 0.67053,-3.57447 0.20458,-1.20812 0.3901,-2.43221 0.55611,-3.67054 0.16601,-1.23833 0.3122,-2.49088 0.43856,-3.75568 0.12637,-1.2648 0.23263,-2.54196 0.31828,-3.82949 0.0856,-1.28753 0.15101,-2.58545 0.19487,-3.89197 0.0439,-1.30652 0.0665,-2.62174 0.0676,-3.94352 0,-1.99147 -0.0487,-4.03786 -0.14332,-6.12421 -0.0946,-2.08635 -0.23492,-4.21278 -0.41943,-6.36478 -0.1845,-2.15199 -0.41284,-4.32947 -0.68263,-6.51786 -0.26979,-2.188377 -0.58136,-4.387549 -0.9318,-6.583073 -0.35043,-2.195525 -0.74005,-4.387397 -1.16649,-6.560819 -0.42645,-2.173421 -0.88973,-4.328227 -1.38754,-6.450299 -0.49781,-2.122072 -1.02998,-4.211219 -1.59451,-6.252694 -0.56453,-2.041475 -1.16121,-4.035588 -1.78782,-5.96722 -0.31331,-0.965816 -0.6343,-1.916008 -0.96226,-2.848879 -0.32796,-0.932872 -0.66279,-1.848338 -1.00482,-2.744609 -0.34203,-0.896271 -0.69109,-1.77339 -1.0466,-2.629404 -0.23111,-0.556444 -0.46948,-1.088768 -0.70607,-1.626927 z"
               style="display:inline;fill:#ffffff;fill-opacity:1;stroke:#000000;stroke-linecap:round;stroke-linejoin:round;stroke-dashoffset:47.2176;stroke-opacity:1"
               id="path7"
               inkscape:label="main body" /><circle
               style="display:inline;fill:#fb4343;fill-opacity:1;stroke:#000000;stroke-width:2.49385;stroke-linecap:round;stroke-linejoin:round;stroke-dasharray:none;stroke-dashoffset:47.2176;stroke-opacity:1"
               id="circle8"
               cx="109.775"
               cy="99.203911"
               r="13.23053"
               inkscape:label="outer" /><circle
               style="fill:url(#radialGradient13);fill-opacity:1;stroke:#000000;stroke-width:2.26714;stroke-linecap:round;stroke-linejoin:round;stroke-dasharray:none;stroke-dashoffset:47.2176;stroke-opacity:1"
               id="circle9"
               cx="109.775"
               cy="99.203911"
               r="9.6222038"
               inkscape:label="inner" /><rect
               style="fill:#fb4343;fill-opacity:1;stroke:#000000;stroke-width:2.26714;stroke-linecap:round;stroke-linejoin:round;stroke-dasharray:none;stroke-dashoffset:47.2176;stroke-opacity:1"
               id="rect9"
               width="2.6391168"
               height="37.317585"
               x="109.42294"
               y="137.4294"
               ry="1.3195584" /></g></g></g></g></g></svg>
