<?xml version="1.0" encoding="UTF-8" standalone="no"?>
<svg
   width="108"
   height="108"
   viewBox="0 0 108 108"
   fill="none"
   version="1.1"
   id="svg1"
   sodipodi:docname="mythemedicon.svg"
   inkscape:export-filename="mono-icon.png"
   inkscape:export-xdpi="640"
   inkscape:export-ydpi="640"
   inkscape:version="1.3 (0e150ed, 2023-07-21)"
   xmlns:inkscape="http://www.inkscape.org/namespaces/inkscape"
   xmlns:sodipodi="http://sodipodi.sourceforge.net/DTD/sodipodi-0.dtd"
   xmlns="http://www.w3.org/2000/svg"
   xmlns:svg="http://www.w3.org/2000/svg">
  <defs
     id="defs1" />
  <sodipodi:namedview
     id="namedview1"
     pagecolor="#ffffff"
     bordercolor="#666666"
     borderopacity="1.0"
     inkscape:showpageshadow="2"
     inkscape:pageopacity="0.0"
     inkscape:pagecheckerboard="0"
     inkscape:deskcolor="#d1d1d1"
     inkscape:zoom="2.6666667"
     inkscape:cx="53.999999"
     inkscape:cy="54.187499"
     inkscape:window-width="1366"
     inkscape:window-height="731"
     inkscape:window-x="1366"
     inkscape:window-y="0"
     inkscape:window-maximized="1"
     inkscape:current-layer="svg1" />
  <path
     d="M59.806 85.5292C56.6247 83.207 53.6197 80.5784 52.5177 79.1536C52.2481 78.8052 51.7634 78.394 50.7868 77.6853C50.0407 77.1439 49.4022 76.7 49.3679 76.6989C49.3337 76.6977 49.1342 76.9298 48.9247 77.2146C48.4159 77.9061 48.2832 77.9818 48.0279 77.7264C47.8242 77.5227 47.8697 77.3484 48.2705 76.7975C48.4755 76.5158 48.6433 76.2512 48.6433 76.2097C48.6433 76.1681 47.908 75.6041 47.0094 74.9564C45.7972 74.0827 45.268 73.7505 44.9591 73.6693C43.336 73.2429 39.7462 71.1626 35.9514 68.4494L35.1471 67.8743L35.7857 67.8243C36.4742 67.7704 37.7921 67.5094 37.7897 67.4274C37.7889 67.3999 37.39 67.1163 36.9032 66.7974C35.5651 65.9206 33.297 64.3128 33.1183 64.1144C32.9898 63.9716 32.9769 63.902 33.0496 63.7424C33.1347 63.5558 33.1873 63.5441 34.119 63.5049C34.8486 63.4742 35.3445 63.3986 36.0605 63.209C38.3914 62.5917 42.0349 61.0105 44.7096 59.4555L45.7049 58.8769L46.0966 58.1089C48.6073 53.1859 53.2383 47.6717 58.6779 43.1281C63.5269 39.0777 67.8023 36.878 70.5131 37.0389C71.5038 37.0977 72.0899 37.337 72.6719 37.9204C73.4286 38.6788 73.7958 39.6689 73.8827 41.1851C73.9225 41.8798 73.9635 42.0719 74.1156 42.2767C74.7413 43.119 74.9945 44.1083 74.9945 45.7109C74.9945 48.9674 73.6704 53.5525 71.2018 58.8444C68.7765 64.0435 65.7832 68.5783 62.5913 71.889L61.66 72.8549L61.4408 73.7197C61.1793 74.751 60.809 76.925 60.6019 78.6436C60.4875 79.5929 60.4525 80.4825 60.4536 82.4128C60.4548 84.7266 60.4697 84.9917 60.6294 85.5607C60.7252 85.9024 60.7943 86.1921 60.7828 86.2045C60.7714 86.2169 60.3318 85.913 59.806 85.5292ZM58.5862 80.8324C58.3208 78.7876 58.6411 74.1479 59.2544 71.1542C59.3423 70.7256 59.4041 70.365 59.3919 70.3527C59.3797 70.3405 59.1463 70.5173 58.8733 70.7457C56.5508 72.6881 53.9677 74.2557 52.1144 74.8473C51.711 74.9761 51.38 75.1092 51.379 75.1432C51.3729 75.3353 53.2442 77.1755 54.6496 78.3595C55.9095 79.4209 58.5915 81.5034 58.6457 81.4625C58.6569 81.4541 58.6301 81.1706 58.5862 80.8324ZM51.9155 74.0673C55.6814 72.7684 60.229 69.0241 63.7633 64.3122C67.3921 59.4744 70.7736 52.645 72.2916 47.0883C72.4524 46.4997 72.5723 46.0065 72.558 45.9922C72.5437 45.9779 72.2548 45.9131 71.916 45.8483C69.0557 45.3008 65.9857 43.0971 64.6221 40.6126C64.4085 40.2235 64.2497 40.0191 64.1889 40.0551C59.7972 42.6605 53.6726 48.3755 50.0921 53.2093C46.7956 57.6595 44.6529 62.3635 43.9968 66.5903C43.9438 66.932 43.8958 67.7299 43.8902 68.3633L43.88 69.5149L45.449 70.6532C47.0107 71.7862 47.0186 71.7907 47.1562 71.614C47.2323 71.5164 48.5155 69.759 50.0079 67.7087C51.5002 65.6584 52.8136 63.882 52.9266 63.7612C53.0395 63.6404 53.231 63.5227 53.3521 63.4995C53.9123 63.3924 54.4764 63.9826 54.2987 64.4898C54.253 64.6199 52.9014 66.5279 51.295 68.7298C49.6564 70.9757 48.406 72.7639 48.4466 72.8033C48.4864 72.842 49.0036 73.2278 49.5959 73.6608C50.8124 74.55 50.6157 74.5156 51.9155 74.0673ZM60.1581 58.2541C57.8461 57.8106 56.1875 55.8262 56.183 53.4982C56.1791 51.5422 57.4521 49.7223 59.3106 49.0269C61.5792 48.1781 64.1862 49.2166 65.2722 51.4018C66.5659 54.0049 65.2323 57.1928 62.4836 58.0679C61.9511 58.2374 60.6246 58.3436 60.1581 58.2541ZM61.5663 57.3913C62.7751 57.1998 63.9306 56.3842 64.4496 55.356C64.7952 54.6713 64.8986 54.2284 64.8919 53.4601C64.882 52.3299 64.4865 51.443 63.6448 50.6637C62.792 49.8742 61.8782 49.5535 60.6998 49.6302C59.1126 49.7336 57.8449 50.6934 57.2536 52.2394C57.007 52.8845 56.9894 54.0045 57.2151 54.7C57.6642 56.0842 58.9414 57.1764 60.3652 57.3939C60.9616 57.4851 60.9749 57.485 61.5663 57.3913ZM60.5723 57.0859C58.6214 56.8873 57.1068 54.9363 57.4155 53.0195C57.5771 52.0163 58.0585 51.2211 58.8633 50.6279C60.457 49.4533 62.8122 49.8425 63.9244 51.4642C64.4036 52.1629 64.5652 52.7498 64.5312 53.6672C64.5062 54.3413 64.4645 54.5341 64.2407 55.0112C63.5866 56.4058 62.1078 57.2421 60.5723 57.0859ZM62.1765 56.0298C62.7702 55.749 63.4077 55.0569 63.6079 54.4759C63.6989 54.2119 63.7575 53.808 63.7566 53.4518C63.7538 52.3481 63.0364 51.3218 61.9927 50.9283C61.3642 50.6913 60.2942 50.7291 59.7563 51.0074C59.2119 51.2891 58.6965 51.8088 58.4448 52.33C58.255 52.723 58.2185 52.9094 58.2152 53.5016C58.2119 54.0951 58.2458 54.2792 58.4307 54.6736C59.0954 56.0914 60.767 56.6967 62.1765 56.0298ZM46.9865 73.3004C47.0838 73.1637 47.1448 73.0518 47.122 73.0518C47.0992 73.0518 47.001 73.1637 46.9036 73.3004C46.8063 73.4371 46.7453 73.5489 46.7681 73.5489C46.7909 73.5489 46.8891 73.4371 46.9865 73.3004ZM47.3284 72.824C47.4314 72.6926 47.4285 72.6897 47.2971 72.7928C47.2174 72.8553 47.1521 72.9205 47.1521 72.9377C47.1521 73.0059 47.2202 72.962 47.3284 72.824ZM47.8115 72.1743C47.9672 71.9576 48.0588 71.8023 48.0151 71.8293C47.9713 71.8564 47.8082 72.0558 47.6526 72.2726C47.4969 72.4893 47.4053 72.6446 47.449 72.6176C47.4927 72.5905 47.6558 72.3911 47.8115 72.1743ZM48.2396 71.5814C48.3427 71.45 48.3397 71.4471 48.2084 71.5502C48.1286 71.6127 48.0634 71.6779 48.0634 71.6951C48.0634 71.7633 48.1314 71.7194 48.2396 71.5814ZM48.5604 71.1465C48.6578 71.0098 48.7187 70.898 48.696 70.898C48.6732 70.898 48.5749 71.0098 48.4776 71.1465C48.3803 71.2832 48.3193 71.395 48.342 71.395C48.3648 71.395 48.4631 71.2832 48.5604 71.1465ZM48.9024 70.6702C49.0054 70.5388 49.0025 70.5359 48.8711 70.6389C48.7913 70.7014 48.7261 70.7667 48.7261 70.7839C48.7261 70.8521 48.7941 70.8082 48.9024 70.6702ZM49.2231 70.2353C49.3205 70.0986 49.3815 69.9868 49.3587 69.9868C49.3359 69.9868 49.2376 70.0986 49.1403 70.2353C49.043 70.372 48.982 70.4838 49.0048 70.4838C49.0275 70.4838 49.1258 70.372 49.2231 70.2353ZM49.5651 69.7589C49.6681 69.6276 49.6652 69.6246 49.5338 69.7277C49.4541 69.7902 49.3888 69.8554 49.3888 69.8726C49.3888 69.9408 49.4569 69.8969 49.5651 69.7589ZM49.8859 69.324C49.9832 69.1874 50.0442 69.0755 50.0214 69.0755C49.9986 69.0755 49.9004 69.1874 49.803 69.324C49.7057 69.4607 49.6447 69.5726 49.6675 69.5726C49.6903 69.5726 49.7885 69.4607 49.8859 69.324ZM43.0808 68.3376C43.0956 66.234 43.6966 63.5869 44.7438 61.0133C44.9232 60.5724 45.0553 60.2116 45.0372 60.2116C45.0192 60.2116 44.5837 60.4414 44.0694 60.7221C41.0599 62.3653 36.9454 63.9651 35.0374 64.234L34.6445 64.2894L35.2461 64.7211C37.6175 66.4226 40.5199 68.1816 42.224 68.95C42.6791 69.1553 43.0566 69.3234 43.0627 69.3236C43.0688 69.3238 43.0769 68.8801 43.0808 68.3376ZM50.2278 68.8477C50.3308 68.7163 50.3279 68.7134 50.1965 68.8164C50.1168 68.879 50.0516 68.9442 50.0516 68.9614C50.0516 69.0296 50.1196 68.9857 50.2278 68.8477ZM50.4763 68.5163C50.5794 68.385 50.5764 68.382 50.445 68.4851C50.3653 68.5476 50.3001 68.6128 50.3001 68.63C50.3001 68.6982 50.3681 68.6543 50.4763 68.5163ZM50.7971 68.0814C50.8944 67.9447 50.9554 67.8329 50.9327 67.8329C50.9099 67.8329 50.8116 67.9447 50.7143 68.0814C50.6169 68.2181 50.5559 68.33 50.5787 68.33C50.6015 68.33 50.6998 68.2181 50.7971 68.0814ZM51.139 67.6051C51.2421 67.4737 51.2392 67.4708 51.1078 67.5738C51.028 67.6364 50.9628 67.7016 50.9628 67.7188C50.9628 67.787 51.0308 67.7431 51.139 67.6051ZM51.4598 67.1702C51.5572 67.0335 51.6182 66.9217 51.5954 66.9217C51.5726 66.9217 51.4743 67.0335 51.377 67.1702C51.2797 67.3069 51.2187 67.4187 51.2415 67.4187C51.2642 67.4187 51.3625 67.3069 51.4598 67.1702ZM51.8018 66.6939C51.9048 66.5625 51.9019 66.5595 51.7705 66.6626C51.6908 66.7251 51.6255 66.7904 51.6255 66.8076C51.6255 66.8757 51.6935 66.8319 51.8018 66.6939ZM52.1226 66.2589C52.2199 66.1223 52.2809 66.0104 52.2581 66.0104C52.2353 66.0104 52.137 66.1223 52.0397 66.2589C51.9424 66.3956 51.8814 66.5075 51.9042 66.5075C51.927 66.5075 52.0252 66.3956 52.1226 66.2589ZM52.4645 65.7826C52.5675 65.6512 52.5646 65.6483 52.4332 65.7513C52.3535 65.8139 52.2882 65.8791 52.2882 65.8963C52.2882 65.9645 52.3563 65.9206 52.4645 65.7826ZM52.713 65.4513C52.816 65.3199 52.8131 65.3169 52.6817 65.42C52.602 65.4825 52.5368 65.5477 52.5368 65.565C52.5368 65.6331 52.6048 65.5893 52.713 65.4513ZM53.0338 65.0163C53.1311 64.8797 53.1921 64.7678 53.1693 64.7678C53.1466 64.7678 53.0483 64.8797 52.951 65.0163C52.8536 65.153 52.7926 65.2649 52.8154 65.2649C52.8382 65.2649 52.9365 65.153 53.0338 65.0163ZM53.3757 64.54C53.4788 64.4086 53.4758 64.4057 53.3445 64.5087C53.2647 64.5713 53.1995 64.6365 53.1995 64.6537C53.1995 64.7219 53.2675 64.678 53.3757 64.54ZM72.8241 44.6998C73.1335 43.1363 73.1956 41.1116 72.9642 40.1314C72.5401 38.3346 71.4632 37.5996 69.6113 37.8432C69.2188 37.8948 68.5063 38.0669 68.0279 38.2256C67.0596 38.5469 65.1404 39.457 65.0757 39.6255C64.975 39.888 65.896 41.2434 66.785 42.1409C67.8318 43.1978 69.0803 44.0361 70.3857 44.5588C71.1358 44.8592 72.103 45.1237 72.4747 45.1301C72.7271 45.1345 72.7416 45.1167 72.8241 44.6998ZM55.5874 40.2079C54.634 39.5601 55.0075 38.0249 56.156 37.8708C56.6095 37.81 57.1996 38.0752 57.4218 38.4397C57.645 38.8058 57.6464 39.4495 57.4248 39.813C57.052 40.4244 56.1813 40.6115 55.5874 40.2079ZM60.4685 38.3893C59.148 37.918 58.8064 36.2201 59.848 35.3055C60.2398 34.9615 60.65 34.8362 61.2442 34.8792C61.8972 34.9264 62.3534 35.2388 62.664 35.8512C63.0518 36.6161 62.936 37.3262 62.3233 37.9389C61.7811 38.4811 61.1531 38.6336 60.4685 38.3893ZM53.5272 37.1613C53.1546 36.9393 52.7942 36.543 51.4749 34.9039C49.6179 32.597 49.4414 32.3079 49.4349 31.5625C49.4309 31.1078 49.4564 31.0164 49.6258 30.879C49.882 30.6714 50.3995 30.6737 50.8348 30.8844C51.3031 31.1111 51.6475 31.4847 53.3182 33.5785C54.8448 35.4916 55.1048 35.9365 55.1048 36.6355C55.1048 37.4592 54.4138 37.6895 53.5272 37.1613ZM60.0332 33.2188C59.5517 32.9252 59.1258 32.2015 58.9283 31.3418C58.7325 30.4892 58.1536 24.654 58.1924 23.9238C58.2472 22.8922 58.5879 22.1984 59.1947 21.8828C59.8986 21.5167 60.7978 22.3304 61.1837 23.6826C61.3967 24.4288 62.0003 30.2991 61.9585 31.2175C61.9163 32.1451 61.699 32.7407 61.2631 33.1235C60.9257 33.4196 60.426 33.4584 60.0332 33.2188Z"
     fill="black"
     id="path1" />
</svg>
