<?xml version="1.0" encoding="UTF-8" standalone="no"?>
<!-- Created with Inkscape (http://www.inkscape.org/) -->

<svg
   width="210mm"
   height="297mm"
   viewBox="0 0 210 297"
   version="1.1"
   id="svg1"
   xml:space="preserve"
   inkscape:version="1.3 (0e150ed, 2023-07-21)"
   sodipodi:docname="rocket_shielf.svg"
   inkscape:export-filename="../../../Games/Vertical Scroller/rocket.png"
   inkscape:export-xdpi="120"
   inkscape:export-ydpi="120"
   xmlns:inkscape="http://www.inkscape.org/namespaces/inkscape"
   xmlns:sodipodi="http://sodipodi.sourceforge.net/DTD/sodipodi-0.dtd"
   xmlns:xlink="http://www.w3.org/1999/xlink"
   xmlns="http://www.w3.org/2000/svg"
   xmlns:svg="http://www.w3.org/2000/svg"><sodipodi:namedview
     id="namedview1"
     pagecolor="#ffffff"
     bordercolor="#666666"
     borderopacity="1.0"
     inkscape:showpageshadow="2"
     inkscape:pageopacity="0.0"
     inkscape:pagecheckerboard="true"
     inkscape:deskcolor="#d1d1d1"
     inkscape:document-units="mm"
     inkscape:zoom="0.4531823"
     inkscape:cx="263.69079"
     inkscape:cy="508.62533"
     inkscape:window-width="1366"
     inkscape:window-height="699"
     inkscape:window-x="0"
     inkscape:window-y="0"
     inkscape:window-maximized="1"
     inkscape:current-layer="layer1"
     showgrid="false" /><defs
     id="defs1"><linearGradient
       id="linearGradient12"
       inkscape:collect="always"><stop
         style="stop-color:#ffffff;stop-opacity:1;"
         offset="0.4643189"
         id="stop12" /><stop
         style="stop-color:#9be6f8;stop-opacity:1;"
         offset="1"
         id="stop13" /></linearGradient><radialGradient
       inkscape:collect="always"
       xlink:href="#linearGradient12"
       id="radialGradient13"
       cx="109.775"
       cy="99.203911"
       fx="109.775"
       fy="99.203911"
       r="10.755774"
       gradientUnits="userSpaceOnUse"
       spreadMethod="pad" /></defs><g
     inkscape:label="Layer 1"
     inkscape:groupmode="layer"
     id="layer1"><g
       id="g9"
       inkscape:label="Rocket"
       style="display:inline"
       sodipodi:insensitive="true"><path
         id="path1"
         style="display:inline;fill:#fb4343;fill-opacity:1;stroke:#000000;stroke-width:2.26714;stroke-linecap:round;stroke-linejoin:round;stroke-dasharray:none;stroke-dashoffset:47.2176;stroke-opacity:1"
         inkscape:label="leg_right"
         d="m 135.30638,138.49345 c -0.18914,1.09552 -0.38956,2.18187 -0.60961,3.24916 -0.24208,1.17418 -0.50254,2.33024 -0.78105,3.46669 -0.27851,1.13649 -0.57497,2.25333 -0.88883,3.34836 -0.31387,1.09507 -0.64496,2.16842 -0.99311,3.21832 -0.34815,1.0499 -0.71327,2.07633 -1.09464,3.07734 -0.38136,1.001 -0.77915,1.97666 -1.19266,2.92503 -0.41351,0.94836 -0.84259,1.86941 -1.28717,2.7614 -0.44458,0.89199 -0.90476,1.75497 -1.37934,2.58684 -0.47454,0.83187 -0.96369,1.63254 -1.4672,2.40055 -0.5035,0.76802 -1.02136,1.50334 -1.55272,2.20373 -0.52532,0.69245 -1.06412,1.34979 -1.61561,1.97255 9.8957,3.70753 35.32376,3.25072 35.32376,3.25072 -7.26956,-3.39373 -19.14909,-25.14607 -22.46182,-34.46069 z"
         transform="matrix(1.3232558,0,0,1.3232558,-39.52117,11.541872)" /><path
         id="path4"
         style="display:inline;fill:#fb4343;fill-opacity:1;stroke:#000000;stroke-width:2.26714;stroke-linecap:round;stroke-linejoin:round;stroke-dasharray:none;stroke-dashoffset:47.2176;stroke-opacity:1"
         inkscape:label="leg_left"
         d="m 83.314241,139.22685 c -3.475985,9.49537 -15.163179,30.77458 -22.344662,34.12719 0,0 25.440186,0.45697 35.330786,-3.25346 0.273737,-0.10269 0.530211,-0.23025 0.774802,-0.37451 h -1.017318 c -0.558158,-0.62908 -1.103361,-1.29479 -1.634737,-1.9952 -0.531373,-0.70037 -1.049207,-1.43533 -1.552727,-2.20334 -0.503516,-0.768 -0.992611,-1.56908 -1.467202,-2.40094 -0.474588,-0.83186 -0.934742,-1.69486 -1.379334,-2.58684 -0.444588,-0.89198 -0.87365,-1.81304 -1.28717,-2.7614 -0.413517,-0.94836 -0.811285,-1.92403 -1.192663,-2.92503 -0.381374,-1.001 -0.746478,-2.02705 -1.094641,-3.07695 -0.348163,-1.0499 -0.679228,-2.12364 -0.993105,-3.21871 -0.313874,-1.09503 -0.610706,-2.21147 -0.889225,-3.34797 -0.278519,-1.13646 -0.53896,-2.2929 -0.78105,-3.46708 -0.170385,-0.82638 -0.319907,-1.67223 -0.471754,-2.51576 z"
         transform="matrix(1.3232558,0,0,1.3232558,-39.52117,11.541872)" /><path
         id="path7"
         style="display:inline;fill:#fb4343;fill-opacity:1;stroke:#000000;stroke-width:2.26714;stroke-linecap:round;stroke-linejoin:round;stroke-dasharray:none;stroke-dashoffset:47.2176;stroke-opacity:1"
         inkscape:label="tip"
         d="m 109.24158,41.332808 c -5.92703,2.9e-5 -11.414976,6.902139 -15.919748,17.191687 a 22.435568,14.411161 0 0 0 1.813207,1.164545 22.435568,14.411161 0 0 0 4.253988,1.716748 22.435568,14.411161 0 0 0 4.742143,1.065742 22.435568,14.411161 0 0 0 4.99247,0.361626 22.435568,14.411161 0 0 0 4.99247,-0.361626 22.435568,14.411161 0 0 0 4.74175,-1.065742 22.435568,14.411161 0 0 0 4.25399,-1.716748 22.435568,14.411161 0 0 0 1.99754,-1.282874 C 120.6143,48.181807 115.14599,41.332831 109.24158,41.332808 Z m 1.50079,96.096462 c -0.73104,0 -1.31959,0.58855 -1.31959,1.31958 v 30.97722 h 2.63917 v -30.97722 c 0,-0.73103 -0.58855,-1.31958 -1.31958,-1.31958 z"
         transform="matrix(1.3232558,0,0,1.3232558,-39.52117,11.541872)" /><path
         id="path8"
         style="display:inline;fill:#ffffff;fill-opacity:1;stroke:#000000;stroke-width:2.26714;stroke-linecap:round;stroke-linejoin:round;stroke-dasharray:none;stroke-dashoffset:47.2176;stroke-opacity:1"
         inkscape:label="main body - Permanent"
         d="m 125.10939,58.406166 a 22.435568,14.411161 0 0 1 -1.99754,1.282874 22.435568,14.411161 0 0 1 -4.25399,1.716748 22.435568,14.411161 0 0 1 -4.74175,1.065742 22.435568,14.411161 0 0 1 -4.99247,0.361626 22.435568,14.411161 0 0 1 -4.99247,-0.361626 22.435568,14.411161 0 0 1 -4.742143,-1.065742 22.435568,14.411161 0 0 1 -4.253988,-1.716748 22.435568,14.411161 0 0 1 -1.813207,-1.164545 c -0.219014,0.500257 -0.440238,0.99265 -0.65452,1.508598 -0.355515,0.856012 -0.704581,1.733135 -1.046606,2.629404 -0.342028,0.896269 -0.676863,1.811737 -1.004821,2.744609 -0.327957,0.932869 -0.648948,1.883065 -0.962253,2.848879 -0.626615,1.931628 -1.223293,3.925749 -1.787823,5.96722 -0.564532,2.041471 -1.096706,4.130626 -1.594513,6.252694 -0.497809,2.122067 -0.961093,4.276884 -1.387535,6.450299 -0.426444,2.173418 -0.81606,4.365298 -1.166498,6.560819 -0.350438,2.195518 -0.662004,4.394711 -0.931792,6.583073 -0.269791,2.18839 -0.497748,4.36589 -0.682247,6.51786 -0.184502,2.152 -0.325243,4.27843 -0.419815,6.36478 -0.09457,2.08635 -0.143323,4.13274 -0.143322,6.12421 0.001,1.32179 0.02369,2.63699 0.06756,3.94352 0.04387,1.30654 0.109215,2.60443 0.194871,3.89197 0.08566,1.28754 0.191905,2.56468 0.318278,3.82949 0.126374,1.26481 0.272933,2.51734 0.43895,3.75568 0.166017,1.23833 0.351518,2.46241 0.556108,3.67054 0.204587,1.20813 0.428052,2.40032 0.67014,3.57447 0.24209,1.17418 0.502531,2.33061 0.78105,3.46708 0.278519,1.1365 0.57535,2.25293 0.889225,3.34797 0.313877,1.09507 0.644942,2.16881 0.993105,3.21871 0.348163,1.0499 0.713266,2.07595 1.094641,3.07695 0.381378,1.001 0.779145,1.97667 1.192663,2.92503 0.41352,0.94836 0.842581,1.86942 1.28717,2.7614 0.444592,0.89198 0.904745,1.75498 1.379334,2.58684 0.474591,0.83186 0.963685,1.63294 1.467202,2.40094 0.50352,0.76801 1.021353,1.50296 1.552727,2.20334 0.531376,0.70041 1.076578,1.36612 1.634737,1.9952 h 13.364932 v -30.97722 c 0,-0.73103 0.58855,-1.31958 1.31959,-1.31958 0.73103,0 1.31958,0.58855 1.31958,1.31958 v 30.97722 h 10.36375 c 0.55815,-0.6291 1.10298,-1.29477 1.63435,-1.9952 0.53136,-0.7004 1.04922,-1.43571 1.55272,-2.20373 0.50351,-0.76801 0.99265,-1.56868 1.4672,-2.40055 0.47458,-0.83187 0.93476,-1.69485 1.37934,-2.58684 0.44458,-0.89199 0.87366,-1.81304 1.28717,-2.7614 0.41351,-0.94837 0.8113,-1.92403 1.19266,-2.92503 0.38137,-1.00101 0.74649,-2.02744 1.09464,-3.07734 0.34815,-1.0499 0.67924,-2.12325 0.99311,-3.21832 0.31386,-1.09504 0.61032,-2.21187 0.88883,-3.34836 0.27851,-1.13646 0.53897,-2.29251 0.78105,-3.46669 0.24208,-1.17415 0.46595,-2.36635 0.67053,-3.57447 0.20458,-1.20812 0.3901,-2.43221 0.55611,-3.67054 0.16601,-1.23833 0.3122,-2.49088 0.43856,-3.75568 0.12637,-1.2648 0.23263,-2.54196 0.31828,-3.82949 0.0856,-1.28753 0.15101,-2.58545 0.19487,-3.89197 0.0439,-1.30652 0.0665,-2.62174 0.0676,-3.94352 0,-1.99147 -0.0487,-4.03786 -0.14332,-6.12421 -0.0946,-2.08635 -0.23492,-4.21278 -0.41943,-6.36478 -0.1845,-2.15197 -0.41284,-4.32947 -0.68263,-6.51786 -0.26979,-2.188363 -0.58136,-4.387555 -0.9318,-6.583073 -0.35041,-2.195521 -0.74005,-4.387401 -1.16649,-6.560819 -0.42645,-2.173415 -0.88973,-4.328231 -1.38754,-6.450299 -0.49781,-2.122068 -1.02998,-4.211223 -1.59451,-6.252694 -0.56453,-2.041471 -1.16121,-4.035592 -1.78782,-5.96722 -0.31331,-0.965814 -0.6343,-1.91601 -0.96226,-2.848879 -0.32796,-0.932872 -0.66279,-1.84834 -1.00482,-2.744609 -0.34203,-0.896269 -0.69111,-1.773392 -1.0466,-2.629404 -0.23111,-0.556444 -0.46948,-1.08877 -0.70607,-1.626927 z"
         transform="matrix(1.3232558,0,0,1.3232558,-39.52117,11.541872)" /><path
         id="path9"
         style="display:inline;fill:#fb4343;fill-opacity:1;stroke:#000000;stroke-width:2.49385;stroke-linecap:round;stroke-linejoin:round;stroke-dasharray:none;stroke-dashoffset:47.2176;stroke-opacity:1"
         inkscape:label="outer ring"
         d="M 109.77504,85.973318 A 13.23053,13.23053 0 0 0 96.544443,99.20391 13.23053,13.23053 0 0 0 109.77504,112.4345 13.23053,13.23053 0 0 0 123.00563,99.20391 13.23053,13.23053 0 0 0 109.77504,85.973318 Z m 0,3.60845 a 9.6222038,9.6222038 0 0 1 9.62214,9.622142 9.6222038,9.6222038 0 0 1 -9.62214,9.62214 9.6222038,9.6222038 0 0 1 -9.62215,-9.62214 9.6222038,9.6222038 0 0 1 9.62215,-9.622142 z"
         transform="matrix(1.3232558,0,0,1.3232558,-39.52117,11.541872)" /><rect
         style="display:inline;fill:#fb4343;fill-opacity:1;stroke:#000000;stroke-width:2.26714;stroke-linecap:round;stroke-linejoin:round;stroke-dasharray:none;stroke-dashoffset:47.2176;stroke-opacity:1"
         id="rect9"
         width="2.6391168"
         height="37.317585"
         x="109.42294"
         y="137.4294"
         ry="1.3195584"
         transform="matrix(1.3232558,0,0,1.3232558,-39.52117,11.541872)" /><circle
         style="display:inline;fill:url(#radialGradient13);fill-opacity:1;stroke:#000000;stroke-width:2.26714;stroke-linecap:round;stroke-linejoin:round;stroke-dasharray:none;stroke-dashoffset:47.2176;stroke-opacity:1"
         id="circle9"
         cx="109.775"
         cy="99.203911"
         r="9.6222038"
         inkscape:label="inner - Permanent"
         transform="matrix(1.3232558,0,0,1.3232558,-39.52117,11.541872)" /></g><g
       id="g1"
       inkscape:label="Rocket silhoutte"
       transform="matrix(1.2699517,0,0,1.1428435,-28.398868,-25.467734)"
       style="stroke:none;fill:#10baba;fill-opacity:0.20507771"><path
         id="path2"
         style="display:inline;fill:#10baba;fill-opacity:0.20507771;stroke:none;stroke-width:2.26714;stroke-linecap:round;stroke-linejoin:round;stroke-dasharray:none;stroke-dashoffset:47.2176;stroke-opacity:1"
         inkscape:label="leg_right"
         d="m 109.24158,41.332808 c -5.92703,2.9e-5 -11.414981,6.902149 -15.919749,17.191687 -0.219013,0.500256 -0.440238,0.99265 -0.654519,1.508598 -0.355515,0.856011 -0.704582,1.733136 -1.046607,2.629404 -0.342028,0.896268 -0.676863,1.811737 -1.004821,2.744609 -0.327956,0.932868 -0.648948,1.883066 -0.962253,2.848879 -0.626614,1.931626 -1.223293,3.925751 -1.787823,5.96722 -0.564531,2.041469 -1.096707,4.130628 -1.594513,6.252694 -0.497809,2.122065 -0.961093,4.276887 -1.387535,6.450299 -0.426444,2.173416 -0.81606,4.3653 -1.166498,6.560819 -0.350437,2.195515 -0.662004,4.394718 -0.931792,6.583073 -0.269791,2.18839 -0.497748,4.3659 -0.682247,6.51786 -0.184502,2.152 -0.325243,4.27843 -0.419814,6.36478 -0.09457,2.08635 -0.143324,4.13274 -0.143323,6.12421 0.001,1.32179 0.02369,2.63699 0.06756,3.94352 0.04387,1.30654 0.109216,2.60443 0.194872,3.89197 0.08566,1.28754 0.191905,2.56468 0.318277,3.82949 0.126374,1.26481 0.272934,2.51734 0.43895,3.75568 0.166017,1.23833 0.351518,2.46241 0.556108,3.67054 0.0606,0.35783 0.134486,0.70374 0.198387,1.05871 -3.475982,9.49536 -15.163187,30.77459 -22.344663,34.12719 0,0 25.440197,0.45697 35.330787,-3.25346 0.273736,-0.10269 0.53021,-0.23025 0.774801,-0.37451 h 12.347615 v 3.70139 c 0,0.73104 0.58856,1.31958 1.31959,1.31958 0.73103,0 1.31958,-0.58854 1.31958,-1.31958 v -3.70139 h 10.36375 c 0.006,-0.007 0.0124,-0.0155 0.0187,-0.0226 0.55149,-0.62276 1.09029,-1.2801 1.61561,-1.97255 0.53135,-0.70039 1.04922,-1.43571 1.55272,-2.20373 0.50351,-0.76801 0.99265,-1.56868 1.4672,-2.40055 0.47458,-0.83187 0.93476,-1.69485 1.37934,-2.58684 0.44458,-0.89199 0.87366,-1.81304 1.28717,-2.7614 0.41351,-0.94837 0.8113,-1.92403 1.19266,-2.92503 0.38137,-1.00101 0.74649,-2.02744 1.09464,-3.07734 0.34815,-1.0499 0.67924,-2.12325 0.99311,-3.21832 0.31386,-1.09503 0.61032,-2.21187 0.88883,-3.34836 0.27851,-1.13645 0.53897,-2.29251 0.78105,-3.46669 0.22005,-1.06729 0.42047,-2.15364 0.60961,-3.24916 0.0189,-0.10968 0.0423,-0.21537 0.0609,-0.32531 0.20458,-1.20812 0.3901,-2.43221 0.55611,-3.67054 0.16601,-1.23833 0.3122,-2.49088 0.43856,-3.75568 0.12637,-1.2648 0.23263,-2.54196 0.31828,-3.82949 0.0856,-1.28753 0.15101,-2.58545 0.19487,-3.89197 0.0439,-1.30652 0.0665,-2.62174 0.0676,-3.94352 0,-1.99147 -0.0487,-4.03786 -0.14332,-6.12421 -0.0946,-2.08635 -0.23492,-4.21278 -0.41943,-6.36478 -0.1845,-2.15196 -0.41284,-4.32947 -0.68263,-6.51786 -0.26979,-2.188356 -0.58136,-4.387558 -0.9318,-6.583073 -0.35041,-2.195519 -0.74005,-4.387403 -1.16649,-6.560819 -0.42645,-2.173412 -0.88973,-4.328233 -1.38754,-6.450299 -0.49781,-2.122066 -1.02998,-4.211225 -1.59451,-6.252694 -0.56453,-2.041469 -1.16122,-4.035594 -1.78782,-5.96722 -0.31331,-0.965813 -0.6343,-1.916011 -0.96226,-2.848879 -0.32796,-0.932872 -0.66279,-1.848341 -1.00482,-2.744609 -0.34203,-0.896268 -0.69112,-1.773393 -1.04661,-2.629404 -0.23111,-0.556444 -0.46947,-1.088771 -0.70606,-1.626927 -4.49509,-10.224349 -9.96341,-17.073335 -15.86781,-17.073358 z m 26.0648,97.160642 c -0.18914,1.09552 -0.38956,2.18188 -0.60961,3.24916 -0.24208,1.17418 -0.50254,2.33025 -0.78105,3.46669 -0.27851,1.13649 -0.57497,2.25334 -0.88883,3.34836 -0.31387,1.09507 -0.64496,2.16842 -0.99311,3.21832 -0.34815,1.0499 -0.71327,2.07633 -1.09464,3.07734 -0.38136,1.001 -0.77915,1.97666 -1.19266,2.92503 -0.41351,0.94836 -0.84259,1.86941 -1.28717,2.7614 -0.44458,0.89199 -0.90476,1.75497 -1.37934,2.58684 -0.47454,0.83187 -0.96369,1.63254 -1.4672,2.40055 -0.5035,0.76802 -1.02137,1.50335 -1.55272,2.20373 -0.52532,0.69245 -1.06412,1.34979 -1.61561,1.97255 9.89569,3.70752 35.32376,3.25072 35.32376,3.25072 -7.26955,-3.39372 -19.14909,-25.14608 -22.46182,-34.46069 z m -51.520385,3.24916 c 0.242089,1.17418 0.502531,2.33062 0.781049,3.46708 0.278519,1.1365 0.575351,2.25294 0.889226,3.34797 0.313876,1.09507 0.644942,2.16881 0.993104,3.21871 0.348163,1.0499 0.713267,2.07595 1.094642,3.07695 0.381377,1.001 0.779145,1.97667 1.192663,2.92503 0.413519,0.94836 0.842581,1.86942 1.28717,2.7614 0.444591,0.89198 0.904745,1.75498 1.379334,2.58684 0.47459,0.83186 0.963685,1.63294 1.467202,2.40094 0.503519,0.76801 1.021353,1.50297 1.552726,2.20334 0.531376,0.70041 1.076579,1.36612 1.634738,1.9952 -0.558158,-0.62908 -1.103362,-1.29479 -1.634738,-1.9952 -0.531372,-0.70036 -1.049207,-1.43533 -1.552726,-2.20334 -0.503516,-0.768 -0.992612,-1.56908 -1.467202,-2.40094 -0.474588,-0.83186 -0.934743,-1.69486 -1.379334,-2.58684 -0.444588,-0.89198 -0.873651,-1.81304 -1.28717,-2.7614 -0.413517,-0.94836 -0.811286,-1.92403 -1.192663,-2.92503 -0.381374,-1.001 -0.746479,-2.02705 -1.094642,-3.07695 -0.348162,-1.0499 -0.679228,-2.12364 -0.993104,-3.21871 -0.313874,-1.09502 -0.610707,-2.21147 -0.889226,-3.34797 -0.278518,-1.13645 -0.53896,-2.2929 -0.781049,-3.46708 z"
         transform="matrix(1.3232558,0,0,1.3232558,-39.52117,11.541872)" /></g></g></svg>
