<?xml version="1.0" encoding="UTF-8" standalone="no"?>
<!-- Created with Inkscape (http://www.inkscape.org/) -->

<svg
   width="210mm"
   height="297mm"
   viewBox="0 0 210 297"
   version="1.1"
   id="svg1"
   xml:space="preserve"
   inkscape:version="1.3 (0e150ed, 2023-07-21)"
   sodipodi:docname="rocket.svg"
   inkscape:export-filename="../../../Games/Vertical Scroller/rocket.png"
   inkscape:export-xdpi="120"
   inkscape:export-ydpi="120"
   xmlns:inkscape="http://www.inkscape.org/namespaces/inkscape"
   xmlns:sodipodi="http://sodipodi.sourceforge.net/DTD/sodipodi-0.dtd"
   xmlns="http://www.w3.org/2000/svg"
   xmlns:svg="http://www.w3.org/2000/svg"><sodipodi:namedview
     id="namedview1"
     pagecolor="#ffffff"
     bordercolor="#666666"
     borderopacity="1.0"
     inkscape:showpageshadow="2"
     inkscape:pageopacity="0.0"
     inkscape:pagecheckerboard="0"
     inkscape:deskcolor="#d1d1d1"
     inkscape:document-units="mm"
     inkscape:zoom="0.19780754"
     inkscape:cx="-75.831285"
     inkscape:cy="265.4095"
     inkscape:window-width="1366"
     inkscape:window-height="699"
     inkscape:window-x="0"
     inkscape:window-y="0"
     inkscape:window-maximized="1"
     inkscape:current-layer="g15"
     showgrid="false" /><defs
     id="defs1" /><g
     inkscape:label="Layer 1"
     inkscape:groupmode="layer"
     id="layer1"><g
       id="g1"
       inkscape:label="Rocket"
       transform="matrix(1.3232558,0,0,1.3232558,-39.521171,11.541872)"><g
         id="g15"
         inkscape:label="mainbody"
         style="display:inline;stroke:#000000;stroke-opacity:1;stroke-width:2.26713535;stroke-dasharray:none"><path
           id="path12"
           style="display:inline;fill:#ffa206;fill-opacity:1;stroke-width:2.26713535;stroke-linecap:round;stroke-linejoin:round;stroke-dashoffset:47.2176;stroke:#000000;stroke-opacity:1;stroke-dasharray:none"
           d="m 122.12367,134.27696 12.57184,5.2e-4 c -2.62847,0.85924 13.89946,34.39436 23.0725,38.67671 0,0 -25.44019,0.457 -35.3308,-3.25343 -9.8906,-3.71043 -0.3552,-35.38095 -0.3552,-35.38095 -1e-5,-0.0233 0.0186,-0.0429 0.0419,-0.0429 z"
           sodipodi:nodetypes="ccccscc"
           inkscape:label="leg_right" /><path
           id="path1"
           style="display:inline;fill:#ffa206;fill-opacity:1;stroke:#000000;stroke-width:2.26714;stroke-linecap:round;stroke-linejoin:round;stroke-dasharray:none;stroke-dashoffset:47.2176;stroke-opacity:1"
           d="m 96.613873,134.67686 -12.57184,5.2e-4 c 2.62847,0.85924 -13.89946,34.39436 -23.0725,38.67671 0,0 25.44019,0.457 35.3308,-3.25343 9.890597,-3.71043 0.3552,-35.38095 0.3552,-35.38095 10e-6,-0.0233 -0.0186,-0.0429 -0.0419,-0.0429 z"
           sodipodi:nodetypes="ccccscc"
           inkscape:label="leg_left" /><path
           id="path4"
           style="display:inline;fill:#ffa206;fill-opacity:1;stroke:#000000;stroke-width:2.26714;stroke-linecap:round;stroke-linejoin:round;stroke-dasharray:none;stroke-dashoffset:47.2176;stroke-opacity:1"
           d="m 109.24139,41.332878 c -15.298936,7.3e-5 -27.701153,45.880546 -27.701147,77.744092 0.0162,21.14869 5.586876,40.58388 14.51746,50.6491 H 122.4256 c 8.93039,-10.0655 14.50085,-29.50064 14.51695,-50.6491 10e-6,-31.863556 -12.40222,-77.744034 -27.70116,-77.744092 z"
           sodipodi:nodetypes="cccccc"
           inkscape:label="tip" /><path
           d="m 125.10939,58.406166 a 22.435568,14.411161 0 0 1 -1.99754,1.282874 22.435568,14.411161 0 0 1 -4.25399,1.716748 22.435568,14.411161 0 0 1 -4.74175,1.065742 22.435568,14.411161 0 0 1 -4.99247,0.361626 22.435568,14.411161 0 0 1 -4.99247,-0.361626 22.435568,14.411161 0 0 1 -4.742143,-1.065742 22.435568,14.411161 0 0 1 -4.253988,-1.716748 22.435568,14.411161 0 0 1 -1.813207,-1.164545 c -0.219014,0.500259 -0.440238,0.99265 -0.65452,1.508598 -0.355517,0.856014 -0.704579,1.733133 -1.046606,2.629404 -0.342028,0.896271 -0.676863,1.811737 -1.004821,2.744609 -0.327957,0.932871 -0.648946,1.883063 -0.962253,2.848879 -0.626615,1.931632 -1.223291,3.925745 -1.787823,5.96722 -0.564532,2.041475 -1.096704,4.130622 -1.594513,6.252694 -0.497809,2.122071 -0.961091,4.276878 -1.387535,6.450299 -0.426444,2.173422 -0.81606,4.365294 -1.166498,6.560819 -0.350438,2.195524 -0.662002,4.394697 -0.931792,6.583073 -0.269791,2.18839 -0.497746,4.36587 -0.682247,6.51786 -0.184502,2.152 -0.325243,4.27843 -0.419815,6.36478 -0.09457,2.08635 -0.143323,4.13274 -0.143322,6.12421 0.001,1.32179 0.02369,2.63699 0.06756,3.94352 0.04387,1.30654 0.109213,2.60443 0.194871,3.89197 0.08566,1.28754 0.191905,2.56468 0.318278,3.82949 0.126374,1.26481 0.272933,2.51734 0.43895,3.75568 0.166017,1.23833 0.351518,2.46241 0.556108,3.67054 0.204589,1.20813 0.42805,2.4003 0.67014,3.57447 0.24209,1.17418 0.502531,2.33059 0.78105,3.46708 0.278519,1.1365 0.575348,2.25291 0.889225,3.34797 0.313877,1.09507 0.644942,2.16881 0.993105,3.21871 0.348163,1.0499 0.713264,2.07595 1.094641,3.07695 0.381378,1.001 0.779143,1.97667 1.192663,2.92503 0.41352,0.94836 0.842579,1.86942 1.28717,2.7614 0.444592,0.89198 0.904743,1.75498 1.379334,2.58684 0.474591,0.83186 0.963683,1.63294 1.467202,2.40094 0.50352,0.76801 1.021351,1.50294 1.552727,2.20334 0.531376,0.70041 1.076576,1.36612 1.634737,1.9952 H 122.4257 c 0.55815,-0.6291 1.10298,-1.29477 1.63435,-1.9952 0.53136,-0.70042 1.04922,-1.43571 1.55272,-2.20373 0.50351,-0.76801 0.99263,-1.56868 1.4672,-2.40055 0.47458,-0.83187 0.93476,-1.69485 1.37934,-2.58684 0.44458,-0.89199 0.87366,-1.81304 1.28717,-2.7614 0.41351,-0.94837 0.8113,-1.92403 1.19266,-2.92503 0.38137,-1.00101 0.74649,-2.02744 1.09464,-3.07734 0.34815,-1.0499 0.67924,-2.12325 0.99311,-3.21832 0.31386,-1.09506 0.61032,-2.21187 0.88883,-3.34836 0.27851,-1.13648 0.53897,-2.29251 0.78105,-3.46669 0.24208,-1.17417 0.46595,-2.36635 0.67053,-3.57447 0.20458,-1.20812 0.3901,-2.43221 0.55611,-3.67054 0.16601,-1.23833 0.3122,-2.49088 0.43856,-3.75568 0.12637,-1.2648 0.23263,-2.54196 0.31828,-3.82949 0.0856,-1.28753 0.15101,-2.58545 0.19487,-3.89197 0.0439,-1.30652 0.0665,-2.62174 0.0676,-3.94352 0,-1.99147 -0.0487,-4.03786 -0.14332,-6.12421 -0.0946,-2.08635 -0.23492,-4.21278 -0.41943,-6.36478 -0.1845,-2.15199 -0.41284,-4.32947 -0.68263,-6.51786 -0.26979,-2.188377 -0.58136,-4.387549 -0.9318,-6.583073 -0.35043,-2.195525 -0.74005,-4.387397 -1.16649,-6.560819 -0.42645,-2.173421 -0.88973,-4.328227 -1.38754,-6.450299 -0.49781,-2.122072 -1.02998,-4.211219 -1.59451,-6.252694 -0.56453,-2.041475 -1.16121,-4.035588 -1.78782,-5.96722 -0.31331,-0.965816 -0.6343,-1.916008 -0.96226,-2.848879 -0.32796,-0.932872 -0.66279,-1.848338 -1.00482,-2.744609 -0.34203,-0.896271 -0.69109,-1.77339 -1.0466,-2.629404 -0.23111,-0.556444 -0.46948,-1.088768 -0.70607,-1.626927 z"
           style="display:inline;fill:#e0e0e0;stroke:#000000;stroke-linecap:round;stroke-linejoin:round;stroke-dashoffset:47.2176;stroke-opacity:1"
           id="path6"
           inkscape:label="main body" /><circle
           style="display:inline;fill:#ffa206;fill-opacity:1;stroke:#000000;stroke-width:2.49385;stroke-linecap:round;stroke-linejoin:round;stroke-dasharray:none;stroke-dashoffset:47.2176;stroke-opacity:1"
           id="circle7"
           cx="109.775"
           cy="99.203911"
           r="13.23053"
           inkscape:label="outer" /><circle
           style="fill:#6adcf3;fill-opacity:1;stroke:#000000;stroke-width:2.26713535;stroke-linecap:round;stroke-linejoin:round;stroke-dasharray:none;stroke-dashoffset:47.2176;stroke-opacity:1"
           id="circle14"
           cx="109.775"
           cy="99.203911"
           r="9.6222038"
           inkscape:label="inner" /><rect
           style="fill:#ffa206;fill-opacity:1;stroke-width:2.26713535;stroke-linecap:round;stroke-linejoin:round;stroke-dashoffset:47.2176;stroke:#000000;stroke-opacity:1;stroke-dasharray:none"
           id="rect15"
           width="2.6391168"
           height="37.317585"
           x="109.42294"
           y="137.4294"
           ry="1.3195584" /></g></g></g></svg>
