<?xml version="1.0" encoding="UTF-8" standalone="no"?>
<!-- Created with Inkscape (http://www.inkscape.org/) -->

<svg
   width="1600"
   height="1200"
   viewBox="0 0 423.33332 317.5"
   version="1.1"
   id="svg1"
   inkscape:version="1.3 (0e150ed, 2023-07-21)"
   sodipodi:docname="buttons.svg"
   xmlns:inkscape="http://www.inkscape.org/namespaces/inkscape"
   xmlns:sodipodi="http://sodipodi.sourceforge.net/DTD/sodipodi-0.dtd"
   xmlns="http://www.w3.org/2000/svg"
   xmlns:svg="http://www.w3.org/2000/svg">
  <sodipodi:namedview
     id="namedview1"
     pagecolor="#b4dafe"
     bordercolor="#666666"
     borderopacity="1.0"
     inkscape:showpageshadow="2"
     inkscape:pageopacity="0.0"
     inkscape:pagecheckerboard="0"
     inkscape:deskcolor="#d1d1d1"
     inkscape:document-units="mm"
     inkscape:zoom="0.1767767"
     inkscape:cx="797.61643"
     inkscape:cy="1066.317"
     inkscape:window-width="1366"
     inkscape:window-height="699"
     inkscape:window-x="0"
     inkscape:window-y="0"
     inkscape:window-maximized="1"
     inkscape:current-layer="layer1"
     showgrid="true"
     showguides="true">
    <inkscape:grid
       id="grid1"
       units="px"
       originx="0"
       originy="0"
       spacingx="211.66666"
       spacingy="63.499999"
       empcolor="#3f3fff"
       empopacity="0.25098039"
       color="#3f3fff"
       opacity="0.1254902"
       empspacing="1"
       dotted="false"
       gridanglex="30"
       gridanglez="30"
       visible="true" />
  </sodipodi:namedview>
  <defs
     id="defs1" />
  <g
     inkscape:label="Layer 1"
     inkscape:groupmode="layer"
     id="layer1">
    <g
       id="g11"
       inkscape:label="Normal">
      <g
         id="g8"
         inkscape:label="PlayNormal">
        <g
           id="g7"
           inkscape:label="Button Background">
          <path
             id="path6"
             style="opacity:0.382;fill:#161616;fill-opacity:1;stroke:#000000;stroke-width:3;stroke-linecap:round;stroke-linejoin:round;stroke-dasharray:none;stroke-dashoffset:47.2176;stroke-opacity:1"
             d="m 126.05408,12.272625 c 9.06604,0.02167 17.16544,4.982344 20.32382,12.44782 0.93934,-0.184268 1.89039,-0.277783 2.84324,-0.27957 8.82486,0.02387 16.18566,7.778835 16.99431,17.90434 2.87976,-1.368584 6.09436,-2.085267 9.35964,-2.0867 10.97777,1.04e-4 19.87693,7.913191 19.87682,17.67438 -0.0487,3.526974 -1.28315,6.960317 -3.54449,9.85831 H 39.100724 c -0.202844,-1.016579 -0.305735,-2.053442 -0.30696,-3.09335 3.8e-5,-8.160092 6.126023,-14.775176 13.68289,-14.77533 2.47397,0.009 4.899397,0.742109 7.018174,2.12132 0.264516,-10.47306 8.981154,-18.828796 19.64532,-18.83193 4.022376,0.01389 7.943597,1.239675 11.23445,3.51193 2.978062,-2.554554 7.674496,-4.060501 12.665382,-4.06125 0.46051,0.0065 0.92035,0.02579 1.37821,0.0579 -0.0545,-0.446935 -0.091,-0.895421 -0.10955,-1.34462 -2.7e-4,-10.550439 9.73561,-19.103352 21.74544,-19.10323 z"
             inkscape:label="shadow"
             sodipodi:nodetypes="scccccccccccccccss" />
          <path
             id="path7"
             style="fill:#ffffff;fill-opacity:1;stroke:#000000;stroke-width:3;stroke-linecap:round;stroke-linejoin:round;stroke-dasharray:none;stroke-dashoffset:47.2176;stroke-opacity:1"
             d="m 118.13279,8.957487 c 9.06604,0.021667 17.16544,4.982344 20.32382,12.44782 0.93934,-0.184268 1.89039,-0.277783 2.84324,-0.27957 8.82486,0.02387 16.18566,7.778835 16.99431,17.90434 2.87976,-1.368584 6.09436,-2.085267 9.35964,-2.0867 10.97777,1.04e-4 19.87693,7.913191 19.87682,17.67438 -0.0487,3.526974 -1.28315,6.960317 -3.54449,9.85831 H 31.179437 c -0.202844,-1.016579 -0.305735,-2.053442 -0.30696,-3.09335 3.8e-5,-8.160092 6.126023,-14.775176 13.68289,-14.77533 2.47397,0.009 4.899397,0.742109 7.018174,2.12132 0.264516,-10.47306 8.981154,-18.828796 19.64532,-18.83193 4.022376,0.01389 7.943597,1.239675 11.23445,3.51193 2.978062,-2.554554 7.674496,-4.060501 12.66538,-4.06125 0.460508,0.0065 0.920351,0.02579 1.37821,0.0579 -0.05451,-0.446935 -0.09105,-0.895421 -0.10955,-1.34462 -2.73e-4,-10.550439 9.735609,-19.1033528 21.745439,-19.10323 z"
             inkscape:label="cloud"
             sodipodi:nodetypes="scccccccccccccccss" />
        </g>
      </g>
    </g>
  </g>
</svg>
