<?xml version="1.0" encoding="UTF-8" standalone="no"?>
<!-- Created with Inkscape (http://www.inkscape.org/) -->

<svg
   width="155"
   height="110"
   viewBox="0 0 41.010418 29.104166"
   version="1.1"
   id="svg1"
   inkscape:version="1.3 (0e150ed, 2023-07-21)"
   sodipodi:docname="button_pressed.svg"
   xmlns:inkscape="http://www.inkscape.org/namespaces/inkscape"
   xmlns:sodipodi="http://sodipodi.sourceforge.net/DTD/sodipodi-0.dtd"
   xmlns="http://www.w3.org/2000/svg"
   xmlns:svg="http://www.w3.org/2000/svg">
  <sodipodi:namedview
     id="namedview1"
     pagecolor="#212121"
     bordercolor="#666666"
     borderopacity="1.0"
     inkscape:showpageshadow="2"
     inkscape:pageopacity="0.0"
     inkscape:pagecheckerboard="true"
     inkscape:deskcolor="#d1d1d1"
     inkscape:document-units="px"
     inkscape:zoom="1.6067251"
     inkscape:cx="81.532305"
     inkscape:cy="84.955417"
     inkscape:window-width="1366"
     inkscape:window-height="699"
     inkscape:window-x="0"
     inkscape:window-y="0"
     inkscape:window-maximized="1"
     inkscape:current-layer="layer1"
     showgrid="false"
     showguides="false" />
  <defs
     id="defs1" />
  <g
     inkscape:label="Layer 1"
     inkscape:groupmode="layer"
     id="layer1">
    <path
       id="path1"
       style="fill:#7c7c7c;fill-opacity:1;stroke:none;stroke-width:0.252189;stroke-linecap:round;stroke-linejoin:round;stroke-opacity:1;paint-order:markers fill stroke"
       d="m 24.488903,1.5625866 a 8.3976033,8.5269483 0 0 0 -7.898051,5.6904346 9.9402103,9.7493622 0 0 0 -4.802768,-1.2161865 9.9402103,9.7493622 0 0 0 -9.9399419,9.7496233 9.9402103,9.7493622 0 0 0 9.9399419,9.749137 9.9402103,9.7493622 0 0 0 2.834649,-0.406216 6.8258051,5.2947471 0 0 0 5.708629,2.412201 6.8258051,5.2947471 0 0 0 6.289432,-3.242344 8.8918223,9.3698828 0 0 0 3.649531,0.829642 8.8918223,9.3698828 0 0 0 8.89195,-9.369966 8.8918223,9.3698828 0 0 0 -7.005474,-9.1319325 8.3976033,8.5269483 0 0 0 -7.667898,-5.0643929 z" />
  </g>
</svg>
