<?xml version="1.0" encoding="UTF-8" standalone="no"?>
<!-- Created with Inkscape (http://www.inkscape.org/) -->

<svg
   width="340mm"
   height="391mm"
   viewBox="0 0 339.99999 391"
   version="1.1"
   id="svg1"
   inkscape:version="1.3 (0e150ed, 2023-07-21)"
   sodipodi:docname="buttons.svg"
   inkscape:export-filename="background.svg"
   inkscape:export-xdpi="120"
   inkscape:export-ydpi="120"
   xmlns:inkscape="http://www.inkscape.org/namespaces/inkscape"
   xmlns:sodipodi="http://sodipodi.sourceforge.net/DTD/sodipodi-0.dtd"
   xmlns="http://www.w3.org/2000/svg"
   xmlns:svg="http://www.w3.org/2000/svg">
  <sodipodi:namedview
     id="namedview1"
     pagecolor="#b4dafe"
     bordercolor="#666666"
     borderopacity="1.0"
     inkscape:showpageshadow="2"
     inkscape:pageopacity="0.0"
     inkscape:pagecheckerboard="0"
     inkscape:deskcolor="#d1d1d1"
     inkscape:document-units="mm"
     inkscape:zoom="0.7358345"
     inkscape:cx="479.72744"
     inkscape:cy="1199.3186"
     inkscape:window-width="1366"
     inkscape:window-height="699"
     inkscape:window-x="0"
     inkscape:window-y="0"
     inkscape:window-maximized="1"
     inkscape:current-layer="layer1"
     showgrid="true"
     showguides="true">
    <inkscape:grid
       id="grid1"
       units="mm"
       originx="0"
       originy="0"
       spacingx="169.99999"
       spacingy="65.166667"
       empcolor="#3f3fff"
       empopacity="0.25098039"
       color="#3f3fff"
       opacity="0.1254902"
       empspacing="1"
       dotted="false"
       gridanglex="30"
       gridanglez="30"
       visible="true" />
    <sodipodi:guide
       position="169.86671,382.28888"
       orientation="1,0"
       id="guide1"
       inkscape:locked="false" />
    <sodipodi:guide
       position="163.28407,326.31741"
       orientation="0,-1"
       id="guide2"
       inkscape:locked="false" />
    <sodipodi:guide
       position="168.81838,261.13969"
       orientation="0,-1"
       id="guide3"
       inkscape:locked="false" />
    <sodipodi:guide
       position="134.18897,195.66846"
       orientation="0,-1"
       id="guide4"
       inkscape:locked="false" />
    <sodipodi:guide
       position="168.2773,130.73831"
       orientation="0,-1"
       id="guide5"
       inkscape:locked="false" />
    <sodipodi:guide
       position="170.98272,65.267072"
       orientation="0,-1"
       id="guide6"
       inkscape:locked="false" />
    <sodipodi:guide
       position="148.50202,-0.21115681"
       orientation="0,-1"
       id="guide7"
       inkscape:locked="false" />
  </sodipodi:namedview>
  <defs
     id="defs1" />
  <g
     inkscape:label="Layer 1"
     inkscape:groupmode="layer"
     id="layer1">
    <g
       id="g26"
       inkscape:label="CreditsNormal"
       transform="translate(-29.372477,321.55485)">
      <g
         id="g25"
         inkscape:label="Button Background">
        <path
           id="path24"
           style="opacity:0.382;fill:#161616;fill-opacity:1;stroke:#000000;stroke-width:3;stroke-linecap:round;stroke-linejoin:round;stroke-dasharray:none;stroke-dashoffset:47.2176;stroke-opacity:1"
           d="m 126.05408,12.272625 c 9.06604,0.02167 17.16544,4.982344 20.32382,12.44782 0.93934,-0.184268 1.89039,-0.277783 2.84324,-0.27957 8.82486,0.02387 16.18566,7.778835 16.99431,17.90434 2.87976,-1.368584 6.09436,-2.085267 9.35964,-2.0867 10.97777,1.04e-4 19.87693,7.913191 19.87682,17.67438 -0.0487,3.526974 -1.28315,6.960317 -3.54449,9.85831 H 39.100724 c -0.202844,-1.016579 -0.305735,-2.053442 -0.30696,-3.09335 3.8e-5,-8.160092 6.126023,-14.775176 13.68289,-14.77533 2.47397,0.009 4.899397,0.742109 7.018174,2.12132 0.264516,-10.47306 8.981154,-18.828796 19.64532,-18.83193 4.022376,0.01389 7.943597,1.239675 11.23445,3.51193 2.978062,-2.554554 7.674496,-4.060501 12.665382,-4.06125 0.46051,0.0065 0.92035,0.02579 1.37821,0.0579 -0.0545,-0.446935 -0.091,-0.895421 -0.10955,-1.34462 -2.7e-4,-10.550439 9.73561,-19.103352 21.74544,-19.10323 z"
           inkscape:label="shadow"
           sodipodi:nodetypes="scccccccccccccccss" />
        <path
           id="path25"
           style="fill:#ffffff;fill-opacity:1;stroke:#000000;stroke-width:3;stroke-linecap:round;stroke-linejoin:round;stroke-dasharray:none;stroke-dashoffset:47.2176;stroke-opacity:1"
           d="m 118.13279,8.957487 c 9.06604,0.021667 17.16544,4.982344 20.32382,12.44782 0.93934,-0.184268 1.89039,-0.277783 2.84324,-0.27957 8.82486,0.02387 16.18566,7.778835 16.99431,17.90434 2.87976,-1.368584 6.09436,-2.085267 9.35964,-2.0867 10.97777,1.04e-4 19.87693,7.913191 19.87682,17.67438 -0.0487,3.526974 -1.28315,6.960317 -3.54449,9.85831 H 31.179437 c -0.202844,-1.016579 -0.305735,-2.053442 -0.30696,-3.09335 3.8e-5,-8.160092 6.126023,-14.775176 13.68289,-14.77533 2.47397,0.009 4.899397,0.742109 7.018174,2.12132 0.264516,-10.47306 8.981154,-18.828796 19.64532,-18.83193 4.022376,0.01389 7.943597,1.239675 11.23445,3.51193 2.978062,-2.554554 7.674496,-4.060501 12.66538,-4.06125 0.460508,0.0065 0.920351,0.02579 1.37821,0.0579 -0.05451,-0.446935 -0.09105,-0.895421 -0.10955,-1.34462 -2.73e-4,-10.550439 9.735609,-19.1033528 21.745439,-19.10323 z"
           inkscape:label="cloud"
           sodipodi:nodetypes="scccccccccccccccss" />
      </g>
      <text
         xml:space="preserve"
         style="font-size:22.5778px;line-height:1.25;font-family:'Liberation Sans Narrow';-inkscape-font-specification:'Liberation Sans Narrow';letter-spacing:0px;word-spacing:0px;stroke-width:0.264583"
         x="69.227234"
         y="322.95798"
         id="text26-9"
         transform="translate(0,-267.87882)"><tspan
           sodipodi:role="line"
           id="tspan26-2"
           style="font-style:normal;font-variant:normal;font-weight:bold;font-stretch:normal;font-size:22.5778px;font-family:Rubik;-inkscape-font-specification:'Rubik Bold';stroke-width:0.264583"
           x="69.227234"
           y="322.95798">Credits</tspan></text>
    </g>
    <g
       id="g10"
       inkscape:label="OptionsNormal"
       transform="translate(-29.372477,255.75238)">
      <g
         id="g9"
         inkscape:label="Button Background">
        <path
           id="path8"
           style="opacity:0.382;fill:#161616;fill-opacity:1;stroke:#000000;stroke-width:3;stroke-linecap:round;stroke-linejoin:round;stroke-dasharray:none;stroke-dashoffset:47.2176;stroke-opacity:1"
           d="m 126.05408,12.272625 c 9.06604,0.02167 17.16544,4.982344 20.32382,12.44782 0.93934,-0.184268 1.89039,-0.277783 2.84324,-0.27957 8.82486,0.02387 16.18566,7.778835 16.99431,17.90434 2.87976,-1.368584 6.09436,-2.085267 9.35964,-2.0867 10.97777,1.04e-4 19.87693,7.913191 19.87682,17.67438 -0.0487,3.526974 -1.28315,6.960317 -3.54449,9.85831 H 39.100724 c -0.202844,-1.016579 -0.305735,-2.053442 -0.30696,-3.09335 3.8e-5,-8.160092 6.126023,-14.775176 13.68289,-14.77533 2.47397,0.009 4.899397,0.742109 7.018174,2.12132 0.264516,-10.47306 8.981154,-18.828796 19.64532,-18.83193 4.022376,0.01389 7.943597,1.239675 11.23445,3.51193 2.978062,-2.554554 7.674496,-4.060501 12.665382,-4.06125 0.46051,0.0065 0.92035,0.02579 1.37821,0.0579 -0.0545,-0.446935 -0.091,-0.895421 -0.10955,-1.34462 -2.7e-4,-10.550439 9.73561,-19.103352 21.74544,-19.10323 z"
           inkscape:label="shadow"
           sodipodi:nodetypes="scccccccccccccccss" />
        <path
           id="path9"
           style="fill:#ffffff;fill-opacity:1;stroke:#000000;stroke-width:3;stroke-linecap:round;stroke-linejoin:round;stroke-dasharray:none;stroke-dashoffset:47.2176;stroke-opacity:1"
           d="m 118.13279,8.957487 c 9.06604,0.021667 17.16544,4.982344 20.32382,12.44782 0.93934,-0.184268 1.89039,-0.277783 2.84324,-0.27957 8.82486,0.02387 16.18566,7.778835 16.99431,17.90434 2.87976,-1.368584 6.09436,-2.085267 9.35964,-2.0867 10.97777,1.04e-4 19.87693,7.913191 19.87682,17.67438 -0.0487,3.526974 -1.28315,6.960317 -3.54449,9.85831 H 31.179437 c -0.202844,-1.016579 -0.305735,-2.053442 -0.30696,-3.09335 3.8e-5,-8.160092 6.126023,-14.775176 13.68289,-14.77533 2.47397,0.009 4.899397,0.742109 7.018174,2.12132 0.264516,-10.47306 8.981154,-18.828796 19.64532,-18.83193 4.022376,0.01389 7.943597,1.239675 11.23445,3.51193 2.978062,-2.554554 7.674496,-4.060501 12.66538,-4.06125 0.460508,0.0065 0.920351,0.02579 1.37821,0.0579 -0.05451,-0.446935 -0.09105,-0.895421 -0.10955,-1.34462 -2.73e-4,-10.550439 9.735609,-19.1033528 21.745439,-19.10323 z"
           inkscape:label="cloud"
           sodipodi:nodetypes="scccccccccccccccss" />
      </g>
      <path
         style="font-weight:bold;font-size:22.5778px;line-height:1.25;font-family:Rubik;-inkscape-font-specification:'Rubik Bold';letter-spacing:0px;word-spacing:0px;stroke-width:0.264583"
         d="m 71.706252,45.699403 q 0.06773,-1.264357 0.541868,-2.370669 0.496711,-1.12889 1.377246,-1.941691 0.903112,-0.835379 2.167468,-1.309513 1.286935,-0.496711 2.957692,-0.496711 1.64818,0 2.935114,0.496711 1.286935,0.474134 2.167469,1.309513 0.903112,0.812801 1.377246,1.941691 0.496712,1.106312 0.564445,2.370669 0.04516,0.970845 0.04516,2.032002 0,1.061156 -0.04516,1.986846 -0.06773,1.264357 -0.564445,2.393247 -0.474134,1.106312 -1.377246,1.941691 -0.880534,0.835379 -2.167469,1.309512 -1.286934,0.474134 -2.935114,0.474134 -1.670757,0 -2.957692,-0.474134 -1.264356,-0.474133 -2.167468,-1.309512 -0.880535,-0.835379 -1.377246,-1.941691 -0.474134,-1.12889 -0.541868,-2.393247 -0.04516,-0.92569 -0.04516,-1.986846 0,-1.061157 0.04516,-2.032002 z m 9.911655,3.905959 q 0.02258,-0.4064 0.04516,-0.903112 0.02258,-0.496711 0.02258,-1.016001 0,-0.519289 -0.02258,-0.993423 -0.02258,-0.496712 -0.04516,-0.880534 -0.04516,-0.564445 -0.248356,-1.038579 -0.180622,-0.474134 -0.541867,-0.812801 -0.338667,-0.361245 -0.857956,-0.564445 -0.51929,-0.2032 -1.219202,-0.2032 -0.699912,0 -1.219201,0.2032 -0.519289,0.2032 -0.880534,0.564445 -0.338667,0.338667 -0.541867,0.812801 -0.180623,0.474134 -0.225778,1.038579 -0.04516,0.383822 -0.06773,0.880534 0,0.474134 0,0.993423 0,0.51929 0,1.016001 0.02258,0.496712 0.06773,0.903112 0.09031,1.12889 0.767645,1.873958 0.699912,0.745067 2.099735,0.745067 1.399824,0 2.077158,-0.745067 0.677334,-0.745068 0.790223,-1.873958 z m 13.636958,6.231473 q -0.654757,0 -1.151468,-0.135467 -0.496712,-0.135466 -0.857957,-0.338667 -0.361245,-0.2032 -0.6096,-0.428978 -0.248356,-0.248356 -0.406401,-0.451556 v 4.809072 q 0,0.248356 -0.180622,0.428978 -0.180623,0.180622 -0.428978,0.180622 h -2.844803 q -0.248356,0 -0.428978,-0.180622 -0.180623,-0.180622 -0.180623,-0.428978 V 44.480202 q 0,-0.248356 0.180623,-0.428979 0.180622,-0.180622 0.428978,-0.180622 h 2.731914 q 0.248355,0 0.428978,0.180622 0.180622,0.180623 0.180622,0.428979 v 0.519289 q 0.2032,-0.225778 0.428978,-0.474134 0.248356,-0.248356 0.587023,-0.428978 0.361245,-0.2032 0.857957,-0.316089 0.519289,-0.135467 1.264357,-0.135467 1.016001,0 1.919113,0.316089 0.903112,0.293512 1.580446,0.948268 0.677334,0.632178 1.083734,1.603024 0.428982,0.970845 0.474132,2.302935 0.0226,0.338667 0.0226,0.92569 0,0.564445 -0.0226,0.903112 -0.0452,1.33209 -0.474132,2.302936 -0.4064,0.970845 -1.083734,1.625601 -0.677334,0.632179 -1.580446,0.948268 -0.903112,0.316089 -1.919113,0.316089 z m 1.016001,-5.463827 q 0.06773,-0.632179 0,-1.264357 -0.06773,-0.790223 -0.51929,-1.377246 -0.451556,-0.587023 -1.512712,-0.587023 -0.496712,0 -0.857957,0.158045 -0.361245,0.158044 -0.609601,0.428978 -0.225778,0.248356 -0.361244,0.564445 -0.135467,0.316089 -0.180623,0.654756 -0.04515,0.338667 -0.04515,0.790223 0,0.451556 0.04515,0.790223 0.04516,0.338667 0.180623,0.654756 0.135466,0.31609 0.361244,0.587023 0.248356,0.248356 0.609601,0.406401 0.361245,0.158044 0.857957,0.158044 1.061156,0 1.512712,-0.587023 0.451556,-0.587022 0.51929,-1.377245 z m 11.604964,0.654756 q 0,0.519289 0.22578,0.812801 0.22578,0.270933 0.74507,0.270933 h 1.80622 q 0.24836,0 0.42898,0.180623 0.18062,0.180622 0.18062,0.428978 v 2.280358 q 0,0.248355 -0.18062,0.428978 -0.18062,0.180622 -0.42898,0.180622 h -2.14489 q -1.06116,0 -1.94169,-0.293511 -0.85796,-0.316089 -1.46756,-0.880534 -0.6096,-0.587023 -0.94827,-1.399824 -0.33866,-0.835379 -0.33866,-1.873957 V 47.37016 h -1.67076 q -0.24836,0 -0.42898,-0.180622 -0.18062,-0.180623 -0.18062,-0.428979 v -2.280357 q 0,-0.248356 0.18062,-0.428979 0.18062,-0.180622 0.42898,-0.180622 h 1.67076 v -3.680182 q 0,-0.248355 0.18062,-0.428978 0.18062,-0.180622 0.42898,-0.180622 h 2.8448 q 0.24836,0 0.42898,0.180622 0.18062,0.180623 0.18062,0.428978 v 3.680182 h 2.55129 q 0.24836,0 0.42898,0.180622 0.18062,0.180623 0.18062,0.428979 v 2.280357 q 0,0.248356 -0.18062,0.428979 -0.18062,0.180622 -0.42898,0.180622 h -2.55129 z m 9.36976,3.973693 q 0,0.248355 -0.18062,0.428978 -0.18062,0.180622 -0.42898,0.180622 h -2.8448 q -0.24835,0 -0.42898,-0.180622 -0.18062,-0.180623 -0.18062,-0.428978 V 44.480202 q 0,-0.248356 0.18062,-0.428979 0.18063,-0.180622 0.42898,-0.180622 h 2.8448 q 0.24836,0 0.42898,0.180622 0.18062,0.180623 0.18062,0.428979 z m 0,-12.982236 q 0,0.248356 -0.18062,0.428978 -0.18062,0.180623 -0.42898,0.180623 h -2.8448 q -0.24835,0 -0.42898,-0.180623 -0.18062,-0.180622 -0.18062,-0.428978 v -2.280358 q 0,-0.248355 0.18062,-0.428978 0.18063,-0.180622 0.42898,-0.180622 h 2.8448 q 0.24836,0 0.42898,0.180622 0.18062,0.180623 0.18062,0.428978 z m 14.40463,6.863652 q 0.0226,0.338667 0.0226,0.880534 0,0.519289 -0.0226,0.857956 -0.0452,1.083735 -0.49671,2.032002 -0.45156,0.948268 -1.24178,1.670758 -0.79022,0.699911 -1.91911,1.106312 -1.10632,0.4064 -2.48356,0.4064 -1.37725,0 -2.50614,-0.4064 -1.10631,-0.406401 -1.89653,-1.106312 -0.79023,-0.72249 -1.24178,-1.670758 -0.45156,-0.948267 -0.49671,-2.032002 -0.0226,-0.338667 -0.0226,-0.857956 0,-0.541867 0.0226,-0.880534 0.0226,-1.083735 0.47413,-2.032002 0.45156,-0.948268 1.24178,-1.64818 0.8128,-0.722489 1.91911,-1.12889 1.12889,-0.428978 2.50614,-0.428978 1.37724,0 2.48356,0.428978 1.12889,0.406401 1.91911,1.12889 0.8128,0.699912 1.24178,1.64818 0.45155,0.948267 0.49671,2.032002 z m -8.21832,1.625601 q 0.0677,0.857957 0.6096,1.354668 0.56445,0.474134 1.46756,0.474134 0.90311,0 1.44498,-0.474134 0.56444,-0.496711 0.63218,-1.354668 0.0452,-0.338667 0.0452,-0.767645 0,-0.428978 -0.0452,-0.767645 -0.0677,-0.857957 -0.63218,-1.33209 -0.54187,-0.496712 -1.44498,-0.496712 -0.90311,0 -1.46756,0.496712 -0.54187,0.474133 -0.6096,1.33209 -0.0451,0.338667 -0.0451,0.767645 0,0.428978 0.0451,0.767645 z m 22.37459,4.492983 q 0,0.248355 -0.18063,0.428978 -0.18062,0.180622 -0.42898,0.180622 h -2.8448 q -0.24835,0 -0.42898,-0.180622 -0.18062,-0.180623 -0.18062,-0.428978 v -5.712184 q 0,-0.970845 -0.47413,-1.557868 -0.47414,-0.587023 -1.49014,-0.587023 -1.016,0 -1.49013,0.587023 -0.45156,0.587023 -0.45156,1.557868 v 5.712184 q 0,0.248355 -0.18062,0.428978 -0.18062,0.180622 -0.42898,0.180622 h -2.8448 q -0.24836,0 -0.42898,-0.180622 -0.18062,-0.180623 -0.18062,-0.428978 V 44.480202 q 0,-0.248356 0.18062,-0.428979 0.18062,-0.180622 0.42898,-0.180622 h 2.73191 q 0.24836,0 0.42898,0.180622 0.18062,0.180623 0.18062,0.428979 v 0.519289 q 0.18063,-0.225778 0.45156,-0.474134 0.27093,-0.248356 0.65475,-0.428978 0.38383,-0.2032 0.88054,-0.316089 0.51929,-0.135467 1.19662,-0.135467 1.08374,0 1.98685,0.316089 0.90311,0.293512 1.53529,0.92569 0.65476,0.632178 1.016,1.603024 0.36125,0.970845 0.36125,2.302935 z m 9.14399,-2.912537 q 0,-0.248355 -0.18063,-0.383822 -0.15804,-0.135467 -0.56444,-0.225778 -0.4064,-0.09031 -1.08374,-0.180623 -0.65475,-0.09031 -1.64818,-0.270933 -1.71591,-0.316089 -2.6416,-1.264357 -0.92569,-0.948268 -0.92569,-2.483558 0,-0.767645 0.38382,-1.422402 0.38383,-0.654756 1.06116,-1.151467 0.69991,-0.496712 1.67076,-0.767646 0.97084,-0.293511 2.16747,-0.293511 1.17404,0 2.16747,0.293511 0.99342,0.270934 1.71591,0.72249 0.72249,0.428978 1.12889,1.016001 0.42898,0.564445 0.47413,1.12889 0.0226,0.248356 -0.18062,0.428978 -0.18062,0.180623 -0.42898,0.180623 h -2.68676 q -0.24835,0 -0.4064,-0.112889 -0.13546,-0.112889 -0.33866,-0.248356 -0.2032,-0.135467 -0.54187,-0.248356 -0.31609,-0.112889 -0.90311,-0.112889 -0.51929,0 -0.88054,0.158045 -0.33866,0.135466 -0.33866,0.474133 0,0.248356 0.11289,0.383823 0.11288,0.135467 0.45155,0.225778 0.33867,0.06773 0.94827,0.158045 0.6096,0.09031 1.60302,0.248355 2.05458,0.338667 2.98027,1.399824 0.94827,1.038579 0.94827,2.393247 0,0.767645 -0.38382,1.444979 -0.38383,0.654756 -1.12889,1.174046 -0.74507,0.496711 -1.80623,0.790223 -1.06115,0.293511 -2.41582,0.293511 -1.35467,0 -2.39325,-0.293511 -1.016,-0.316089 -1.71591,-0.790223 -0.69991,-0.474134 -1.08374,-1.038579 -0.36124,-0.564445 -0.4064,-1.106312 -0.0226,-0.248356 0.15805,-0.428978 0.2032,-0.180623 0.45155,-0.180623 h 2.79965 q 0.24836,0 0.36125,0.135467 0.11289,0.112889 0.29351,0.270934 0.18062,0.135466 0.51929,0.270933 0.33866,0.112889 1.016,0.112889 0.67733,0 1.17404,-0.180622 0.49672,-0.180623 0.49672,-0.51929 z"
         id="text9"
         aria-label="Options&#10;" />
    </g>
    <g
       id="g2"
       inkscape:label="MainMenuNormal"
       transform="translate(-29.372477,189.94992)">
      <g
         id="g1"
         inkscape:label="Button Background">
        <path
           id="path17-5"
           style="opacity:0.382;fill:#161616;fill-opacity:1;stroke:#000000;stroke-width:3;stroke-linecap:round;stroke-linejoin:round;stroke-dasharray:none;stroke-dashoffset:47.2176;stroke-opacity:1"
           d="m 126.05408,12.272625 c 9.06604,0.02167 17.16544,4.982344 20.32382,12.44782 0.93934,-0.184268 1.89039,-0.277783 2.84324,-0.27957 8.82486,0.02387 16.18566,7.778835 16.99431,17.90434 2.87976,-1.368584 6.09436,-2.085267 9.35964,-2.0867 10.97777,1.04e-4 19.87693,7.913191 19.87682,17.67438 -0.0487,3.526974 -1.28315,6.960317 -3.54449,9.85831 H 39.100724 c -0.202844,-1.016579 -0.305735,-2.053442 -0.30696,-3.09335 3.8e-5,-8.160092 6.126023,-14.775176 13.68289,-14.77533 2.47397,0.009 4.899397,0.742109 7.018174,2.12132 0.264516,-10.47306 8.981154,-18.828796 19.64532,-18.83193 4.022376,0.01389 7.943597,1.239675 11.23445,3.51193 2.978062,-2.554554 7.674496,-4.060501 12.665382,-4.06125 0.46051,0.0065 0.92035,0.02579 1.37821,0.0579 -0.0545,-0.446935 -0.091,-0.895421 -0.10955,-1.34462 -2.7e-4,-10.550439 9.73561,-19.103352 21.74544,-19.10323 z"
           inkscape:label="shadow"
           sodipodi:nodetypes="scccccccccccccccss" />
        <path
           id="path1"
           style="fill:#ffffff;fill-opacity:1;stroke:#000000;stroke-width:3;stroke-linecap:round;stroke-linejoin:round;stroke-dasharray:none;stroke-dashoffset:47.2176;stroke-opacity:1"
           d="m 118.13279,8.957487 c 9.06604,0.021667 17.16544,4.982344 20.32382,12.44782 0.93934,-0.184268 1.89039,-0.277783 2.84324,-0.27957 8.82486,0.02387 16.18566,7.778835 16.99431,17.90434 2.87976,-1.368584 6.09436,-2.085267 9.35964,-2.0867 10.97777,1.04e-4 19.87693,7.913191 19.87682,17.67438 -0.0487,3.526974 -1.28315,6.960317 -3.54449,9.85831 H 31.179437 c -0.202844,-1.016579 -0.305735,-2.053442 -0.30696,-3.09335 3.8e-5,-8.160092 6.126023,-14.775176 13.68289,-14.77533 2.47397,0.009 4.899397,0.742109 7.018174,2.12132 0.264516,-10.47306 8.981154,-18.828796 19.64532,-18.83193 4.022376,0.01389 7.943597,1.239675 11.23445,3.51193 2.978062,-2.554554 7.674496,-4.060501 12.66538,-4.06125 0.460508,0.0065 0.920351,0.02579 1.37821,0.0579 -0.05451,-0.446935 -0.09105,-0.895421 -0.10955,-1.34462 -2.73e-4,-10.550439 9.735609,-19.1033528 21.745439,-19.10323 z"
           inkscape:label="cloud"
           sodipodi:nodetypes="scccccccccccccccss" />
      </g>
      <path
         style="font-weight:bold;font-size:22.5778px;line-height:1.25;font-family:Rubik;-inkscape-font-specification:'Rubik Bold';letter-spacing:0px;word-spacing:0px;stroke-width:0.264583"
         d="m 64.387188,51.677385 q -0.338667,0 -0.541867,-0.180623 -0.180622,-0.2032 -0.293511,-0.383822 l -2.122314,-3.725337 v 7.473252 q 0,0.248355 -0.180622,0.428978 -0.180622,0.180622 -0.428978,0.180622 h -2.957692 q -0.248356,0 -0.428978,-0.180622 -0.180623,-0.180623 -0.180623,-0.428978 v -14.58526 q 0,-0.248356 0.180623,-0.428978 0.180622,-0.180622 0.428978,-0.180622 h 2.619025 q 0.451556,0 0.677334,0.248355 0.225778,0.248356 0.293511,0.361245 l 3.657604,6.254051 3.657604,-6.254051 q 0.06773,-0.112889 0.293511,-0.361245 0.225778,-0.248355 0.677334,-0.248355 h 2.619025 q 0.248356,0 0.428978,0.180622 0.180623,0.180622 0.180623,0.428978 v 14.58526 q 0,0.248355 -0.180623,0.428978 -0.180622,0.180622 -0.428978,0.180622 H 69.39946 q -0.248356,0 -0.428978,-0.180622 Q 68.78986,55.10921 68.78986,54.860855 v -7.473252 l -2.122314,3.725337 q -0.112889,0.180622 -0.316089,0.383822 -0.180622,0.180623 -0.519289,0.180623 z m 10.701844,0.451556 q 0,-1.490135 1.12889,-2.460981 1.151468,-0.970845 3.725337,-1.422401 l 2.641603,-0.451556 q 0,-0.541867 -0.293511,-0.880534 -0.293512,-0.361245 -1.016001,-0.361245 -0.51929,0 -0.812801,0.158044 -0.270934,0.135467 -0.406401,0.248356 -0.2032,0.180623 -0.383822,0.225778 -0.180623,0.04516 -0.428979,0.04516 h -2.86738 q -0.225778,0 -0.383823,-0.135467 -0.135467,-0.135467 -0.112889,-0.361245 0.04516,-0.519289 0.451556,-1.083734 0.406401,-0.564445 1.106312,-1.038579 0.72249,-0.474134 1.693335,-0.790223 0.993424,-0.316089 2.144892,-0.316089 1.377245,0 2.393246,0.338667 1.016001,0.338667 1.670758,0.948267 0.677334,0.587023 0.993423,1.422402 0.316089,0.812801 0.316089,1.806224 v 6.841074 q 0,0.248355 -0.180622,0.428978 -0.180623,0.180622 -0.428979,0.180622 h -2.844802 q -0.248356,0 -0.428979,-0.180622 -0.180622,-0.180623 -0.180622,-0.428978 V 54.22868 q -0.541867,0.677334 -1.354668,1.083735 -0.790223,0.383822 -2.099736,0.383822 -0.970845,0 -1.73849,-0.270933 Q 76.6469,55.15437 76.127611,54.680236 75.630899,54.206102 75.359966,53.551346 75.089032,52.89659 75.089032,52.128945 Z m 5.147739,0.519289 q 0.496711,0 0.92569,-0.158045 0.428978,-0.180622 0.745067,-0.474133 0.316089,-0.293512 0.496712,-0.677334 0.180622,-0.406401 0.180622,-0.857957 l -2.077158,0.316089 q -0.6096,0.112889 -0.993423,0.383823 -0.361245,0.270934 -0.361245,0.699912 0,0.428978 0.270934,0.6096 0.293511,0.158045 0.812801,0.158045 z m 12.982208,2.212625 q 0,0.248355 -0.180622,0.428978 -0.180622,0.180622 -0.428978,0.180622 h -2.844803 q -0.248356,0 -0.428978,-0.180622 -0.180623,-0.180623 -0.180623,-0.428978 V 44.339599 q 0,-0.248355 0.180623,-0.428978 0.180622,-0.180622 0.428978,-0.180622 h 2.844803 q 0.248356,0 0.428978,0.180622 0.180622,0.180623 0.180622,0.428978 z m 0,-12.982236 q 0,0.248356 -0.180622,0.428978 -0.180622,0.180623 -0.428978,0.180623 h -2.844803 q -0.248356,0 -0.428978,-0.180623 -0.180623,-0.180622 -0.180623,-0.428978 v -2.280358 q 0,-0.248356 0.180623,-0.428978 0.180622,-0.180622 0.428978,-0.180622 h 2.844803 q 0.248356,0 0.428978,0.180622 0.180622,0.180622 0.180622,0.428978 z m 14.652981,12.982236 q 0,0.248355 -0.18062,0.428978 -0.18062,0.180622 -0.42898,0.180622 h -2.8448 q -0.24836,0 -0.42898,-0.180622 -0.18062,-0.180623 -0.18062,-0.428978 v -5.712184 q 0,-0.970845 -0.47414,-1.557868 -0.47413,-0.587023 -1.49013,-0.587023 -1.016,0 -1.49014,0.587023 -0.451553,0.587023 -0.451553,1.557868 v 5.712184 q 0,0.248355 -0.180622,0.428978 -0.180623,0.180622 -0.428979,0.180622 h -2.844802 q -0.248356,0 -0.428979,-0.180622 -0.180622,-0.180623 -0.180622,-0.428978 V 44.339599 q 0,-0.248355 0.180622,-0.428978 0.180623,-0.180622 0.428979,-0.180622 h 2.731913 q 0.248356,0 0.428979,0.180622 0.180622,0.180623 0.180622,0.428978 v 0.51929 q 0.180623,-0.225778 0.451552,-0.474134 0.27094,-0.248356 0.65476,-0.428978 0.38382,-0.2032 0.88053,-0.316089 0.51929,-0.135467 1.19663,-0.135467 1.08373,0 1.98684,0.316089 0.90312,0.293511 1.53529,0.92569 0.65476,0.632178 1.01601,1.603024 0.36124,0.970845 0.36124,2.302935 z m 14.69813,-3.18347 q -0.33867,0 -0.54187,-0.180623 -0.18062,-0.2032 -0.29351,-0.383822 l -2.12231,-3.725337 v 7.473252 q 0,0.248355 -0.18063,0.428978 -0.18062,0.180622 -0.42897,0.180622 h -2.9577 q -0.24835,0 -0.42897,-0.180622 -0.18063,-0.180623 -0.18063,-0.428978 v -14.58526 q 0,-0.248356 0.18063,-0.428978 0.18062,-0.180622 0.42897,-0.180622 h 2.61903 q 0.45155,0 0.67733,0.248355 0.22578,0.248356 0.29351,0.361245 l 3.65761,6.254051 3.6576,-6.254051 q 0.0677,-0.112889 0.29351,-0.361245 0.22578,-0.248355 0.67734,-0.248355 h 2.61902 q 0.24836,0 0.42898,0.180622 0.18062,0.180622 0.18062,0.428978 v 14.58526 q 0,0.248355 -0.18062,0.428978 -0.18062,0.180622 -0.42898,0.180622 h -2.95769 q -0.24836,0 -0.42898,-0.180622 -0.18062,-0.180623 -0.18062,-0.428978 v -7.473252 l -2.12231,3.725337 q -0.11289,0.180622 -0.31609,0.383822 -0.18063,0.180623 -0.51929,0.180623 z m 14.87871,-0.790223 q 0,0.519289 0.18062,0.857956 0.2032,0.338667 0.49671,0.541867 0.29351,0.2032 0.65476,0.293512 0.36124,0.06773 0.69991,0.06773 0.67733,0 1.06116,-0.135467 0.4064,-0.135467 0.67733,-0.383822 0.24836,-0.203201 0.36125,-0.248356 0.11289,-0.06773 0.38382,-0.06773 h 2.93511 q 0.49671,0 0.49671,0.496712 0,0.270934 -0.33866,0.835379 -0.33867,0.541867 -1.06116,1.12889 -0.69991,0.564445 -1.8288,0.993423 -1.12889,0.428978 -2.68676,0.428978 -1.46756,0 -2.61902,-0.4064 -1.12889,-0.428978 -1.91912,-1.219201 -0.76764,-0.790224 -1.17404,-1.919114 -0.38383,-1.12889 -0.38383,-2.551291 0,-1.309512 0.38383,-2.415825 0.4064,-1.12889 1.17404,-1.941691 0.79023,-0.8128 1.91912,-1.264356 1.15146,-0.474134 2.61902,-0.474134 1.64818,0 2.79965,0.564445 1.17404,0.541867 1.89653,1.422401 0.74507,0.880534 1.06116,1.986847 0.33867,1.083734 0.33867,2.167469 v 0.632178 q 0,0.248356 -0.18063,0.428978 -0.18062,0.180623 -0.42897,0.180623 z m 2.032,-4.334938 q -0.94827,0 -1.44498,0.564445 -0.49671,0.564445 -0.58702,1.264357 h 4.064 q -0.0903,-0.699912 -0.58702,-1.264357 -0.49671,-0.564445 -1.44498,-0.564445 z m 20.18452,8.308631 q 0,0.248355 -0.18062,0.428978 -0.18063,0.180622 -0.42898,0.180622 h -2.8448 q -0.24836,0 -0.42898,-0.180622 -0.18063,-0.180623 -0.18063,-0.428978 v -5.712184 q 0,-0.970845 -0.47413,-1.557868 -0.47413,-0.587023 -1.49013,-0.587023 -1.01601,0 -1.49014,0.587023 -0.45156,0.587023 -0.45156,1.557868 v 5.712184 q 0,0.248355 -0.18062,0.428978 -0.18062,0.180622 -0.42898,0.180622 h -2.8448 q -0.24835,0 -0.42898,-0.180622 -0.18062,-0.180623 -0.18062,-0.428978 V 44.339599 q 0,-0.248355 0.18062,-0.428978 0.18063,-0.180622 0.42898,-0.180622 h 2.73192 q 0.24835,0 0.42897,0.180622 0.18063,0.180623 0.18063,0.428978 v 0.51929 q 0.18062,-0.225778 0.45155,-0.474134 0.27094,-0.248356 0.65476,-0.428978 0.38382,-0.2032 0.88053,-0.316089 0.51929,-0.135467 1.19663,-0.135467 1.08373,0 1.98684,0.316089 0.90311,0.293511 1.53529,0.92569 0.65476,0.632178 1.016,1.603024 0.36125,0.970845 0.36125,2.302935 z m 2.39323,-10.521256 q 0,-0.248355 0.18062,-0.428978 0.18062,-0.180622 0.42898,-0.180622 h 2.8448 q 0.24836,0 0.42898,0.180622 0.18062,0.180623 0.18062,0.428978 v 5.712184 q 0,0.970845 0.42898,1.557868 0.42898,0.587023 1.4224,0.587023 0.99342,0 1.39982,-0.587023 0.42898,-0.587023 0.42898,-1.557868 v -5.712184 q 0,-0.248355 0.18062,-0.428978 0.18063,-0.180622 0.42898,-0.180622 h 2.84481 q 0.24835,0 0.42897,0.180622 0.18063,0.180623 0.18063,0.428978 v 10.521256 q 0,0.248355 -0.18063,0.428978 -0.18062,0.180622 -0.42897,0.180622 h -2.61903 q -0.24835,0 -0.42898,-0.180622 -0.18062,-0.180623 -0.18062,-0.428978 v -0.51929 q -0.18062,0.248356 -0.45156,0.496712 -0.24835,0.225778 -0.63217,0.428978 -0.38383,0.180622 -0.90312,0.293511 -0.49671,0.135467 -1.19662,0.135467 -2.19005,0 -3.49956,-1.241779 -1.28693,-1.241779 -1.28693,-3.905959 z"
         id="text1"
         aria-label="Main Menu" />
    </g>
    <g
       id="g4"
       inkscape:label="RestartNormal"
       transform="translate(-29.372477,124.14745)">
      <g
         id="g3"
         inkscape:label="Button Background">
        <path
           id="path2"
           style="opacity:0.382;fill:#161616;fill-opacity:1;stroke:#000000;stroke-width:3;stroke-linecap:round;stroke-linejoin:round;stroke-dasharray:none;stroke-dashoffset:47.2176;stroke-opacity:1"
           d="m 126.05408,12.272625 c 9.06604,0.02167 17.16544,4.982344 20.32382,12.44782 0.93934,-0.184268 1.89039,-0.277783 2.84324,-0.27957 8.82486,0.02387 16.18566,7.778835 16.99431,17.90434 2.87976,-1.368584 6.09436,-2.085267 9.35964,-2.0867 10.97777,1.04e-4 19.87693,7.913191 19.87682,17.67438 -0.0487,3.526974 -1.28315,6.960317 -3.54449,9.85831 H 39.100724 c -0.202844,-1.016579 -0.305735,-2.053442 -0.30696,-3.09335 3.8e-5,-8.160092 6.126023,-14.775176 13.68289,-14.77533 2.47397,0.009 4.899397,0.742109 7.018174,2.12132 0.264516,-10.47306 8.981154,-18.828796 19.64532,-18.83193 4.022376,0.01389 7.943597,1.239675 11.23445,3.51193 2.978062,-2.554554 7.674496,-4.060501 12.665382,-4.06125 0.46051,0.0065 0.92035,0.02579 1.37821,0.0579 -0.0545,-0.446935 -0.091,-0.895421 -0.10955,-1.34462 -2.7e-4,-10.550439 9.73561,-19.103352 21.74544,-19.10323 z"
           inkscape:label="shadow"
           sodipodi:nodetypes="scccccccccccccccss" />
        <path
           id="path3"
           style="fill:#ffffff;fill-opacity:1;stroke:#000000;stroke-width:3;stroke-linecap:round;stroke-linejoin:round;stroke-dasharray:none;stroke-dashoffset:47.2176;stroke-opacity:1"
           d="m 118.13279,8.957487 c 9.06604,0.021667 17.16544,4.982344 20.32382,12.44782 0.93934,-0.184268 1.89039,-0.277783 2.84324,-0.27957 8.82486,0.02387 16.18566,7.778835 16.99431,17.90434 2.87976,-1.368584 6.09436,-2.085267 9.35964,-2.0867 10.97777,1.04e-4 19.87693,7.913191 19.87682,17.67438 -0.0487,3.526974 -1.28315,6.960317 -3.54449,9.85831 H 31.179437 c -0.202844,-1.016579 -0.305735,-2.053442 -0.30696,-3.09335 3.8e-5,-8.160092 6.126023,-14.775176 13.68289,-14.77533 2.47397,0.009 4.899397,0.742109 7.018174,2.12132 0.264516,-10.47306 8.981154,-18.828796 19.64532,-18.83193 4.022376,0.01389 7.943597,1.239675 11.23445,3.51193 2.978062,-2.554554 7.674496,-4.060501 12.66538,-4.06125 0.460508,0.0065 0.920351,0.02579 1.37821,0.0579 -0.05451,-0.446935 -0.09105,-0.895421 -0.10955,-1.34462 -2.73e-4,-10.550439 9.735609,-19.1033528 21.745439,-19.10323 z"
           inkscape:label="cloud"
           sodipodi:nodetypes="scccccccccccccccss" />
      </g>
      <path
         style="font-weight:bold;font-size:22.5778px;line-height:1.25;font-family:Rubik;-inkscape-font-specification:'Rubik Bold';letter-spacing:0px;word-spacing:0px;stroke-width:0.264583"
         d="m 78.117675,39.686743 q 1.490134,0 2.66418,0.316089 1.174046,0.316089 1.986847,0.948268 0.835378,0.632178 1.264356,1.625601 0.451556,0.970846 0.451556,2.280358 0,1.693335 -0.699911,2.822225 -0.699912,1.106312 -1.986847,1.693335 l 2.799647,5.373517 q 0.06773,0.135467 0.06773,0.248356 0,0.2032 -0.158045,0.361245 -0.135467,0.135466 -0.338667,0.135466 H 81.09794 q -0.451556,0 -0.654756,-0.2032 -0.180622,-0.2032 -0.293511,-0.4064 l -2.506136,-4.83165 h -2.077158 v 4.83165 q 0,0.248355 -0.180622,0.428978 -0.180623,0.180622 -0.428979,0.180622 h -2.957691 q -0.248356,0 -0.428979,-0.180622 -0.180622,-0.180623 -0.180622,-0.428978 v -14.58526 q 0,-0.248355 0.180622,-0.428978 0.180623,-0.180622 0.428979,-0.180622 z m -2.551292,6.841073 h 2.551292 q 0.948267,0 1.557868,-0.361244 0.632178,-0.361245 0.632178,-1.309513 0,-0.948267 -0.632178,-1.309512 -0.609601,-0.361245 -1.557868,-0.361245 h -2.551292 z m 14.540091,4.380094 q 0,0.519289 0.180623,0.857956 0.2032,0.338667 0.496711,0.541867 0.293512,0.203201 0.654757,0.293512 0.361245,0.06773 0.699912,0.06773 0.677334,0 1.061156,-0.135467 0.406401,-0.135466 0.677334,-0.383822 0.248356,-0.2032 0.361245,-0.248356 0.112889,-0.06773 0.383823,-0.06773 h 2.935114 q 0.496711,0 0.496711,0.496711 0,0.270934 -0.338667,0.835379 -0.338667,0.541867 -1.061156,1.12889 -0.699912,0.564445 -1.828802,0.993423 -1.12889,0.428978 -2.686758,0.428978 -1.467558,0 -2.619025,-0.4064 -1.12889,-0.428978 -1.919113,-1.219201 -0.767646,-0.790223 -1.174046,-1.919113 -0.383823,-1.12889 -0.383823,-2.551292 0,-1.309512 0.383823,-2.415825 0.4064,-1.12889 1.174046,-1.94169 0.790223,-0.812801 1.919113,-1.264357 1.151467,-0.474134 2.619025,-0.474134 1.648179,0 2.799647,0.564445 1.174045,0.541867 1.896535,1.422401 0.745068,0.880535 1.061157,1.986847 0.338667,1.083734 0.338667,2.167469 v 0.632178 q 0,0.248356 -0.180623,0.428978 -0.180622,0.180623 -0.428978,0.180623 z m 2.032003,-4.334938 q -0.948268,0 -1.44498,0.564445 -0.496711,0.564445 -0.587023,1.264357 h 4.064005 q -0.09031,-0.699912 -0.587023,-1.264357 -0.496712,-0.564445 -1.444979,-0.564445 z m 14.788423,5.396094 q 0,-0.248355 -0.18062,-0.383822 -0.15805,-0.135467 -0.56445,-0.225778 -0.4064,-0.09031 -1.08373,-0.180623 -0.65476,-0.09031 -1.64818,-0.270933 -1.71591,-0.316089 -2.6416,-1.264357 -0.925693,-0.948268 -0.925693,-2.483558 0,-0.767645 0.383823,-1.422402 0.38382,-0.654756 1.06116,-1.151467 0.69991,-0.496712 1.67075,-0.767646 0.97085,-0.293511 2.16747,-0.293511 1.17405,0 2.16747,0.293511 0.99342,0.270934 1.71591,0.72249 0.72249,0.428978 1.12889,1.016001 0.42898,0.564445 0.47414,1.12889 0.0226,0.248356 -0.18062,0.428978 -0.18063,0.180623 -0.42898,0.180623 h -2.68676 q -0.24836,0 -0.4064,-0.112889 -0.13547,-0.112889 -0.33867,-0.248356 -0.2032,-0.135467 -0.54187,-0.248356 -0.31608,-0.112889 -0.90311,-0.112889 -0.51929,0 -0.88053,0.158045 -0.33867,0.135466 -0.33867,0.474133 0,0.248356 0.11289,0.383823 0.11289,0.135467 0.45156,0.225778 0.33866,0.06773 0.94826,0.158045 0.6096,0.09031 1.60303,0.248355 2.05458,0.338667 2.98027,1.399824 0.94827,1.038579 0.94827,2.393247 0,0.767645 -0.38383,1.444979 -0.38382,0.654756 -1.12889,1.174046 -0.74506,0.496711 -1.80622,0.790223 -1.06116,0.293511 -2.41583,0.293511 -1.35466,0 -2.39324,-0.293511 -1.016,-0.316089 -1.71592,-0.790223 -0.69991,-0.474134 -1.08373,-1.038579 -0.361245,-0.564445 -0.406401,-1.106312 -0.02258,-0.248356 0.158045,-0.428978 0.203196,-0.180623 0.451556,-0.180623 h 2.79965 q 0.24835,0 0.36124,0.135467 0.11289,0.112889 0.29351,0.270934 0.18063,0.135466 0.51929,0.270933 0.33867,0.112889 1.016,0.112889 0.67734,0 1.17405,-0.180622 0.49671,-0.180623 0.49671,-0.51929 z m 11.44691,-1.061156 q 0,0.519289 0.22578,0.812801 0.22577,0.270933 0.74506,0.270933 h 1.80623 q 0.24835,0 0.42898,0.180623 0.18062,0.180622 0.18062,0.428978 v 2.280358 q 0,0.248355 -0.18062,0.428978 -0.18063,0.180622 -0.42898,0.180622 h -2.14489 q -1.06116,0 -1.94169,-0.293511 -0.85796,-0.316089 -1.46756,-0.880534 -0.6096,-0.587023 -0.94827,-1.399824 -0.33867,-0.835379 -0.33867,-1.873957 v -3.793071 h -1.67075 q -0.24836,0 -0.42898,-0.180622 -0.18062,-0.180623 -0.18062,-0.428979 v -2.280357 q 0,-0.248356 0.18062,-0.428979 0.18062,-0.180622 0.42898,-0.180622 h 1.67075 v -3.680182 q 0,-0.248355 0.18063,-0.428978 0.18062,-0.180622 0.42897,-0.180622 h 2.84481 q 0.24835,0 0.42898,0.180622 0.18062,0.180623 0.18062,0.428978 v 3.680182 h 2.55129 q 0.24836,0 0.42898,0.180622 0.18062,0.180623 0.18062,0.428979 v 2.280357 q 0,0.248356 -0.18062,0.428979 -0.18062,0.180622 -0.42898,0.180622 h -2.55129 z m 4.53811,1.241779 q 0,-1.490135 1.12889,-2.46098 1.15147,-0.970846 3.72534,-1.422402 l 2.6416,-0.451556 q 0,-0.541867 -0.29351,-0.880534 -0.29351,-0.361245 -1.016,-0.361245 -0.51929,0 -0.8128,0.158045 -0.27093,0.135466 -0.4064,0.248355 -0.2032,0.180623 -0.38382,0.225778 -0.18063,0.04516 -0.42898,0.04516 h -2.86738 q -0.22578,0 -0.38382,-0.135467 -0.13547,-0.135467 -0.11289,-0.361245 0.0451,-0.519289 0.45155,-1.083734 0.4064,-0.564445 1.10631,-1.038579 0.72249,-0.474134 1.69334,-0.790223 0.99342,-0.316089 2.14489,-0.316089 1.37725,0 2.39325,0.338667 1.016,0.338667 1.67075,0.948268 0.67734,0.587022 0.99343,1.422401 0.31609,0.812801 0.31609,1.806224 v 6.841074 q 0,0.248355 -0.18063,0.428978 -0.18062,0.180622 -0.42897,0.180622 h -2.84481 q -0.24835,0 -0.42897,-0.180622 -0.18063,-0.180623 -0.18063,-0.428978 v -0.632179 q -0.54186,0.677334 -1.35466,1.083735 -0.79023,0.383822 -2.09974,0.383822 -0.97085,0 -1.73849,-0.270933 -0.74507,-0.270934 -1.26436,-0.745068 -0.49671,-0.474134 -0.76764,-1.12889 -0.27094,-0.654756 -0.27094,-1.422401 z m 5.14774,0.519289 q 0.49671,0 0.92569,-0.158044 0.42898,-0.180623 0.74507,-0.474134 0.31609,-0.293512 0.49671,-0.677334 0.18062,-0.406401 0.18062,-0.857957 l -2.07715,0.31609 q -0.60961,0.112889 -0.99343,0.383822 -0.36124,0.270934 -0.36124,0.699912 0,0.428978 0.27093,0.609601 0.29351,0.158044 0.8128,0.158044 z m 17.11395,-8.918231 q 0.24836,0 0.42898,0.180622 0.18062,0.180623 0.18062,0.428979 v 2.280357 q 0,0.248356 -0.18062,0.428979 -0.18062,0.180622 -0.42898,0.180622 h -2.05458 q -2.07716,0 -2.07716,2.077158 v 5.554139 q 0,0.248355 -0.18062,0.428978 -0.18062,0.180622 -0.42898,0.180622 h -2.8448 q -0.24835,0 -0.42898,-0.180622 -0.18062,-0.180623 -0.18062,-0.428978 V 44.360348 q 0,-0.248356 0.18062,-0.428979 0.18063,-0.180622 0.42898,-0.180622 h 2.61903 q 0.24835,0 0.42897,0.180622 0.18063,0.180623 0.18063,0.428979 v 0.519289 q 0.51929,-0.496712 1.24178,-0.812801 0.74506,-0.316089 1.76106,-0.316089 z m 7.56355,7.157163 q 0,0.519289 0.22578,0.812801 0.22578,0.270933 0.74507,0.270933 h 1.80622 q 0.24836,0 0.42898,0.180623 0.18062,0.180622 0.18062,0.428978 v 2.280358 q 0,0.248355 -0.18062,0.428978 -0.18062,0.180622 -0.42898,0.180622 h -2.14489 q -1.06116,0 -1.94169,-0.293511 -0.85796,-0.316089 -1.46756,-0.880534 -0.6096,-0.587023 -0.94827,-1.399824 -0.33866,-0.835379 -0.33866,-1.873957 v -3.793071 h -1.67076 q -0.24836,0 -0.42898,-0.180622 -0.18062,-0.180623 -0.18062,-0.428979 v -2.280357 q 0,-0.248356 0.18062,-0.428979 0.18062,-0.180622 0.42898,-0.180622 h 1.67076 v -3.680182 q 0,-0.248355 0.18062,-0.428978 0.18062,-0.180622 0.42898,-0.180622 h 2.8448 q 0.24836,0 0.42898,0.180622 0.18062,0.180623 0.18062,0.428978 v 3.680182 h 2.55129 q 0.24836,0 0.42898,0.180622 0.18062,0.180623 0.18062,0.428979 v 2.280357 q 0,0.248356 -0.18062,0.428979 -0.18062,0.180622 -0.42898,0.180622 h -2.55129 z"
         id="text3"
         aria-label="Restart" />
    </g>
    <g
       id="g6"
       inkscape:label="QuitNormal"
       transform="translate(-29.372477,58.344985)">
      <g
         id="g5"
         inkscape:label="Button Background">
        <path
           id="path4"
           style="opacity:0.382;fill:#161616;fill-opacity:1;stroke:#000000;stroke-width:3;stroke-linecap:round;stroke-linejoin:round;stroke-dasharray:none;stroke-dashoffset:47.2176;stroke-opacity:1"
           d="m 126.05408,12.272625 c 9.06604,0.02167 17.16544,4.982344 20.32382,12.44782 0.93934,-0.184268 1.89039,-0.277783 2.84324,-0.27957 8.82486,0.02387 16.18566,7.778835 16.99431,17.90434 2.87976,-1.368584 6.09436,-2.085267 9.35964,-2.0867 10.97777,1.04e-4 19.87693,7.913191 19.87682,17.67438 -0.0487,3.526974 -1.28315,6.960317 -3.54449,9.85831 H 39.100724 c -0.202844,-1.016579 -0.305735,-2.053442 -0.30696,-3.09335 3.8e-5,-8.160092 6.126023,-14.775176 13.68289,-14.77533 2.47397,0.009 4.899397,0.742109 7.018174,2.12132 0.264516,-10.47306 8.981154,-18.828796 19.64532,-18.83193 4.022376,0.01389 7.943597,1.239675 11.23445,3.51193 2.978062,-2.554554 7.674496,-4.060501 12.665382,-4.06125 0.46051,0.0065 0.92035,0.02579 1.37821,0.0579 -0.0545,-0.446935 -0.091,-0.895421 -0.10955,-1.34462 -2.7e-4,-10.550439 9.73561,-19.103352 21.74544,-19.10323 z"
           inkscape:label="shadow"
           sodipodi:nodetypes="scccccccccccccccss" />
        <path
           id="path5"
           style="fill:#ffffff;fill-opacity:1;stroke:#000000;stroke-width:3;stroke-linecap:round;stroke-linejoin:round;stroke-dasharray:none;stroke-dashoffset:47.2176;stroke-opacity:1"
           d="m 118.13279,8.957487 c 9.06604,0.021667 17.16544,4.982344 20.32382,12.44782 0.93934,-0.184268 1.89039,-0.277783 2.84324,-0.27957 8.82486,0.02387 16.18566,7.778835 16.99431,17.90434 2.87976,-1.368584 6.09436,-2.085267 9.35964,-2.0867 10.97777,1.04e-4 19.87693,7.913191 19.87682,17.67438 -0.0487,3.526974 -1.28315,6.960317 -3.54449,9.85831 H 31.179437 c -0.202844,-1.016579 -0.305735,-2.053442 -0.30696,-3.09335 3.8e-5,-8.160092 6.126023,-14.775176 13.68289,-14.77533 2.47397,0.009 4.899397,0.742109 7.018174,2.12132 0.264516,-10.47306 8.981154,-18.828796 19.64532,-18.83193 4.022376,0.01389 7.943597,1.239675 11.23445,3.51193 2.978062,-2.554554 7.674496,-4.060501 12.66538,-4.06125 0.460508,0.0065 0.920351,0.02579 1.37821,0.0579 -0.05451,-0.446935 -0.09105,-0.895421 -0.10955,-1.34462 -2.73e-4,-10.550439 9.735609,-19.1033528 21.745439,-19.10323 z"
           inkscape:label="cloud"
           sodipodi:nodetypes="scccccccccccccccss" />
      </g>
      <path
         style="font-weight:bold;font-size:22.5778px;line-height:1.25;font-family:Rubik;-inkscape-font-specification:'Rubik Bold';letter-spacing:0px;word-spacing:0px;stroke-width:0.264583"
         d="m 89.026573,40.422917 q 0.06773,-1.264357 0.541867,-2.370669 0.496711,-1.12889 1.377246,-1.941691 0.903112,-0.835378 2.167469,-1.309512 1.286934,-0.496712 2.957691,-0.496712 1.64818,0 2.935115,0.496712 1.286939,0.474134 2.167469,1.309512 0.90311,0.812801 1.37725,1.941691 0.49671,1.106312 0.56444,2.370669 0.0452,0.970846 0.0452,2.032002 0,1.061157 -0.0452,1.986847 -0.0677,1.196623 -0.49671,2.235202 -0.4064,1.038579 -1.17405,1.85138 l 1.78365,2.573869 q 0.0226,0.04516 0.0452,0.09031 0.0226,0.06773 0.0226,0.112889 0.0452,0.2032 -0.11289,0.338667 -0.13546,0.158045 -0.33866,0.158045 h -3.183473 q -0.428978,0 -0.632179,-0.2032 -0.2032,-0.180623 -0.316089,-0.31609 l -0.632178,-0.948267 q -0.474134,0.112889 -0.970846,0.158044 -0.496711,0.06773 -1.038579,0.06773 -1.670757,0 -2.957691,-0.474134 -1.264357,-0.474134 -2.167469,-1.309512 -0.880535,-0.835379 -1.377246,-1.941691 -0.474134,-1.12889 -0.541867,-2.393247 -0.04516,-0.92569 -0.04516,-1.986847 0,-1.061156 0.04516,-2.032002 z m 9.911654,3.90596 q 0.02258,-0.406401 0.04516,-0.903112 0.02258,-0.496712 0.02258,-1.016001 0,-0.51929 -0.02258,-0.993423 -0.02258,-0.496712 -0.04516,-0.880535 -0.04515,-0.564445 -0.248356,-1.038579 -0.180622,-0.474133 -0.541867,-0.8128 -0.338667,-0.361245 -0.857956,-0.564445 -0.51929,-0.203201 -1.219202,-0.203201 -0.699911,0 -1.219201,0.203201 -0.519289,0.2032 -0.880534,0.564445 -0.338667,0.338667 -0.541867,0.8128 -0.180623,0.474134 -0.225778,1.038579 -0.04516,0.383823 -0.06773,0.880535 0,0.474133 0,0.993423 0,0.519289 0,1.016001 0.02258,0.496711 0.06773,0.903112 0.09031,1.12889 0.767645,1.873957 0.699912,0.745068 2.099735,0.745068 1.399824,0 2.077158,-0.745068 0.677334,-0.745067 0.790223,-1.873957 z m 6.434643,-5.125161 q 0,-0.248356 0.18062,-0.428978 0.18062,-0.180623 0.42898,-0.180623 h 2.8448 q 0.24836,0 0.42898,0.180623 0.18062,0.180622 0.18062,0.428978 V 44.9159 q 0,0.970845 0.42898,1.557868 0.42898,0.587023 1.4224,0.587023 0.99342,0 1.39982,-0.587023 0.42898,-0.587023 0.42898,-1.557868 v -5.712184 q 0,-0.248356 0.18062,-0.428978 0.18063,-0.180623 0.42898,-0.180623 h 2.84481 q 0.24835,0 0.42897,0.180623 0.18063,0.180622 0.18063,0.428978 v 10.521255 q 0,0.248356 -0.18063,0.428978 -0.18062,0.180623 -0.42897,0.180623 h -2.61903 q -0.24836,0 -0.42898,-0.180623 -0.18062,-0.180622 -0.18062,-0.428978 v -0.519289 q -0.18062,0.248356 -0.45156,0.496711 -0.24835,0.225778 -0.63217,0.428979 -0.38383,0.180622 -0.90312,0.293511 -0.49671,0.135467 -1.19662,0.135467 -2.19005,0 -3.49956,-1.241779 -1.28693,-1.241779 -1.28693,-3.90596 z m 18.49119,10.521255 q 0,0.248356 -0.18062,0.428978 -0.18062,0.180623 -0.42898,0.180623 h -2.8448 q -0.24836,0 -0.42898,-0.180623 -0.18062,-0.180622 -0.18062,-0.428978 V 39.203716 q 0,-0.248356 0.18062,-0.428978 0.18062,-0.180623 0.42898,-0.180623 h 2.8448 q 0.24836,0 0.42898,0.180623 0.18062,0.180622 0.18062,0.428978 z m 0,-12.982235 q 0,0.248356 -0.18062,0.428978 -0.18062,0.180622 -0.42898,0.180622 h -2.8448 q -0.24836,0 -0.42898,-0.180622 -0.18062,-0.180622 -0.18062,-0.428978 v -2.280358 q 0,-0.248356 0.18062,-0.428978 0.18062,-0.180623 0.42898,-0.180623 h 2.8448 q 0.24836,0 0.42898,0.180623 0.18062,0.180622 0.18062,0.428978 z m 8.01511,9.008542 q 0,0.51929 0.22578,0.812801 0.22577,0.270934 0.74506,0.270934 h 1.80623 q 0.24835,0 0.42898,0.180622 0.18062,0.180623 0.18062,0.428978 v 2.280358 q 0,0.248356 -0.18062,0.428978 -0.18063,0.180623 -0.42898,0.180623 h -2.14489 q -1.06116,0 -1.94169,-0.293512 -0.85796,-0.316089 -1.46756,-0.880534 -0.6096,-0.587023 -0.94827,-1.399823 -0.33867,-0.835379 -0.33867,-1.873958 v -3.79307 h -1.67075 q -0.24836,0 -0.42898,-0.180623 -0.18062,-0.180622 -0.18062,-0.428978 v -2.280358 q 0,-0.248356 0.18062,-0.428978 0.18062,-0.180623 0.42898,-0.180623 h 1.67075 v -3.680181 q 0,-0.248356 0.18063,-0.428978 0.18062,-0.180623 0.42897,-0.180623 h 2.84481 q 0.24835,0 0.42898,0.180623 0.18062,0.180622 0.18062,0.428978 v 3.680181 h 2.55129 q 0.24836,0 0.42898,0.180623 0.18062,0.180622 0.18062,0.428978 v 2.280358 q 0,0.248356 -0.18062,0.428978 -0.18062,0.180623 -0.42898,0.180623 h -2.55129 z"
         id="text5"
         aria-label="Quit" />
    </g>
    <g
       id="g8"
       inkscape:label="PlayNormal"
       transform="translate(-29.372477,-7.4574874)">
      <g
         id="g7"
         inkscape:label="Button Background">
        <path
           id="path6"
           style="opacity:0.382;fill:#161616;fill-opacity:1;stroke:#000000;stroke-width:3;stroke-linecap:round;stroke-linejoin:round;stroke-dasharray:none;stroke-dashoffset:47.2176;stroke-opacity:1"
           d="m 126.05408,12.272625 c 9.06604,0.02167 17.16544,4.982344 20.32382,12.44782 0.93934,-0.184268 1.89039,-0.277783 2.84324,-0.27957 8.82486,0.02387 16.18566,7.778835 16.99431,17.90434 2.87976,-1.368584 6.09436,-2.085267 9.35964,-2.0867 10.97777,1.04e-4 19.87693,7.913191 19.87682,17.67438 -0.0487,3.526974 -1.28315,6.960317 -3.54449,9.85831 H 39.100724 c -0.202844,-1.016579 -0.305735,-2.053442 -0.30696,-3.09335 3.8e-5,-8.160092 6.126023,-14.775176 13.68289,-14.77533 2.47397,0.009 4.899397,0.742109 7.018174,2.12132 0.264516,-10.47306 8.981154,-18.828796 19.64532,-18.83193 4.022376,0.01389 7.943597,1.239675 11.23445,3.51193 2.978062,-2.554554 7.674496,-4.060501 12.665382,-4.06125 0.46051,0.0065 0.92035,0.02579 1.37821,0.0579 -0.0545,-0.446935 -0.091,-0.895421 -0.10955,-1.34462 -2.7e-4,-10.550439 9.73561,-19.103352 21.74544,-19.10323 z"
           inkscape:label="shadow"
           sodipodi:nodetypes="scccccccccccccccss" />
        <path
           id="path7"
           style="fill:#ffffff;fill-opacity:1;stroke:#000000;stroke-width:3;stroke-linecap:round;stroke-linejoin:round;stroke-dasharray:none;stroke-dashoffset:47.2176;stroke-opacity:1"
           d="m 118.13279,8.957487 c 9.06604,0.021667 17.16544,4.982344 20.32382,12.44782 0.93934,-0.184268 1.89039,-0.277783 2.84324,-0.27957 8.82486,0.02387 16.18566,7.778835 16.99431,17.90434 2.87976,-1.368584 6.09436,-2.085267 9.35964,-2.0867 10.97777,1.04e-4 19.87693,7.913191 19.87682,17.67438 -0.0487,3.526974 -1.28315,6.960317 -3.54449,9.85831 H 31.179437 c -0.202844,-1.016579 -0.305735,-2.053442 -0.30696,-3.09335 3.8e-5,-8.160092 6.126023,-14.775176 13.68289,-14.77533 2.47397,0.009 4.899397,0.742109 7.018174,2.12132 0.264516,-10.47306 8.981154,-18.828796 19.64532,-18.83193 4.022376,0.01389 7.943597,1.239675 11.23445,3.51193 2.978062,-2.554554 7.674496,-4.060501 12.66538,-4.06125 0.460508,0.0065 0.920351,0.02579 1.37821,0.0579 -0.05451,-0.446935 -0.09105,-0.895421 -0.10955,-1.34462 -2.73e-4,-10.550439 9.735609,-19.1033528 21.745439,-19.10323 z"
           inkscape:label="cloud"
           sodipodi:nodetypes="scccccccccccccccss" />
      </g>
      <path
         style="font-weight:bold;font-size:22.5778px;line-height:1.25;font-family:Rubik;-inkscape-font-specification:'Rubik Bold';letter-spacing:0px;word-spacing:0px;stroke-width:0.264583"
         d="m 102.78664,38.762991 q 1.44498,0 2.59645,0.338667 1.15147,0.316089 1.96427,0.993423 0.8128,0.654756 1.24178,1.64818 0.45155,0.993423 0.45155,2.302935 0,1.332091 -0.45155,2.325514 -0.42898,0.993423 -1.24178,1.648179 -0.8128,0.654756 -1.96427,0.993423 -1.15147,0.338668 -2.59645,0.338668 h -2.889958 v 4.605871 q 0,0.248356 -0.180622,0.428978 -0.180622,0.180622 -0.428978,0.180622 H 96.32939 q -0.248356,0 -0.428978,-0.180622 -0.180623,-0.180622 -0.180623,-0.428978 V 39.372592 q 0,-0.248356 0.180623,-0.428979 0.180622,-0.180622 0.428978,-0.180622 z m -2.889958,7.066852 h 2.777068 q 0.94827,0 1.55787,-0.406401 0.63218,-0.428978 0.63218,-1.377246 0,-0.948267 -0.63218,-1.354668 -0.6096,-0.428978 -1.55787,-0.428978 h -2.777068 z m 15.104528,8.128008 q 0,0.248356 -0.18063,0.428978 -0.18062,0.180622 -0.42897,0.180622 h -2.84481 q -0.24835,0 -0.42897,-0.180622 -0.18063,-0.180622 -0.18063,-0.428978 V 39.146814 q 0,-0.248356 0.18063,-0.428979 0.18062,-0.180622 0.42897,-0.180622 h 2.84481 q 0.24835,0 0.42897,0.180622 0.18063,0.180623 0.18063,0.428979 z m 1.85137,-2.731914 q 0,-1.490135 1.12889,-2.46098 1.15146,-0.970846 3.72533,-1.422402 l 2.64161,-0.451556 q 0,-0.541867 -0.29352,-0.880534 -0.29351,-0.361245 -1.016,-0.361245 -0.51929,0 -0.8128,0.158045 -0.27093,0.135467 -0.4064,0.248356 -0.2032,0.180622 -0.38382,0.225778 -0.18062,0.04516 -0.42898,0.04516 h -2.86738 q -0.22578,0 -0.38382,-0.135467 -0.13547,-0.135466 -0.11289,-0.361244 0.0452,-0.51929 0.45156,-1.083735 0.4064,-0.564445 1.10631,-1.038579 0.72249,-0.474133 1.69333,-0.790223 0.99343,-0.316089 2.14489,-0.316089 1.37725,0 2.39325,0.338667 1.016,0.338667 1.67076,0.948268 0.67733,0.587023 0.99342,1.422401 0.31609,0.812801 0.31609,1.806224 v 6.841074 q 0,0.248356 -0.18062,0.428978 -0.18062,0.180622 -0.42898,0.180622 h -2.8448 q -0.24836,0 -0.42898,-0.180622 -0.18062,-0.180622 -0.18062,-0.428978 v -0.632179 q -0.54187,0.677334 -1.35467,1.083735 -0.79023,0.383822 -2.09974,0.383822 -0.97084,0 -1.73849,-0.270933 -0.74507,-0.270934 -1.26435,-0.745068 -0.49672,-0.474133 -0.76765,-1.12889 -0.27093,-0.654756 -0.27093,-1.422401 z m 5.14773,0.519289 q 0.49672,0 0.92569,-0.158044 0.42898,-0.180623 0.74507,-0.474134 0.31609,-0.293511 0.49671,-0.677334 0.18063,-0.4064 0.18063,-0.857956 l -2.07716,0.316089 q -0.6096,0.112889 -0.99342,0.383822 -0.36125,0.270934 -0.36125,0.699912 0,0.428978 0.27093,0.609601 0.29352,0.158044 0.8128,0.158044 z m 14.63036,6.57014 q -0.0677,0.180623 -0.22578,0.361245 -0.15804,0.180623 -0.42898,0.180623 h -2.95769 q -0.22578,0 -0.38382,-0.158045 -0.15805,-0.158045 -0.15805,-0.383823 0,-0.09031 0.0226,-0.158044 l 1.71591,-4.041427 -4.56071,-10.588988 q -0.0226,-0.06773 -0.0226,-0.158045 0,-0.225778 0.15804,-0.383822 0.15805,-0.158045 0.38383,-0.158045 h 2.95769 q 0.27093,0 0.42898,0.180622 0.15804,0.180623 0.22578,0.361245 l 2.50613,5.870228 2.48356,-5.870228 q 0.0677,-0.180622 0.22578,-0.361245 0.15804,-0.180622 0.42898,-0.180622 h 2.98027 q 0.22577,0 0.38382,0.158045 0.15804,0.158044 0.15804,0.383822 0,0.09031 -0.0226,0.158045 z"
         id="text7"
         aria-label="Play" />
    </g>
    <g
       id="g24"
       inkscape:label="CreditsPressed"
       transform="translate(142.29142,321.83417)">
      <g
         id="g23"
         inkscape:label="Button Background">
        <path
           id="path10"
           style="opacity:0.382;fill:#161616;fill-opacity:1;stroke:#000000;stroke-width:3;stroke-linecap:round;stroke-linejoin:round;stroke-dasharray:none;stroke-dashoffset:47.2176;stroke-opacity:1"
           d="m 126.05408,12.272625 c 9.06604,0.02167 17.16544,4.982344 20.32382,12.44782 0.93934,-0.184268 1.89039,-0.277783 2.84324,-0.27957 8.82486,0.02387 16.18566,7.778835 16.99431,17.90434 2.87976,-1.368584 6.09436,-2.085267 9.35964,-2.0867 10.97777,1.04e-4 19.87693,7.913191 19.87682,17.67438 -0.0487,3.526974 -1.28315,6.960317 -3.54449,9.85831 H 39.100724 c -0.202844,-1.016579 -0.305735,-2.053442 -0.30696,-3.09335 3.8e-5,-8.160092 6.126023,-14.775176 13.68289,-14.77533 2.47397,0.009 4.899397,0.742109 7.018174,2.12132 0.264516,-10.47306 8.981154,-18.828796 19.64532,-18.83193 4.022376,0.01389 7.943597,1.239675 11.23445,3.51193 2.978062,-2.554554 7.674496,-4.060501 12.665382,-4.06125 0.46051,0.0065 0.92035,0.02579 1.37821,0.0579 -0.0545,-0.446935 -0.091,-0.895421 -0.10955,-1.34462 -2.7e-4,-10.550439 9.73561,-19.103352 21.74544,-19.10323 z"
           inkscape:label="shadow"
           sodipodi:nodetypes="scccccccccccccccss" />
        <path
           id="path21"
           style="fill:#c3c3c3;fill-opacity:1;stroke:#000000;stroke-width:3;stroke-linecap:round;stroke-linejoin:round;stroke-dasharray:none;stroke-dashoffset:47.2176;stroke-opacity:1"
           d="m 118.13279,8.957487 c 9.06604,0.021667 17.16544,4.982344 20.32382,12.44782 0.93934,-0.184268 1.89039,-0.277783 2.84324,-0.27957 8.82486,0.02387 16.18566,7.778835 16.99431,17.90434 2.87976,-1.368584 6.09436,-2.085267 9.35964,-2.0867 10.97777,1.04e-4 19.87693,7.913191 19.87682,17.67438 -0.0487,3.526974 -1.28315,6.960317 -3.54449,9.85831 H 31.179437 c -0.202844,-1.016579 -0.305735,-2.053442 -0.30696,-3.09335 3.8e-5,-8.160092 6.126023,-14.775176 13.68289,-14.77533 2.47397,0.009 4.899397,0.742109 7.018174,2.12132 0.264516,-10.47306 8.981154,-18.828796 19.64532,-18.83193 4.022376,0.01389 7.943597,1.239675 11.23445,3.51193 2.978062,-2.554554 7.674496,-4.060501 12.66538,-4.06125 0.460508,0.0065 0.920351,0.02579 1.37821,0.0579 -0.05451,-0.446935 -0.09105,-0.895421 -0.10955,-1.34462 -2.73e-4,-10.550439 9.735609,-19.1033528 21.745439,-19.10323 z"
           inkscape:label="cloud"
           sodipodi:nodetypes="scccccccccccccccss" />
      </g>
      <text
         xml:space="preserve"
         style="font-size:22.5778px;line-height:1.25;font-family:'Liberation Sans Narrow';-inkscape-font-specification:'Liberation Sans Narrow';letter-spacing:0px;word-spacing:0px;stroke-width:0.264583"
         x="265.90991"
         y="309.22266"
         id="text26"
         transform="translate(-194.59278,-254.31506)"><tspan
           sodipodi:role="line"
           id="tspan26"
           style="font-style:normal;font-variant:normal;font-weight:bold;font-stretch:normal;font-size:22.5778px;font-family:Rubik;-inkscape-font-specification:'Rubik Bold';stroke-width:0.264583"
           x="265.90991"
           y="309.22266">Credits</tspan></text>
    </g>
    <g
       id="g13"
       inkscape:label="OptionsPressed"
       transform="translate(142.29142,256.0317)">
      <g
         id="g12"
         inkscape:label="Button Background">
        <path
           id="path11"
           style="opacity:0.382;fill:#161616;fill-opacity:1;stroke:#000000;stroke-width:3;stroke-linecap:round;stroke-linejoin:round;stroke-dasharray:none;stroke-dashoffset:47.2176;stroke-opacity:1"
           d="m 126.05408,12.272625 c 9.06604,0.02167 17.16544,4.982344 20.32382,12.44782 0.93934,-0.184268 1.89039,-0.277783 2.84324,-0.27957 8.82486,0.02387 16.18566,7.778835 16.99431,17.90434 2.87976,-1.368584 6.09436,-2.085267 9.35964,-2.0867 10.97777,1.04e-4 19.87693,7.913191 19.87682,17.67438 -0.0487,3.526974 -1.28315,6.960317 -3.54449,9.85831 H 39.100724 c -0.202844,-1.016579 -0.305735,-2.053442 -0.30696,-3.09335 3.8e-5,-8.160092 6.126023,-14.775176 13.68289,-14.77533 2.47397,0.009 4.899397,0.742109 7.018174,2.12132 0.264516,-10.47306 8.981154,-18.828796 19.64532,-18.83193 4.022376,0.01389 7.943597,1.239675 11.23445,3.51193 2.978062,-2.554554 7.674496,-4.060501 12.665382,-4.06125 0.46051,0.0065 0.92035,0.02579 1.37821,0.0579 -0.0545,-0.446935 -0.091,-0.895421 -0.10955,-1.34462 -2.7e-4,-10.550439 9.73561,-19.103352 21.74544,-19.10323 z"
           inkscape:label="shadow"
           sodipodi:nodetypes="scccccccccccccccss" />
        <path
           id="path12"
           style="fill:#c3c3c3;fill-opacity:1;stroke:#000000;stroke-width:3;stroke-linecap:round;stroke-linejoin:round;stroke-dasharray:none;stroke-dashoffset:47.2176;stroke-opacity:1"
           d="m 118.13279,8.957487 c 9.06604,0.021667 17.16544,4.982344 20.32382,12.44782 0.93934,-0.184268 1.89039,-0.277783 2.84324,-0.27957 8.82486,0.02387 16.18566,7.778835 16.99431,17.90434 2.87976,-1.368584 6.09436,-2.085267 9.35964,-2.0867 10.97777,1.04e-4 19.87693,7.913191 19.87682,17.67438 -0.0487,3.526974 -1.28315,6.960317 -3.54449,9.85831 H 31.179437 c -0.202844,-1.016579 -0.305735,-2.053442 -0.30696,-3.09335 3.8e-5,-8.160092 6.126023,-14.775176 13.68289,-14.77533 2.47397,0.009 4.899397,0.742109 7.018174,2.12132 0.264516,-10.47306 8.981154,-18.828796 19.64532,-18.83193 4.022376,0.01389 7.943597,1.239675 11.23445,3.51193 2.978062,-2.554554 7.674496,-4.060501 12.66538,-4.06125 0.460508,0.0065 0.920351,0.02579 1.37821,0.0579 -0.05451,-0.446935 -0.09105,-0.895421 -0.10955,-1.34462 -2.73e-4,-10.550439 9.735609,-19.1033528 21.745439,-19.10323 z"
           inkscape:label="cloud"
           sodipodi:nodetypes="scccccccccccccccss" />
      </g>
      <path
         style="font-weight:bold;font-size:22.5778px;line-height:1.25;font-family:Rubik;-inkscape-font-specification:'Rubik Bold';letter-spacing:0px;word-spacing:0px;stroke-width:0.264583"
         d="m 71.706252,45.699403 q 0.06773,-1.264357 0.541868,-2.370669 0.496711,-1.12889 1.377246,-1.941691 0.903112,-0.835379 2.167468,-1.309513 1.286935,-0.496711 2.957692,-0.496711 1.64818,0 2.935114,0.496711 1.286935,0.474134 2.167469,1.309513 0.903112,0.812801 1.377246,1.941691 0.496712,1.106312 0.564445,2.370669 0.04516,0.970845 0.04516,2.032002 0,1.061156 -0.04516,1.986846 -0.06773,1.264357 -0.564445,2.393247 -0.474134,1.106312 -1.377246,1.941691 -0.880534,0.835379 -2.167469,1.309512 -1.286934,0.474134 -2.935114,0.474134 -1.670757,0 -2.957692,-0.474134 -1.264356,-0.474133 -2.167468,-1.309512 -0.880535,-0.835379 -1.377246,-1.941691 -0.474134,-1.12889 -0.541868,-2.393247 -0.04516,-0.92569 -0.04516,-1.986846 0,-1.061157 0.04516,-2.032002 z m 9.911655,3.905959 q 0.02258,-0.4064 0.04516,-0.903112 0.02258,-0.496711 0.02258,-1.016001 0,-0.519289 -0.02258,-0.993423 -0.02258,-0.496712 -0.04516,-0.880534 -0.04516,-0.564445 -0.248356,-1.038579 -0.180622,-0.474134 -0.541867,-0.812801 -0.338667,-0.361245 -0.857956,-0.564445 -0.51929,-0.2032 -1.219202,-0.2032 -0.699912,0 -1.219201,0.2032 -0.519289,0.2032 -0.880534,0.564445 -0.338667,0.338667 -0.541867,0.812801 -0.180623,0.474134 -0.225778,1.038579 -0.04516,0.383822 -0.06773,0.880534 0,0.474134 0,0.993423 0,0.51929 0,1.016001 0.02258,0.496712 0.06773,0.903112 0.09031,1.12889 0.767645,1.873958 0.699912,0.745067 2.099735,0.745067 1.399824,0 2.077158,-0.745067 0.677334,-0.745068 0.790223,-1.873958 z m 13.636958,6.231473 q -0.654757,0 -1.151468,-0.135467 -0.496712,-0.135466 -0.857957,-0.338667 -0.361245,-0.2032 -0.6096,-0.428978 -0.248356,-0.248356 -0.406401,-0.451556 v 4.809072 q 0,0.248356 -0.180622,0.428978 -0.180623,0.180622 -0.428978,0.180622 h -2.844803 q -0.248356,0 -0.428978,-0.180622 -0.180623,-0.180622 -0.180623,-0.428978 V 44.480202 q 0,-0.248356 0.180623,-0.428979 0.180622,-0.180622 0.428978,-0.180622 h 2.731914 q 0.248355,0 0.428978,0.180622 0.180622,0.180623 0.180622,0.428979 v 0.519289 q 0.2032,-0.225778 0.428978,-0.474134 0.248356,-0.248356 0.587023,-0.428978 0.361245,-0.2032 0.857957,-0.316089 0.519289,-0.135467 1.264357,-0.135467 1.016001,0 1.919113,0.316089 0.903112,0.293512 1.580446,0.948268 0.677334,0.632178 1.083734,1.603024 0.428982,0.970845 0.474132,2.302935 0.0226,0.338667 0.0226,0.92569 0,0.564445 -0.0226,0.903112 -0.0452,1.33209 -0.474132,2.302936 -0.4064,0.970845 -1.083734,1.625601 -0.677334,0.632179 -1.580446,0.948268 -0.903112,0.316089 -1.919113,0.316089 z m 1.016001,-5.463827 q 0.06773,-0.632179 0,-1.264357 -0.06773,-0.790223 -0.51929,-1.377246 -0.451556,-0.587023 -1.512712,-0.587023 -0.496712,0 -0.857957,0.158045 -0.361245,0.158044 -0.609601,0.428978 -0.225778,0.248356 -0.361244,0.564445 -0.135467,0.316089 -0.180623,0.654756 -0.04515,0.338667 -0.04515,0.790223 0,0.451556 0.04515,0.790223 0.04516,0.338667 0.180623,0.654756 0.135466,0.31609 0.361244,0.587023 0.248356,0.248356 0.609601,0.406401 0.361245,0.158044 0.857957,0.158044 1.061156,0 1.512712,-0.587023 0.451556,-0.587022 0.51929,-1.377245 z m 11.604964,0.654756 q 0,0.519289 0.22578,0.812801 0.22578,0.270933 0.74507,0.270933 h 1.80622 q 0.24836,0 0.42898,0.180623 0.18062,0.180622 0.18062,0.428978 v 2.280358 q 0,0.248355 -0.18062,0.428978 -0.18062,0.180622 -0.42898,0.180622 h -2.14489 q -1.06116,0 -1.94169,-0.293511 -0.85796,-0.316089 -1.46756,-0.880534 -0.6096,-0.587023 -0.94827,-1.399824 -0.33866,-0.835379 -0.33866,-1.873957 V 47.37016 h -1.67076 q -0.24836,0 -0.42898,-0.180622 -0.18062,-0.180623 -0.18062,-0.428979 v -2.280357 q 0,-0.248356 0.18062,-0.428979 0.18062,-0.180622 0.42898,-0.180622 h 1.67076 v -3.680182 q 0,-0.248355 0.18062,-0.428978 0.18062,-0.180622 0.42898,-0.180622 h 2.8448 q 0.24836,0 0.42898,0.180622 0.18062,0.180623 0.18062,0.428978 v 3.680182 h 2.55129 q 0.24836,0 0.42898,0.180622 0.18062,0.180623 0.18062,0.428979 v 2.280357 q 0,0.248356 -0.18062,0.428979 -0.18062,0.180622 -0.42898,0.180622 h -2.55129 z m 9.36976,3.973693 q 0,0.248355 -0.18062,0.428978 -0.18062,0.180622 -0.42898,0.180622 h -2.8448 q -0.24835,0 -0.42898,-0.180622 -0.18062,-0.180623 -0.18062,-0.428978 V 44.480202 q 0,-0.248356 0.18062,-0.428979 0.18063,-0.180622 0.42898,-0.180622 h 2.8448 q 0.24836,0 0.42898,0.180622 0.18062,0.180623 0.18062,0.428979 z m 0,-12.982236 q 0,0.248356 -0.18062,0.428978 -0.18062,0.180623 -0.42898,0.180623 h -2.8448 q -0.24835,0 -0.42898,-0.180623 -0.18062,-0.180622 -0.18062,-0.428978 v -2.280358 q 0,-0.248355 0.18062,-0.428978 0.18063,-0.180622 0.42898,-0.180622 h 2.8448 q 0.24836,0 0.42898,0.180622 0.18062,0.180623 0.18062,0.428978 z m 14.40463,6.863652 q 0.0226,0.338667 0.0226,0.880534 0,0.519289 -0.0226,0.857956 -0.0452,1.083735 -0.49671,2.032002 -0.45156,0.948268 -1.24178,1.670758 -0.79022,0.699911 -1.91911,1.106312 -1.10632,0.4064 -2.48356,0.4064 -1.37725,0 -2.50614,-0.4064 -1.10631,-0.406401 -1.89653,-1.106312 -0.79023,-0.72249 -1.24178,-1.670758 -0.45156,-0.948267 -0.49671,-2.032002 -0.0226,-0.338667 -0.0226,-0.857956 0,-0.541867 0.0226,-0.880534 0.0226,-1.083735 0.47413,-2.032002 0.45156,-0.948268 1.24178,-1.64818 0.8128,-0.722489 1.91911,-1.12889 1.12889,-0.428978 2.50614,-0.428978 1.37724,0 2.48356,0.428978 1.12889,0.406401 1.91911,1.12889 0.8128,0.699912 1.24178,1.64818 0.45155,0.948267 0.49671,2.032002 z m -8.21832,1.625601 q 0.0677,0.857957 0.6096,1.354668 0.56445,0.474134 1.46756,0.474134 0.90311,0 1.44498,-0.474134 0.56444,-0.496711 0.63218,-1.354668 0.0452,-0.338667 0.0452,-0.767645 0,-0.428978 -0.0452,-0.767645 -0.0677,-0.857957 -0.63218,-1.33209 -0.54187,-0.496712 -1.44498,-0.496712 -0.90311,0 -1.46756,0.496712 -0.54187,0.474133 -0.6096,1.33209 -0.0451,0.338667 -0.0451,0.767645 0,0.428978 0.0451,0.767645 z m 22.37459,4.492983 q 0,0.248355 -0.18063,0.428978 -0.18062,0.180622 -0.42898,0.180622 h -2.8448 q -0.24835,0 -0.42898,-0.180622 -0.18062,-0.180623 -0.18062,-0.428978 v -5.712184 q 0,-0.970845 -0.47413,-1.557868 -0.47414,-0.587023 -1.49014,-0.587023 -1.016,0 -1.49013,0.587023 -0.45156,0.587023 -0.45156,1.557868 v 5.712184 q 0,0.248355 -0.18062,0.428978 -0.18062,0.180622 -0.42898,0.180622 h -2.8448 q -0.24836,0 -0.42898,-0.180622 -0.18062,-0.180623 -0.18062,-0.428978 V 44.480202 q 0,-0.248356 0.18062,-0.428979 0.18062,-0.180622 0.42898,-0.180622 h 2.73191 q 0.24836,0 0.42898,0.180622 0.18062,0.180623 0.18062,0.428979 v 0.519289 q 0.18063,-0.225778 0.45156,-0.474134 0.27093,-0.248356 0.65475,-0.428978 0.38383,-0.2032 0.88054,-0.316089 0.51929,-0.135467 1.19662,-0.135467 1.08374,0 1.98685,0.316089 0.90311,0.293512 1.53529,0.92569 0.65476,0.632178 1.016,1.603024 0.36125,0.970845 0.36125,2.302935 z m 9.14399,-2.912537 q 0,-0.248355 -0.18063,-0.383822 -0.15804,-0.135467 -0.56444,-0.225778 -0.4064,-0.09031 -1.08374,-0.180623 -0.65475,-0.09031 -1.64818,-0.270933 -1.71591,-0.316089 -2.6416,-1.264357 -0.92569,-0.948268 -0.92569,-2.483558 0,-0.767645 0.38382,-1.422402 0.38383,-0.654756 1.06116,-1.151467 0.69991,-0.496712 1.67076,-0.767646 0.97084,-0.293511 2.16747,-0.293511 1.17404,0 2.16747,0.293511 0.99342,0.270934 1.71591,0.72249 0.72249,0.428978 1.12889,1.016001 0.42898,0.564445 0.47413,1.12889 0.0226,0.248356 -0.18062,0.428978 -0.18062,0.180623 -0.42898,0.180623 h -2.68676 q -0.24835,0 -0.4064,-0.112889 -0.13546,-0.112889 -0.33866,-0.248356 -0.2032,-0.135467 -0.54187,-0.248356 -0.31609,-0.112889 -0.90311,-0.112889 -0.51929,0 -0.88054,0.158045 -0.33866,0.135466 -0.33866,0.474133 0,0.248356 0.11289,0.383823 0.11288,0.135467 0.45155,0.225778 0.33867,0.06773 0.94827,0.158045 0.6096,0.09031 1.60302,0.248355 2.05458,0.338667 2.98027,1.399824 0.94827,1.038579 0.94827,2.393247 0,0.767645 -0.38382,1.444979 -0.38383,0.654756 -1.12889,1.174046 -0.74507,0.496711 -1.80623,0.790223 -1.06115,0.293511 -2.41582,0.293511 -1.35467,0 -2.39325,-0.293511 -1.016,-0.316089 -1.71591,-0.790223 -0.69991,-0.474134 -1.08374,-1.038579 -0.36124,-0.564445 -0.4064,-1.106312 -0.0226,-0.248356 0.15805,-0.428978 0.2032,-0.180623 0.45155,-0.180623 h 2.79965 q 0.24836,0 0.36125,0.135467 0.11289,0.112889 0.29351,0.270934 0.18062,0.135466 0.51929,0.270933 0.33866,0.112889 1.016,0.112889 0.67733,0 1.17404,-0.180622 0.49672,-0.180623 0.49672,-0.51929 z"
         id="text13"
         aria-label="Options&#10;" />
    </g>
    <g
       id="g15"
       inkscape:label="MainMenuPressed"
       transform="translate(142.29142,190.22923)">
      <g
         id="g14"
         inkscape:label="Button Background">
        <path
           id="path13"
           style="opacity:0.382;fill:#161616;fill-opacity:1;stroke:#000000;stroke-width:3;stroke-linecap:round;stroke-linejoin:round;stroke-dasharray:none;stroke-dashoffset:47.2176;stroke-opacity:1"
           d="m 126.05408,12.272625 c 9.06604,0.02167 17.16544,4.982344 20.32382,12.44782 0.93934,-0.184268 1.89039,-0.277783 2.84324,-0.27957 8.82486,0.02387 16.18566,7.778835 16.99431,17.90434 2.87976,-1.368584 6.09436,-2.085267 9.35964,-2.0867 10.97777,1.04e-4 19.87693,7.913191 19.87682,17.67438 -0.0487,3.526974 -1.28315,6.960317 -3.54449,9.85831 H 39.100724 c -0.202844,-1.016579 -0.305735,-2.053442 -0.30696,-3.09335 3.8e-5,-8.160092 6.126023,-14.775176 13.68289,-14.77533 2.47397,0.009 4.899397,0.742109 7.018174,2.12132 0.264516,-10.47306 8.981154,-18.828796 19.64532,-18.83193 4.022376,0.01389 7.943597,1.239675 11.23445,3.51193 2.978062,-2.554554 7.674496,-4.060501 12.665382,-4.06125 0.46051,0.0065 0.92035,0.02579 1.37821,0.0579 -0.0545,-0.446935 -0.091,-0.895421 -0.10955,-1.34462 -2.7e-4,-10.550439 9.73561,-19.103352 21.74544,-19.10323 z"
           inkscape:label="shadow"
           sodipodi:nodetypes="scccccccccccccccss" />
        <path
           id="path14"
           style="fill:#c3c3c3;fill-opacity:1;stroke:#000000;stroke-width:3;stroke-linecap:round;stroke-linejoin:round;stroke-dasharray:none;stroke-dashoffset:47.2176;stroke-opacity:1"
           d="m 118.13279,8.957487 c 9.06604,0.021667 17.16544,4.982344 20.32382,12.44782 0.93934,-0.184268 1.89039,-0.277783 2.84324,-0.27957 8.82486,0.02387 16.18566,7.778835 16.99431,17.90434 2.87976,-1.368584 6.09436,-2.085267 9.35964,-2.0867 10.97777,1.04e-4 19.87693,7.913191 19.87682,17.67438 -0.0487,3.526974 -1.28315,6.960317 -3.54449,9.85831 H 31.179437 c -0.202844,-1.016579 -0.305735,-2.053442 -0.30696,-3.09335 3.8e-5,-8.160092 6.126023,-14.775176 13.68289,-14.77533 2.47397,0.009 4.899397,0.742109 7.018174,2.12132 0.264516,-10.47306 8.981154,-18.828796 19.64532,-18.83193 4.022376,0.01389 7.943597,1.239675 11.23445,3.51193 2.978062,-2.554554 7.674496,-4.060501 12.66538,-4.06125 0.460508,0.0065 0.920351,0.02579 1.37821,0.0579 -0.05451,-0.446935 -0.09105,-0.895421 -0.10955,-1.34462 -2.73e-4,-10.550439 9.735609,-19.1033528 21.745439,-19.10323 z"
           inkscape:label="cloud"
           sodipodi:nodetypes="scccccccccccccccss" />
      </g>
      <path
         style="font-weight:bold;font-size:22.5778px;line-height:1.25;font-family:Rubik;-inkscape-font-specification:'Rubik Bold';letter-spacing:0px;word-spacing:0px;stroke-width:0.264583"
         d="m 64.387188,51.677385 q -0.338667,0 -0.541867,-0.180623 -0.180622,-0.2032 -0.293511,-0.383822 l -2.122314,-3.725337 v 7.473252 q 0,0.248355 -0.180622,0.428978 -0.180622,0.180622 -0.428978,0.180622 h -2.957692 q -0.248356,0 -0.428978,-0.180622 -0.180623,-0.180623 -0.180623,-0.428978 v -14.58526 q 0,-0.248356 0.180623,-0.428978 0.180622,-0.180622 0.428978,-0.180622 h 2.619025 q 0.451556,0 0.677334,0.248355 0.225778,0.248356 0.293511,0.361245 l 3.657604,6.254051 3.657604,-6.254051 q 0.06773,-0.112889 0.293511,-0.361245 0.225778,-0.248355 0.677334,-0.248355 h 2.619025 q 0.248356,0 0.428978,0.180622 0.180623,0.180622 0.180623,0.428978 v 14.58526 q 0,0.248355 -0.180623,0.428978 -0.180622,0.180622 -0.428978,0.180622 H 69.39946 q -0.248356,0 -0.428978,-0.180622 Q 68.78986,55.10921 68.78986,54.860855 v -7.473252 l -2.122314,3.725337 q -0.112889,0.180622 -0.316089,0.383822 -0.180622,0.180623 -0.519289,0.180623 z m 10.701844,0.451556 q 0,-1.490135 1.12889,-2.460981 1.151468,-0.970845 3.725337,-1.422401 l 2.641603,-0.451556 q 0,-0.541867 -0.293511,-0.880534 -0.293512,-0.361245 -1.016001,-0.361245 -0.51929,0 -0.812801,0.158044 -0.270934,0.135467 -0.406401,0.248356 -0.2032,0.180623 -0.383822,0.225778 -0.180623,0.04516 -0.428979,0.04516 h -2.86738 q -0.225778,0 -0.383823,-0.135467 -0.135467,-0.135467 -0.112889,-0.361245 0.04516,-0.519289 0.451556,-1.083734 0.406401,-0.564445 1.106312,-1.038579 0.72249,-0.474134 1.693335,-0.790223 0.993424,-0.316089 2.144892,-0.316089 1.377245,0 2.393246,0.338667 1.016001,0.338667 1.670758,0.948267 0.677334,0.587023 0.993423,1.422402 0.316089,0.812801 0.316089,1.806224 v 6.841074 q 0,0.248355 -0.180622,0.428978 -0.180623,0.180622 -0.428979,0.180622 h -2.844802 q -0.248356,0 -0.428979,-0.180622 -0.180622,-0.180623 -0.180622,-0.428978 V 54.22868 q -0.541867,0.677334 -1.354668,1.083735 -0.790223,0.383822 -2.099736,0.383822 -0.970845,0 -1.73849,-0.270933 Q 76.6469,55.15437 76.127611,54.680236 75.630899,54.206102 75.359966,53.551346 75.089032,52.89659 75.089032,52.128945 Z m 5.147739,0.519289 q 0.496711,0 0.92569,-0.158045 0.428978,-0.180622 0.745067,-0.474133 0.316089,-0.293512 0.496712,-0.677334 0.180622,-0.406401 0.180622,-0.857957 l -2.077158,0.316089 q -0.6096,0.112889 -0.993423,0.383823 -0.361245,0.270934 -0.361245,0.699912 0,0.428978 0.270934,0.6096 0.293511,0.158045 0.812801,0.158045 z m 12.982208,2.212625 q 0,0.248355 -0.180622,0.428978 -0.180622,0.180622 -0.428978,0.180622 h -2.844803 q -0.248356,0 -0.428978,-0.180622 -0.180623,-0.180623 -0.180623,-0.428978 V 44.339599 q 0,-0.248355 0.180623,-0.428978 0.180622,-0.180622 0.428978,-0.180622 h 2.844803 q 0.248356,0 0.428978,0.180622 0.180622,0.180623 0.180622,0.428978 z m 0,-12.982236 q 0,0.248356 -0.180622,0.428978 -0.180622,0.180623 -0.428978,0.180623 h -2.844803 q -0.248356,0 -0.428978,-0.180623 -0.180623,-0.180622 -0.180623,-0.428978 v -2.280358 q 0,-0.248356 0.180623,-0.428978 0.180622,-0.180622 0.428978,-0.180622 h 2.844803 q 0.248356,0 0.428978,0.180622 0.180622,0.180622 0.180622,0.428978 z m 14.652981,12.982236 q 0,0.248355 -0.18062,0.428978 -0.18062,0.180622 -0.42898,0.180622 h -2.8448 q -0.24836,0 -0.42898,-0.180622 -0.18062,-0.180623 -0.18062,-0.428978 v -5.712184 q 0,-0.970845 -0.47414,-1.557868 -0.47413,-0.587023 -1.49013,-0.587023 -1.016,0 -1.49014,0.587023 -0.451553,0.587023 -0.451553,1.557868 v 5.712184 q 0,0.248355 -0.180622,0.428978 -0.180623,0.180622 -0.428979,0.180622 h -2.844802 q -0.248356,0 -0.428979,-0.180622 -0.180622,-0.180623 -0.180622,-0.428978 V 44.339599 q 0,-0.248355 0.180622,-0.428978 0.180623,-0.180622 0.428979,-0.180622 h 2.731913 q 0.248356,0 0.428979,0.180622 0.180622,0.180623 0.180622,0.428978 v 0.51929 q 0.180623,-0.225778 0.451552,-0.474134 0.27094,-0.248356 0.65476,-0.428978 0.38382,-0.2032 0.88053,-0.316089 0.51929,-0.135467 1.19663,-0.135467 1.08373,0 1.98684,0.316089 0.90312,0.293511 1.53529,0.92569 0.65476,0.632178 1.01601,1.603024 0.36124,0.970845 0.36124,2.302935 z m 14.69813,-3.18347 q -0.33867,0 -0.54187,-0.180623 -0.18062,-0.2032 -0.29351,-0.383822 l -2.12231,-3.725337 v 7.473252 q 0,0.248355 -0.18063,0.428978 -0.18062,0.180622 -0.42897,0.180622 h -2.9577 q -0.24835,0 -0.42897,-0.180622 -0.18063,-0.180623 -0.18063,-0.428978 v -14.58526 q 0,-0.248356 0.18063,-0.428978 0.18062,-0.180622 0.42897,-0.180622 h 2.61903 q 0.45155,0 0.67733,0.248355 0.22578,0.248356 0.29351,0.361245 l 3.65761,6.254051 3.6576,-6.254051 q 0.0677,-0.112889 0.29351,-0.361245 0.22578,-0.248355 0.67734,-0.248355 h 2.61902 q 0.24836,0 0.42898,0.180622 0.18062,0.180622 0.18062,0.428978 v 14.58526 q 0,0.248355 -0.18062,0.428978 -0.18062,0.180622 -0.42898,0.180622 h -2.95769 q -0.24836,0 -0.42898,-0.180622 -0.18062,-0.180623 -0.18062,-0.428978 v -7.473252 l -2.12231,3.725337 q -0.11289,0.180622 -0.31609,0.383822 -0.18063,0.180623 -0.51929,0.180623 z m 14.87871,-0.790223 q 0,0.519289 0.18062,0.857956 0.2032,0.338667 0.49671,0.541867 0.29351,0.2032 0.65476,0.293512 0.36124,0.06773 0.69991,0.06773 0.67733,0 1.06116,-0.135467 0.4064,-0.135467 0.67733,-0.383822 0.24836,-0.203201 0.36125,-0.248356 0.11289,-0.06773 0.38382,-0.06773 h 2.93511 q 0.49671,0 0.49671,0.496712 0,0.270934 -0.33866,0.835379 -0.33867,0.541867 -1.06116,1.12889 -0.69991,0.564445 -1.8288,0.993423 -1.12889,0.428978 -2.68676,0.428978 -1.46756,0 -2.61902,-0.4064 -1.12889,-0.428978 -1.91912,-1.219201 -0.76764,-0.790224 -1.17404,-1.919114 -0.38383,-1.12889 -0.38383,-2.551291 0,-1.309512 0.38383,-2.415825 0.4064,-1.12889 1.17404,-1.941691 0.79023,-0.8128 1.91912,-1.264356 1.15146,-0.474134 2.61902,-0.474134 1.64818,0 2.79965,0.564445 1.17404,0.541867 1.89653,1.422401 0.74507,0.880534 1.06116,1.986847 0.33867,1.083734 0.33867,2.167469 v 0.632178 q 0,0.248356 -0.18063,0.428978 -0.18062,0.180623 -0.42897,0.180623 z m 2.032,-4.334938 q -0.94827,0 -1.44498,0.564445 -0.49671,0.564445 -0.58702,1.264357 h 4.064 q -0.0903,-0.699912 -0.58702,-1.264357 -0.49671,-0.564445 -1.44498,-0.564445 z m 20.18452,8.308631 q 0,0.248355 -0.18062,0.428978 -0.18063,0.180622 -0.42898,0.180622 h -2.8448 q -0.24836,0 -0.42898,-0.180622 -0.18063,-0.180623 -0.18063,-0.428978 v -5.712184 q 0,-0.970845 -0.47413,-1.557868 -0.47413,-0.587023 -1.49013,-0.587023 -1.01601,0 -1.49014,0.587023 -0.45156,0.587023 -0.45156,1.557868 v 5.712184 q 0,0.248355 -0.18062,0.428978 -0.18062,0.180622 -0.42898,0.180622 h -2.8448 q -0.24835,0 -0.42898,-0.180622 -0.18062,-0.180623 -0.18062,-0.428978 V 44.339599 q 0,-0.248355 0.18062,-0.428978 0.18063,-0.180622 0.42898,-0.180622 h 2.73192 q 0.24835,0 0.42897,0.180622 0.18063,0.180623 0.18063,0.428978 v 0.51929 q 0.18062,-0.225778 0.45155,-0.474134 0.27094,-0.248356 0.65476,-0.428978 0.38382,-0.2032 0.88053,-0.316089 0.51929,-0.135467 1.19663,-0.135467 1.08373,0 1.98684,0.316089 0.90311,0.293511 1.53529,0.92569 0.65476,0.632178 1.016,1.603024 0.36125,0.970845 0.36125,2.302935 z m 2.39323,-10.521256 q 0,-0.248355 0.18062,-0.428978 0.18062,-0.180622 0.42898,-0.180622 h 2.8448 q 0.24836,0 0.42898,0.180622 0.18062,0.180623 0.18062,0.428978 v 5.712184 q 0,0.970845 0.42898,1.557868 0.42898,0.587023 1.4224,0.587023 0.99342,0 1.39982,-0.587023 0.42898,-0.587023 0.42898,-1.557868 v -5.712184 q 0,-0.248355 0.18062,-0.428978 0.18063,-0.180622 0.42898,-0.180622 h 2.84481 q 0.24835,0 0.42897,0.180622 0.18063,0.180623 0.18063,0.428978 v 10.521256 q 0,0.248355 -0.18063,0.428978 -0.18062,0.180622 -0.42897,0.180622 h -2.61903 q -0.24835,0 -0.42898,-0.180622 -0.18062,-0.180623 -0.18062,-0.428978 v -0.51929 q -0.18062,0.248356 -0.45156,0.496712 -0.24835,0.225778 -0.63217,0.428978 -0.38383,0.180622 -0.90312,0.293511 -0.49671,0.135467 -1.19662,0.135467 -2.19005,0 -3.49956,-1.241779 -1.28693,-1.241779 -1.28693,-3.905959 z"
         id="text14"
         aria-label="Main Menu" />
    </g>
    <g
       id="g17"
       inkscape:label="RestartPressed"
       transform="translate(142.29142,124.42677)">
      <g
         id="g16"
         inkscape:label="Button Background">
        <path
           id="path15"
           style="opacity:0.382;fill:#161616;fill-opacity:1;stroke:#000000;stroke-width:3;stroke-linecap:round;stroke-linejoin:round;stroke-dasharray:none;stroke-dashoffset:47.2176;stroke-opacity:1"
           d="m 126.05408,12.272625 c 9.06604,0.02167 17.16544,4.982344 20.32382,12.44782 0.93934,-0.184268 1.89039,-0.277783 2.84324,-0.27957 8.82486,0.02387 16.18566,7.778835 16.99431,17.90434 2.87976,-1.368584 6.09436,-2.085267 9.35964,-2.0867 10.97777,1.04e-4 19.87693,7.913191 19.87682,17.67438 -0.0487,3.526974 -1.28315,6.960317 -3.54449,9.85831 H 39.100724 c -0.202844,-1.016579 -0.305735,-2.053442 -0.30696,-3.09335 3.8e-5,-8.160092 6.126023,-14.775176 13.68289,-14.77533 2.47397,0.009 4.899397,0.742109 7.018174,2.12132 0.264516,-10.47306 8.981154,-18.828796 19.64532,-18.83193 4.022376,0.01389 7.943597,1.239675 11.23445,3.51193 2.978062,-2.554554 7.674496,-4.060501 12.665382,-4.06125 0.46051,0.0065 0.92035,0.02579 1.37821,0.0579 -0.0545,-0.446935 -0.091,-0.895421 -0.10955,-1.34462 -2.7e-4,-10.550439 9.73561,-19.103352 21.74544,-19.10323 z"
           inkscape:label="shadow"
           sodipodi:nodetypes="scccccccccccccccss" />
        <path
           id="path16"
           style="fill:#c3c3c3;fill-opacity:1;stroke:#000000;stroke-width:3;stroke-linecap:round;stroke-linejoin:round;stroke-dasharray:none;stroke-dashoffset:47.2176;stroke-opacity:1"
           d="m 118.13279,8.957487 c 9.06604,0.021667 17.16544,4.982344 20.32382,12.44782 0.93934,-0.184268 1.89039,-0.277783 2.84324,-0.27957 8.82486,0.02387 16.18566,7.778835 16.99431,17.90434 2.87976,-1.368584 6.09436,-2.085267 9.35964,-2.0867 10.97777,1.04e-4 19.87693,7.913191 19.87682,17.67438 -0.0487,3.526974 -1.28315,6.960317 -3.54449,9.85831 H 31.179437 c -0.202844,-1.016579 -0.305735,-2.053442 -0.30696,-3.09335 3.8e-5,-8.160092 6.126023,-14.775176 13.68289,-14.77533 2.47397,0.009 4.899397,0.742109 7.018174,2.12132 0.264516,-10.47306 8.981154,-18.828796 19.64532,-18.83193 4.022376,0.01389 7.943597,1.239675 11.23445,3.51193 2.978062,-2.554554 7.674496,-4.060501 12.66538,-4.06125 0.460508,0.0065 0.920351,0.02579 1.37821,0.0579 -0.05451,-0.446935 -0.09105,-0.895421 -0.10955,-1.34462 -2.73e-4,-10.550439 9.735609,-19.1033528 21.745439,-19.10323 z"
           inkscape:label="cloud"
           sodipodi:nodetypes="scccccccccccccccss" />
      </g>
      <path
         style="font-weight:bold;font-size:22.5778px;line-height:1.25;font-family:Rubik;-inkscape-font-specification:'Rubik Bold';letter-spacing:0px;word-spacing:0px;stroke-width:0.264583"
         d="m 78.117675,39.686743 q 1.490134,0 2.66418,0.316089 1.174046,0.316089 1.986847,0.948268 0.835378,0.632178 1.264356,1.625601 0.451556,0.970846 0.451556,2.280358 0,1.693335 -0.699911,2.822225 -0.699912,1.106312 -1.986847,1.693335 l 2.799647,5.373517 q 0.06773,0.135467 0.06773,0.248356 0,0.2032 -0.158045,0.361245 -0.135467,0.135466 -0.338667,0.135466 H 81.09794 q -0.451556,0 -0.654756,-0.2032 -0.180622,-0.2032 -0.293511,-0.4064 l -2.506136,-4.83165 h -2.077158 v 4.83165 q 0,0.248355 -0.180622,0.428978 -0.180623,0.180622 -0.428979,0.180622 h -2.957691 q -0.248356,0 -0.428979,-0.180622 -0.180622,-0.180623 -0.180622,-0.428978 v -14.58526 q 0,-0.248355 0.180622,-0.428978 0.180623,-0.180622 0.428979,-0.180622 z m -2.551292,6.841073 h 2.551292 q 0.948267,0 1.557868,-0.361244 0.632178,-0.361245 0.632178,-1.309513 0,-0.948267 -0.632178,-1.309512 -0.609601,-0.361245 -1.557868,-0.361245 h -2.551292 z m 14.540091,4.380094 q 0,0.519289 0.180623,0.857956 0.2032,0.338667 0.496711,0.541867 0.293512,0.203201 0.654757,0.293512 0.361245,0.06773 0.699912,0.06773 0.677334,0 1.061156,-0.135467 0.406401,-0.135466 0.677334,-0.383822 0.248356,-0.2032 0.361245,-0.248356 0.112889,-0.06773 0.383823,-0.06773 h 2.935114 q 0.496711,0 0.496711,0.496711 0,0.270934 -0.338667,0.835379 -0.338667,0.541867 -1.061156,1.12889 -0.699912,0.564445 -1.828802,0.993423 -1.12889,0.428978 -2.686758,0.428978 -1.467558,0 -2.619025,-0.4064 -1.12889,-0.428978 -1.919113,-1.219201 -0.767646,-0.790223 -1.174046,-1.919113 -0.383823,-1.12889 -0.383823,-2.551292 0,-1.309512 0.383823,-2.415825 0.4064,-1.12889 1.174046,-1.94169 0.790223,-0.812801 1.919113,-1.264357 1.151467,-0.474134 2.619025,-0.474134 1.648179,0 2.799647,0.564445 1.174045,0.541867 1.896535,1.422401 0.745068,0.880535 1.061157,1.986847 0.338667,1.083734 0.338667,2.167469 v 0.632178 q 0,0.248356 -0.180623,0.428978 -0.180622,0.180623 -0.428978,0.180623 z m 2.032003,-4.334938 q -0.948268,0 -1.44498,0.564445 -0.496711,0.564445 -0.587023,1.264357 h 4.064005 q -0.09031,-0.699912 -0.587023,-1.264357 -0.496712,-0.564445 -1.444979,-0.564445 z m 14.788423,5.396094 q 0,-0.248355 -0.18062,-0.383822 -0.15805,-0.135467 -0.56445,-0.225778 -0.4064,-0.09031 -1.08373,-0.180623 -0.65476,-0.09031 -1.64818,-0.270933 -1.71591,-0.316089 -2.6416,-1.264357 -0.925693,-0.948268 -0.925693,-2.483558 0,-0.767645 0.383823,-1.422402 0.38382,-0.654756 1.06116,-1.151467 0.69991,-0.496712 1.67075,-0.767646 0.97085,-0.293511 2.16747,-0.293511 1.17405,0 2.16747,0.293511 0.99342,0.270934 1.71591,0.72249 0.72249,0.428978 1.12889,1.016001 0.42898,0.564445 0.47414,1.12889 0.0226,0.248356 -0.18062,0.428978 -0.18063,0.180623 -0.42898,0.180623 h -2.68676 q -0.24836,0 -0.4064,-0.112889 -0.13547,-0.112889 -0.33867,-0.248356 -0.2032,-0.135467 -0.54187,-0.248356 -0.31608,-0.112889 -0.90311,-0.112889 -0.51929,0 -0.88053,0.158045 -0.33867,0.135466 -0.33867,0.474133 0,0.248356 0.11289,0.383823 0.11289,0.135467 0.45156,0.225778 0.33866,0.06773 0.94826,0.158045 0.6096,0.09031 1.60303,0.248355 2.05458,0.338667 2.98027,1.399824 0.94827,1.038579 0.94827,2.393247 0,0.767645 -0.38383,1.444979 -0.38382,0.654756 -1.12889,1.174046 -0.74506,0.496711 -1.80622,0.790223 -1.06116,0.293511 -2.41583,0.293511 -1.35466,0 -2.39324,-0.293511 -1.016,-0.316089 -1.71592,-0.790223 -0.69991,-0.474134 -1.08373,-1.038579 -0.361245,-0.564445 -0.406401,-1.106312 -0.02258,-0.248356 0.158045,-0.428978 0.203196,-0.180623 0.451556,-0.180623 h 2.79965 q 0.24835,0 0.36124,0.135467 0.11289,0.112889 0.29351,0.270934 0.18063,0.135466 0.51929,0.270933 0.33867,0.112889 1.016,0.112889 0.67734,0 1.17405,-0.180622 0.49671,-0.180623 0.49671,-0.51929 z m 11.44691,-1.061156 q 0,0.519289 0.22578,0.812801 0.22577,0.270933 0.74506,0.270933 h 1.80623 q 0.24835,0 0.42898,0.180623 0.18062,0.180622 0.18062,0.428978 v 2.280358 q 0,0.248355 -0.18062,0.428978 -0.18063,0.180622 -0.42898,0.180622 h -2.14489 q -1.06116,0 -1.94169,-0.293511 -0.85796,-0.316089 -1.46756,-0.880534 -0.6096,-0.587023 -0.94827,-1.399824 -0.33867,-0.835379 -0.33867,-1.873957 v -3.793071 h -1.67075 q -0.24836,0 -0.42898,-0.180622 -0.18062,-0.180623 -0.18062,-0.428979 v -2.280357 q 0,-0.248356 0.18062,-0.428979 0.18062,-0.180622 0.42898,-0.180622 h 1.67075 v -3.680182 q 0,-0.248355 0.18063,-0.428978 0.18062,-0.180622 0.42897,-0.180622 h 2.84481 q 0.24835,0 0.42898,0.180622 0.18062,0.180623 0.18062,0.428978 v 3.680182 h 2.55129 q 0.24836,0 0.42898,0.180622 0.18062,0.180623 0.18062,0.428979 v 2.280357 q 0,0.248356 -0.18062,0.428979 -0.18062,0.180622 -0.42898,0.180622 h -2.55129 z m 4.53811,1.241779 q 0,-1.490135 1.12889,-2.46098 1.15147,-0.970846 3.72534,-1.422402 l 2.6416,-0.451556 q 0,-0.541867 -0.29351,-0.880534 -0.29351,-0.361245 -1.016,-0.361245 -0.51929,0 -0.8128,0.158045 -0.27093,0.135466 -0.4064,0.248355 -0.2032,0.180623 -0.38382,0.225778 -0.18063,0.04516 -0.42898,0.04516 h -2.86738 q -0.22578,0 -0.38382,-0.135467 -0.13547,-0.135467 -0.11289,-0.361245 0.0451,-0.519289 0.45155,-1.083734 0.4064,-0.564445 1.10631,-1.038579 0.72249,-0.474134 1.69334,-0.790223 0.99342,-0.316089 2.14489,-0.316089 1.37725,0 2.39325,0.338667 1.016,0.338667 1.67075,0.948268 0.67734,0.587022 0.99343,1.422401 0.31609,0.812801 0.31609,1.806224 v 6.841074 q 0,0.248355 -0.18063,0.428978 -0.18062,0.180622 -0.42897,0.180622 h -2.84481 q -0.24835,0 -0.42897,-0.180622 -0.18063,-0.180623 -0.18063,-0.428978 v -0.632179 q -0.54186,0.677334 -1.35466,1.083735 -0.79023,0.383822 -2.09974,0.383822 -0.97085,0 -1.73849,-0.270933 -0.74507,-0.270934 -1.26436,-0.745068 -0.49671,-0.474134 -0.76764,-1.12889 -0.27094,-0.654756 -0.27094,-1.422401 z m 5.14774,0.519289 q 0.49671,0 0.92569,-0.158044 0.42898,-0.180623 0.74507,-0.474134 0.31609,-0.293512 0.49671,-0.677334 0.18062,-0.406401 0.18062,-0.857957 l -2.07715,0.31609 q -0.60961,0.112889 -0.99343,0.383822 -0.36124,0.270934 -0.36124,0.699912 0,0.428978 0.27093,0.609601 0.29351,0.158044 0.8128,0.158044 z m 17.11395,-8.918231 q 0.24836,0 0.42898,0.180622 0.18062,0.180623 0.18062,0.428979 v 2.280357 q 0,0.248356 -0.18062,0.428979 -0.18062,0.180622 -0.42898,0.180622 h -2.05458 q -2.07716,0 -2.07716,2.077158 v 5.554139 q 0,0.248355 -0.18062,0.428978 -0.18062,0.180622 -0.42898,0.180622 h -2.8448 q -0.24835,0 -0.42898,-0.180622 -0.18062,-0.180623 -0.18062,-0.428978 V 44.360348 q 0,-0.248356 0.18062,-0.428979 0.18063,-0.180622 0.42898,-0.180622 h 2.61903 q 0.24835,0 0.42897,0.180622 0.18063,0.180623 0.18063,0.428979 v 0.519289 q 0.51929,-0.496712 1.24178,-0.812801 0.74506,-0.316089 1.76106,-0.316089 z m 7.56355,7.157163 q 0,0.519289 0.22578,0.812801 0.22578,0.270933 0.74507,0.270933 h 1.80622 q 0.24836,0 0.42898,0.180623 0.18062,0.180622 0.18062,0.428978 v 2.280358 q 0,0.248355 -0.18062,0.428978 -0.18062,0.180622 -0.42898,0.180622 h -2.14489 q -1.06116,0 -1.94169,-0.293511 -0.85796,-0.316089 -1.46756,-0.880534 -0.6096,-0.587023 -0.94827,-1.399824 -0.33866,-0.835379 -0.33866,-1.873957 v -3.793071 h -1.67076 q -0.24836,0 -0.42898,-0.180622 -0.18062,-0.180623 -0.18062,-0.428979 v -2.280357 q 0,-0.248356 0.18062,-0.428979 0.18062,-0.180622 0.42898,-0.180622 h 1.67076 v -3.680182 q 0,-0.248355 0.18062,-0.428978 0.18062,-0.180622 0.42898,-0.180622 h 2.8448 q 0.24836,0 0.42898,0.180622 0.18062,0.180623 0.18062,0.428978 v 3.680182 h 2.55129 q 0.24836,0 0.42898,0.180622 0.18062,0.180623 0.18062,0.428979 v 2.280357 q 0,0.248356 -0.18062,0.428979 -0.18062,0.180622 -0.42898,0.180622 h -2.55129 z"
         id="text16"
         aria-label="Restart" />
    </g>
    <g
       id="g19"
       inkscape:label="QuitPressed"
       transform="translate(142.29142,58.624298)">
      <g
         id="g18"
         inkscape:label="Button Background">
        <path
           id="path17"
           style="opacity:0.382;fill:#161616;fill-opacity:1;stroke:#000000;stroke-width:3;stroke-linecap:round;stroke-linejoin:round;stroke-dasharray:none;stroke-dashoffset:47.2176;stroke-opacity:1"
           d="m 126.05408,12.272625 c 9.06604,0.02167 17.16544,4.982344 20.32382,12.44782 0.93934,-0.184268 1.89039,-0.277783 2.84324,-0.27957 8.82486,0.02387 16.18566,7.778835 16.99431,17.90434 2.87976,-1.368584 6.09436,-2.085267 9.35964,-2.0867 10.97777,1.04e-4 19.87693,7.913191 19.87682,17.67438 -0.0487,3.526974 -1.28315,6.960317 -3.54449,9.85831 H 39.100724 c -0.202844,-1.016579 -0.305735,-2.053442 -0.30696,-3.09335 3.8e-5,-8.160092 6.126023,-14.775176 13.68289,-14.77533 2.47397,0.009 4.899397,0.742109 7.018174,2.12132 0.264516,-10.47306 8.981154,-18.828796 19.64532,-18.83193 4.022376,0.01389 7.943597,1.239675 11.23445,3.51193 2.978062,-2.554554 7.674496,-4.060501 12.665382,-4.06125 0.46051,0.0065 0.92035,0.02579 1.37821,0.0579 -0.0545,-0.446935 -0.091,-0.895421 -0.10955,-1.34462 -2.7e-4,-10.550439 9.73561,-19.103352 21.74544,-19.10323 z"
           inkscape:label="shadow"
           sodipodi:nodetypes="scccccccccccccccss" />
        <path
           id="path18"
           style="fill:#c3c3c3;fill-opacity:1;stroke:#000000;stroke-width:3;stroke-linecap:round;stroke-linejoin:round;stroke-dasharray:none;stroke-dashoffset:47.2176;stroke-opacity:1"
           d="m 118.13279,8.957487 c 9.06604,0.021667 17.16544,4.982344 20.32382,12.44782 0.93934,-0.184268 1.89039,-0.277783 2.84324,-0.27957 8.82486,0.02387 16.18566,7.778835 16.99431,17.90434 2.87976,-1.368584 6.09436,-2.085267 9.35964,-2.0867 10.97777,1.04e-4 19.87693,7.913191 19.87682,17.67438 -0.0487,3.526974 -1.28315,6.960317 -3.54449,9.85831 H 31.179437 c -0.202844,-1.016579 -0.305735,-2.053442 -0.30696,-3.09335 3.8e-5,-8.160092 6.126023,-14.775176 13.68289,-14.77533 2.47397,0.009 4.899397,0.742109 7.018174,2.12132 0.264516,-10.47306 8.981154,-18.828796 19.64532,-18.83193 4.022376,0.01389 7.943597,1.239675 11.23445,3.51193 2.978062,-2.554554 7.674496,-4.060501 12.66538,-4.06125 0.460508,0.0065 0.920351,0.02579 1.37821,0.0579 -0.05451,-0.446935 -0.09105,-0.895421 -0.10955,-1.34462 -2.73e-4,-10.550439 9.735609,-19.1033528 21.745439,-19.10323 z"
           inkscape:label="cloud"
           sodipodi:nodetypes="scccccccccccccccss" />
      </g>
      <path
         style="font-weight:bold;font-size:22.5778px;line-height:1.25;font-family:Rubik;-inkscape-font-specification:'Rubik Bold';letter-spacing:0px;word-spacing:0px;stroke-width:0.264583"
         d="m 89.026573,40.422917 q 0.06773,-1.264357 0.541867,-2.370669 0.496711,-1.12889 1.377246,-1.941691 0.903112,-0.835378 2.167469,-1.309512 1.286934,-0.496712 2.957691,-0.496712 1.64818,0 2.935115,0.496712 1.286939,0.474134 2.167469,1.309512 0.90311,0.812801 1.37725,1.941691 0.49671,1.106312 0.56444,2.370669 0.0452,0.970846 0.0452,2.032002 0,1.061157 -0.0452,1.986847 -0.0677,1.196623 -0.49671,2.235202 -0.4064,1.038579 -1.17405,1.85138 l 1.78365,2.573869 q 0.0226,0.04516 0.0452,0.09031 0.0226,0.06773 0.0226,0.112889 0.0452,0.2032 -0.11289,0.338667 -0.13546,0.158045 -0.33866,0.158045 h -3.183473 q -0.428978,0 -0.632179,-0.2032 -0.2032,-0.180623 -0.316089,-0.31609 l -0.632178,-0.948267 q -0.474134,0.112889 -0.970846,0.158044 -0.496711,0.06773 -1.038579,0.06773 -1.670757,0 -2.957691,-0.474134 -1.264357,-0.474134 -2.167469,-1.309512 -0.880535,-0.835379 -1.377246,-1.941691 -0.474134,-1.12889 -0.541867,-2.393247 -0.04516,-0.92569 -0.04516,-1.986847 0,-1.061156 0.04516,-2.032002 z m 9.911654,3.90596 q 0.02258,-0.406401 0.04516,-0.903112 0.02258,-0.496712 0.02258,-1.016001 0,-0.51929 -0.02258,-0.993423 -0.02258,-0.496712 -0.04516,-0.880535 -0.04515,-0.564445 -0.248356,-1.038579 -0.180622,-0.474133 -0.541867,-0.8128 -0.338667,-0.361245 -0.857956,-0.564445 -0.51929,-0.203201 -1.219202,-0.203201 -0.699911,0 -1.219201,0.203201 -0.519289,0.2032 -0.880534,0.564445 -0.338667,0.338667 -0.541867,0.8128 -0.180623,0.474134 -0.225778,1.038579 -0.04516,0.383823 -0.06773,0.880535 0,0.474133 0,0.993423 0,0.519289 0,1.016001 0.02258,0.496711 0.06773,0.903112 0.09031,1.12889 0.767645,1.873957 0.699912,0.745068 2.099735,0.745068 1.399824,0 2.077158,-0.745068 0.677334,-0.745067 0.790223,-1.873957 z m 6.434643,-5.125161 q 0,-0.248356 0.18062,-0.428978 0.18062,-0.180623 0.42898,-0.180623 h 2.8448 q 0.24836,0 0.42898,0.180623 0.18062,0.180622 0.18062,0.428978 V 44.9159 q 0,0.970845 0.42898,1.557868 0.42898,0.587023 1.4224,0.587023 0.99342,0 1.39982,-0.587023 0.42898,-0.587023 0.42898,-1.557868 v -5.712184 q 0,-0.248356 0.18062,-0.428978 0.18063,-0.180623 0.42898,-0.180623 h 2.84481 q 0.24835,0 0.42897,0.180623 0.18063,0.180622 0.18063,0.428978 v 10.521255 q 0,0.248356 -0.18063,0.428978 -0.18062,0.180623 -0.42897,0.180623 h -2.61903 q -0.24836,0 -0.42898,-0.180623 -0.18062,-0.180622 -0.18062,-0.428978 v -0.519289 q -0.18062,0.248356 -0.45156,0.496711 -0.24835,0.225778 -0.63217,0.428979 -0.38383,0.180622 -0.90312,0.293511 -0.49671,0.135467 -1.19662,0.135467 -2.19005,0 -3.49956,-1.241779 -1.28693,-1.241779 -1.28693,-3.90596 z m 18.49119,10.521255 q 0,0.248356 -0.18062,0.428978 -0.18062,0.180623 -0.42898,0.180623 h -2.8448 q -0.24836,0 -0.42898,-0.180623 -0.18062,-0.180622 -0.18062,-0.428978 V 39.203716 q 0,-0.248356 0.18062,-0.428978 0.18062,-0.180623 0.42898,-0.180623 h 2.8448 q 0.24836,0 0.42898,0.180623 0.18062,0.180622 0.18062,0.428978 z m 0,-12.982235 q 0,0.248356 -0.18062,0.428978 -0.18062,0.180622 -0.42898,0.180622 h -2.8448 q -0.24836,0 -0.42898,-0.180622 -0.18062,-0.180622 -0.18062,-0.428978 v -2.280358 q 0,-0.248356 0.18062,-0.428978 0.18062,-0.180623 0.42898,-0.180623 h 2.8448 q 0.24836,0 0.42898,0.180623 0.18062,0.180622 0.18062,0.428978 z m 8.01511,9.008542 q 0,0.51929 0.22578,0.812801 0.22577,0.270934 0.74506,0.270934 h 1.80623 q 0.24835,0 0.42898,0.180622 0.18062,0.180623 0.18062,0.428978 v 2.280358 q 0,0.248356 -0.18062,0.428978 -0.18063,0.180623 -0.42898,0.180623 h -2.14489 q -1.06116,0 -1.94169,-0.293512 -0.85796,-0.316089 -1.46756,-0.880534 -0.6096,-0.587023 -0.94827,-1.399823 -0.33867,-0.835379 -0.33867,-1.873958 v -3.79307 h -1.67075 q -0.24836,0 -0.42898,-0.180623 -0.18062,-0.180622 -0.18062,-0.428978 v -2.280358 q 0,-0.248356 0.18062,-0.428978 0.18062,-0.180623 0.42898,-0.180623 h 1.67075 v -3.680181 q 0,-0.248356 0.18063,-0.428978 0.18062,-0.180623 0.42897,-0.180623 h 2.84481 q 0.24835,0 0.42898,0.180623 0.18062,0.180622 0.18062,0.428978 v 3.680181 h 2.55129 q 0.24836,0 0.42898,0.180623 0.18062,0.180622 0.18062,0.428978 v 2.280358 q 0,0.248356 -0.18062,0.428978 -0.18062,0.180623 -0.42898,0.180623 h -2.55129 z"
         id="text18"
         aria-label="Quit" />
    </g>
    <g
       id="g21"
       inkscape:label="PlayPressed"
       transform="translate(142.29142,-7.178169)">
      <g
         id="g20"
         inkscape:label="Button Background">
        <path
           id="path19"
           style="opacity:0.382;fill:#161616;fill-opacity:1;stroke:#000000;stroke-width:3;stroke-linecap:round;stroke-linejoin:round;stroke-dasharray:none;stroke-dashoffset:47.2176;stroke-opacity:1"
           d="m 126.05408,12.272625 c 9.06604,0.02167 17.16544,4.982344 20.32382,12.44782 0.93934,-0.184268 1.89039,-0.277783 2.84324,-0.27957 8.82486,0.02387 16.18566,7.778835 16.99431,17.90434 2.87976,-1.368584 6.09436,-2.085267 9.35964,-2.0867 10.97777,1.04e-4 19.87693,7.913191 19.87682,17.67438 -0.0487,3.526974 -1.28315,6.960317 -3.54449,9.85831 H 39.100724 c -0.202844,-1.016579 -0.305735,-2.053442 -0.30696,-3.09335 3.8e-5,-8.160092 6.126023,-14.775176 13.68289,-14.77533 2.47397,0.009 4.899397,0.742109 7.018174,2.12132 0.264516,-10.47306 8.981154,-18.828796 19.64532,-18.83193 4.022376,0.01389 7.943597,1.239675 11.23445,3.51193 2.978062,-2.554554 7.674496,-4.060501 12.665382,-4.06125 0.46051,0.0065 0.92035,0.02579 1.37821,0.0579 -0.0545,-0.446935 -0.091,-0.895421 -0.10955,-1.34462 -2.7e-4,-10.550439 9.73561,-19.103352 21.74544,-19.10323 z"
           inkscape:label="shadow"
           sodipodi:nodetypes="scccccccccccccccss" />
        <path
           id="path20"
           style="fill:#c3c3c3;fill-opacity:1;stroke:#000000;stroke-width:3;stroke-linecap:round;stroke-linejoin:round;stroke-dasharray:none;stroke-dashoffset:47.2176;stroke-opacity:1"
           d="m 118.13279,8.957487 c 9.06604,0.021667 17.16544,4.982344 20.32382,12.44782 0.93934,-0.184268 1.89039,-0.277783 2.84324,-0.27957 8.82486,0.02387 16.18566,7.778835 16.99431,17.90434 2.87976,-1.368584 6.09436,-2.085267 9.35964,-2.0867 10.97777,1.04e-4 19.87693,7.913191 19.87682,17.67438 -0.0487,3.526974 -1.28315,6.960317 -3.54449,9.85831 H 31.179437 c -0.202844,-1.016579 -0.305735,-2.053442 -0.30696,-3.09335 3.8e-5,-8.160092 6.126023,-14.775176 13.68289,-14.77533 2.47397,0.009 4.899397,0.742109 7.018174,2.12132 0.264516,-10.47306 8.981154,-18.828796 19.64532,-18.83193 4.022376,0.01389 7.943597,1.239675 11.23445,3.51193 2.978062,-2.554554 7.674496,-4.060501 12.66538,-4.06125 0.460508,0.0065 0.920351,0.02579 1.37821,0.0579 -0.05451,-0.446935 -0.09105,-0.895421 -0.10955,-1.34462 -2.73e-4,-10.550439 9.735609,-19.1033528 21.745439,-19.10323 z"
           inkscape:label="cloud"
           sodipodi:nodetypes="scccccccccccccccss" />
      </g>
      <path
         style="font-weight:bold;font-size:22.5778px;line-height:1.25;font-family:Rubik;-inkscape-font-specification:'Rubik Bold';letter-spacing:0px;word-spacing:0px;stroke-width:0.264583"
         d="m 102.78664,38.762991 q 1.44498,0 2.59645,0.338667 1.15147,0.316089 1.96427,0.993423 0.8128,0.654756 1.24178,1.64818 0.45155,0.993423 0.45155,2.302935 0,1.332091 -0.45155,2.325514 -0.42898,0.993423 -1.24178,1.648179 -0.8128,0.654756 -1.96427,0.993423 -1.15147,0.338668 -2.59645,0.338668 h -2.889958 v 4.605871 q 0,0.248356 -0.180622,0.428978 -0.180622,0.180622 -0.428978,0.180622 H 96.32939 q -0.248356,0 -0.428978,-0.180622 -0.180623,-0.180622 -0.180623,-0.428978 V 39.372592 q 0,-0.248356 0.180623,-0.428979 0.180622,-0.180622 0.428978,-0.180622 z m -2.889958,7.066852 h 2.777068 q 0.94827,0 1.55787,-0.406401 0.63218,-0.428978 0.63218,-1.377246 0,-0.948267 -0.63218,-1.354668 -0.6096,-0.428978 -1.55787,-0.428978 h -2.777068 z m 15.104528,8.128008 q 0,0.248356 -0.18063,0.428978 -0.18062,0.180622 -0.42897,0.180622 h -2.84481 q -0.24835,0 -0.42897,-0.180622 -0.18063,-0.180622 -0.18063,-0.428978 V 39.146814 q 0,-0.248356 0.18063,-0.428979 0.18062,-0.180622 0.42897,-0.180622 h 2.84481 q 0.24835,0 0.42897,0.180622 0.18063,0.180623 0.18063,0.428979 z m 1.85137,-2.731914 q 0,-1.490135 1.12889,-2.46098 1.15146,-0.970846 3.72533,-1.422402 l 2.64161,-0.451556 q 0,-0.541867 -0.29352,-0.880534 -0.29351,-0.361245 -1.016,-0.361245 -0.51929,0 -0.8128,0.158045 -0.27093,0.135467 -0.4064,0.248356 -0.2032,0.180622 -0.38382,0.225778 -0.18062,0.04516 -0.42898,0.04516 h -2.86738 q -0.22578,0 -0.38382,-0.135467 -0.13547,-0.135466 -0.11289,-0.361244 0.0452,-0.51929 0.45156,-1.083735 0.4064,-0.564445 1.10631,-1.038579 0.72249,-0.474133 1.69333,-0.790223 0.99343,-0.316089 2.14489,-0.316089 1.37725,0 2.39325,0.338667 1.016,0.338667 1.67076,0.948268 0.67733,0.587023 0.99342,1.422401 0.31609,0.812801 0.31609,1.806224 v 6.841074 q 0,0.248356 -0.18062,0.428978 -0.18062,0.180622 -0.42898,0.180622 h -2.8448 q -0.24836,0 -0.42898,-0.180622 -0.18062,-0.180622 -0.18062,-0.428978 v -0.632179 q -0.54187,0.677334 -1.35467,1.083735 -0.79023,0.383822 -2.09974,0.383822 -0.97084,0 -1.73849,-0.270933 -0.74507,-0.270934 -1.26435,-0.745068 -0.49672,-0.474133 -0.76765,-1.12889 -0.27093,-0.654756 -0.27093,-1.422401 z m 5.14773,0.519289 q 0.49672,0 0.92569,-0.158044 0.42898,-0.180623 0.74507,-0.474134 0.31609,-0.293511 0.49671,-0.677334 0.18063,-0.4064 0.18063,-0.857956 l -2.07716,0.316089 q -0.6096,0.112889 -0.99342,0.383822 -0.36125,0.270934 -0.36125,0.699912 0,0.428978 0.27093,0.609601 0.29352,0.158044 0.8128,0.158044 z m 14.63036,6.57014 q -0.0677,0.180623 -0.22578,0.361245 -0.15804,0.180623 -0.42898,0.180623 h -2.95769 q -0.22578,0 -0.38382,-0.158045 -0.15805,-0.158045 -0.15805,-0.383823 0,-0.09031 0.0226,-0.158044 l 1.71591,-4.041427 -4.56071,-10.588988 q -0.0226,-0.06773 -0.0226,-0.158045 0,-0.225778 0.15804,-0.383822 0.15805,-0.158045 0.38383,-0.158045 h 2.95769 q 0.27093,0 0.42898,0.180622 0.15804,0.180623 0.22578,0.361245 l 2.50613,5.870228 2.48356,-5.870228 q 0.0677,-0.180622 0.22578,-0.361245 0.15804,-0.180622 0.42898,-0.180622 h 2.98027 q 0.22577,0 0.38382,0.158045 0.15804,0.158044 0.15804,0.383822 0,0.09031 -0.0226,0.158045 z"
         id="text20"
         aria-label="Play" />
    </g>
  </g>
</svg>
