<?xml version="1.0" encoding="UTF-8" standalone="no"?>
<!-- Created with Inkscape (http://www.inkscape.org/) -->

<svg
   width="155"
   height="110"
   viewBox="0 0 41.010418 29.104166"
   version="1.1"
   id="svg1"
   inkscape:version="1.3 (0e150ed, 2023-07-21)"
   sodipodi:docname="button_hover.svg"
   xmlns:inkscape="http://www.inkscape.org/namespaces/inkscape"
   xmlns:sodipodi="http://sodipodi.sourceforge.net/DTD/sodipodi-0.dtd"
   xmlns="http://www.w3.org/2000/svg"
   xmlns:svg="http://www.w3.org/2000/svg">
  <sodipodi:namedview
     id="namedview1"
     pagecolor="#212121"
     bordercolor="#666666"
     borderopacity="1.0"
     inkscape:showpageshadow="2"
     inkscape:pageopacity="0.0"
     inkscape:pagecheckerboard="true"
     inkscape:deskcolor="#d1d1d1"
     inkscape:document-units="px"
     inkscape:zoom="1.6067251"
     inkscape:cx="81.532305"
     inkscape:cy="84.955417"
     inkscape:window-width="1366"
     inkscape:window-height="699"
     inkscape:window-x="0"
     inkscape:window-y="0"
     inkscape:window-maximized="1"
     inkscape:current-layer="layer1"
     showgrid="false"
     showguides="false" />
  <defs
     id="defs1" />
  <g
     inkscape:label="Layer 1"
     inkscape:groupmode="layer"
     id="layer1">
    <path
       id="path1"
       style="fill:#ffffff;stroke-width:0.26823;stroke-linecap:round;stroke-linejoin:round;paint-order:markers fill stroke;fill-opacity:1;stroke:#000000;stroke-opacity:1"
       d="M 24.742286,0.73638892 A 8.9317334,9.0693054 0 0 0 16.341879,6.7887639 10.572458,10.369471 0 0 0 11.233631,5.4952218 10.572458,10.369471 0 0 0 0.6614583,15.86497 10.572458,10.369471 0 0 0 11.233631,26.234202 a 10.572458,10.369471 0 0 0 3.014947,-0.432054 7.2599608,5.6315198 0 0 0 6.071727,2.56563 7.2599608,5.6315198 0 0 0 6.689471,-3.448574 9.4573872,9.9658547 0 0 0 3.88166,0.882412 9.4573872,9.9658547 0 0 0 9.457523,-9.965944 9.4573872,9.9658547 0 0 0 -7.451058,-9.7127692 8.9317334,9.0693054 0 0 0 -8.155615,-5.38651388 z" />
  </g>
</svg>
