<?xml version="1.0" encoding="UTF-8" standalone="no"?>
<!-- Created with Inkscape (http://www.inkscape.org/) -->

<svg
   width="150"
   height="200"
   viewBox="0 0 39.687498 52.916664"
   version="1.1"
   id="svg1"
   inkscape:version="1.3 (0e150ed, 2023-07-21)"
   sodipodi:docname="drop_box.svg"
   xmlns:inkscape="http://www.inkscape.org/namespaces/inkscape"
   xmlns:sodipodi="http://sodipodi.sourceforge.net/DTD/sodipodi-0.dtd"
   xmlns="http://www.w3.org/2000/svg"
   xmlns:svg="http://www.w3.org/2000/svg">
  <sodipodi:namedview
     id="namedview1"
     pagecolor="#989898"
     bordercolor="#666666"
     borderopacity="1.0"
     inkscape:showpageshadow="2"
     inkscape:pageopacity="0.0"
     inkscape:pagecheckerboard="true"
     inkscape:deskcolor="#d1d1d1"
     inkscape:document-units="mm"
     showguides="true"
     inkscape:zoom="1.1817453"
     inkscape:cx="24.116873"
     inkscape:cy="72.350619"
     inkscape:window-width="1366"
     inkscape:window-height="699"
     inkscape:window-x="0"
     inkscape:window-y="0"
     inkscape:window-maximized="1"
     inkscape:current-layer="layer1"
     showgrid="false" />
  <defs
     id="defs1">
    <inkscape:path-effect
       effect="mirror_symmetry"
       start_point="19.84375,-13.110719"
       end_point="19.84375,39.805948"
       center_point="19.84375,13.347614"
       id="path-effect1"
       is_visible="true"
       lpeversion="1.2"
       lpesatellites=""
       mode="vertical"
       discard_orig_path="false"
       fuse_paths="false"
       oposite_fuse="false"
       split_items="false"
       split_open="false"
       link_styles="false" />
  </defs>
  <g
     inkscape:label="Layer 1"
     inkscape:groupmode="layer"
     id="layer1">
    <circle
       style="display:none;fill:#000000;fill-opacity:0.308245;stroke-width:5.18583;stroke-linecap:round;stroke-linejoin:round;paint-order:stroke markers fill"
       id="path1"
       cx="13.229167"
       cy="26.520248"
       r="10.583333"
       sodipodi:insensitive="true" />
    <path
       id="path8"
       style="fill:#8b6137;stroke:#7e4b24;stroke-width:1.20842;stroke-linecap:round;stroke-linejoin:round;paint-order:stroke markers fill"
       d="m 9.702142,14.147732 h 20.283216 c 0.593608,0 1.071494,0.477886 1.071494,1.071494 v 21.949037 c 0,0.593608 -0.477886,1.071495 -1.071494,1.071495 H 9.702142 c -0.5936079,0 -1.0714943,-0.477887 -1.0714943,-1.071495 V 15.219226 c 0,-0.593608 0.4778864,-1.071494 1.0714943,-1.071494 z"
       inkscape:label="inner box" />
    <path
       id="rect7"
       style="fill:#a47a50;stroke:#7e4b24;stroke-width:1.33336;stroke-linecap:round;stroke-linejoin:round;paint-order:stroke markers fill"
       transform="rotate(46.74045)"
       d="m 16.159881,1.9337484 h 32.901664 c 0.654979,0 1.182272,0.5272933 1.182272,1.182272 v 0.6370094 c 0,0.6549788 -0.527293,1.1822721 -1.182272,1.1822721 H 16.159881 c -0.654979,0 -1.182272,-0.5272933 -1.182272,-1.1822721 V 3.1160204 c 0,-0.6549787 0.527293,-1.182272 1.182272,-1.182272 z"
       inkscape:label="plank" />
    <path
       id="rect2"
       style="fill:#a47a50;stroke:#7e4b24;stroke-width:1.20842;stroke-linecap:round;stroke-linejoin:round;stroke-opacity:1;paint-order:stroke markers fill"
       inkscape:label="Outer box"
       d="m 7.2801758,11.548649 c -0.5936072,0 -1.0712525,0.477645 -1.0712525,1.071253 v 27.147696 c 0,0.593608 0.4776453,1.071253 1.0712525,1.071253 H 32.407324 c 0.593608,0 1.071253,-0.477645 1.071253,-1.071253 V 12.619902 c 0,-0.593608 -0.477645,-1.071253 -1.071253,-1.071253 z m 2.4220744,2.599325 H 29.98525 c 0.593607,0 1.071769,0.477645 1.071769,1.071252 v 21.949048 c 0,0.593607 -0.478162,1.071252 -1.071769,1.071252 H 9.7022502 c -0.5936073,0 -1.0717692,-0.477645 -1.0717692,-1.071252 V 15.219226 c 0,-0.593607 0.4781619,-1.071252 1.0717692,-1.071252 z"
       sodipodi:nodetypes="ssssssccssssssssss" />
    <path
       id="path9"
       style="fill:#000000;stroke:none;stroke-width:1.20842;stroke-linecap:round;stroke-linejoin:round;paint-order:stroke markers fill;fill-opacity:0.1399692"
       d="m 9.702142,14.147732 h 20.283216 c 0.593608,0 1.071494,0.477886 1.071494,1.071494 v 21.949037 c 0,0.593608 -0.477886,1.071495 -1.071494,1.071495 H 9.702142 c -0.5936079,0 -1.0714943,-0.477887 -1.0714943,-1.071495 V 15.219226 c 0,-0.593608 0.4778864,-1.071494 1.0714943,-1.071494 z"
       inkscape:label="inner box" />
  </g>
</svg>
