<?xml version="1.0" encoding="UTF-8" standalone="no"?>
<!-- Created with Inkscape (http://www.inkscape.org/) -->

<svg
   width="210mm"
   height="297mm"
   viewBox="0 0 210 297"
   version="1.1"
   id="svg1"
   xml:space="preserve"
   inkscape:version="1.3 (0e150ed, 2023-07-21)"
   sodipodi:docname="angel.svg"
   inkscape:export-filename="../../../Games/Vertical Scroller/rocket.png"
   inkscape:export-xdpi="120"
   inkscape:export-ydpi="120"
   xmlns:inkscape="http://www.inkscape.org/namespaces/inkscape"
   xmlns:sodipodi="http://sodipodi.sourceforge.net/DTD/sodipodi-0.dtd"
   xmlns:xlink="http://www.w3.org/1999/xlink"
   xmlns="http://www.w3.org/2000/svg"
   xmlns:svg="http://www.w3.org/2000/svg"><sodipodi:namedview
     id="namedview1"
     pagecolor="#b9b9b9"
     bordercolor="#666666"
     borderopacity="1.0"
     inkscape:showpageshadow="2"
     inkscape:pageopacity="0.0"
     inkscape:pagecheckerboard="true"
     inkscape:deskcolor="#d1d1d1"
     inkscape:document-units="mm"
     inkscape:zoom="0.22659115"
     inkscape:cx="278.03381"
     inkscape:cy="1061.383"
     inkscape:window-width="1366"
     inkscape:window-height="699"
     inkscape:window-x="0"
     inkscape:window-y="0"
     inkscape:window-maximized="1"
     inkscape:current-layer="layer1"
     showgrid="false" /><defs
     id="defs1"><linearGradient
       id="linearGradient2"
       inkscape:collect="always"><stop
         style="stop-color:#1fb6d7;stop-opacity:1;"
         offset="0"
         id="stop2" /><stop
         style="stop-color:#54ebde;stop-opacity:1;"
         offset="1"
         id="stop3" /></linearGradient><linearGradient
       inkscape:collect="always"
       xlink:href="#linearGradient2"
       id="linearGradient3"
       x1="102.55875"
       y1="117.96191"
       x2="111.54938"
       y2="26.447561"
       gradientUnits="userSpaceOnUse"
       gradientTransform="matrix(0.95110758,0,0,1.0525599,6.4681306,-3.894281)" /></defs><g
     inkscape:label="Layer 1"
     inkscape:groupmode="layer"
     id="layer1"><path
       id="path2"
       style="display:inline;stroke:#000000;stroke-width:2.26714;stroke-dasharray:none;stroke-opacity:1;fill:none;fill-opacity:1;stroke-linecap:round;stroke-linejoin:round;stroke-dashoffset:47.2176"
       inkscape:label="leg_right"
       d="M 135.30638 138.49345 C 135.11724 139.58897 134.91682 140.67532 134.69677 141.74261 C 134.45469 142.91679 134.19423 144.07285 133.91572 145.2093 C 133.63721 146.34579 133.34075 147.46263 133.02689 148.55766 C 132.71302 149.65273 132.38193 150.72608 132.03378 151.77598 C 131.68563 152.82588 131.32051 153.85231 130.93914 154.85332 C 130.55778 155.85432 130.15999 156.82998 129.74648 157.77835 C 129.33297 158.72671 128.90389 159.64776 128.45931 160.53975 C 128.01473 161.43174 127.55455 162.29472 127.07997 163.12659 C 126.60543 163.95846 126.11628 164.75913 125.61277 165.52714 C 125.10927 166.29516 124.59141 167.03048 124.06005 167.73087 C 123.53473 168.42332 122.99593 169.08066 122.44444 169.70342 C 132.34014 173.41095 157.7682 172.95414 157.7682 172.95414 C 150.49864 169.56041 138.61911 147.80807 135.30638 138.49345 z "
       transform="matrix(1.3232558,0,0,1.3232558,-39.52117,11.541872)" /><path
       id="path3"
       style="display:inline;stroke:#000000;stroke-width:2.26714;stroke-dasharray:none;stroke-opacity:1;fill:none;fill-opacity:1;stroke-linecap:round;stroke-linejoin:round;stroke-dashoffset:47.2176"
       inkscape:label="leg_left"
       d="M 83.314241 139.22685 C 79.838256 148.72222 68.151062 170.00143 60.969579 173.35404 C 60.969579 173.35404 86.409765 173.81101 96.300365 170.10058 C 96.574102 169.99789 96.830576 169.87033 97.075167 169.72607 L 96.057849 169.72607 C 95.499691 169.09699 94.954488 168.43128 94.423112 167.73087 C 93.891739 167.0305 93.373905 166.29554 92.870385 165.52753 C 92.366869 164.75953 91.877774 163.95845 91.403183 163.12659 C 90.928595 162.29473 90.468441 161.43173 90.023849 160.53975 C 89.579261 159.64777 89.150199 158.72671 88.736679 157.77835 C 88.323162 156.82999 87.925394 155.85432 87.544016 154.85332 C 87.162642 153.85232 86.797538 152.82627 86.449375 151.77637 C 86.101212 150.72647 85.770147 149.65273 85.45627 148.55766 C 85.142396 147.46263 84.845564 146.34619 84.567045 145.20969 C 84.288526 144.07323 84.028085 142.91679 83.785995 141.74261 C 83.61561 140.91623 83.466088 140.07038 83.314241 139.22685 z "
       transform="matrix(1.3232558,0,0,1.3232558,-39.52117,11.541872)" /><path
       id="path5"
       style="display:inline;stroke:#000000;stroke-width:2.26714;stroke-dasharray:none;stroke-opacity:1;fill:none;fill-opacity:1;stroke-linecap:round;stroke-linejoin:round;stroke-dashoffset:47.2176"
       inkscape:label="tip"
       d="m 109.24158,41.332808 c -5.92703,2.9e-5 -11.414976,6.902139 -15.919748,17.191687 a 22.435568,14.411161 0 0 0 1.813207,1.164545 22.435568,14.411161 0 0 0 4.253988,1.716748 22.435568,14.411161 0 0 0 4.742143,1.065742 22.435568,14.411161 0 0 0 4.99247,0.361626 22.435568,14.411161 0 0 0 4.99247,-0.361626 22.435568,14.411161 0 0 0 4.74175,-1.065742 22.435568,14.411161 0 0 0 4.25399,-1.716748 22.435568,14.411161 0 0 0 1.99754,-1.282874 C 120.6143,48.181807 115.14599,41.332831 109.24158,41.332808 Z m 1.50079,96.096462 c -0.73104,0 -1.31959,0.58855 -1.31959,1.31958 v 30.97722 h 2.63917 v -30.97722 c 0,-0.73103 -0.58855,-1.31958 -1.31958,-1.31958 z"
       transform="matrix(1.3232558,0,0,1.3232558,-39.52117,11.541872)" /><path
       id="path6"
       style="display:inline;stroke:#000000;stroke-width:2.26714;stroke-dasharray:none;stroke-opacity:1;fill:none;fill-opacity:1;stroke-linecap:round;stroke-linejoin:round;stroke-dashoffset:47.2176"
       inkscape:label="main body - Permanent"
       d="m 125.10939,58.406166 a 22.435568,14.411161 0 0 1 -1.99754,1.282874 22.435568,14.411161 0 0 1 -4.25399,1.716748 22.435568,14.411161 0 0 1 -4.74175,1.065742 22.435568,14.411161 0 0 1 -4.99247,0.361626 22.435568,14.411161 0 0 1 -4.99247,-0.361626 22.435568,14.411161 0 0 1 -4.742143,-1.065742 22.435568,14.411161 0 0 1 -4.253988,-1.716748 22.435568,14.411161 0 0 1 -1.813207,-1.164545 c -0.219014,0.500257 -0.440238,0.99265 -0.65452,1.508598 -0.355515,0.856012 -0.704581,1.733135 -1.046606,2.629404 -0.342028,0.896269 -0.676863,1.811737 -1.004821,2.744609 -0.327957,0.932869 -0.648948,1.883065 -0.962253,2.848879 -0.626615,1.931628 -1.223293,3.925749 -1.787823,5.96722 -0.564532,2.041471 -1.096706,4.130626 -1.594513,6.252694 -0.497809,2.122067 -0.961093,4.276884 -1.387535,6.450299 -0.426444,2.173418 -0.81606,4.365298 -1.166498,6.560819 -0.350438,2.195518 -0.662004,4.394711 -0.931792,6.583073 -0.269791,2.18839 -0.497748,4.36589 -0.682247,6.51786 -0.184502,2.152 -0.325243,4.27843 -0.419815,6.36478 -0.09457,2.08635 -0.143323,4.13274 -0.143322,6.12421 0.001,1.32179 0.02369,2.63699 0.06756,3.94352 0.04387,1.30654 0.109215,2.60443 0.194871,3.89197 0.08566,1.28754 0.191905,2.56468 0.318278,3.82949 0.126374,1.26481 0.272933,2.51734 0.43895,3.75568 0.166017,1.23833 0.351518,2.46241 0.556108,3.67054 0.204587,1.20813 0.428052,2.40032 0.67014,3.57447 0.24209,1.17418 0.502531,2.33061 0.78105,3.46708 0.278519,1.1365 0.57535,2.25293 0.889225,3.34797 0.313877,1.09507 0.644942,2.16881 0.993105,3.21871 0.348163,1.0499 0.713266,2.07595 1.094641,3.07695 0.381378,1.001 0.779145,1.97667 1.192663,2.92503 0.41352,0.94836 0.842581,1.86942 1.28717,2.7614 0.444592,0.89198 0.904745,1.75498 1.379334,2.58684 0.474591,0.83186 0.963685,1.63294 1.467202,2.40094 0.50352,0.76801 1.021353,1.50296 1.552727,2.20334 0.531376,0.70041 1.076578,1.36612 1.634737,1.9952 h 13.364932 v -30.97722 c 0,-0.73103 0.58855,-1.31958 1.31959,-1.31958 0.73103,0 1.31958,0.58855 1.31958,1.31958 v 30.97722 h 10.36375 c 0.55815,-0.6291 1.10298,-1.29477 1.63435,-1.9952 0.53136,-0.7004 1.04922,-1.43571 1.55272,-2.20373 0.50351,-0.76801 0.99265,-1.56868 1.4672,-2.40055 0.47458,-0.83187 0.93476,-1.69485 1.37934,-2.58684 0.44458,-0.89199 0.87366,-1.81304 1.28717,-2.7614 0.41351,-0.94837 0.8113,-1.92403 1.19266,-2.92503 0.38137,-1.00101 0.74649,-2.02744 1.09464,-3.07734 0.34815,-1.0499 0.67924,-2.12325 0.99311,-3.21832 0.31386,-1.09504 0.61032,-2.21187 0.88883,-3.34836 0.27851,-1.13646 0.53897,-2.29251 0.78105,-3.46669 0.24208,-1.17415 0.46595,-2.36635 0.67053,-3.57447 0.20458,-1.20812 0.3901,-2.43221 0.55611,-3.67054 0.16601,-1.23833 0.3122,-2.49088 0.43856,-3.75568 0.12637,-1.2648 0.23263,-2.54196 0.31828,-3.82949 0.0856,-1.28753 0.15101,-2.58545 0.19487,-3.89197 0.0439,-1.30652 0.0665,-2.62174 0.0676,-3.94352 0,-1.99147 -0.0487,-4.03786 -0.14332,-6.12421 -0.0946,-2.08635 -0.23492,-4.21278 -0.41943,-6.36478 -0.1845,-2.15197 -0.41284,-4.32947 -0.68263,-6.51786 -0.26979,-2.188363 -0.58136,-4.387555 -0.9318,-6.583073 -0.35041,-2.195521 -0.74005,-4.387401 -1.16649,-6.560819 -0.42645,-2.173415 -0.88973,-4.328231 -1.38754,-6.450299 -0.49781,-2.122068 -1.02998,-4.211223 -1.59451,-6.252694 -0.56453,-2.041471 -1.16121,-4.035592 -1.78782,-5.96722 -0.31331,-0.965814 -0.6343,-1.91601 -0.96226,-2.848879 -0.32796,-0.932872 -0.66279,-1.84834 -1.00482,-2.744609 -0.34203,-0.896269 -0.69111,-1.773392 -1.0466,-2.629404 -0.23111,-0.556444 -0.46948,-1.08877 -0.70607,-1.626927 z"
       transform="matrix(1.3232558,0,0,1.3232558,-39.52117,11.541872)" /><path
       id="circle8"
       style="display:inline;stroke:#000000;stroke-width:2.49385;stroke-dasharray:none;stroke-opacity:1;fill:none;fill-opacity:1;stroke-linecap:round;stroke-linejoin:round;stroke-dashoffset:47.2176"
       inkscape:label="outer ring"
       d="M 109.77504,85.973318 A 13.23053,13.23053 0 0 0 96.544443,99.20391 13.23053,13.23053 0 0 0 109.77504,112.4345 13.23053,13.23053 0 0 0 123.00563,99.20391 13.23053,13.23053 0 0 0 109.77504,85.973318 Z m 0,3.60845 a 9.6222038,9.6222038 0 0 1 9.62214,9.622142 9.6222038,9.6222038 0 0 1 -9.62214,9.62214 9.6222038,9.6222038 0 0 1 -9.62215,-9.62214 9.6222038,9.6222038 0 0 1 9.62215,-9.622142 z"
       transform="matrix(1.3232558,0,0,1.3232558,-39.52117,11.541872)" /><rect
       style="display:inline;stroke:#000000;stroke-width:2.26714;stroke-dasharray:none;stroke-opacity:1;fill:none;fill-opacity:1;stroke-linecap:round;stroke-linejoin:round;stroke-dashoffset:47.2176"
       id="rect1"
       width="2.6391168"
       height="37.317585"
       x="109.42294"
       y="137.4294"
       ry="1.3195584"
       transform="matrix(1.3232558,0,0,1.3232558,-39.52117,11.541872)" /><circle
       style="display:inline;stroke:#000000;stroke-width:2.26714;stroke-dasharray:none;stroke-opacity:1;fill:none;fill-opacity:1;stroke-linecap:round;stroke-linejoin:round;stroke-dashoffset:47.2176"
       id="circle1"
       cx="109.775"
       cy="99.203911"
       r="9.6222038"
       inkscape:label="inner - Permanent"
       transform="matrix(1.3232558,0,0,1.3232558,-39.52117,11.541872)" /><ellipse
       style="fill:none;fill-opacity:1;stroke:url(#linearGradient3);stroke-width:8;stroke-linecap:round;stroke-linejoin:round;stroke-dasharray:none;stroke-opacity:1;paint-order:markers fill stroke"
       id="path1"
       ry="21.26153"
       rx="43.43235"
       cy="80.458717"
       cx="104.83569" /><g
       id="g8"
       transform="matrix(1.0666992,0,0,1.0666992,-0.92742913,-16.381727)"><path
         d="m 78.699324,202.10394 c 4.842344,3.16002 8.846049,9.23171 9.957831,15.10119 0.97306,5.13711 0.835117,7.54758 -0.766294,13.3906 -1.32964,4.85149 -1.419186,5.05347 -3.015092,6.80247 -3.838859,4.20711 -10.195187,5.24205 -21.942802,3.57267 -9.662589,-1.37308 -20.808082,-0.54929 -30.352797,2.24342 -1.608215,0.47054 -3.125311,0.80193 -3.371326,0.73639 -0.246051,-0.0654 -0.390502,-0.0192 -0.321075,0.10306 0.149435,0.26293 -4.840683,2.19309 -5.325154,2.05975 -0.183099,-0.0504 -0.36117,-0.31545 -0.395717,-0.58902 -0.03454,-0.27355 -0.138908,-0.10376 -0.231921,0.37749 -0.2678,1.38541 -4.355613,3.06486 -6.214578,2.55321 -1.824469,-0.50217 -2.576792,-1.74927 -2.100089,-3.48128 0.205432,-0.74639 0.470587,-1.1406 0.642647,-0.9554 0.16356,0.17605 0.268079,0.0625 0.236698,-0.25739 -0.06255,-0.63739 2.147737,-3.20593 4.383236,-5.0937 1.298205,-1.09627 1.384596,-1.25125 0.788875,-1.41522 -0.367937,-0.10133 -0.922901,-0.66525 -1.23325,-1.25331 -1.229231,-2.32914 0.817217,-5.64777 5.176021,-8.39371 2.289876,-1.44256 2.349884,-1.51666 2.078112,-2.56598 -0.23572,-0.91014 -0.158664,-1.23629 0.488592,-2.06807 0.808935,-1.03954 3.726662,-2.92914 5.800137,-3.75633 l 1.22808,-0.48993 -0.486582,-1.15753 c -1.122387,-2.67005 1.119557,-4.8175 5.935704,-5.68553 2.669852,-0.48118 2.839474,-0.57281 3.01419,-1.62812 0.101818,-0.61503 0.542353,-1.43291 0.978947,-1.81752 0.850084,-0.74887 4.851407,-1.59831 7.413392,-1.5738 1.451786,0.014 1.571889,-0.0641 1.70018,-1.10304 0.212032,-1.71718 1.428149,-2.52908 3.839985,-2.56363 2.712342,-0.0389 3.867417,0.29748 4.105156,1.19541 0.181915,0.68705 0.201671,0.69185 0.377863,0.092 0.102245,-0.34817 -0.02962,-0.79183 -0.293081,-0.98595 -0.275676,-0.20311 -0.35619,-0.79905 -0.189683,-1.40402 0.448102,-1.6281 2.360172,-1.75034 7.134712,-0.45611 3.741482,1.01418 3.847739,1.0204 4.063297,0.23816 0.594336,-2.1566 3.382042,-2.06406 6.895788,0.22894 z m -6.466347,-0.12316 c -0.316809,0.77783 -0.150791,1.07072 1.293569,2.28215 2.376739,1.99345 4.107009,3.97776 4.331165,4.96706 0.181496,0.80105 0.148035,0.81405 -0.519143,0.20186 -0.392228,-0.35993 -0.913927,-1.07831 -1.159337,-1.59643 -0.245396,-0.51811 -0.401424,-0.72534 -0.346713,-0.46049 0.05521,0.26727 -0.780205,-0.17628 -1.877567,-0.99686 -1.087364,-0.81312 -2.227052,-1.54987 -2.532631,-1.6372 -0.372928,-0.10665 -0.396375,-0.20776 -0.07131,-0.30769 0.266366,-0.0819 -1.399276,-0.62373 -3.701427,-1.20407 -6.307558,-1.59009 -6.20456,-1.58192 -6.369626,-0.50571 -0.132162,0.86172 0.027,0.98669 2.461013,1.93234 1.93137,0.75036 3.178009,1.52792 4.835135,3.01575 2.226551,1.99909 2.941911,3.18648 1.120457,1.85981 -0.527903,-0.3845 -0.926684,-0.81949 -0.886182,-0.96665 0.04051,-0.14715 -0.157409,-0.24487 -0.439806,-0.21716 -0.28239,0.0278 -1.324264,-0.4256 -2.315274,-1.00735 -1.189951,-0.69854 -3.165876,-1.40139 -5.81853,-2.06969 -3.32578,-0.8379 -3.891689,-1.0621 -3.290011,-1.30341 0.41503,-0.16645 0.545652,-0.34651 0.304582,-0.41983 -0.23215,-0.0707 -0.567954,0.007 -0.746222,0.17274 -0.178267,0.16563 -0.433197,0.18374 -0.566501,0.0403 -0.133312,-0.14347 -0.292495,0.007 -0.353759,0.33513 -0.06126,0.3278 -0.331714,0.61159 -0.601008,0.63062 -0.269293,0.0191 -0.439109,-0.14893 -0.377368,-0.37326 0.06174,-0.22431 0.24559,-0.26432 0.408555,-0.0888 0.162967,0.17541 0.31841,0.2386 0.345435,0.1404 0.162804,-0.5915 -0.612513,-0.68042 -1.135445,-0.13015 -0.382132,0.40206 -0.454094,0.60504 -0.186754,0.52672 0.267379,-0.0784 0.30365,0.24674 0.09415,0.84373 l -0.340804,0.97118 3.781327,1.11577 c 4.004207,1.18153 7.251659,2.82498 9.037299,4.5735 0.871611,0.85352 0.91427,0.97352 0.226868,0.63828 -4.030589,-1.96563 -6.613055,-2.91095 -9.867669,-3.61207 -5.549711,-1.19556 -11.713316,-0.94056 -13.123242,0.54292 -0.983304,1.03462 -0.368101,1.43262 2.478012,1.60311 3.210808,0.19237 7.171549,1.23565 9.547154,2.51479 l 1.772623,0.95446 -3.875082,-0.79921 c -9.359938,-1.93046 -18.104123,-0.97901 -18.940814,2.06094 -0.456373,1.65816 0.256906,2.17382 2.64116,1.90944 2.737739,-0.30359 5.090352,-0.16946 7.249712,0.41334 2.261556,0.61035 1.804185,0.83996 -1.540726,0.77344 -3.690761,-0.0733 -7.27111,0.63289 -10.913201,2.15289 -3.317057,1.38433 -4.724642,2.5247 -4.456967,3.61087 0.14232,0.57753 0.556211,0.58261 3.315841,0.0407 2.326424,-0.45685 3.775827,-0.50297 5.527709,-0.17585 l 2.374493,0.44332 -2.371198,0.24244 c -5.866725,0.59977 -9.714304,2.0548 -13.276264,5.02064 -2.646184,2.20332 -3.369358,3.40866 -2.906942,4.84503 0.474068,1.47255 1.67732,1.655 3.546502,0.53777 1.704717,-1.01891 5.3703,-2.37162 7.671979,-2.83117 1.785157,-0.35642 1.212602,-0.0647 -1.890641,0.96341 -2.872976,0.95178 -7.861638,3.90291 -10.05333,5.9472 -0.860015,0.80219 -1.639694,1.43759 -1.732622,1.412 -0.09293,-0.0256 -0.02546,-0.17984 0.149962,-0.3428 0.175411,-0.16298 0.234765,-0.31946 0.131896,-0.34778 -0.10287,-0.0284 -0.463148,0.23906 -0.800628,0.59414 -0.431262,0.45378 -0.477079,0.60562 -0.154171,0.51102 0.620012,-0.18163 0.43403,0.27804 -0.48077,1.18828 -0.929875,0.92524 -1.487895,2.73439 -1.070127,3.46943 0.469532,0.82616 1.722152,1.0284 3.011767,0.48629 0.635358,-0.26707 1.445219,-0.45602 1.799695,-0.41985 0.354472,0.0361 0.654267,-0.11475 0.666207,-0.33544 0.03154,-0.58326 3.209785,-1.91703 3.702691,-1.55388 0.229705,0.16925 0.371205,0.14921 0.314446,-0.0445 -0.14328,-0.48904 1.312607,-1.17798 5.262565,-2.49028 5.342862,-1.77505 13.454403,-3.24857 19.406052,-3.52524 5.41324,-0.25164 7.715428,-0.11911 17.05663,0.98227 7.547194,0.88982 12.639787,0.0632 16.136631,-2.61948 1.003473,-0.76982 1.117415,-0.79215 0.708807,-0.13897 -0.33213,0.53093 -0.340385,0.73536 -0.02596,0.64325 0.253498,-0.0743 0.542097,-0.57821 0.64134,-1.11984 0.09925,-0.54165 0.734026,-2.47439 1.410634,-4.29497 2.951342,-7.94139 2.495187,-15.53092 -1.338053,-22.2626 -3.672927,-6.45016 -10.990128,-11.1529 -12.310242,-7.91177 z m 8.782882,11.70784 c -1.425459,0.20409 -3.587441,1.59748 -4.222884,2.72163 -0.409786,0.72495 -0.572309,0.73386 -2.093681,0.11475 -2.473596,-1.00659 -5.315307,-0.72888 -7.967797,0.77864 -1.193722,0.67846 -2.389289,1.62077 -2.656817,2.09404 -0.395717,0.70007 -0.698079,0.80225 -1.621672,0.54805 -1.964576,-0.54071 -4.609769,0.24738 -6.00532,1.78922 -0.682979,0.75456 -1.364172,1.81663 -1.513759,2.36013 -0.216206,0.78554 -0.590695,1.05384 -1.826093,1.30835 -1.712644,0.3528 -2.57336,0.8519 -3.58843,2.08074 -0.412587,0.49948 -0.623497,0.59047 -0.544786,0.23502 0.194525,-0.87842 2.262842,-2.50635 3.759344,-2.95891 1.045877,-0.3163 1.401775,-0.65214 1.666852,-1.57295 0.804092,-2.79328 4.094087,-4.80329 7.276796,-4.44575 1.109378,0.1247 1.696754,-0.0141 1.99333,-0.47084 0.763574,-1.17592 3.787322,-2.81446 5.834746,-3.16179 1.480499,-0.25116 2.653493,-0.16685 4.425381,0.31809 1.682713,0.46043 2.451447,0.52594 2.545051,0.21662 0.325213,-1.07471 4.029016,-2.6623 5.29889,-2.27131 0.253101,0.078 -0.08851,0.22025 -0.759151,0.31626 z m 1.944078,5.56504 c -2.178857,0.15588 -4.848357,1.86246 -5.642502,3.60719 -0.34709,0.76255 -0.672503,1.37504 -0.723143,1.3611 -0.05066,-0.014 -0.486209,-0.39201 -0.967928,-0.84016 -2.476344,-2.30375 -6.771251,-1.02494 -7.682974,2.28762 -0.167869,0.60991 -0.43009,0.6621 -1.645551,0.32757 -2.390018,-0.6578 -5.291347,0.44157 -6.752134,2.55851 -0.367504,0.53258 -0.608889,0.7033 -0.536412,0.37936 0.474035,-2.11859 3.652908,-4.20499 6.325658,-4.15172 1.568114,0.0312 1.882299,-0.11082 2.614854,-1.18225 1.671563,-2.44485 4.290493,-3.17459 7.031099,-1.95912 1.383563,0.61359 1.508302,0.5982 2.183523,-0.26952 1.423978,-1.82993 4.651491,-3.03583 6.586916,-2.46108 0.516101,0.15326 0.251193,0.2679 -0.791406,0.3425 z m 2.718833,6.81943 c -0.88873,2.40515 -3.252286,5.15495 -5.438166,6.32687 -1.922916,1.03092 -6.66843,2.221 -7.224034,1.81165 -0.233596,-0.17211 -0.459472,-0.18666 -0.501956,-0.0324 -0.140799,0.51156 -4.233545,0.44435 -10.594852,-0.17399 -7.380856,-0.71743 -10.838873,-0.61782 -17.146893,0.49391 -5.34299,0.94167 -4.34686,0.27751 1.411206,-0.9409 4.468968,-0.94564 8.750211,-1.2186 13.063961,-0.83294 9.907607,0.88578 11.653135,0.99006 13.619447,0.81373 5.840059,-0.52375 10.045137,-3.08861 12.55235,-7.65626 l 1.007345,-1.83517 z"
         style="fill:#333333;fill-opacity:1;stroke:#000000;stroke-width:1.15675;stroke-dasharray:none;stroke-opacity:1"
         id="path1-1-7" /><path
         style="fill:#ffffff;fill-opacity:1;stroke:none;stroke-width:10.9983;stroke-linecap:round;stroke-linejoin:round;stroke-dasharray:none;paint-order:markers fill stroke"
         d="m 16.965497,246.52953 c -0.797424,-0.26581 -0.486173,-1.76685 0.668327,-3.22308 2.430072,-3.06517 7.770665,-6.67254 12.610437,-8.51789 2.772246,-1.05702 3.579377,-1.77134 2.650298,-2.34554 -0.555439,-0.34328 -4.673895,0.85064 -7.612134,2.20672 -3.394486,1.56666 -4.040946,1.59251 -4.040946,0.16166 0,-1.31741 1.690462,-3.11236 4.861278,-5.16176 2.51701,-1.62682 5.683396,-2.6581 9.859862,-3.2113 4.314286,-0.57146 4.683584,-1.46642 0.907276,-2.19868 -1.434981,-0.27827 -2.828071,-0.26853 -5.008953,0.0351 -1.661614,0.23127 -3.106725,0.33488 -3.21136,0.23025 -0.319967,-0.31996 3.014243,-2.10246 5.603835,-2.99586 2.745108,-0.94704 7.044929,-1.6235 10.319602,-1.6235 2.054209,0 2.174691,-0.0478 2.065236,-0.81844 -0.161926,-1.14014 -2.404384,-1.66188 -7.300273,-1.69852 -4.146843,-0.031 -4.686511,-0.30532 -3.217203,-1.63503 1.981294,-1.79303 9.477371,-2.30412 16.039345,-1.09356 4.499595,0.8301 5.589202,0.8525 5.735868,0.11795 0.238139,-1.19267 -7.814301,-3.96613 -11.515247,-3.96613 -1.576365,0 -2.23788,-0.49411 -1.220695,-0.91178 0.34896,-0.14329 2.107655,-0.34301 3.908212,-0.44385 5.106069,-0.2859 9.23885,0.6608 17.182046,3.93594 0.836278,0.34482 1.289833,0.37262 1.566423,0.096 1.125015,-1.12501 -4.49209,-4.73999 -9.836626,-6.33052 -1.500462,-0.44654 -2.873144,-0.89441 -3.050407,-0.99526 -0.574224,-0.32671 1.34797,-1.49695 1.947459,-1.18562 0.306529,0.15919 2.09731,0.72912 3.979513,1.26653 3.623157,1.03447 6.365713,2.27321 8.304996,3.75112 1.19267,0.90893 2.277144,0.8957 2.277144,-0.0278 0,-0.98776 -3.973283,-4.26987 -6.786241,-5.60574 -1.537975,-0.73038 -2.61713,-1.38769 -2.398125,-1.4607 0.219012,-0.073 2.035307,0.28112 4.036215,0.78693 2.844329,0.71903 4.238175,1.31146 6.388929,2.71549 1.512998,0.98769 3.176824,2.30198 3.69739,2.92064 1.014605,1.20578 1.873555,1.44363 2.194362,0.60763 0.316744,-0.82543 -0.48825,-2.02936 -3.216563,-4.81064 -1.433857,-1.46169 -2.441667,-2.77533 -2.302249,-3.00092 0.801415,-1.29672 4.558031,0.6911 7.745538,4.09855 3.802243,4.06461 6.259241,10.1712 6.275628,15.59735 0.0056,1.84404 -0.0789,2.09156 -0.713791,2.09156 -0.479953,0 -0.98078,0.51096 -1.501747,1.53215 -1.218249,2.38797 -4.320074,5.18814 -6.763901,6.10612 -3.810648,1.43139 -5.818898,1.56109 -13.748545,0.88796 -8.650825,-0.73436 -14.023418,-0.54539 -19.382188,0.68172 -3.779669,0.8655 -4.726464,1.31591 -4.281074,2.03657 0.335354,0.54261 1.777897,0.4967 5.934423,-0.18887 2.887875,-0.47633 4.853605,-0.53333 10.635739,-0.30845 16.307606,0.63425 17.534256,0.58008 21.638896,-0.95567 2.654031,-0.99299 5.590181,-3.65291 6.939441,-6.28657 l 0.957045,-1.86809 -0.235249,1.45499 c -0.445319,2.75429 -2.45881,8.35677 -3.244734,9.02841 -0.426169,0.3642 -1.832718,1.17343 -3.12566,1.7983 -2.096453,1.01319 -2.785174,1.15257 -6.365601,1.28822 -2.448916,0.0928 -6.213832,-0.0946 -9.652912,-0.48041 -13.897221,-1.55908 -28.720137,0.22786 -38.087516,4.59157 -1.242046,0.5786 -2.487779,1.05198 -2.768296,1.05198 -0.280517,0 -1.070518,0.38037 -1.755557,0.84524 -1.322854,0.89771 -3.832931,1.67889 -4.58697,1.42755 z m 43.632479,-18.05836 c 1.482073,-1.48208 3.371403,-2.06995 5.747883,-1.78849 1.747802,0.207 1.76012,0.20097 2.482401,-1.21481 1.323429,-2.59413 4.070624,-3.22336 6.380636,-1.46143 1.281811,0.97769 1.311133,0.98204 1.948459,0.28928 0.355883,-0.38684 0.942996,-1.1306 1.304688,-1.6528 0.889214,-1.28379 2.173262,-2.07605 4.197918,-2.59012 1.264812,-0.32115 1.691934,-0.6031 1.691934,-1.11685 0,-1.6553 -4.868525,-0.76469 -7.072032,1.29369 l -1.09136,1.01948 -1.995283,-0.55535 c -1.829496,-0.50922 -2.131195,-0.50346 -3.631014,0.0693 -0.899658,0.34357 -2.110345,1.16524 -2.690418,1.82591 -0.862593,0.98244 -1.472953,1.27489 -3.351234,1.60574 -2.572188,0.45308 -4.84587,1.81113 -5.656389,3.37849 -1.205206,2.33062 -0.212821,2.84456 1.733811,0.89792 z m -10.267754,-0.75312 c 0.463733,-0.49362 1.642372,-1.16295 2.6192,-1.4874 1.480855,-0.49186 1.97866,-0.90664 2.995062,-2.49553 1.478198,-2.3108 2.999374,-3.12205 5.85414,-3.12205 1.899392,0 2.209345,-0.12116 3.726579,-1.45667 1.562248,-1.37515 4.341151,-2.54457 6.046705,-2.54457 0.4007,0 1.663642,0.26237 2.806534,0.58306 l 2.077992,0.58305 1.410218,-1.41022 c 0.79506,-0.79506 2.080771,-1.61111 2.947421,-1.87077 1.127543,-0.33782 1.5372,-0.65054 1.5372,-1.17345 0,-0.56344 -0.24785,-0.71122 -1.182182,-0.70491 -1.336046,0.009 -3.806008,1.03094 -4.733463,1.95839 -0.515716,0.51571 -0.844654,0.55494 -1.988926,0.23716 -2.472396,-0.6866 -5.541496,-0.46799 -7.736625,0.55107 -1.100341,0.51082 -2.409835,1.30986 -2.909991,1.77564 -0.693155,0.64551 -1.443213,0.88292 -3.154637,0.99853 -2.969803,0.20061 -5.374576,1.64174 -6.511294,3.90207 -0.552036,1.0977 -1.255589,1.83469 -2.210347,2.31539 -2.313582,1.16484 -4.079868,3.09109 -3.578398,3.90248 0.370421,0.59935 1.100227,0.40033 1.984812,-0.54127 z"
         id="path14" /></g><g
       id="g7"
       transform="matrix(1.0666992,0,0,1.0666992,-14.013408,-17.570563)"><path
         d="m 135.26081,203.21844 c -4.84235,3.16002 -8.84605,9.23171 -9.95783,15.10119 -0.97306,5.13711 -0.83512,7.54758 0.76629,13.3906 1.32964,4.85149 1.41919,5.05347 3.01509,6.80247 3.83886,4.20711 10.19519,5.24205 21.9428,3.57267 9.66259,-1.37308 20.80809,-0.54929 30.3528,2.24342 1.60822,0.47054 3.12531,0.80193 3.37133,0.73639 0.24605,-0.0654 0.3905,-0.0192 0.32107,0.10306 -0.14943,0.26293 4.84068,2.19309 5.32516,2.05975 0.18309,-0.0504 0.36117,-0.31545 0.39571,-0.58902 0.0345,-0.27355 0.13891,-0.10376 0.23192,0.37749 0.2678,1.38541 4.35562,3.06486 6.21458,2.55321 1.82447,-0.50217 2.57679,-1.74927 2.10009,-3.48128 -0.20543,-0.74639 -0.47059,-1.1406 -0.64265,-0.9554 -0.16356,0.17605 -0.26808,0.0625 -0.23669,-0.25739 0.0625,-0.63739 -2.14774,-3.20593 -4.38324,-5.0937 -1.29821,-1.09627 -1.3846,-1.25125 -0.78888,-1.41522 0.36794,-0.10133 0.92291,-0.66525 1.23325,-1.25331 1.22924,-2.32914 -0.81721,-5.64777 -5.17602,-8.39371 -2.28987,-1.44256 -2.34988,-1.51666 -2.07811,-2.56598 0.23572,-0.91014 0.15867,-1.23629 -0.48859,-2.06807 -0.80894,-1.03954 -3.72666,-2.92914 -5.80014,-3.75633 l -1.22808,-0.48993 0.48658,-1.15753 c 1.12239,-2.67005 -1.11955,-4.8175 -5.9357,-5.68553 -2.66985,-0.48118 -2.83947,-0.57281 -3.01419,-1.62812 -0.10182,-0.61503 -0.54235,-1.43291 -0.97895,-1.81752 -0.85008,-0.74887 -4.8514,-1.59831 -7.41339,-1.5738 -1.45178,0.014 -1.57189,-0.0641 -1.70018,-1.10304 -0.21203,-1.71718 -1.42815,-2.52908 -3.83998,-2.56363 -2.71235,-0.0389 -3.86742,0.29748 -4.10516,1.19541 -0.18191,0.68705 -0.20167,0.69185 -0.37786,0.092 -0.10225,-0.34817 0.0296,-0.79183 0.29308,-0.98595 0.27567,-0.20311 0.35619,-0.79905 0.18968,-1.40402 -0.4481,-1.6281 -2.36017,-1.75034 -7.13471,-0.45611 -3.74148,1.01418 -3.84774,1.0204 -4.0633,0.23816 -0.59433,-2.1566 -3.38204,-2.06406 -6.89579,0.22894 z m 6.46634,-0.12316 c 0.31681,0.77783 0.15079,1.07072 -1.29357,2.28215 -2.37673,1.99345 -4.107,3.97776 -4.33116,4.96706 -0.1815,0.80105 -0.14804,0.81405 0.51914,0.20186 0.39223,-0.35993 0.91393,-1.07831 1.15934,-1.59643 0.2454,-0.51811 0.40142,-0.72534 0.34671,-0.46049 -0.0552,0.26727 0.78021,-0.17628 1.87757,-0.99686 1.08736,-0.81312 2.22705,-1.54987 2.53263,-1.6372 0.37293,-0.10665 0.39638,-0.20776 0.0713,-0.30769 -0.26637,-0.0819 1.39928,-0.62373 3.70143,-1.20407 6.30756,-1.59009 6.20456,-1.58192 6.36962,-0.50571 0.13217,0.86172 -0.027,0.98669 -2.46101,1.93234 -1.93137,0.75036 -3.17801,1.52792 -4.83513,3.01575 -2.22656,1.99909 -2.94192,3.18648 -1.12046,1.85981 0.5279,-0.3845 0.92668,-0.81949 0.88618,-0.96665 -0.0405,-0.14715 0.15741,-0.24487 0.43981,-0.21716 0.28239,0.0278 1.32426,-0.4256 2.31527,-1.00735 1.18995,-0.69854 3.16588,-1.40139 5.81853,-2.06969 3.32578,-0.8379 3.89169,-1.0621 3.29001,-1.30341 -0.41503,-0.16645 -0.54565,-0.34651 -0.30458,-0.41983 0.23215,-0.0707 0.56795,0.007 0.74622,0.17274 0.17827,0.16563 0.4332,0.18374 0.5665,0.0403 0.13331,-0.14347 0.2925,0.007 0.35376,0.33513 0.0613,0.3278 0.33172,0.61159 0.60101,0.63062 0.26929,0.0191 0.43911,-0.14893 0.37737,-0.37326 -0.0617,-0.22431 -0.24559,-0.26432 -0.40856,-0.0888 -0.16296,0.17541 -0.31841,0.2386 -0.34543,0.1404 -0.16281,-0.5915 0.61251,-0.68042 1.13544,-0.13015 0.38213,0.40206 0.4541,0.60504 0.18676,0.52672 -0.26738,-0.0784 -0.30365,0.24674 -0.0941,0.84373 l 0.3408,0.97118 -3.78133,1.11577 c -4.0042,1.18153 -7.25166,2.82498 -9.0373,4.5735 -0.87161,0.85352 -0.91427,0.97352 -0.22686,0.63828 4.03059,-1.96563 6.61305,-2.91095 9.86767,-3.61207 5.54971,-1.19556 11.71331,-0.94056 13.12324,0.54292 0.9833,1.03462 0.3681,1.43262 -2.47801,1.60311 -3.21081,0.19237 -7.17155,1.23565 -9.54716,2.51479 l -1.77262,0.95446 3.87508,-0.79921 c 9.35994,-1.93046 18.10412,-0.97901 18.94081,2.06094 0.45638,1.65816 -0.2569,2.17382 -2.64116,1.90944 -2.73773,-0.30359 -5.09035,-0.16946 -7.24971,0.41334 -2.26155,0.61035 -1.80418,0.83996 1.54073,0.77344 3.69076,-0.0733 7.27111,0.63289 10.9132,2.15289 3.31706,1.38433 4.72464,2.5247 4.45697,3.61087 -0.14232,0.57753 -0.55621,0.58261 -3.31584,0.0407 -2.32643,-0.45685 -3.77583,-0.50297 -5.52771,-0.17585 l -2.3745,0.44332 2.3712,0.24244 c 5.86673,0.59977 9.71431,2.0548 13.27627,5.02064 2.64618,2.20332 3.36935,3.40866 2.90694,4.84503 -0.47407,1.47255 -1.67732,1.655 -3.5465,0.53777 -1.70472,-1.01891 -5.3703,-2.37162 -7.67198,-2.83117 -1.78516,-0.35642 -1.21261,-0.0647 1.89064,0.96341 2.87297,0.95178 7.86164,3.90291 10.05333,5.9472 0.86001,0.80219 1.63969,1.43759 1.73262,1.412 0.0929,-0.0256 0.0255,-0.17984 -0.14996,-0.3428 -0.17541,-0.16298 -0.23477,-0.31946 -0.1319,-0.34778 0.10287,-0.0284 0.46315,0.23906 0.80063,0.59414 0.43126,0.45378 0.47708,0.60562 0.15417,0.51102 -0.62001,-0.18163 -0.43403,0.27804 0.48077,1.18828 0.92988,0.92524 1.4879,2.73439 1.07013,3.46943 -0.46953,0.82616 -1.72215,1.0284 -3.01177,0.48629 -0.63536,-0.26707 -1.44522,-0.45602 -1.79969,-0.41985 -0.35448,0.0361 -0.65427,-0.11475 -0.66621,-0.33544 -0.0315,-0.58326 -3.20979,-1.91703 -3.70269,-1.55388 -0.22971,0.16925 -0.37121,0.14921 -0.31445,-0.0445 0.14328,-0.48904 -1.31261,-1.17798 -5.26256,-2.49028 -5.34287,-1.77505 -13.45441,-3.24857 -19.40606,-3.52524 -5.41324,-0.25164 -7.71542,-0.11911 -17.05663,0.98227 -7.54719,0.88982 -12.63978,0.0632 -16.13663,-2.61948 -1.00347,-0.76982 -1.11741,-0.79215 -0.7088,-0.13897 0.33213,0.53093 0.34038,0.73536 0.026,0.64325 -0.2535,-0.0743 -0.5421,-0.57821 -0.64134,-1.11984 -0.0993,-0.54165 -0.73403,-2.47439 -1.41064,-4.29497 -2.95134,-7.94139 -2.49518,-15.53092 1.33806,-22.2626 3.67292,-6.45016 10.99012,-11.1529 12.31024,-7.91177 z m -8.78288,11.70784 c 1.42546,0.20409 3.58744,1.59748 4.22289,2.72163 0.40978,0.72495 0.5723,0.73386 2.09368,0.11475 2.47359,-1.00659 5.3153,-0.72888 7.96779,0.77864 1.19373,0.67846 2.38929,1.62077 2.65682,2.09404 0.39572,0.70007 0.69808,0.80225 1.62167,0.54805 1.96458,-0.54071 4.60977,0.24738 6.00532,1.78922 0.68298,0.75456 1.36417,1.81663 1.51376,2.36013 0.21621,0.78554 0.5907,1.05384 1.82609,1.30835 1.71265,0.3528 2.57336,0.8519 3.58843,2.08074 0.41259,0.49948 0.6235,0.59047 0.54479,0.23502 -0.19452,-0.87842 -2.26284,-2.50635 -3.75934,-2.95891 -1.04588,-0.3163 -1.40178,-0.65214 -1.66686,-1.57295 -0.80409,-2.79328 -4.09408,-4.80329 -7.27679,-4.44575 -1.10938,0.1247 -1.69676,-0.0141 -1.99333,-0.47084 -0.76358,-1.17592 -3.78732,-2.81446 -5.83475,-3.16179 -1.4805,-0.25116 -2.65349,-0.16685 -4.42538,0.31809 -1.68271,0.46043 -2.45145,0.52594 -2.54505,0.21662 -0.32521,-1.07471 -4.02902,-2.6623 -5.29889,-2.27131 -0.2531,0.078 0.0885,0.22025 0.75915,0.31626 z m -1.94408,5.56504 c 2.17886,0.15588 4.84836,1.86246 5.64251,3.60719 0.34709,0.76255 0.6725,1.37504 0.72314,1.3611 0.0507,-0.014 0.48621,-0.39201 0.96793,-0.84016 2.47634,-2.30375 6.77125,-1.02494 7.68297,2.28762 0.16787,0.60991 0.43009,0.6621 1.64555,0.32757 2.39002,-0.6578 5.29135,0.44157 6.75214,2.55851 0.3675,0.53258 0.60888,0.7033 0.53641,0.37936 -0.47404,-2.11859 -3.65291,-4.20499 -6.32566,-4.15172 -1.56811,0.0312 -1.8823,-0.11082 -2.61485,-1.18225 -1.67157,-2.44485 -4.2905,-3.17459 -7.0311,-1.95912 -1.38357,0.61359 -1.50831,0.5982 -2.18353,-0.26952 -1.42397,-1.82993 -4.65149,-3.03583 -6.58691,-2.46108 -0.5161,0.15326 -0.2512,0.2679 0.7914,0.3425 z m -2.71883,6.81943 c 0.88873,2.40515 3.25229,5.15495 5.43817,6.32687 1.92291,1.03092 6.66843,2.221 7.22403,1.81165 0.2336,-0.17211 0.45947,-0.18666 0.50196,-0.0324 0.1408,0.51156 4.23354,0.44435 10.59485,-0.17399 7.38085,-0.71743 10.83887,-0.61782 17.14689,0.49391 5.34299,0.94167 4.34686,0.27751 -1.4112,-0.9409 -4.46897,-0.94564 -8.75022,-1.2186 -13.06397,-0.83294 -9.9076,0.88578 -11.65313,0.99006 -13.61944,0.81373 -5.84006,-0.52375 -10.04514,-3.08861 -12.55235,-7.65626 l -1.00735,-1.83517 z"
         style="fill:#333333;fill-opacity:1;stroke:#000000;stroke-width:1.15675;stroke-dasharray:none;stroke-opacity:1"
         id="path4" /><path
         style="fill:#ffffff;fill-opacity:1;stroke:none;stroke-width:10.9983;stroke-linecap:round;stroke-linejoin:round;stroke-dasharray:none;paint-order:markers fill stroke"
         d="m 196.99463,247.64403 c 0.79743,-0.26581 0.48618,-1.76685 -0.66832,-3.22308 -2.43008,-3.06517 -7.77067,-6.67254 -12.61044,-8.51789 -2.77225,-1.05702 -3.57938,-1.77134 -2.6503,-2.34554 0.55544,-0.34328 4.6739,0.85064 7.61214,2.20672 3.39448,1.56666 4.04094,1.59251 4.04094,0.16166 0,-1.31741 -1.69046,-3.11236 -4.86128,-5.16176 -2.51701,-1.62682 -5.68339,-2.6581 -9.85986,-3.2113 -4.31428,-0.57146 -4.68358,-1.46642 -0.90727,-2.19868 1.43498,-0.27827 2.82807,-0.26853 5.00895,0.0351 1.66161,0.23127 3.10672,0.33488 3.21136,0.23025 0.31997,-0.31996 -3.01424,-2.10246 -5.60384,-2.99586 -2.7451,-0.94704 -7.04493,-1.6235 -10.3196,-1.6235 -2.05421,0 -2.17469,-0.0478 -2.06523,-0.81844 0.16192,-1.14014 2.40438,-1.66188 7.30027,-1.69852 4.14684,-0.031 4.68651,-0.30532 3.2172,-1.63503 -1.98129,-1.79303 -9.47737,-2.30412 -16.03934,-1.09356 -4.4996,0.8301 -5.58921,0.8525 -5.73587,0.11795 -0.23814,-1.19267 7.8143,-3.96613 11.51525,-3.96613 1.57636,0 2.23788,-0.49411 1.22069,-0.91178 -0.34896,-0.14329 -2.10765,-0.34301 -3.90821,-0.44385 -5.10607,-0.2859 -9.23885,0.6608 -17.18205,3.93594 -0.83628,0.34482 -1.28983,0.37262 -1.56642,0.096 -1.12502,-1.12501 4.49209,-4.73999 9.83663,-6.33052 1.50046,-0.44654 2.87314,-0.89441 3.0504,-0.99526 0.57423,-0.32671 -1.34797,-1.49695 -1.94746,-1.18562 -0.30653,0.15919 -2.09731,0.72912 -3.97951,1.26653 -3.62316,1.03447 -6.36571,2.27321 -8.305,3.75112 -1.19267,0.90893 -2.27714,0.8957 -2.27714,-0.0278 0,-0.98776 3.97328,-4.26987 6.78624,-5.60574 1.53798,-0.73038 2.61713,-1.38769 2.39813,-1.4607 -0.21902,-0.073 -2.03531,0.28112 -4.03622,0.78693 -2.84433,0.71903 -4.23817,1.31146 -6.38893,2.71549 -1.513,0.98769 -3.17682,2.30198 -3.69739,2.92064 -1.0146,1.20578 -1.87355,1.44363 -2.19436,0.60763 -0.31674,-0.82543 0.48825,-2.02936 3.21656,-4.81064 1.43386,-1.46169 2.44167,-2.77533 2.30225,-3.00092 -0.80141,-1.29672 -4.55803,0.6911 -7.74554,4.09855 -3.80224,4.06461 -6.25924,10.1712 -6.27562,15.59735 -0.006,1.84404 0.0789,2.09156 0.71379,2.09156 0.47995,0 0.98078,0.51096 1.50174,1.53215 1.21825,2.38797 4.32008,5.18814 6.76391,6.10612 3.81064,1.43139 5.81889,1.56109 13.74854,0.88796 8.65083,-0.73436 14.02342,-0.54539 19.38219,0.68172 3.77967,0.8655 4.72646,1.31591 4.28107,2.03657 -0.33535,0.54261 -1.77789,0.4967 -5.93442,-0.18887 -2.88788,-0.47633 -4.85361,-0.53333 -10.63574,-0.30845 -16.30761,0.63425 -17.53426,0.58008 -21.6389,-0.95567 -2.65403,-0.99299 -5.59018,-3.65291 -6.93944,-6.28657 l -0.95704,-1.86809 0.23525,1.45499 c 0.44532,2.75429 2.45881,8.35677 3.24473,9.02841 0.42617,0.3642 1.83272,1.17343 3.12566,1.7983 2.09645,1.01319 2.78518,1.15257 6.3656,1.28822 2.44892,0.0928 6.21383,-0.0946 9.65291,-0.48041 13.89723,-1.55908 28.72014,0.22786 38.08752,4.59157 1.24205,0.5786 2.48778,1.05198 2.7683,1.05198 0.28051,0 1.07051,0.38037 1.75555,0.84524 1.32286,0.89771 3.83293,1.67889 4.58697,1.42755 z m -43.63248,-18.05836 c -1.48207,-1.48208 -3.3714,-2.06995 -5.74788,-1.78849 -1.7478,0.207 -1.76012,0.20097 -2.4824,-1.21481 -1.32343,-2.59413 -4.07062,-3.22336 -6.38064,-1.46143 -1.28181,0.97769 -1.31113,0.98204 -1.94845,0.28928 -0.35589,-0.38684 -0.943,-1.1306 -1.30469,-1.6528 -0.88922,-1.28379 -2.17326,-2.07605 -4.19792,-2.59012 -1.26481,-0.32115 -1.69193,-0.6031 -1.69193,-1.11685 0,-1.6553 4.86852,-0.76469 7.07203,1.29369 l 1.09136,1.01948 1.99528,-0.55535 c 1.8295,-0.50922 2.1312,-0.50346 3.63101,0.0693 0.89966,0.34357 2.11035,1.16524 2.69042,1.82591 0.8626,0.98244 1.47296,1.27489 3.35124,1.60574 2.57218,0.45308 4.84587,1.81113 5.65639,3.37849 1.2052,2.33062 0.21282,2.84456 -1.73382,0.89792 z m 10.26776,-0.75312 c -0.46373,-0.49362 -1.64237,-1.16295 -2.6192,-1.4874 -1.48086,-0.49186 -1.97866,-0.90664 -2.99506,-2.49553 -1.4782,-2.3108 -2.99938,-3.12205 -5.85414,-3.12205 -1.8994,0 -2.20935,-0.12116 -3.72658,-1.45667 -1.56225,-1.37515 -4.34115,-2.54457 -6.04671,-2.54457 -0.4007,0 -1.66364,0.26237 -2.80653,0.58306 l -2.07799,0.58305 -1.41022,-1.41022 c -0.79506,-0.79506 -2.08077,-1.61111 -2.94742,-1.87077 -1.12755,-0.33782 -1.5372,-0.65054 -1.5372,-1.17345 0,-0.56344 0.24785,-0.71122 1.18218,-0.70491 1.33605,0.009 3.80601,1.03094 4.73346,1.95839 0.51572,0.51571 0.84466,0.55494 1.98893,0.23716 2.47239,-0.6866 5.54149,-0.46799 7.73662,0.55107 1.10034,0.51082 2.40984,1.30986 2.90999,1.77564 0.69316,0.64551 1.44322,0.88292 3.15464,0.99853 2.9698,0.20061 5.37458,1.64174 6.5113,3.90207 0.55203,1.0977 1.25558,1.83469 2.21034,2.31539 2.31358,1.16484 4.07987,3.09109 3.5784,3.90248 -0.37042,0.59935 -1.10023,0.40033 -1.98481,-0.54127 z"
         id="path7" /></g></g></svg>
