<?xml version="1.0" encoding="UTF-8" standalone="no"?>
<!-- Created with Inkscape (http://www.inkscape.org/) -->

<svg
   width="210mm"
   height="297mm"
   viewBox="0 0 210 297"
   version="1.1"
   id="svg1"
   xml:space="preserve"
   inkscape:version="1.3 (0e150ed, 2023-07-21)"
   sodipodi:docname="base.svg"
   inkscape:export-filename="../../../Games/Vertical Scroller/rocket.png"
   inkscape:export-xdpi="120"
   inkscape:export-ydpi="120"
   xmlns:inkscape="http://www.inkscape.org/namespaces/inkscape"
   xmlns:sodipodi="http://sodipodi.sourceforge.net/DTD/sodipodi-0.dtd"
   xmlns="http://www.w3.org/2000/svg"
   xmlns:svg="http://www.w3.org/2000/svg"><sodipodi:namedview
     id="namedview1"
     pagecolor="#b9b9b9"
     bordercolor="#666666"
     borderopacity="1.0"
     inkscape:showpageshadow="2"
     inkscape:pageopacity="0.0"
     inkscape:pagecheckerboard="true"
     inkscape:deskcolor="#d1d1d1"
     inkscape:document-units="mm"
     inkscape:zoom="0.4531823"
     inkscape:cx="399.39777"
     inkscape:cy="513.03857"
     inkscape:window-width="1366"
     inkscape:window-height="699"
     inkscape:window-x="0"
     inkscape:window-y="0"
     inkscape:window-maximized="1"
     inkscape:current-layer="layer1"
     showgrid="false" /><defs
     id="defs1" /><g
     inkscape:label="Layer 1"
     inkscape:groupmode="layer"
     id="layer1"><path
       id="path2"
       style="display:inline;stroke:#000000;stroke-width:2.26714;stroke-dasharray:none;stroke-opacity:1;fill:none;fill-opacity:1;stroke-linecap:round;stroke-linejoin:round;stroke-dashoffset:47.2176"
       inkscape:label="leg_right"
       d="M 135.30638 138.49345 C 135.11724 139.58897 134.91682 140.67532 134.69677 141.74261 C 134.45469 142.91679 134.19423 144.07285 133.91572 145.2093 C 133.63721 146.34579 133.34075 147.46263 133.02689 148.55766 C 132.71302 149.65273 132.38193 150.72608 132.03378 151.77598 C 131.68563 152.82588 131.32051 153.85231 130.93914 154.85332 C 130.55778 155.85432 130.15999 156.82998 129.74648 157.77835 C 129.33297 158.72671 128.90389 159.64776 128.45931 160.53975 C 128.01473 161.43174 127.55455 162.29472 127.07997 163.12659 C 126.60543 163.95846 126.11628 164.75913 125.61277 165.52714 C 125.10927 166.29516 124.59141 167.03048 124.06005 167.73087 C 123.53473 168.42332 122.99593 169.08066 122.44444 169.70342 C 132.34014 173.41095 157.7682 172.95414 157.7682 172.95414 C 150.49864 169.56041 138.61911 147.80807 135.30638 138.49345 z "
       transform="matrix(1.3232558,0,0,1.3232558,-39.52117,11.541872)" /><path
       id="path3"
       style="display:inline;stroke:#000000;stroke-width:2.26714;stroke-dasharray:none;stroke-opacity:1;fill:none;fill-opacity:1;stroke-linecap:round;stroke-linejoin:round;stroke-dashoffset:47.2176"
       inkscape:label="leg_left"
       d="M 83.314241 139.22685 C 79.838256 148.72222 68.151062 170.00143 60.969579 173.35404 C 60.969579 173.35404 86.409765 173.81101 96.300365 170.10058 C 96.574102 169.99789 96.830576 169.87033 97.075167 169.72607 L 96.057849 169.72607 C 95.499691 169.09699 94.954488 168.43128 94.423112 167.73087 C 93.891739 167.0305 93.373905 166.29554 92.870385 165.52753 C 92.366869 164.75953 91.877774 163.95845 91.403183 163.12659 C 90.928595 162.29473 90.468441 161.43173 90.023849 160.53975 C 89.579261 159.64777 89.150199 158.72671 88.736679 157.77835 C 88.323162 156.82999 87.925394 155.85432 87.544016 154.85332 C 87.162642 153.85232 86.797538 152.82627 86.449375 151.77637 C 86.101212 150.72647 85.770147 149.65273 85.45627 148.55766 C 85.142396 147.46263 84.845564 146.34619 84.567045 145.20969 C 84.288526 144.07323 84.028085 142.91679 83.785995 141.74261 C 83.61561 140.91623 83.466088 140.07038 83.314241 139.22685 z "
       transform="matrix(1.3232558,0,0,1.3232558,-39.52117,11.541872)" /><path
       id="path5"
       style="display:inline;stroke:#000000;stroke-width:2.26714;stroke-dasharray:none;stroke-opacity:1;fill:none;fill-opacity:1;stroke-linecap:round;stroke-linejoin:round;stroke-dashoffset:47.2176"
       inkscape:label="tip"
       d="m 109.24158,41.332808 c -5.92703,2.9e-5 -11.414976,6.902139 -15.919748,17.191687 a 22.435568,14.411161 0 0 0 1.813207,1.164545 22.435568,14.411161 0 0 0 4.253988,1.716748 22.435568,14.411161 0 0 0 4.742143,1.065742 22.435568,14.411161 0 0 0 4.99247,0.361626 22.435568,14.411161 0 0 0 4.99247,-0.361626 22.435568,14.411161 0 0 0 4.74175,-1.065742 22.435568,14.411161 0 0 0 4.25399,-1.716748 22.435568,14.411161 0 0 0 1.99754,-1.282874 C 120.6143,48.181807 115.14599,41.332831 109.24158,41.332808 Z m 1.50079,96.096462 c -0.73104,0 -1.31959,0.58855 -1.31959,1.31958 v 30.97722 h 2.63917 v -30.97722 c 0,-0.73103 -0.58855,-1.31958 -1.31958,-1.31958 z"
       transform="matrix(1.3232558,0,0,1.3232558,-39.52117,11.541872)" /><path
       id="path6"
       style="display:inline;stroke:#000000;stroke-width:2.26714;stroke-dasharray:none;stroke-opacity:1;fill:none;fill-opacity:1;stroke-linecap:round;stroke-linejoin:round;stroke-dashoffset:47.2176"
       inkscape:label="main body - Permanent"
       d="m 125.10939,58.406166 a 22.435568,14.411161 0 0 1 -1.99754,1.282874 22.435568,14.411161 0 0 1 -4.25399,1.716748 22.435568,14.411161 0 0 1 -4.74175,1.065742 22.435568,14.411161 0 0 1 -4.99247,0.361626 22.435568,14.411161 0 0 1 -4.99247,-0.361626 22.435568,14.411161 0 0 1 -4.742143,-1.065742 22.435568,14.411161 0 0 1 -4.253988,-1.716748 22.435568,14.411161 0 0 1 -1.813207,-1.164545 c -0.219014,0.500257 -0.440238,0.99265 -0.65452,1.508598 -0.355515,0.856012 -0.704581,1.733135 -1.046606,2.629404 -0.342028,0.896269 -0.676863,1.811737 -1.004821,2.744609 -0.327957,0.932869 -0.648948,1.883065 -0.962253,2.848879 -0.626615,1.931628 -1.223293,3.925749 -1.787823,5.96722 -0.564532,2.041471 -1.096706,4.130626 -1.594513,6.252694 -0.497809,2.122067 -0.961093,4.276884 -1.387535,6.450299 -0.426444,2.173418 -0.81606,4.365298 -1.166498,6.560819 -0.350438,2.195518 -0.662004,4.394711 -0.931792,6.583073 -0.269791,2.18839 -0.497748,4.36589 -0.682247,6.51786 -0.184502,2.152 -0.325243,4.27843 -0.419815,6.36478 -0.09457,2.08635 -0.143323,4.13274 -0.143322,6.12421 0.001,1.32179 0.02369,2.63699 0.06756,3.94352 0.04387,1.30654 0.109215,2.60443 0.194871,3.89197 0.08566,1.28754 0.191905,2.56468 0.318278,3.82949 0.126374,1.26481 0.272933,2.51734 0.43895,3.75568 0.166017,1.23833 0.351518,2.46241 0.556108,3.67054 0.204587,1.20813 0.428052,2.40032 0.67014,3.57447 0.24209,1.17418 0.502531,2.33061 0.78105,3.46708 0.278519,1.1365 0.57535,2.25293 0.889225,3.34797 0.313877,1.09507 0.644942,2.16881 0.993105,3.21871 0.348163,1.0499 0.713266,2.07595 1.094641,3.07695 0.381378,1.001 0.779145,1.97667 1.192663,2.92503 0.41352,0.94836 0.842581,1.86942 1.28717,2.7614 0.444592,0.89198 0.904745,1.75498 1.379334,2.58684 0.474591,0.83186 0.963685,1.63294 1.467202,2.40094 0.50352,0.76801 1.021353,1.50296 1.552727,2.20334 0.531376,0.70041 1.076578,1.36612 1.634737,1.9952 h 13.364932 v -30.97722 c 0,-0.73103 0.58855,-1.31958 1.31959,-1.31958 0.73103,0 1.31958,0.58855 1.31958,1.31958 v 30.97722 h 10.36375 c 0.55815,-0.6291 1.10298,-1.29477 1.63435,-1.9952 0.53136,-0.7004 1.04922,-1.43571 1.55272,-2.20373 0.50351,-0.76801 0.99265,-1.56868 1.4672,-2.40055 0.47458,-0.83187 0.93476,-1.69485 1.37934,-2.58684 0.44458,-0.89199 0.87366,-1.81304 1.28717,-2.7614 0.41351,-0.94837 0.8113,-1.92403 1.19266,-2.92503 0.38137,-1.00101 0.74649,-2.02744 1.09464,-3.07734 0.34815,-1.0499 0.67924,-2.12325 0.99311,-3.21832 0.31386,-1.09504 0.61032,-2.21187 0.88883,-3.34836 0.27851,-1.13646 0.53897,-2.29251 0.78105,-3.46669 0.24208,-1.17415 0.46595,-2.36635 0.67053,-3.57447 0.20458,-1.20812 0.3901,-2.43221 0.55611,-3.67054 0.16601,-1.23833 0.3122,-2.49088 0.43856,-3.75568 0.12637,-1.2648 0.23263,-2.54196 0.31828,-3.82949 0.0856,-1.28753 0.15101,-2.58545 0.19487,-3.89197 0.0439,-1.30652 0.0665,-2.62174 0.0676,-3.94352 0,-1.99147 -0.0487,-4.03786 -0.14332,-6.12421 -0.0946,-2.08635 -0.23492,-4.21278 -0.41943,-6.36478 -0.1845,-2.15197 -0.41284,-4.32947 -0.68263,-6.51786 -0.26979,-2.188363 -0.58136,-4.387555 -0.9318,-6.583073 -0.35041,-2.195521 -0.74005,-4.387401 -1.16649,-6.560819 -0.42645,-2.173415 -0.88973,-4.328231 -1.38754,-6.450299 -0.49781,-2.122068 -1.02998,-4.211223 -1.59451,-6.252694 -0.56453,-2.041471 -1.16121,-4.035592 -1.78782,-5.96722 -0.31331,-0.965814 -0.6343,-1.91601 -0.96226,-2.848879 -0.32796,-0.932872 -0.66279,-1.84834 -1.00482,-2.744609 -0.34203,-0.896269 -0.69111,-1.773392 -1.0466,-2.629404 -0.23111,-0.556444 -0.46948,-1.08877 -0.70607,-1.626927 z"
       transform="matrix(1.3232558,0,0,1.3232558,-39.52117,11.541872)" /><path
       id="circle8"
       style="display:inline;stroke:#000000;stroke-width:2.49385;stroke-dasharray:none;stroke-opacity:1;fill:none;fill-opacity:1;stroke-linecap:round;stroke-linejoin:round;stroke-dashoffset:47.2176"
       inkscape:label="outer ring"
       d="M 109.77504,85.973318 A 13.23053,13.23053 0 0 0 96.544443,99.20391 13.23053,13.23053 0 0 0 109.77504,112.4345 13.23053,13.23053 0 0 0 123.00563,99.20391 13.23053,13.23053 0 0 0 109.77504,85.973318 Z m 0,3.60845 a 9.6222038,9.6222038 0 0 1 9.62214,9.622142 9.6222038,9.6222038 0 0 1 -9.62214,9.62214 9.6222038,9.6222038 0 0 1 -9.62215,-9.62214 9.6222038,9.6222038 0 0 1 9.62215,-9.622142 z"
       transform="matrix(1.3232558,0,0,1.3232558,-39.52117,11.541872)" /><rect
       style="display:inline;stroke:#000000;stroke-width:2.26714;stroke-dasharray:none;stroke-opacity:1;fill:none;fill-opacity:1;stroke-linecap:round;stroke-linejoin:round;stroke-dashoffset:47.2176"
       id="rect1"
       width="2.6391168"
       height="37.317585"
       x="109.42294"
       y="137.4294"
       ry="1.3195584"
       transform="matrix(1.3232558,0,0,1.3232558,-39.52117,11.541872)" /><circle
       style="display:inline;stroke:#000000;stroke-width:2.26714;stroke-dasharray:none;stroke-opacity:1;fill:none;fill-opacity:1;stroke-linecap:round;stroke-linejoin:round;stroke-dashoffset:47.2176"
       id="circle1"
       cx="109.775"
       cy="99.203911"
       r="9.6222038"
       inkscape:label="inner - Permanent"
       transform="matrix(1.3232558,0,0,1.3232558,-39.52117,11.541872)" /></g></svg>
