<?xml version="1.0" encoding="UTF-8" standalone="no"?>
<!-- Created with Inkscape (http://www.inkscape.org/) -->

<svg
   width="210mm"
   height="297mm"
   viewBox="0 0 210 297"
   version="1.1"
   id="svg1"
   xml:space="preserve"
   inkscape:version="1.3 (0e150ed, 2023-07-21)"
   sodipodi:docname="fire.svg"
   inkscape:export-filename="../../../Games/Vertical Scroller/rocket.png"
   inkscape:export-xdpi="120"
   inkscape:export-ydpi="120"
   xmlns:inkscape="http://www.inkscape.org/namespaces/inkscape"
   xmlns:sodipodi="http://sodipodi.sourceforge.net/DTD/sodipodi-0.dtd"
   xmlns:xlink="http://www.w3.org/1999/xlink"
   xmlns="http://www.w3.org/2000/svg"
   xmlns:svg="http://www.w3.org/2000/svg"><sodipodi:namedview
     id="namedview1"
     pagecolor="#b9b9b9"
     bordercolor="#666666"
     borderopacity="1.0"
     inkscape:showpageshadow="2"
     inkscape:pageopacity="0.0"
     inkscape:pagecheckerboard="true"
     inkscape:deskcolor="#d1d1d1"
     inkscape:document-units="mm"
     inkscape:zoom="0.32044828"
     inkscape:cx="124.82514"
     inkscape:cy="981.43763"
     inkscape:window-width="1366"
     inkscape:window-height="699"
     inkscape:window-x="0"
     inkscape:window-y="0"
     inkscape:window-maximized="1"
     inkscape:current-layer="layer1"
     showgrid="false" /><defs
     id="defs1"><linearGradient
       id="linearGradient7"
       inkscape:collect="always"><stop
         style="stop-color:#eb3927;stop-opacity:1;"
         offset="0"
         id="stop7" /><stop
         style="stop-color:#ef9d20;stop-opacity:1;"
         offset="1"
         id="stop8" /></linearGradient><linearGradient
       x1="0"
       y1="0"
       x2="1"
       y2="0"
       gradientUnits="userSpaceOnUse"
       gradientTransform="matrix(-4.9e-5,-1116.85,-1116.85,4.9e-5,2500,1096.33)"
       spreadMethod="pad"
       id="linearGradient68"><stop
         style="stop-opacity:1;stop-color:#f3eac7"
         offset="0"
         id="stop67" /><stop
         style="stop-opacity:1;stop-color:#ef9d20"
         offset="1"
         id="stop68" /></linearGradient><clipPath
       clipPathUnits="userSpaceOnUse"
       id="clipPath68"><path
         d="m 2338.19,1521.51 c 165.57,-112.5 -6.36,-487.5 -89.14,-387.49 v 0 c -82.79,100 0,193.74 0,193.74 v 0 c -343.88,-56.25 70.04,-718.748 -197.41,-642.561 v 0 c -267.46,76.192 -38.21,292.563 -50.95,418.161 v 0 c -12.74,125.58 -114.62,174.41 -114.62,174.41 v 0 c 50.95,-143.75 -146.47,-268.75 -216.52,-118.76 v 0 c -70.03,150 57.32,225 57.32,225 v 0 c -337.5,-24.99 -95.52,-543.74 -286.56,-599.99 v 0 c -191.04,-56.25 -101.88,231.24 -124.06,343.74 v 0 c -22.19,112.5 -124.3,112.5 -124.3,112.5 v 0 c 0,0 76.42,-243.74 -38.2,-193.75 v 0 c -114.62,50.01 0,312.51 0,312.51 v 0 C 918.141,1240.26 1217.43,746.512 1013.66,809.012 v 0 C 809.879,871.52 930.871,1171.51 860.828,1327.76 v 0 c -70.047,156.25 -184.68,137.5 -184.68,137.5 v 0 C 892.66,1284.01 727.102,840.27 644.309,990.262 v 0 c -82.778,149.998 31.839,312.508 31.839,312.508 v 0 C 402.34,1146.51 637.949,646.52 472.379,687.59 v 0 c -165.57,41.058 -82.789,315.17 -95.52,440.17 v 0 c -12.738,125 -133.718,125 -133.718,125 v 0 c 0,0 82.781,-262.498 -63.692,-212.49 v 0 c -146.4607,49.99 0,481.24 0,481.24 v 0 C -37.0586,1371.51 2.91016,821.512 2.91016,821.512 v 0 V 0 H 5000 v 884.02 c -191.04,125 0,406.25 0,406.25 v 0 c -273.83,-81.25 -70.05,-562.5 -267.46,-506.25 v 0 c -197.4,56.25 19.11,356.24 -31.84,524.99 v 0 c -50.93,168.75 -159.19,168.75 -159.19,168.75 v 0 c 299.29,-250 -50.94,-556.248 -114.64,-456.24 v 0 c -63.67,100 70.06,200 70.06,200 v 0 C 4076.65,1196.51 4382.31,677.762 4114.85,727.77 v 0 c -267.45,49.992 -12.73,331.24 -44.57,450 v 0 c -31.84,118.74 -140.11,118.74 -140.11,118.74 v 0 c 44.59,-56.25 63.69,-281.25 -76.4,-243.74 v 0 c -140.1,37.49 -31.85,406.25 -31.85,406.25 v 0 c -216.5,-56.25 82.78,-825.008 -140.08,-771.43 v 0 c -222.89,53.558 0,296.43 0,413.37 v 0 c 0,116.94 -89.17,164.31 -89.17,164.31 v 0 c 44.59,-168.75 -44.56,-206.26 -133.72,-131.25 v 0 c -89.14,75 31.85,193.74 31.85,193.74 v 0 c -416.81,-7.17 -79.88,-424.209 -206.25,-472.772 v 0 c -151.19,-58.09 -194.94,-2.218 -188.58,245.972 v 0 c 6.37,248.19 -140.09,251.8 -140.09,251.8 v 0 c 101.9,-162.49 -31.83,-374.998 -146.46,-251.8 v 0 c -114.61,123.19 0,283.05 0,283.05 v 0 c -280.19,-6.25 -38.21,-300 -184.68,-399.99 v 0 c -146.46,-100 -57.3,81.25 -125.6,324.99 v 0 c -54.36,194.02 -124.15,213.81 -150.37,213.8 v 0 c -6.72,0 -10.58,-1.3 -10.58,-1.3"
         transform="translate(0,2.5e-5)"
         id="path68" /></clipPath><linearGradient
       x1="0"
       y1="0"
       x2="1"
       y2="0"
       gradientUnits="userSpaceOnUse"
       gradientTransform="matrix(-3.1e-5,-709.208,-709.208,3.1e-5,2605.63,2662)"
       spreadMethod="pad"
       id="linearGradient64"><stop
         style="stop-opacity:1;stop-color:#f7921e"
         offset="0"
         id="stop63" /><stop
         style="stop-opacity:1;stop-color:#e15526"
         offset="1"
         id="stop64" /></linearGradient><clipPath
       clipPathUnits="userSpaceOnUse"
       id="clipPath64"><path
         d="m 2543.54,2746.58 c -124.13,-369.7 88.06,-691.44 -87.12,-535 v 0 c -175.16,156.44 114.24,615.99 -220.87,625.76 v 0 c 0,0 137.09,-250.09 0,-442.81 v 0 c -137.08,-192.73 -297.01,139.71 -175.15,393.93 v 0 c 0,0 -175.17,-5.65 -167.56,-393.93 v 0 c 7.61,-388.28 -3.73,-385.09 -162.09,-385.09 v 0 c -366.48,0 167.39,603.92 -443.74,643.75 v 0 c 0,0 178.12,-109.38 162.49,-346.87 v 0 c -10.4,-158.22 -241.23,-243.89 -309.37,-219.54 v 0 c -172.29,61.53 222.77,744.97 -115.52,867.9 v 0 c 0,0 129.47,-576.88 -38.071,-635.54 v 0 C 818.98,2260.47 841.82,2612.46 895.141,2700.46 v 0 c 0,0 -129.469,0 -167.551,-185.77 v 0 c -38.09,-185.79 45.558,-469.26 -151,-480.18 v 0 c -328.789,-18.26 143.379,509.5 -359.281,548.62 v 0 c 0,0 159.929,-156.45 83.781,-312.89 v 0 c -76.16,-156.43 -495.051,322.66 -137.078,713.77 v 0 c 0,0 -98.4104,0.01 -164.012,-174.9 v 0 -457.21 c 31.7383,-164.47 63.9102,-323.2 0,-406.78 v 0 V 127.422 H 5000 V 2026.73 c -99.85,41.71 79.61,465.06 -213.07,683.5 v 0 c 0,0 137.1,-254.21 38.09,-488.88 v 0 C 4726,1986.7 4527.99,2680.9 4786.93,2964.46 v 0 c 0,0 -137.09,29.34 -220.87,-215.1 v 0 c -83.76,-244.46 109.39,-486.02 -134.33,-583.8 v 0 c -243.71,-97.77 65.79,446.9 -216,632.67 v 0 c 0,0 137.09,-410.66 0,-488.87 v 0 c -137.07,-78.22 -45.69,303.1 -45.69,303.1 v 0 c 0,0 -122.13,0 -148.65,-176 v 0 c -26.52,-175.99 54.55,-391.65 -173.93,-303.66 v 0 c -228.5,88 86.48,665.43 -317.17,704.54 v 0 c 0,0 133.21,-367.12 -133.45,-410.76 v 0 c -119.8,-19.6 -112.51,85.78 -117.26,191.15 v 0 c -5,110.92 -23.35,221.82 -217.28,187.03 v 0 c 0,0 270.69,-137.41 -51.28,-385.07 v 0 c -77.06,-59.28 -597.93,-77.85 -113.22,569.62 v 0 c 0,0 -39.99,24.37 -95.84,24.37 v 0 c -77.05,0 -184.31,-46.38 -258.42,-267.1"
         transform="translate(0,2.5e-5)"
         id="path64" /></clipPath><linearGradient
       x1="0"
       y1="0"
       x2="1"
       y2="0"
       gradientUnits="userSpaceOnUse"
       gradientTransform="matrix(-6.8e-5,-1548.2,-1548.2,6.8e-5,2605.63,2630.34)"
       spreadMethod="pad"
       id="linearGradient62"><stop
         style="stop-opacity:1;stop-color:#eb3927"
         offset="0"
         id="stop61" /><stop
         style="stop-opacity:1;stop-color:#b82626"
         offset="1"
         id="stop62" /></linearGradient><clipPath
       clipPathUnits="userSpaceOnUse"
       id="clipPath62"><path
         d="m 2313.45,3455.48 c 484.71,-647.47 -85.55,-705.86 -162.61,-646.59 v 0 c -321.96,247.66 -1.89,462.02 -1.89,462.02 v 0 c -193.93,34.81 -212.28,-76.1 -217.28,-187.02 v 0 c -4.75,-105.37 2.54,-210.75 -117.26,-191.14 v 0 c -266.66,43.63 -133.44,410.75 -133.44,410.75 v 0 c -403.65,-39.1 -88.68,-616.54 -317.17,-704.53 v 0 c -228.49,-88.01 -147.41,127.65 -173.93,303.66 v 0 c -26.53,175.99 -148.66,175.99 -148.66,175.99 v 0 c 0,0 91.39,-381.33 -45.69,-303.11 v 0 c -137.079,78.23 0,488.89 0,488.89 v 0 c -281.79,-185.78 27.71,-730.45 -216,-632.67 v 0 c -243.719,97.78 -50.559,339.33 -134.329,583.79 v 0 c -83.793,244.44 -220.882,215.09 -220.882,215.09 v 0 c 258.953,-283.54 60.941,-977.76 -38.071,-743.09 v 0 c -99.008,234.66 38.071,488.88 38.071,488.88 v 0 C 96.8203,2931.97 360.488,2430.95 162.48,2495.21 v 0 c -198.0308,64.26 -80.8902,211.86 -96.1089,407.42 v 0 C 60.0391,2983.87 31.3594,3031.36 0,3059.12 v 0 V 0 h 5000 v 2718.63 c -38.72,-20.4 -72.83,-17.16 -89.84,17.78 v 0 c -76.15,156.43 83.79,312.88 83.79,312.88 v 0 c -502.66,-39.11 -30.5,-566.87 -359.28,-548.61 v 0 c -196.57,10.91 -112.91,294.39 -151,480.17 v 0 c -38.07,185.77 -167.56,185.77 -167.56,185.77 v 0 c 97.55,-141.73 24.2,-516.07 -91.39,-381.32 v 0 c -291.62,339.93 -38.08,635.55 -38.08,635.55 v 0 c -454.21,-121.35 23.58,-923.37 -242.98,-839.56 v 0 c -266.57,83.81 163.71,232.36 -248.22,328.93 v 0 c -154.35,36.18 95.17,305.3 95.17,305.3 v 0 c -611.14,-39.83 -171.5,-540.05 -317.83,-586.21 v 0 c -151.03,-47.63 -153.06,56.24 -154.36,231.38 v 0 c -2.9,388.35 -167.57,393.93 -167.57,393.93 v 0 c 121.86,-254.22 -38.06,-586.66 -175.15,-393.93 v 0 c -137.09,192.72 0,442.81 0,442.81 v 0 c -335.12,-9.77 -45.7,-469.32 -220.87,-625.76 v 0 c -175.18,-156.44 37.01,165.31 -87.11,535 v 0 c -74.12,220.73 -181.37,267.11 -258.43,267.1 v 0 c -55.85,0 -95.84,-24.36 -95.84,-24.36"
         transform="translate(0,2.5e-5)"
         id="path62" /></clipPath><linearGradient
       inkscape:collect="always"
       xlink:href="#linearGradient7"
       id="linearGradient8"
       x1="110.94694"
       y1="141.45538"
       x2="110.75399"
       y2="170.61775"
       gradientUnits="userSpaceOnUse" /></defs><g
     inkscape:label="Layer 1"
     inkscape:groupmode="layer"
     id="layer1"><g
       id="g1"
       inkscape:label="Base"><path
         id="path2"
         style="display:inline;stroke:#000000;stroke-width:2.26714;stroke-dasharray:none;stroke-opacity:1;fill:none;fill-opacity:1;stroke-linecap:round;stroke-linejoin:round;stroke-dashoffset:47.2176"
         inkscape:label="leg_right"
         d="M 135.30638 138.49345 C 135.11724 139.58897 134.91682 140.67532 134.69677 141.74261 C 134.45469 142.91679 134.19423 144.07285 133.91572 145.2093 C 133.63721 146.34579 133.34075 147.46263 133.02689 148.55766 C 132.71302 149.65273 132.38193 150.72608 132.03378 151.77598 C 131.68563 152.82588 131.32051 153.85231 130.93914 154.85332 C 130.55778 155.85432 130.15999 156.82998 129.74648 157.77835 C 129.33297 158.72671 128.90389 159.64776 128.45931 160.53975 C 128.01473 161.43174 127.55455 162.29472 127.07997 163.12659 C 126.60543 163.95846 126.11628 164.75913 125.61277 165.52714 C 125.10927 166.29516 124.59141 167.03048 124.06005 167.73087 C 123.53473 168.42332 122.99593 169.08066 122.44444 169.70342 C 132.34014 173.41095 157.7682 172.95414 157.7682 172.95414 C 150.49864 169.56041 138.61911 147.80807 135.30638 138.49345 z "
         transform="matrix(1.3232558,0,0,1.3232558,-39.52117,11.541872)" /><path
         id="path3"
         style="display:inline;stroke:#000000;stroke-width:2.26714;stroke-dasharray:none;stroke-opacity:1;fill:none;fill-opacity:1;stroke-linecap:round;stroke-linejoin:round;stroke-dashoffset:47.2176"
         inkscape:label="leg_left"
         d="M 83.314241 139.22685 C 79.838256 148.72222 68.151062 170.00143 60.969579 173.35404 C 60.969579 173.35404 86.409765 173.81101 96.300365 170.10058 C 96.574102 169.99789 96.830576 169.87033 97.075167 169.72607 L 96.057849 169.72607 C 95.499691 169.09699 94.954488 168.43128 94.423112 167.73087 C 93.891739 167.0305 93.373905 166.29554 92.870385 165.52753 C 92.366869 164.75953 91.877774 163.95845 91.403183 163.12659 C 90.928595 162.29473 90.468441 161.43173 90.023849 160.53975 C 89.579261 159.64777 89.150199 158.72671 88.736679 157.77835 C 88.323162 156.82999 87.925394 155.85432 87.544016 154.85332 C 87.162642 153.85232 86.797538 152.82627 86.449375 151.77637 C 86.101212 150.72647 85.770147 149.65273 85.45627 148.55766 C 85.142396 147.46263 84.845564 146.34619 84.567045 145.20969 C 84.288526 144.07323 84.028085 142.91679 83.785995 141.74261 C 83.61561 140.91623 83.466088 140.07038 83.314241 139.22685 z "
         transform="matrix(1.3232558,0,0,1.3232558,-39.52117,11.541872)" /><path
         id="path5"
         style="display:inline;stroke:#000000;stroke-width:2.26714;stroke-dasharray:none;stroke-opacity:1;fill:none;fill-opacity:1;stroke-linecap:round;stroke-linejoin:round;stroke-dashoffset:47.2176"
         inkscape:label="tip"
         d="m 109.24158,41.332808 c -5.92703,2.9e-5 -11.414976,6.902139 -15.919748,17.191687 a 22.435568,14.411161 0 0 0 1.813207,1.164545 22.435568,14.411161 0 0 0 4.253988,1.716748 22.435568,14.411161 0 0 0 4.742143,1.065742 22.435568,14.411161 0 0 0 4.99247,0.361626 22.435568,14.411161 0 0 0 4.99247,-0.361626 22.435568,14.411161 0 0 0 4.74175,-1.065742 22.435568,14.411161 0 0 0 4.25399,-1.716748 22.435568,14.411161 0 0 0 1.99754,-1.282874 C 120.6143,48.181807 115.14599,41.332831 109.24158,41.332808 Z m 1.50079,96.096462 c -0.73104,0 -1.31959,0.58855 -1.31959,1.31958 v 30.97722 h 2.63917 v -30.97722 c 0,-0.73103 -0.58855,-1.31958 -1.31958,-1.31958 z"
         transform="matrix(1.3232558,0,0,1.3232558,-39.52117,11.541872)" /><path
         id="path7"
         style="display:inline;fill:none;fill-opacity:1;stroke:#000000;stroke-width:2.26714;stroke-linecap:round;stroke-linejoin:round;stroke-dasharray:none;stroke-dashoffset:47.2176;stroke-opacity:1"
         inkscape:label="main body - Permanent"
         d="m 125.10939,58.406166 a 22.435568,14.411161 0 0 1 -1.99754,1.282874 22.435568,14.411161 0 0 1 -4.25399,1.716748 22.435568,14.411161 0 0 1 -4.74175,1.065742 22.435568,14.411161 0 0 1 -4.99247,0.361626 22.435568,14.411161 0 0 1 -4.99247,-0.361626 22.435568,14.411161 0 0 1 -4.742143,-1.065742 22.435568,14.411161 0 0 1 -4.253988,-1.716748 22.435568,14.411161 0 0 1 -1.813207,-1.164545 c -0.219014,0.500257 -0.440238,0.99265 -0.65452,1.508598 -0.355515,0.856012 -0.704581,1.733135 -1.046606,2.629404 -0.342028,0.896269 -0.676863,1.811737 -1.004821,2.744609 -0.327957,0.932869 -0.648948,1.883065 -0.962253,2.848879 -0.626615,1.931628 -1.223293,3.925749 -1.787823,5.96722 -0.564532,2.041471 -1.096706,4.130626 -1.594513,6.252694 -0.497809,2.122067 -0.961093,4.276884 -1.387535,6.450299 -0.426444,2.173418 -0.81606,4.365298 -1.166498,6.560819 -0.350438,2.195518 -0.662004,4.394711 -0.931792,6.583073 -0.269791,2.18839 -0.497748,4.36589 -0.682247,6.51786 -0.184502,2.152 -0.325243,4.27843 -0.419815,6.36478 -0.09457,2.08635 -0.143323,4.13274 -0.143322,6.12421 0.001,1.32179 0.02369,2.63699 0.06756,3.94352 0.04387,1.30654 0.109215,2.60443 0.194871,3.89197 0.08566,1.28754 0.191905,2.56468 0.318278,3.82949 0.126374,1.26481 0.272933,2.51734 0.43895,3.75568 0.166017,1.23833 0.351518,2.46241 0.556108,3.67054 0.204587,1.20813 0.428052,2.40032 0.67014,3.57447 0.24209,1.17418 0.502531,2.33061 0.78105,3.46708 0.278519,1.1365 0.57535,2.25293 0.889225,3.34797 0.313877,1.09507 0.644942,2.16881 0.993105,3.21871 0.348163,1.0499 0.713266,2.07595 1.094641,3.07695 0.381378,1.001 0.779145,1.97667 1.192663,2.92503 0.41352,0.94836 0.842581,1.86942 1.28717,2.7614 0.444592,0.89198 0.904745,1.75498 1.379334,2.58684 0.474591,0.83186 0.963685,1.63294 1.467202,2.40094 0.50352,0.76801 1.021353,1.50296 1.552727,2.20334 0.531376,0.70041 1.076578,1.36612 1.634737,1.9952 h 13.364932 v -30.97722 c 0,-0.73103 0.58855,-1.31958 1.31959,-1.31958 0.73103,0 1.31958,0.58855 1.31958,1.31958 v 30.97722 h 10.36375 c 0.55815,-0.6291 1.10298,-1.29477 1.63435,-1.9952 0.53136,-0.7004 1.04922,-1.43571 1.55272,-2.20373 0.50351,-0.76801 0.99265,-1.56868 1.4672,-2.40055 0.47458,-0.83187 0.93476,-1.69485 1.37934,-2.58684 0.44458,-0.89199 0.87366,-1.81304 1.28717,-2.7614 0.41351,-0.94837 0.8113,-1.92403 1.19266,-2.92503 0.38137,-1.00101 0.74649,-2.02744 1.09464,-3.07734 0.34815,-1.0499 0.67924,-2.12325 0.99311,-3.21832 0.31386,-1.09504 0.61032,-2.21187 0.88883,-3.34836 0.27851,-1.13646 0.53897,-2.29251 0.78105,-3.46669 0.24208,-1.17415 0.46595,-2.36635 0.67053,-3.57447 0.20458,-1.20812 0.3901,-2.43221 0.55611,-3.67054 0.16601,-1.23833 0.3122,-2.49088 0.43856,-3.75568 0.12637,-1.2648 0.23263,-2.54196 0.31828,-3.82949 0.0856,-1.28753 0.15101,-2.58545 0.19487,-3.89197 0.0439,-1.30652 0.0665,-2.62174 0.0676,-3.94352 0,-1.99147 -0.0487,-4.03786 -0.14332,-6.12421 -0.0946,-2.08635 -0.23492,-4.21278 -0.41943,-6.36478 -0.1845,-2.15197 -0.41284,-4.32947 -0.68263,-6.51786 -0.26979,-2.188363 -0.58136,-4.387555 -0.9318,-6.583073 -0.35041,-2.195521 -0.74005,-4.387401 -1.16649,-6.560819 -0.42645,-2.173415 -0.88973,-4.328231 -1.38754,-6.450299 -0.49781,-2.122068 -1.02998,-4.211223 -1.59451,-6.252694 -0.56453,-2.041471 -1.16121,-4.035592 -1.78782,-5.96722 -0.31331,-0.965814 -0.6343,-1.91601 -0.96226,-2.848879 -0.32796,-0.932872 -0.66279,-1.84834 -1.00482,-2.744609 -0.34203,-0.896269 -0.69111,-1.773392 -1.0466,-2.629404 -0.23111,-0.556444 -0.46948,-1.08877 -0.70607,-1.626927 z"
         transform="matrix(1.3232558,0,0,1.3232558,-39.52117,11.541872)" /><path
         id="path6"
         style="display:inline;fill:url(#linearGradient8);fill-opacity:1;stroke:#000000;stroke-width:2.26714;stroke-linecap:round;stroke-linejoin:round;stroke-dasharray:none;stroke-dashoffset:47.2176;stroke-opacity:1"
         inkscape:label="main body - fire"
         d="M 93.356588 133.61657 C 93.203755 133.61657 93.116025 133.64625 93.116025 133.64625 C 96.881573 136.20484 92.971471 144.73336 91.08881 142.45884 C 89.205922 140.18454 91.08881 138.05294 91.08881 138.05294 C 83.352159 139.31845 79.4724 143.13243 96.249987 170.21617 L 109.42278 169.87681 L 109.42278 138.94802 C 108.48099 137.51923 107.16399 137.48433 107.16399 137.48433 C 109.48148 141.17984 106.44023 146.01288 103.8332 143.21099 C 101.22663 140.40928 103.8332 136.77358 103.8332 136.77358 C 97.460853 136.91572 102.96427 143.5964 99.633104 145.87046 C 96.302172 148.14476 98.329758 144.02236 96.776414 138.479 C 95.540109 134.06641 93.952908 133.61635 93.356588 133.61657 z M 126.8605 135.06737 C 121.93665 136.34666 128.74308 153.83062 123.6746 152.61209 C 118.60542 151.39404 123.6746 145.87055 123.6746 143.21099 C 123.6746 140.55143 121.6466 139.47406 121.6466 139.47406 C 122.66071 143.31192 120.63296 144.16479 118.60519 142.45884 C 116.5779 140.75312 119.32962 138.05294 119.32962 138.05294 C 109.85013 138.216 117.51305 147.7004 114.63902 148.80487 C 113.54669 149.22421 112.70289 149.37978 112.06195 149.21921 L 112.06195 169.80886 L 122.96111 169.52807 C 138.00662 144.48898 133.16809 143.92379 132.50866 141.46417 C 131.78452 138.76367 129.32237 138.7633 129.32237 138.7633 C 130.33648 140.04259 130.77098 145.15989 127.58492 144.3068 C 124.39864 143.45417 126.8605 135.06737 126.8605 135.06737 z M 110.74237 137.42927 C 110.92513 137.42927 111.0991 137.46616 111.25708 137.53276 C 111.0991 137.46616 110.92512 137.42927 110.74237 137.42927 z M 110.74237 137.42927 C 110.55974 137.42927 110.38593 137.46625 110.22804 137.53276 C 110.38602 137.46616 110.55961 137.42927 110.74237 137.42927 z M 110.00349 137.65421 C 109.93323 137.7016 109.86831 137.75539 109.80862 137.81511 C 109.86818 137.75555 109.93341 137.7015 110.00349 137.65421 z M 109.52627 138.23453 C 109.45976 138.39242 109.42278 138.56623 109.42278 138.74885 C 109.42278 138.56609 109.45967 138.39251 109.52627 138.23453 z "
         transform="matrix(1.3232558,0,0,1.3232558,-39.52117,11.541872)" /><path
         id="circle8"
         style="display:inline;stroke:#000000;stroke-width:2.49385;stroke-dasharray:none;stroke-opacity:1;fill:none;fill-opacity:1;stroke-linecap:round;stroke-linejoin:round;stroke-dashoffset:47.2176"
         inkscape:label="outer ring"
         d="M 109.77504,85.973318 A 13.23053,13.23053 0 0 0 96.544443,99.20391 13.23053,13.23053 0 0 0 109.77504,112.4345 13.23053,13.23053 0 0 0 123.00563,99.20391 13.23053,13.23053 0 0 0 109.77504,85.973318 Z m 0,3.60845 a 9.6222038,9.6222038 0 0 1 9.62214,9.622142 9.6222038,9.6222038 0 0 1 -9.62214,9.62214 9.6222038,9.6222038 0 0 1 -9.62215,-9.62214 9.6222038,9.6222038 0 0 1 9.62215,-9.622142 z"
         transform="matrix(1.3232558,0,0,1.3232558,-39.52117,11.541872)" /><path
         id="circle1"
         style="display:inline;fill:none;stroke:#000000;stroke-width:2.26714;stroke-linecap:round;stroke-linejoin:round;stroke-dashoffset:47.2176"
         inkscape:label="inner - Permanent"
         transform="matrix(1.3232558,0,0,1.3232558,-39.52117,11.541872)"
         d="m 119.39721,99.203911 a 9.6222038,9.6222038 0 0 1 -9.62221,9.622199 9.6222038,9.6222038 0 0 1 -9.6222,-9.622199 9.6222038,9.6222038 0 0 1 9.6222,-9.622204 9.6222038,9.6222038 0 0 1 9.62221,9.622204 z" /><path
         id="path1"
         style="display:inline;fill:none;stroke:#000000;stroke-width:2.26714;stroke-linecap:round;stroke-linejoin:round;stroke-dashoffset:47.2176"
         transform="matrix(1.3232558,0,0,1.3232558,-39.52117,11.541872)"
         d="m 110.7425,137.4294 c 0.73104,0 1.31956,0.58852 1.31956,1.31956 v 34.67846 c 0,0.73104 -0.58852,1.31956 -1.31956,1.31956 -0.73103,0 -1.31956,-0.58852 -1.31956,-1.31956 v -34.67846 c 0,-0.73104 0.58853,-1.31956 1.31956,-1.31956 z"
         inkscape:label="rect1" /></g></g></svg>
