<?xml version="1.0" encoding="UTF-8" standalone="no"?>
<!-- Created with Inkscape (http://www.inkscape.org/) -->

<svg
   width="210mm"
   height="297mm"
   viewBox="0 0 210 297"
   version="1.1"
   id="svg1"
   xml:space="preserve"
   inkscape:version="1.3 (0e150ed, 2023-07-21)"
   sodipodi:docname="pedro.svg"
   inkscape:export-filename="../../../Games/Vertical Scroller/rocket.png"
   inkscape:export-xdpi="120"
   inkscape:export-ydpi="120"
   xmlns:inkscape="http://www.inkscape.org/namespaces/inkscape"
   xmlns:sodipodi="http://sodipodi.sourceforge.net/DTD/sodipodi-0.dtd"
   xmlns="http://www.w3.org/2000/svg"
   xmlns:svg="http://www.w3.org/2000/svg"><sodipodi:namedview
     id="namedview1"
     pagecolor="#b9b9b9"
     bordercolor="#666666"
     borderopacity="1.0"
     inkscape:showpageshadow="2"
     inkscape:pageopacity="0.0"
     inkscape:pagecheckerboard="true"
     inkscape:deskcolor="#d1d1d1"
     inkscape:document-units="mm"
     inkscape:zoom="1.8127292"
     inkscape:cx="355.26542"
     inkscape:cy="565.16991"
     inkscape:window-width="1366"
     inkscape:window-height="699"
     inkscape:window-x="0"
     inkscape:window-y="0"
     inkscape:window-maximized="1"
     inkscape:current-layer="layer1"
     showgrid="false" /><defs
     id="defs1" /><g
     inkscape:label="Layer 1"
     inkscape:groupmode="layer"
     id="layer1"><path
       id="path2"
       style="display:inline;stroke:#000000;stroke-width:2.26714;stroke-dasharray:none;stroke-opacity:1;fill:none;fill-opacity:1;stroke-linecap:round;stroke-linejoin:round;stroke-dashoffset:47.2176"
       inkscape:label="leg_right"
       d="M 135.30638 138.49345 C 135.11724 139.58897 134.91682 140.67532 134.69677 141.74261 C 134.45469 142.91679 134.19423 144.07285 133.91572 145.2093 C 133.63721 146.34579 133.34075 147.46263 133.02689 148.55766 C 132.71302 149.65273 132.38193 150.72608 132.03378 151.77598 C 131.68563 152.82588 131.32051 153.85231 130.93914 154.85332 C 130.55778 155.85432 130.15999 156.82998 129.74648 157.77835 C 129.33297 158.72671 128.90389 159.64776 128.45931 160.53975 C 128.01473 161.43174 127.55455 162.29472 127.07997 163.12659 C 126.60543 163.95846 126.11628 164.75913 125.61277 165.52714 C 125.10927 166.29516 124.59141 167.03048 124.06005 167.73087 C 123.53473 168.42332 122.99593 169.08066 122.44444 169.70342 C 132.34014 173.41095 157.7682 172.95414 157.7682 172.95414 C 150.49864 169.56041 138.61911 147.80807 135.30638 138.49345 z "
       transform="matrix(1.3232558,0,0,1.3232558,-39.52117,11.541872)" /><path
       id="path3"
       style="display:inline;stroke:#000000;stroke-width:2.26714;stroke-dasharray:none;stroke-opacity:1;fill:none;fill-opacity:1;stroke-linecap:round;stroke-linejoin:round;stroke-dashoffset:47.2176"
       inkscape:label="leg_left"
       d="M 83.314241 139.22685 C 79.838256 148.72222 68.151062 170.00143 60.969579 173.35404 C 60.969579 173.35404 86.409765 173.81101 96.300365 170.10058 C 96.574102 169.99789 96.830576 169.87033 97.075167 169.72607 L 96.057849 169.72607 C 95.499691 169.09699 94.954488 168.43128 94.423112 167.73087 C 93.891739 167.0305 93.373905 166.29554 92.870385 165.52753 C 92.366869 164.75953 91.877774 163.95845 91.403183 163.12659 C 90.928595 162.29473 90.468441 161.43173 90.023849 160.53975 C 89.579261 159.64777 89.150199 158.72671 88.736679 157.77835 C 88.323162 156.82999 87.925394 155.85432 87.544016 154.85332 C 87.162642 153.85232 86.797538 152.82627 86.449375 151.77637 C 86.101212 150.72647 85.770147 149.65273 85.45627 148.55766 C 85.142396 147.46263 84.845564 146.34619 84.567045 145.20969 C 84.288526 144.07323 84.028085 142.91679 83.785995 141.74261 C 83.61561 140.91623 83.466088 140.07038 83.314241 139.22685 z "
       transform="matrix(1.3232558,0,0,1.3232558,-39.52117,11.541872)" /><path
       id="path5"
       style="display:inline;stroke:#000000;stroke-width:2.26714;stroke-dasharray:none;stroke-opacity:1;fill:none;fill-opacity:1;stroke-linecap:round;stroke-linejoin:round;stroke-dashoffset:47.2176"
       inkscape:label="tip"
       d="m 109.24158,41.332808 c -5.92703,2.9e-5 -11.414976,6.902139 -15.919748,17.191687 a 22.435568,14.411161 0 0 0 1.813207,1.164545 22.435568,14.411161 0 0 0 4.253988,1.716748 22.435568,14.411161 0 0 0 4.742143,1.065742 22.435568,14.411161 0 0 0 4.99247,0.361626 22.435568,14.411161 0 0 0 4.99247,-0.361626 22.435568,14.411161 0 0 0 4.74175,-1.065742 22.435568,14.411161 0 0 0 4.25399,-1.716748 22.435568,14.411161 0 0 0 1.99754,-1.282874 C 120.6143,48.181807 115.14599,41.332831 109.24158,41.332808 Z m 1.50079,96.096462 c -0.73104,0 -1.31959,0.58855 -1.31959,1.31958 v 30.97722 h 2.63917 v -30.97722 c 0,-0.73103 -0.58855,-1.31958 -1.31958,-1.31958 z"
       transform="matrix(1.3232558,0,0,1.3232558,-39.52117,11.541872)" /><path
       id="path6"
       style="display:inline;stroke:#000000;stroke-width:2.26714;stroke-dasharray:none;stroke-opacity:1;fill:none;fill-opacity:1;stroke-linecap:round;stroke-linejoin:round;stroke-dashoffset:47.2176"
       inkscape:label="main body - Permanent"
       d="m 125.10939,58.406166 a 22.435568,14.411161 0 0 1 -1.99754,1.282874 22.435568,14.411161 0 0 1 -4.25399,1.716748 22.435568,14.411161 0 0 1 -4.74175,1.065742 22.435568,14.411161 0 0 1 -4.99247,0.361626 22.435568,14.411161 0 0 1 -4.99247,-0.361626 22.435568,14.411161 0 0 1 -4.742143,-1.065742 22.435568,14.411161 0 0 1 -4.253988,-1.716748 22.435568,14.411161 0 0 1 -1.813207,-1.164545 c -0.219014,0.500257 -0.440238,0.99265 -0.65452,1.508598 -0.355515,0.856012 -0.704581,1.733135 -1.046606,2.629404 -0.342028,0.896269 -0.676863,1.811737 -1.004821,2.744609 -0.327957,0.932869 -0.648948,1.883065 -0.962253,2.848879 -0.626615,1.931628 -1.223293,3.925749 -1.787823,5.96722 -0.564532,2.041471 -1.096706,4.130626 -1.594513,6.252694 -0.497809,2.122067 -0.961093,4.276884 -1.387535,6.450299 -0.426444,2.173418 -0.81606,4.365298 -1.166498,6.560819 -0.350438,2.195518 -0.662004,4.394711 -0.931792,6.583073 -0.269791,2.18839 -0.497748,4.36589 -0.682247,6.51786 -0.184502,2.152 -0.325243,4.27843 -0.419815,6.36478 -0.09457,2.08635 -0.143323,4.13274 -0.143322,6.12421 0.001,1.32179 0.02369,2.63699 0.06756,3.94352 0.04387,1.30654 0.109215,2.60443 0.194871,3.89197 0.08566,1.28754 0.191905,2.56468 0.318278,3.82949 0.126374,1.26481 0.272933,2.51734 0.43895,3.75568 0.166017,1.23833 0.351518,2.46241 0.556108,3.67054 0.204587,1.20813 0.428052,2.40032 0.67014,3.57447 0.24209,1.17418 0.502531,2.33061 0.78105,3.46708 0.278519,1.1365 0.57535,2.25293 0.889225,3.34797 0.313877,1.09507 0.644942,2.16881 0.993105,3.21871 0.348163,1.0499 0.713266,2.07595 1.094641,3.07695 0.381378,1.001 0.779145,1.97667 1.192663,2.92503 0.41352,0.94836 0.842581,1.86942 1.28717,2.7614 0.444592,0.89198 0.904745,1.75498 1.379334,2.58684 0.474591,0.83186 0.963685,1.63294 1.467202,2.40094 0.50352,0.76801 1.021353,1.50296 1.552727,2.20334 0.531376,0.70041 1.076578,1.36612 1.634737,1.9952 h 13.364932 v -30.97722 c 0,-0.73103 0.58855,-1.31958 1.31959,-1.31958 0.73103,0 1.31958,0.58855 1.31958,1.31958 v 30.97722 h 10.36375 c 0.55815,-0.6291 1.10298,-1.29477 1.63435,-1.9952 0.53136,-0.7004 1.04922,-1.43571 1.55272,-2.20373 0.50351,-0.76801 0.99265,-1.56868 1.4672,-2.40055 0.47458,-0.83187 0.93476,-1.69485 1.37934,-2.58684 0.44458,-0.89199 0.87366,-1.81304 1.28717,-2.7614 0.41351,-0.94837 0.8113,-1.92403 1.19266,-2.92503 0.38137,-1.00101 0.74649,-2.02744 1.09464,-3.07734 0.34815,-1.0499 0.67924,-2.12325 0.99311,-3.21832 0.31386,-1.09504 0.61032,-2.21187 0.88883,-3.34836 0.27851,-1.13646 0.53897,-2.29251 0.78105,-3.46669 0.24208,-1.17415 0.46595,-2.36635 0.67053,-3.57447 0.20458,-1.20812 0.3901,-2.43221 0.55611,-3.67054 0.16601,-1.23833 0.3122,-2.49088 0.43856,-3.75568 0.12637,-1.2648 0.23263,-2.54196 0.31828,-3.82949 0.0856,-1.28753 0.15101,-2.58545 0.19487,-3.89197 0.0439,-1.30652 0.0665,-2.62174 0.0676,-3.94352 0,-1.99147 -0.0487,-4.03786 -0.14332,-6.12421 -0.0946,-2.08635 -0.23492,-4.21278 -0.41943,-6.36478 -0.1845,-2.15197 -0.41284,-4.32947 -0.68263,-6.51786 -0.26979,-2.188363 -0.58136,-4.387555 -0.9318,-6.583073 -0.35041,-2.195521 -0.74005,-4.387401 -1.16649,-6.560819 -0.42645,-2.173415 -0.88973,-4.328231 -1.38754,-6.450299 -0.49781,-2.122068 -1.02998,-4.211223 -1.59451,-6.252694 -0.56453,-2.041471 -1.16121,-4.035592 -1.78782,-5.96722 -0.31331,-0.965814 -0.6343,-1.91601 -0.96226,-2.848879 -0.32796,-0.932872 -0.66279,-1.84834 -1.00482,-2.744609 -0.34203,-0.896269 -0.69111,-1.773392 -1.0466,-2.629404 -0.23111,-0.556444 -0.46948,-1.08877 -0.70607,-1.626927 z"
       transform="matrix(1.3232558,0,0,1.3232558,-39.52117,11.541872)" /><path
       id="circle8"
       style="display:inline;stroke:#000000;stroke-width:2.49385;stroke-dasharray:none;stroke-opacity:1;fill:none;fill-opacity:1;stroke-linecap:round;stroke-linejoin:round;stroke-dashoffset:47.2176"
       inkscape:label="outer ring"
       d="M 109.77504,85.973318 A 13.23053,13.23053 0 0 0 96.544443,99.20391 13.23053,13.23053 0 0 0 109.77504,112.4345 13.23053,13.23053 0 0 0 123.00563,99.20391 13.23053,13.23053 0 0 0 109.77504,85.973318 Z m 0,3.60845 a 9.6222038,9.6222038 0 0 1 9.62214,9.622142 9.6222038,9.6222038 0 0 1 -9.62214,9.62214 9.6222038,9.6222038 0 0 1 -9.62215,-9.62214 9.6222038,9.6222038 0 0 1 9.62215,-9.622142 z"
       transform="matrix(1.3232558,0,0,1.3232558,-39.52117,11.541872)" /><rect
       style="display:inline;stroke:#000000;stroke-width:2.26714;stroke-dasharray:none;stroke-opacity:1;fill:none;fill-opacity:1;stroke-linecap:round;stroke-linejoin:round;stroke-dashoffset:47.2176"
       id="rect1"
       width="2.6391168"
       height="37.317585"
       x="109.42294"
       y="137.4294"
       ry="1.3195584"
       transform="matrix(1.3232558,0,0,1.3232558,-39.52117,11.541872)" /><circle
       style="display:inline;stroke:#000000;stroke-width:2.26714;stroke-dasharray:none;stroke-opacity:1;fill:none;fill-opacity:1;stroke-linecap:round;stroke-linejoin:round;stroke-dashoffset:47.2176"
       id="circle1"
       cx="109.775"
       cy="99.203911"
       r="9.6222038"
       inkscape:label="inner - Permanent"
       transform="matrix(1.3232558,0,0,1.3232558,-39.52117,11.541872)" /><path
       id="ellipse4"
       style="opacity:1;fill:#000000;fill-opacity:1;stroke:none;stroke-width:2.28404;stroke-linecap:round;stroke-linejoin:round;paint-order:markers fill stroke"
       d="m 104.81657,130.0377 a 12.801392,13.064543 0 0 0 -12.801562,13.06474 12.801392,13.064543 0 0 0 12.801562,13.06454 12.801392,13.064543 0 0 0 1.77002,-0.12919 c -0.27754,0.0234 -0.62106,0.0439 -1.05989,0.0562 -2.3036,0.0647 -4.08563,-0.26735 -5.763439,-1.0739 -3.057194,-1.46964 -5.532664,-4.22149 -6.558967,-7.2911 -0.277999,-0.83148 -0.330057,-1.17485 -0.166783,-1.17968 0.02332,-7.8e-4 0.05111,0.006 0.08319,0.0181 0.09855,0.039 0.317406,0.0879 0.486353,0.10859 1.124682,0.13812 1.12767,0.13942 1.517454,0.65054 0.207196,0.27169 0.376761,0.53684 0.376761,0.58914 0,0.0523 0.136317,0.25458 0.302973,0.44956 0.166651,0.19497 0.304848,0.41657 0.307169,0.49235 0.0023,0.0758 0.09601,0.26664 0.20818,0.42416 0.112164,0.15753 0.340505,0.5753 0.507552,0.92851 0.167046,0.35322 0.340969,0.66919 0.386363,0.70214 0.04539,0.0329 0.356987,0.4221 0.692535,0.86471 0.33554,0.44262 0.82897,1.0416 1.09649,1.33108 0.267532,0.28947 0.487607,0.55658 0.489155,0.59374 0.0043,0.1059 1.444524,1.04129 1.872414,1.21608 0.21169,0.0865 0.46572,0.22469 0.56455,0.30716 0.78672,0.65653 2.74268,0.87732 3.40887,0.38477 0.31177,-0.23051 0.40859,-0.45181 0.15519,-0.35457 -0.0798,0.0306 -0.17018,-0.0102 -0.20098,-0.0904 -0.0314,-0.0818 -0.002,-0.13504 0.0682,-0.12139 0.16494,0.0324 0.22267,-0.77133 0.0752,-1.0469 -0.0931,-0.17385 -0.0811,-0.20834 0.0712,-0.20718 0.33811,0.003 0.64354,0.1239 0.64354,0.25558 0,0.20541 0.30838,0.27154 0.62094,0.13319 0.23077,-0.10215 0.27839,-0.181 0.24917,-0.41196 -0.0474,-0.37404 0.0851,-0.36007 0.57615,0.0602 0.22205,0.19006 0.51535,0.34556 0.65194,0.34556 0.15015,0 0.35052,0.12114 0.50655,0.30657 0.14194,0.16868 0.39726,0.36432 0.56735,0.43476 0.20539,0.085 0.30067,0.1797 0.29236,0.27078 a 12.801392,13.064543 0 0 0 6.95853,-6.96093 c -0.0417,0.0232 -0.0851,0.0358 -0.13438,0.0358 -0.15827,0 -0.26895,-0.095 -0.35617,-0.30557 -0.16617,-0.40117 -0.0552,-1.02445 0.18318,-1.0287 0.15213,-0.003 0.14935,-0.0178 -0.0216,-0.11699 -0.16921,-0.0982 -0.17532,-0.12934 -0.0448,-0.22717 0.16498,-0.12368 0.33687,-0.46981 0.30417,-0.61255 -0.0113,-0.0493 0.0592,-0.17775 0.15659,-0.28537 0.15092,-0.16676 0.15904,-0.24531 0.0554,-0.53195 -0.0669,-0.18498 -0.12159,-0.43684 -0.12159,-0.55955 0,-0.26817 0.002,-0.26781 -0.50495,-0.048 -0.22215,0.0962 -0.42669,0.26205 -0.45455,0.36857 -0.0279,0.10652 -0.0999,0.16333 -0.15999,0.12618 -0.0601,-0.0371 -0.10919,0.003 -0.10919,0.0882 0,0.0857 -0.25772,0.44467 -0.57274,0.79773 -0.31503,0.35305 -0.63871,0.76941 -0.71933,0.9253 -0.0806,0.1559 -0.18517,0.28358 -0.23219,0.28358 -0.047,0 -0.25947,0.11805 -0.47214,0.26237 -0.24344,0.1652 -0.4225,0.22644 -0.48356,0.16538 -0.10198,-0.10197 -0.48935,-0.0434 -0.48935,0.074 0,0.0377 -0.14362,0.15327 -0.31917,0.25698 -0.32989,0.19487 -1.69413,0.30131 -1.79383,0.13998 -0.0271,-0.0438 -0.2193,-0.08 -0.42716,-0.0804 -0.20786,-3.4e-4 -0.51003,-0.0695 -0.67133,-0.15359 -0.3657,-0.19071 -0.57695,-0.19522 -0.57695,-0.0124 0,0.12475 -0.67447,0.32334 -0.97271,0.28637 -0.0564,-0.007 -0.1796,0.17057 -0.27397,0.39456 h -1.9e-4 c -0.224,0.53171 -0.49678,0.55556 -0.43256,0.0379 0.0252,-0.20322 0.10114,-0.46816 0.16878,-0.58874 0.20314,-0.36217 0.18818,-0.6538 -0.0364,-0.71253 -0.16169,-0.0422 -0.18818,-0.10743 -0.13318,-0.32657 0.065,-0.25895 0.0567,-0.26641 -0.15079,-0.1368 -0.12067,0.0753 -0.19723,0.19487 -0.17018,0.26538 0.027,0.0705 0.01,0.12819 -0.039,0.12819 -0.1252,0 -0.22623,-0.30457 -0.14479,-0.43635 0.0436,-0.0706 0.006,-0.0856 -0.10218,-0.0418 -0.0937,0.0377 -0.24795,0.0998 -0.34297,0.13798 -0.11963,0.0481 -0.0838,-0.0472 0.11658,-0.30997 0.33643,-0.44108 0.28177,-0.5676 -0.17137,-0.39656 -0.17717,0.0669 -0.3387,0.10488 -0.35898,0.0846 -0.0203,-0.0203 0.35143,-0.29782 0.82613,-0.61695 0.87705,-0.58961 1.27074,-0.93805 1.17188,-1.0369 -0.0302,-0.0301 -0.18723,0.0536 -0.34916,0.18599 -0.31496,0.25751 -1.3652,0.79172 -1.55665,0.79172 -0.22366,0 1.13208,-1.10495 1.54365,-1.25808 0.13559,-0.0504 0.18027,-0.18571 0.18298,-0.55615 0.002,-0.26925 0.0693,-0.60473 0.14979,-0.74552 0.0805,-0.14078 0.14805,-0.35656 0.14998,-0.47936 0.005,-0.27236 0.36501,-0.88436 0.74593,-1.26608 0.15487,-0.15518 0.28157,-0.32637 0.28157,-0.38036 0,-0.054 0.12187,-0.18533 0.27078,-0.29177 0.14891,-0.10644 0.34349,-0.27402 0.43236,-0.37257 0.0889,-0.0985 0.24488,-0.17918 0.34676,-0.17918 0.10188,0 0.21175,-0.0691 0.24418,-0.15358 0.0335,-0.0875 0.18632,-0.15359 0.35516,-0.15359 0.22451,0 0.29618,-0.048 0.29618,-0.19798 0,-0.10883 -0.0922,-0.22702 -0.20479,-0.26277 -0.20735,-0.0658 -0.29093,-0.35837 -0.10239,-0.35837 0.1897,0 0.1045,-0.16929 -0.15538,-0.30836 -0.18408,-0.0985 -0.22128,-0.16072 -0.12959,-0.21739 0.0755,-0.0466 0.16281,-0.018 0.21179,0.0696 0.0846,0.15113 0.58646,0.21313 0.58413,0.0722 -0.002,-0.10172 -0.68508,-0.40808 -1.08189,-0.48495 -0.17324,-0.0335 -0.44305,-0.0124 -0.59974,0.0472 -0.2411,0.0917 -0.26488,0.13248 -0.15459,0.26537 0.19602,0.23619 -0.075,0.46607 -0.40136,0.34036 -0.18931,-0.0729 -0.21689,-0.12355 -0.12658,-0.23237 0.18293,-0.22042 0.0742,-0.62206 -0.17858,-0.65954 -0.12137,-0.018 -0.22079,-0.0806 -0.22079,-0.13899 0,-0.0584 0.0691,-0.0796 0.15359,-0.0472 0.19186,0.0736 0.21716,-0.44458 0.0308,-0.63094 -0.17582,-0.17582 -0.69091,-0.15324 -0.76253,0.0334 -0.0442,0.11502 -0.095,0.12718 -0.19258,0.0462 -0.0927,-0.0769 -0.15245,-0.0776 -0.19918,-0.002 -0.0781,0.1264 0.19596,0.25666 0.34557,0.16419 0.0562,-0.0347 0.15742,0.0417 0.22477,0.16999 0.0674,0.12828 0.18922,0.27264 0.27098,0.32076 0.1133,0.0667 0.1323,0.20058 0.0794,0.56315 -0.0745,0.51041 -0.27455,0.74827 -0.9213,1.09549 l -0.37137,0.19939 -0.17378,-0.22279 c -0.16636,-0.21325 -0.4541,-0.34572 -0.51676,-0.23797 -0.0164,0.0281 0.0214,0.18549 0.0838,0.34976 0.12527,0.3295 0.0245,0.46283 -0.35517,0.46996 -0.11263,0.002 -0.31997,0.0941 -0.46076,0.20418 -0.14078,0.11012 -0.34138,0.20114 -0.44596,0.20238 -0.12463,0.002 -0.17039,0.0541 -0.13258,0.15258 0.0317,0.0827 0.013,0.17813 -0.0418,0.21198 -0.0548,0.0339 -0.0762,0.0995 -0.0474,0.14599 0.0288,0.0465 -0.0188,0.11188 -0.10559,0.14518 -0.0868,0.0334 -0.14587,0.11884 -0.13139,0.18999 0.0145,0.0711 -0.0297,0.23028 -0.098,0.35356 -0.0815,0.1471 -0.0885,0.24602 -0.0206,0.28798 0.15484,0.0957 -0.0987,0.30701 -0.54515,0.45435 -0.45431,0.14994 -0.63528,0.10163 -0.71153,-0.18998 -0.0422,-0.16121 -0.008,-0.21338 0.13939,-0.21338 0.21897,0 0.26386,-0.16001 0.0672,-0.23938 -0.0704,-0.0284 -0.0247,-0.0554 0.10138,-0.0598 0.21745,-0.007 0.22057,-0.0184 0.0586,-0.20758 -0.094,-0.10974 -0.2087,-0.17617 -0.25497,-0.14758 -0.0463,0.0286 -0.0842,0.005 -0.0842,-0.0544 0,-0.0586 0.11003,-0.13406 0.24437,-0.16778 0.17883,-0.0449 0.23043,-0.11402 0.19279,-0.25798 -0.0347,-0.13283 9.1e-4,-0.19658 0.11099,-0.19658 0.10221,0 0.14049,-0.0568 0.10339,-0.15358 -0.0324,-0.0845 -0.0123,-0.15358 0.0448,-0.15358 0.0571,0 0.0796,-0.0922 0.0502,-0.20479 -0.0661,-0.25258 0.0526,-0.26491 0.24617,-0.0256 0.13158,0.16268 0.13509,0.15845 0.037,-0.0446 -0.1483,-0.307 -0.13593,-0.37213 0.0568,-0.29817 0.17826,0.0684 0.55946,-0.26618 0.9509,-0.83472 0.18651,-0.27088 0.26398,-0.31404 0.41656,-0.23238 0.14866,0.0796 0.22125,0.0486 0.35137,-0.14998 0.0903,-0.13771 0.16399,-0.32111 0.16399,-0.40756 0,-0.0864 0.0446,-0.15719 0.0992,-0.15719 0.0545,0 0.0684,-0.0806 0.0306,-0.17898 -0.065,-0.16929 -0.0544,-0.16948 0.19719,-0.005 0.25435,0.16666 0.26831,0.16541 0.31836,-0.026 0.0289,-0.11006 0.0281,-0.29285 -0.002,-0.40636 -0.0429,-0.16401 -0.12294,-0.19938 -0.38995,-0.17198 -0.18481,0.019 -0.45708,0.11368 -0.60495,0.21057 -0.14787,0.0969 -0.31365,0.14862 -0.36837,0.11479 -0.0547,-0.0338 -0.0994,-0.0128 -0.0994,0.0468 0,0.0597 -0.0691,0.1086 -0.15358,0.1086 -0.0845,0 -0.15359,0.0407 -0.15359,0.0905 0,0.05 -0.16908,0.1711 -0.37576,0.26917 -0.34977,0.16597 -0.38445,0.16651 -0.50035,0.008 -0.1916,-0.26201 -0.55735,-0.29799 -0.55735,-0.0548 0,0.1279 -0.0701,0.19898 -0.19657,0.19898 -0.13525,0 -0.21778,0.0959 -0.26418,0.30717 -0.0371,0.16895 -0.13207,0.30717 -0.21099,0.30717 -0.0789,0 -0.17139,0.11077 -0.20537,0.24618 -0.0452,0.18011 -0.15552,0.26377 -0.41137,0.31176 -0.24691,0.0463 -0.34976,0.12072 -0.34976,0.25318 0,0.23058 -0.16937,0.379 -0.53815,0.47156 -0.23451,0.0588 -0.28097,0.12579 -0.28097,0.40436 0,0.31477 -0.0246,0.33703 -0.43116,0.39156 -0.23708,0.0318 -0.5561,0.0328 -0.70913,0.003 -0.336396,-0.0673 -1.214679,0.24837 -1.214679,0.43655 0,0.074 -0.07431,0.17613 -0.165186,0.22698 -0.13235,0.074 -0.142535,0.1349 -0.05119,0.30557 0.160487,0.29987 0.143397,0.3521 -0.09079,0.27778 -0.115222,-0.0366 -0.204782,-0.0185 -0.204782,0.0414 0,0.19371 0.49814,0.98294 0.604744,0.95811 0.05752,-0.0134 0.07835,0.0442 0.0462,0.12799 -0.03216,0.0838 -0.0087,0.15238 0.05219,0.15238 0.212189,0 0.429022,0.59215 0.364766,0.9961 -0.0369,0.23199 -0.0011,0.56016 0.0894,0.82233 0.08286,0.23994 0.114908,0.45832 0.07119,0.48534 -0.08789,0.0543 -0.211433,0.6605 -0.224978,1.1043 -0.0048,0.1569 0.06496,0.3412 0.154988,0.40956 0.09004,0.0684 0.184844,0.24592 0.210579,0.39456 0.02571,0.14865 0.18917,0.46707 0.363364,0.70753 0.174194,0.24047 0.288954,0.46431 0.254974,0.49755 -0.0813,0.0795 -0.954142,-0.87249 -1.660837,-1.81142 -0.535229,-0.71112 -0.566141,-0.78558 -0.636739,-1.53666 -0.04081,-0.43413 -0.126862,-0.92188 -0.19138,-1.08369 -0.06451,-0.16181 -0.08899,-0.44494 -0.0544,-0.62933 0.03459,-0.1844 0.0099,-0.59025 -0.0548,-0.90172 -0.105519,-0.50828 -0.08965,-0.67453 0.154787,-1.62304 0.149791,-0.58124 0.274876,-1.10278 0.277973,-1.15909 0.0429,-0.79799 -0.183289,-1.12616 -0.708131,-1.0277 -0.295136,0.0554 -0.342569,0.036 -0.342569,-0.13919 0,-0.2977 -0.178099,-0.35828 -0.263374,-0.0896 -0.04036,0.12716 -0.101294,0.92255 -0.135388,1.76763 -0.05123,1.26997 -0.08864,1.53665 -0.215578,1.53665 -0.08448,0 -0.23143,-0.15601 -0.326566,-0.34657 -0.14709,-0.29464 -0.164067,-0.55571 -0.11319,-1.74523 0.04609,-1.0777 0.02785,-1.45638 -0.0794,-1.65005 -0.07656,-0.13825 -0.147028,-0.2744 -0.156586,-0.30256 -0.0096,-0.0281 -0.05157,-0.15681 -0.09339,-0.28578 -0.04182,-0.12896 -0.203671,-0.30044 -0.359766,-0.38116 -0.257826,-0.13333 -0.308107,-0.12761 -0.549148,0.0619 -0.145937,0.1148 -0.310255,0.18101 -0.364963,0.14719 -0.142183,-0.0879 0.009,-0.43034 0.501952,-1.13708 1.424732,-2.04257 3.43735,-3.62401 5.774443,-4.53757 1.59467,-0.62336 3.22681,-0.90149 4.82113,-0.87511 4.98609,0.0825 9.60056,3.14434 11.54209,7.93743 a 12.801392,13.064543 0 0 0 -12.10043,-8.81057 z m 11.75626,18.18565 a 12.801392,13.064543 0 0 0 0.57094,-1.64864 12.801392,13.064543 0 0 1 -0.57094,1.64864 z M 93.876427,138.04453 c 0.05754,-0.003 0.120538,0.0478 0.179786,0.15858 0.120667,0.22547 -0.0046,0.85851 -0.129787,0.65594 -0.04268,-0.0691 -0.123426,-0.0973 -0.179585,-0.0626 -0.0629,0.0388 -0.08976,-0.0851 -0.06979,-0.32317 0.02273,-0.2711 0.103483,-0.42412 0.199378,-0.42876 z m 17.855873,0.24558 c -0.25364,0.014 -0.35466,0.22558 -0.13578,0.38476 0.0856,0.0622 0.3119,0.12058 0.50295,0.12959 0.19102,0.009 0.28771,-0.007 0.21498,-0.0356 -0.10099,-0.0397 -0.10426,-0.0856 -0.014,-0.19438 0.13026,-0.15697 0.0717,-0.19312 -0.45056,-0.27758 -0.042,-0.006 -0.0814,-0.009 -0.11759,-0.006 z m 5.1851,0.55874 a 12.801392,13.064543 0 0 1 0.37677,1.35147 12.801392,13.064543 0 0 0 -0.37677,-1.35147 z m -4.33818,0.29757 c -0.28813,0 -0.44781,0.0667 -0.61234,0.25598 -0.12692,0.14596 -0.33573,0.25732 -0.48576,0.25918 -0.1447,0.002 -0.39465,0.11888 -0.55554,0.26037 -0.3099,0.27253 -0.30533,0.2051 -0.0866,1.27228 0.11743,0.57292 0.50165,1.20984 0.75213,1.24688 0.22369,0.0331 0.35211,0.34246 0.18499,0.44575 -0.05,0.031 -0.0458,0.16991 0.01,0.31617 0.10563,0.27784 0.0438,0.49059 -0.11418,0.39296 -0.0524,-0.0324 -0.0952,0.0603 -0.0952,0.20619 0,0.14587 -0.0674,0.29117 -0.14978,0.32276 -0.0823,0.0316 -0.17749,0.14535 -0.21158,0.25278 -0.0341,0.10743 -0.1224,0.19538 -0.19618,0.19538 -0.20932,0 -0.37638,0.26263 -0.38616,0.60714 -0.005,0.17285 -0.048,0.31437 -0.0958,0.31437 -0.0477,0 -0.0868,0.0461 -0.0868,0.10239 0,0.20946 0.36672,0.0836 0.60954,-0.20918 0.13815,-0.16656 0.32669,-0.30277 0.41916,-0.30277 0.0925,0 0.25164,-0.0922 0.35356,-0.20478 0.10194,-0.11263 0.23572,-0.20478 0.29737,-0.20478 0.0617,0 0.2409,-0.16126 0.39817,-0.35837 0.15726,-0.19709 0.35244,-0.35836 0.43376,-0.35836 0.17758,0 0.47325,-0.65952 0.39136,-0.87291 -0.0319,-0.0831 -0.0184,-0.15099 0.0298,-0.15099 0.0483,0 0.0932,-0.17278 0.1,-0.38396 0.0273,-0.84713 0.0764,-1.07131 0.25958,-1.18569 0.24333,-0.15196 0.23896,-0.29879 -0.0158,-0.52935 -0.11262,-0.10193 -0.20478,-0.24172 -0.20478,-0.31057 0,-0.0688 -0.0691,-0.18247 -0.15358,-0.25258 -0.0856,-0.071 -0.15358,-0.29435 -0.15358,-0.50415 0,-0.47799 -0.14741,-0.62214 -0.63555,-0.62214 z m 0.89831,0.44976 c -0.0191,0.0128 -0.0288,0.0638 -0.0406,0.14738 -0.0186,0.13136 0.0461,0.32718 0.14378,0.43516 0.17457,0.1929 0.35076,0.25897 0.35076,0.13159 0,-0.0356 -0.10366,-0.23141 -0.23038,-0.43515 -0.1075,-0.17288 -0.16575,-0.26143 -0.20098,-0.27898 -0.009,-0.005 -0.0162,-0.005 -0.0226,0 z m 3.83323,0.67913 a 12.801392,13.064543 0 0 1 0.22038,1.33928 12.801392,13.064543 0 0 0 -0.22038,-1.33928 z m -24.359442,0.30918 c 0.05131,-7.8e-4 0.09259,0.0499 0.09259,0.15297 0,0.0867 0.09215,0.33838 0.204782,0.55916 0.112629,0.22076 0.204781,0.44919 0.204781,0.50775 0,0.15102 -0.179248,0.13211 -0.276575,-0.0291 -0.04503,-0.0746 -0.162421,-0.16536 -0.260971,-0.20159 -0.18195,-0.0669 -0.24324,-0.50291 -0.116991,-0.83191 0.0398,-0.10372 0.101082,-0.15629 0.152385,-0.15719 z m 12.799162,0.21118 c 0.0901,0.0125 0.19458,0.12867 0.19458,0.25097 0,0.0811 -0.0475,0.14759 -0.10559,0.14759 -0.12258,0 -0.25401,-0.28894 -0.16979,-0.37317 0.0225,-0.0224 0.0508,-0.0296 0.0808,-0.0254 z m 1.19788,0.26137 c 0.0108,0.0127 0.0145,0.0656 0.0159,0.15438 0.002,0.15026 -0.0235,0.34608 -0.0576,0.43516 -0.0342,0.0891 -0.10329,0.16199 -0.15358,0.16199 -0.11341,0 -0.11708,0.0285 0.0592,-0.46076 0.0639,-0.1774 0.10104,-0.27065 0.12259,-0.28997 0.005,-0.005 0.01,-0.005 0.0134,-7.7e-4 z m 10.59198,0.63454 a 12.801392,13.064543 0 0 1 0.0776,1.41086 12.801392,13.064543 0 0 0 -0.0776,-1.41086 z m -15.89526,0.52135 c 0.0716,0.002 0.196,0.0585 0.31676,0.16779 0.10202,0.0923 0.44846,0.18696 0.80153,0.21897 0.34204,0.0311 0.62193,0.0888 0.62193,0.12859 0,0.0398 -0.0922,0.15584 -0.20478,0.25777 -0.24334,0.22022 -0.26308,0.35836 -0.0512,0.35836 0.21189,0 0.19215,0.13816 -0.0512,0.35837 -0.11263,0.10193 -0.20497,0.28178 -0.20518,0.39976 -5.8e-4,0.3209 -0.33764,0.81407 -1.09629,1.60425 -0.37454,0.3901 -0.74731,0.70933 -0.82852,0.70933 -0.16847,0 -0.0621,-0.1702 0.36796,-0.58875 0.31939,-0.31082 0.0826,-0.29551 -0.25377,0.0164 -0.3037,0.2816 -1.04327,0.52019 -1.330073,0.42916 -0.113499,-0.036 -0.202049,-0.16935 -0.214781,-0.32317 -0.01266,-0.15293 0.02096,-0.23536 0.08079,-0.19839 0.05633,0.0348 0.131335,-0.0122 0.166783,-0.10459 0.03544,-0.0923 0.18498,-0.21605 0.332161,-0.27477 0.18808,-0.0751 0.22194,-0.12068 0.114,-0.15378 -0.0845,-0.0259 -0.214375,-0.0662 -0.288576,-0.0896 -0.08883,-0.028 -0.01888,-0.14944 0.204776,-0.35537 0.22821,-0.21011 0.27256,-0.28789 0.13499,-0.23718 -0.11263,0.0415 -0.264861,0.14742 -0.338167,0.23539 -0.115384,0.13844 -0.124425,0.12829 -0.0682,-0.0754 0.03572,-0.12941 0.0117,-0.29953 -0.05339,-0.37796 -0.0967,-0.11653 -0.04687,-0.1542 0.272967,-0.20579 0.85666,-0.13817 0.91705,-0.16043 0.72454,-0.26817 -0.14474,-0.081 -0.15526,-0.13874 -0.0594,-0.32477 0.0641,-0.12444 0.14858,-0.29529 0.18758,-0.37976 0.039,-0.0845 0.17463,-0.2064 0.30157,-0.27078 0.17931,-0.0909 0.19996,-0.13662 0.0924,-0.20478 -0.0761,-0.0482 -0.1451,-0.17056 -0.15339,-0.27178 -0.0139,-0.1701 0.003,-0.17203 0.22678,-0.0257 0.30647,0.20081 0.41334,0.20304 0.24898,0.005 -0.09,-0.10842 -0.0712,-0.16083 3.8e-4,-0.15879 z m -9.125319,0.67074 0.645935,0.66553 c 0.827253,0.85222 1.300309,1.7153 1.13669,2.0744 -0.09219,0.20233 -0.217211,0.26531 -0.636735,0.32097 -0.287059,0.0381 -0.589732,0.0953 -0.672736,0.12719 -0.255868,0.0982 -0.381356,-0.44564 -0.428561,-1.85703 z m 24.975189,1.9738 a 12.801392,13.064543 0 0 1 -0.33418,1.63744 12.801392,13.064543 0 0 0 0.33418,-1.63744 z m -12.11744,0.78592 c 0.0211,0.007 0.0156,0.0412 -0.009,0.1048 -0.0329,0.0858 -0.12413,0.15598 -0.20258,0.15598 -0.2,0 -0.17755,-0.0765 0.0598,-0.20358 0.0826,-0.0442 0.13048,-0.0642 0.15159,-0.0572 z m 2.44177,1.40227 c -0.0127,-9.1e-4 -0.0265,0.002 -0.0408,0.008 -0.0859,0.0387 -0.19155,0.19877 -0.19359,0.33098 -7.7e-4,0.0543 0.0762,0.021 0.17139,-0.0742 0.0953,-0.0952 0.13894,-0.20744 0.097,-0.24939 -0.01,-0.01 -0.0214,-0.0147 -0.034,-0.0158 z m -0.23278,0.49675 c -0.0545,0 -0.0727,0.0691 -0.0402,0.15358 0.0324,0.0845 0.0771,0.15359 0.0992,0.15359 0.0221,0 0.0402,-0.0691 0.0402,-0.15359 0,-0.0845 -0.0446,-0.15358 -0.0992,-0.15358 z m -6.76694,1.33107 c 0.0596,0 0.10839,0.0461 0.10839,0.10239 0,0.0563 -0.0203,0.1024 -0.0452,0.1024 -0.0248,0 -0.0736,-0.0461 -0.10839,-0.1024 -0.0348,-0.0564 -0.0144,-0.10239 0.0452,-0.10239 z m 1.10069,0.51195 c 0.0949,0 0.13657,0.0822 0.11559,0.22918 -0.0352,0.24642 -0.32722,0.36658 -0.44156,0.18158 -0.0869,-0.14059 0.12746,-0.41076 0.32597,-0.41076 z m 0.86671,0.58095 c 0.0756,-0.0148 0.14742,0.059 0.27237,0.25638 0.11528,0.18205 0.18703,0.36764 0.1594,0.41235 -0.0855,0.13835 -0.30579,0.09 -0.48317,-0.10599 -0.20662,-0.22831 -0.21383,-0.36498 -0.0276,-0.51955 0.0282,-0.0234 0.0538,-0.0382 0.079,-0.0432 z m 1.18469,0.97511 c 0.0238,7.7e-4 0.0558,0.0116 0.0976,0.0288 0.10252,0.0421 0.26702,0.0996 0.36557,0.12799 0.0986,0.0283 0.17918,0.0922 0.17918,0.14199 0,0.0498 0.0641,0.0905 0.14258,0.0905 0.0785,0 0.17061,0.0727 0.20479,0.16179 0.0848,0.22092 0.0795,0.24778 -0.0496,0.24778 -0.0615,0 -0.22899,0.0921 -0.37217,0.20477 -0.42458,0.33398 -0.43459,0.323 -0.59254,-0.65374 -0.0433,-0.26729 -0.0467,-0.35281 0.0247,-0.34996 z m 2.036,1.65323 c 0.0123,0.002 0.0258,0.007 0.0398,0.0159 0.0563,0.0348 0.1024,0.0836 0.1024,0.1084 0,0.0248 -0.0461,0.0452 -0.1024,0.0452 -0.0563,0 -0.10239,-0.0489 -0.10239,-0.10859 0,-0.0298 0.0115,-0.0498 0.03,-0.058 0.009,-0.004 0.0203,-0.005 0.0326,-0.003 z m 0.61874,0.10739 c 0.62287,0.007 2.79993,0.35785 2.79993,0.47636 0,0.0462 0.0922,0.11322 0.20478,0.14898 0.27596,0.0876 0.25773,0.19883 -0.056,0.34177 -0.49221,0.22426 -1.12699,0.10471 -1.42807,-0.26918 -0.0707,-0.0878 -0.30811,-0.12216 -0.70693,-0.10238 -0.5513,0.0274 -0.61769,0.006 -0.81052,-0.25018 -0.11552,-0.15394 -0.18945,-0.3005 -0.16418,-0.32576 0.0147,-0.0147 0.072,-0.0206 0.16098,-0.0196 z m 2.98691,2.48257 a 12.801392,13.064543 0 0 1 -2.29958,0.69933 12.801392,13.064543 0 0 0 2.29958,-0.69933 z m -2.38116,0.71733 a 12.801392,13.064543 0 0 1 -0.64175,0.13538 12.801392,13.064543 0 0 0 0.64175,-0.13538 z" /></g></svg>
