<?xml version="1.0" encoding="UTF-8" standalone="no"?>
<!-- Created with Inkscape (http://www.inkscape.org/) -->

<svg
   width="210mm"
   height="297mm"
   viewBox="0 0 210 297"
   version="1.1"
   id="svg1"
   xml:space="preserve"
   inkscape:version="1.3 (0e150ed, 2023-07-21)"
   sodipodi:docname="skull.svg"
   inkscape:export-filename="../../../Games/Vertical Scroller/rocket.png"
   inkscape:export-xdpi="120"
   inkscape:export-ydpi="120"
   xmlns:inkscape="http://www.inkscape.org/namespaces/inkscape"
   xmlns:sodipodi="http://sodipodi.sourceforge.net/DTD/sodipodi-0.dtd"
   xmlns:xlink="http://www.w3.org/1999/xlink"
   xmlns="http://www.w3.org/2000/svg"
   xmlns:svg="http://www.w3.org/2000/svg"><sodipodi:namedview
     id="namedview1"
     pagecolor="#b9b9b9"
     bordercolor="#666666"
     borderopacity="1.0"
     inkscape:showpageshadow="2"
     inkscape:pageopacity="0.0"
     inkscape:pagecheckerboard="true"
     inkscape:deskcolor="#d1d1d1"
     inkscape:document-units="mm"
     inkscape:zoom="0.4531823"
     inkscape:cx="403.811"
     inkscape:cy="468.90622"
     inkscape:window-width="1366"
     inkscape:window-height="699"
     inkscape:window-x="0"
     inkscape:window-y="0"
     inkscape:window-maximized="1"
     inkscape:current-layer="layer1"
     showgrid="false" /><defs
     id="defs1" /><g
     inkscape:label="Layer 1"
     inkscape:groupmode="layer"
     id="layer1"><path
       id="path2"
       style="display:inline;stroke:#000000;stroke-width:2.26714;stroke-dasharray:none;stroke-opacity:1;fill:none;fill-opacity:1;stroke-linecap:round;stroke-linejoin:round;stroke-dashoffset:47.2176"
       inkscape:label="leg_right"
       d="M 135.30638 138.49345 C 135.11724 139.58897 134.91682 140.67532 134.69677 141.74261 C 134.45469 142.91679 134.19423 144.07285 133.91572 145.2093 C 133.63721 146.34579 133.34075 147.46263 133.02689 148.55766 C 132.71302 149.65273 132.38193 150.72608 132.03378 151.77598 C 131.68563 152.82588 131.32051 153.85231 130.93914 154.85332 C 130.55778 155.85432 130.15999 156.82998 129.74648 157.77835 C 129.33297 158.72671 128.90389 159.64776 128.45931 160.53975 C 128.01473 161.43174 127.55455 162.29472 127.07997 163.12659 C 126.60543 163.95846 126.11628 164.75913 125.61277 165.52714 C 125.10927 166.29516 124.59141 167.03048 124.06005 167.73087 C 123.53473 168.42332 122.99593 169.08066 122.44444 169.70342 C 132.34014 173.41095 157.7682 172.95414 157.7682 172.95414 C 150.49864 169.56041 138.61911 147.80807 135.30638 138.49345 z "
       transform="matrix(1.3232558,0,0,1.3232558,-39.52117,11.541872)" /><path
       id="path3"
       style="display:inline;fill:none;fill-opacity:1;stroke:#000000;stroke-width:2.26714;stroke-linecap:round;stroke-linejoin:round;stroke-dasharray:none;stroke-dashoffset:47.2176;stroke-opacity:1"
       inkscape:label="leg_left"
       d="m 83.314241,139.22685 c -3.475985,9.49537 -15.163179,30.77458 -22.344662,34.12719 0,0 25.440186,0.45697 35.330786,-3.25346 0.273737,-0.10269 0.530211,-0.23025 0.774802,-0.37451 h -1.017318 c -0.558158,-0.62908 -1.103361,-1.29479 -1.634737,-1.9952 -0.531373,-0.70037 -1.049207,-1.43533 -1.552727,-2.20334 -0.503516,-0.768 -0.992611,-1.56908 -1.467202,-2.40094 -0.474588,-0.83186 -0.934742,-1.69486 -1.379334,-2.58684 -0.444588,-0.89198 -0.87365,-1.81304 -1.28717,-2.7614 -0.413517,-0.94836 -0.811285,-1.92403 -1.192663,-2.92503 -0.381374,-1.001 -0.746478,-2.02705 -1.094641,-3.07695 -0.348163,-1.0499 -0.679228,-2.12364 -0.993105,-3.21871 -0.313874,-1.09503 -0.610706,-2.21147 -0.889225,-3.34797 -0.278519,-1.13646 -0.53896,-2.2929 -0.78105,-3.46708 -0.170385,-0.82638 -0.319907,-1.67223 -0.471754,-2.51576 z"
       transform="matrix(1.3232558,0,0,1.3232558,-39.52117,11.541872)" /><path
       id="path5"
       style="display:inline;fill:none;fill-opacity:1;stroke:#000000;stroke-width:2.26714;stroke-linecap:round;stroke-linejoin:round;stroke-dasharray:none;stroke-dashoffset:47.2176;stroke-opacity:1"
       inkscape:label="tip"
       d="m 109.24158,41.332808 c -5.92703,2.9e-5 -11.414976,6.902139 -15.919748,17.191687 a 22.435568,14.411161 0 0 0 1.813207,1.164545 22.435568,14.411161 0 0 0 4.253988,1.716748 22.435568,14.411161 0 0 0 4.742143,1.065742 22.435568,14.411161 0 0 0 4.99247,0.361626 22.435568,14.411161 0 0 0 4.99247,-0.361626 22.435568,14.411161 0 0 0 4.74175,-1.065742 22.435568,14.411161 0 0 0 4.25399,-1.716748 22.435568,14.411161 0 0 0 1.99754,-1.282874 C 120.6143,48.181807 115.14599,41.332831 109.24158,41.332808 Z m 1.50079,96.096462 c -0.73104,0 -1.31959,0.58855 -1.31959,1.31958 v 30.97722 h 2.63917 v -30.97722 c 0,-0.73103 -0.58855,-1.31958 -1.31958,-1.31958 z"
       transform="matrix(1.3232558,0,0,1.3232558,-39.52117,11.541872)" /><path
       id="path6"
       style="display:inline;fill:none;fill-opacity:1;stroke:#000000;stroke-width:2.26714;stroke-linecap:round;stroke-linejoin:round;stroke-dasharray:none;stroke-dashoffset:47.2176;stroke-opacity:1"
       inkscape:label="main body - Permanent"
       d="m 125.10939,58.406166 a 22.435568,14.411161 0 0 1 -1.99754,1.282874 22.435568,14.411161 0 0 1 -4.25399,1.716748 22.435568,14.411161 0 0 1 -4.74175,1.065742 22.435568,14.411161 0 0 1 -4.99247,0.361626 22.435568,14.411161 0 0 1 -4.99247,-0.361626 22.435568,14.411161 0 0 1 -4.742143,-1.065742 22.435568,14.411161 0 0 1 -4.253988,-1.716748 22.435568,14.411161 0 0 1 -1.813207,-1.164545 c -0.219014,0.500257 -0.440238,0.99265 -0.65452,1.508598 -0.355515,0.856012 -0.704581,1.733135 -1.046606,2.629404 -0.342028,0.896269 -0.676863,1.811737 -1.004821,2.744609 -0.327957,0.932869 -0.648948,1.883065 -0.962253,2.848879 -0.626615,1.931628 -1.223293,3.925749 -1.787823,5.96722 -0.564532,2.041471 -1.096706,4.130626 -1.594513,6.252694 -0.497809,2.122067 -0.961093,4.276884 -1.387535,6.450299 -0.426444,2.173418 -0.81606,4.365298 -1.166498,6.560819 -0.350438,2.195518 -0.662004,4.394711 -0.931792,6.583073 -0.269791,2.18839 -0.497748,4.36589 -0.682247,6.51786 -0.184502,2.152 -0.325243,4.27843 -0.419815,6.36478 -0.09457,2.08635 -0.143323,4.13274 -0.143322,6.12421 0.001,1.32179 0.02369,2.63699 0.06756,3.94352 0.04387,1.30654 0.109215,2.60443 0.194871,3.89197 0.08566,1.28754 0.191905,2.56468 0.318278,3.82949 0.126374,1.26481 0.272933,2.51734 0.43895,3.75568 0.166017,1.23833 0.351518,2.46241 0.556108,3.67054 0.204587,1.20813 0.428052,2.40032 0.67014,3.57447 0.24209,1.17418 0.502531,2.33061 0.78105,3.46708 0.278519,1.1365 0.57535,2.25293 0.889225,3.34797 0.313877,1.09507 0.644942,2.16881 0.993105,3.21871 0.348163,1.0499 0.713266,2.07595 1.094641,3.07695 0.381378,1.001 0.779145,1.97667 1.192663,2.92503 0.41352,0.94836 0.842581,1.86942 1.28717,2.7614 0.444592,0.89198 0.904745,1.75498 1.379334,2.58684 0.474591,0.83186 0.963685,1.63294 1.467202,2.40094 0.50352,0.76801 1.021353,1.50296 1.552727,2.20334 0.531376,0.70041 1.076578,1.36612 1.634737,1.9952 h 13.364932 v -30.97722 c 0,-0.73103 0.58855,-1.31958 1.31959,-1.31958 0.73103,0 1.31958,0.58855 1.31958,1.31958 v 30.97722 h 10.36375 c 0.55815,-0.6291 1.10298,-1.29477 1.63435,-1.9952 0.53136,-0.7004 1.04922,-1.43571 1.55272,-2.20373 0.50351,-0.76801 0.99265,-1.56868 1.4672,-2.40055 0.47458,-0.83187 0.93476,-1.69485 1.37934,-2.58684 0.44458,-0.89199 0.87366,-1.81304 1.28717,-2.7614 0.41351,-0.94837 0.8113,-1.92403 1.19266,-2.92503 0.38137,-1.00101 0.74649,-2.02744 1.09464,-3.07734 0.34815,-1.0499 0.67924,-2.12325 0.99311,-3.21832 0.31386,-1.09504 0.61032,-2.21187 0.88883,-3.34836 0.27851,-1.13646 0.53897,-2.29251 0.78105,-3.46669 0.24208,-1.17415 0.46595,-2.36635 0.67053,-3.57447 0.20458,-1.20812 0.3901,-2.43221 0.55611,-3.67054 0.16601,-1.23833 0.3122,-2.49088 0.43856,-3.75568 0.12637,-1.2648 0.23263,-2.54196 0.31828,-3.82949 0.0856,-1.28753 0.15101,-2.58545 0.19487,-3.89197 0.0439,-1.30652 0.0665,-2.62174 0.0676,-3.94352 0,-1.99147 -0.0487,-4.03786 -0.14332,-6.12421 -0.0946,-2.08635 -0.23492,-4.21278 -0.41943,-6.36478 -0.1845,-2.15197 -0.41284,-4.32947 -0.68263,-6.51786 -0.26979,-2.188363 -0.58136,-4.387555 -0.9318,-6.583073 -0.35041,-2.195521 -0.74005,-4.387401 -1.16649,-6.560819 -0.42645,-2.173415 -0.88973,-4.328231 -1.38754,-6.450299 -0.49781,-2.122068 -1.02998,-4.211223 -1.59451,-6.252694 -0.56453,-2.041471 -1.16121,-4.035592 -1.78782,-5.96722 -0.31331,-0.965814 -0.6343,-1.91601 -0.96226,-2.848879 -0.32796,-0.932872 -0.66279,-1.84834 -1.00482,-2.744609 -0.34203,-0.896269 -0.69111,-1.773392 -1.0466,-2.629404 -0.23111,-0.556444 -0.46948,-1.08877 -0.70607,-1.626927 z"
       transform="matrix(1.3232558,0,0,1.3232558,-39.52117,11.541872)" /><path
       id="circle8"
       style="display:inline;stroke:#000000;stroke-width:2.49385;stroke-dasharray:none;stroke-opacity:1;fill:none;fill-opacity:1;stroke-linecap:round;stroke-linejoin:round;stroke-dashoffset:47.2176"
       inkscape:label="outer ring"
       d="M 109.77504,85.973318 A 13.23053,13.23053 0 0 0 96.544443,99.20391 13.23053,13.23053 0 0 0 109.77504,112.4345 13.23053,13.23053 0 0 0 123.00563,99.20391 13.23053,13.23053 0 0 0 109.77504,85.973318 Z m 0,3.60845 a 9.6222038,9.6222038 0 0 1 9.62214,9.622142 9.6222038,9.6222038 0 0 1 -9.62214,9.62214 9.6222038,9.6222038 0 0 1 -9.62215,-9.62214 9.6222038,9.6222038 0 0 1 9.62215,-9.622142 z"
       transform="matrix(1.3232558,0,0,1.3232558,-39.52117,11.541872)" /><rect
       style="display:inline;stroke:#000000;stroke-width:2.26714;stroke-dasharray:none;stroke-opacity:1;fill:none;fill-opacity:1;stroke-linecap:round;stroke-linejoin:round;stroke-dashoffset:47.2176"
       id="rect1"
       width="2.6391168"
       height="37.317585"
       x="109.42294"
       y="137.4294"
       ry="1.3195584"
       transform="matrix(1.3232558,0,0,1.3232558,-39.52117,11.541872)" /><circle
       style="display:inline;stroke:#000000;stroke-width:2.26714;stroke-dasharray:none;stroke-opacity:1;fill:none;fill-opacity:1;stroke-linecap:round;stroke-linejoin:round;stroke-dashoffset:47.2176"
       id="circle1"
       cx="109.775"
       cy="99.203911"
       r="9.6222038"
       inkscape:label="inner - Permanent"
       transform="matrix(1.3232558,0,0,1.3232558,-39.52117,11.541872)" /><g
       id="g1"
       transform="matrix(0.04088599,-0.03310389,0.03310389,0.04088599,86.799092,84.431893)"><path
         style="fill:#fdfdfd;stroke:#000000;stroke-width:20.11760015;stroke-dasharray:none;stroke-opacity:1;fill-opacity:1"
         d="m 113.29603,147.19238 c -3.07798,-1.13481 -5.37716,-2.76278 -6.2294,-4.41083 -0.37751,-0.73003 -0.47928,-0.76568 -2.18565,-0.76568 -2.40665,0 -4.48969,-0.58258 -6.701255,-1.8742 -4.780744,-2.79211 -5.508278,-4.40565 -4.835424,-10.72414 0.498178,-4.67818 0.250931,-6.31825 -1.142628,-7.5794 -0.282623,-0.25577 -2.400279,-1.24708 -4.705904,-2.20292 -6.780632,-2.81102 -9.477713,-4.36998 -11.573376,-6.68963 -3.479488,-3.85138 -4.08733,-7.41572 -2.555086,-14.982829 1.104871,-5.456494 1.234434,-8.423489 0.543032,-12.435416 -1.984127,-11.513078 -1.757953,-23.198833 0.60031,-31.016282 2.335434,-7.741772 6.13987,-14.530044 10.731283,-19.147875 7.134037,-7.175083 16.774388,-11.931081 28.453798,-14.037471 3.08729,-0.556795 4.21193,-0.619851 10.98021,-0.615636 6.6948,0.0042 7.92149,0.07295 10.93605,0.613224 14.99638,2.687645 26.77724,9.458183 33.22145,19.092584 3.2591,4.872511 6.2937,12.023123 7.42014,17.484508 1.53261,7.430673 1.43674,17.792055 -0.2571,27.788633 -0.2863,1.689655 -0.52054,3.503142 -0.52054,4.029969 0,0.526827 0.4259,3.430631 0.94645,6.452898 0.77608,4.505883 0.92984,5.995113 0.8542,8.273153 -0.082,2.46862 -0.18671,2.97892 -0.94024,4.5805 -1.57398,3.34542 -5.26912,6.4998 -10.91458,9.31731 -4.57924,2.28538 -6.04948,3.51477 -7.42723,6.21052 -0.53651,1.04976 -0.62713,1.70714 -0.76591,5.55625 -0.1825,5.0614 -0.46844,5.97877 -2.56081,8.21569 -2.24037,2.39514 -5.25813,3.69056 -8.59735,3.69056 -2.22487,0 -2.88099,0.30639 -4.83011,2.2555 -2.17718,2.17719 -4.3847,3.14312 -7.44609,3.25815 -2.17929,0.0819 -2.6478,0.004 -5.29025,-0.88015 -3.32105,-1.11113 -3.7522,-1.10262 -7.55057,0.14911 -1.86932,0.61603 -2.79388,0.76984 -4.53808,0.755 -1.20476,-0.0103 -2.60846,-0.17275 -3.11934,-0.3611 z"
         id="path9" /><path
         style="display:inline;fill:#000000;fill-opacity:1;stroke-width:7.54410006;stroke-dasharray:none;stroke:#000000;stroke-opacity:1"
         d="m 120.4426,146.66913 c 0,-0.0912 0.29001,-0.62526 0.64446,-1.18675 1.39623,-2.21176 1.48124,-2.68768 1.75227,-9.8103 0.14134,-3.71419 0.31662,-7.01947 0.38953,-7.34505 0.31791,-1.41967 2.65515,-1.77535 3.35793,-0.511 0.21407,0.38512 0.37011,2.87934 0.47454,7.58526 0.16641,7.49908 0.18982,7.63709 1.70132,10.03146 0.39269,0.62207 0.66853,1.17649 0.61297,1.23205 -0.0556,0.0556 -0.72027,-0.13428 -1.47714,-0.42187 -2.07427,-0.78816 -4.46288,-0.65164 -6.99285,0.39966 -0.25467,0.10582 -0.46303,0.11776 -0.46303,0.0265 z m -17.38537,-4.93415 c -0.90347,-0.11759 -2.21316,-0.47177 -2.91042,-0.78707 -1.239891,-0.56067 -1.253212,-0.57914 -0.606287,-0.84085 0.363802,-0.14717 1.114967,-0.45399 1.669257,-0.68182 0.55428,-0.22782 1.22884,-0.72466 1.499,-1.10407 0.27086,-0.38038 0.92742,-2.64307 1.46361,-5.04397 1.05344,-4.71705 1.01837,-4.61042 1.80361,-5.48268 0.62683,-0.69628 1.4127,-0.76073 2.2369,-0.18343 0.44944,0.31479 0.58804,0.67461 0.58804,1.52656 0,1.84794 -2.0155,12.38695 -2.41762,12.64172 -0.41429,0.26248 -1.03161,0.25424 -3.32609,-0.0444 z m 40.86092,-0.0553 c -0.071,-0.18487 -0.62819,-3.13167 -1.23831,-6.54843 -0.87234,-4.8852 -1.05066,-6.36616 -0.83472,-6.93252 0.52739,-1.3832 2.53105,-1.23381 3.29562,0.24573 0.21006,0.40649 0.75501,2.46548 1.21099,4.57553 1.21048,5.60144 1.25504,5.67862 3.89871,6.75309 l 1.54344,0.6273 -1.21826,0.53889 c -2.01708,0.89225 -6.41166,1.381 -6.65747,0.74041 z m -10.4389,-33.53052 c 0,-0.65485 0.0516,-0.92274 0.11466,-0.59531 0.0631,0.32742 0.0631,0.8632 0,1.19062 -0.0631,0.32742 -0.11466,0.0595 -0.11466,-0.59531 z m -17.2282,0 c 0,-0.3638 0.06,-0.51263 0.13345,-0.33073 0.0734,0.1819 0.0734,0.47956 0,0.66146 -0.0734,0.1819 -0.13345,0.0331 -0.13345,-0.33073 z M 97.622294,98.713564 c 0.181901,-0.0734 0.479557,-0.0734 0.661458,0 0.181901,0.0734 0.03307,0.133452 -0.330729,0.133452 -0.363802,0 -0.512631,-0.06005 -0.330729,-0.133452 z m 1.587499,0 c 0.181901,-0.0734 0.479558,-0.0734 0.661459,0 0.181898,0.0734 0.03307,0.133452 -0.330729,0.133452 -0.363802,0 -0.512631,-0.06005 -0.33073,-0.133452 z m 50.799997,0 c 0.1819,-0.0734 0.47956,-0.0734 0.66146,0 0.1819,0.0734 0.0331,0.133452 -0.33073,0.133452 -0.3638,0 -0.51263,-0.06005 -0.33073,-0.133452 z m 1.5875,0 c 0.1819,-0.0734 0.47956,-0.0734 0.66146,0 0.1819,0.0734 0.0331,0.133452 -0.33073,0.133452 -0.3638,0 -0.51263,-0.06005 -0.33073,-0.133452 z m 12.3037,-13.715396 c 0.003,-0.582083 0.0571,-0.789054 0.12041,-0.459936 0.0633,0.329119 0.0609,0.805369 -0.005,1.058333 -0.0662,0.252965 -0.118,-0.01631 -0.11507,-0.598397 z m -4.71357,-11.310937 -0.77711,-0.859896 0.8599,0.777106 c 0.80154,0.724371 0.98151,0.942686 0.7771,0.942686 -0.0455,0 -0.43249,-0.386953 -0.85989,-0.859896 z m -68.775022,0.06615 c 0.263389,-0.291042 0.538421,-0.529167 0.611181,-0.529167 0.07276,0 -0.08321,0.238125 -0.346598,0.529167 -0.263389,0.291042 -0.53842,0.529167 -0.611181,0.529167 -0.07276,0 0.08321,-0.238125 0.346598,-0.529167 z M 141.0801,73.356502 c 0.34178,-0.363802 0.68094,-0.661458 0.7537,-0.661458 0.0728,0 -0.14734,0.297656 -0.48911,0.661458 -0.34178,0.363802 -0.68094,0.661458 -0.7537,0.661458 -0.0728,0 0.14734,-0.297656 0.48911,-0.661458 z M 99.611704,69.601273 c 0.257431,-0.06708 0.614616,-0.06267 0.793746,0.0098 0.17914,0.07248 -0.0315,0.127362 -0.468052,0.12197 -0.436563,-0.0054 -0.583125,-0.06469 -0.325694,-0.131774 z m 50.006246,0 c 0.25743,-0.06708 0.61462,-0.06267 0.79375,0.0098 0.17913,0.07248 -0.0315,0.127362 -0.46806,0.12197 -0.43656,-0.0054 -0.58312,-0.06469 -0.32569,-0.131774 z"
         id="path8" /><path
         style="display:inline;fill:#000000;fill-opacity:1;stroke-width:7.54410006;stroke-dasharray:none;stroke:#000000;stroke-opacity:1"
         d="m 117.80989,112.70094 c -1.3047,-1.30469 -1.62901,-4.00718 -0.92577,-7.71437 0.86121,-4.5399 2.78024,-8.907774 4.96288,-11.295935 2.13436,-2.335325 4.02159,-2.390071 6.14099,-0.178143 3.36484,3.511742 6.17658,12.757928 5.16365,16.980278 -0.74725,3.11491 -3.91291,3.59141 -7.39365,1.11291 l -0.73159,-0.52094 -0.98364,0.6684 c -2.73015,1.85518 -4.98293,2.19775 -6.23287,0.9478 z M 95.599457,98.205501 c -6.50931,-1.750452 -10.610893,-8.903904 -9.205735,-16.055458 0.550554,-2.802044 1.186902,-4.311629 2.727745,-6.470927 2.974209,-4.16798 8.058213,-6.451604 12.664013,-5.688398 4.78368,0.79268 8.56967,4.156313 10.09907,8.97243 0.75669,2.382842 0.84436,6.149497 0.20114,8.642662 -1.95781,7.588689 -9.54443,12.46645 -16.486233,10.599691 z m 52.389533,5.21e-4 c -4.37064,-1.175412 -8.22138,-4.877418 -9.82421,-9.444743 -0.71391,-2.034306 -0.98875,-6.288167 -0.54453,-8.427969 0.50552,-2.435069 1.95202,-5.114433 3.71042,-6.872832 5.00057,-5.000567 12.80803,-4.770607 18.01547,0.530623 7.79042,7.930742 4.86635,21.611197 -5.17841,24.227526 -1.91705,0.499327 -4.2932,0.49448 -6.17874,-0.0126 z"
         id="path1" /></g><g
       id="g39"
       inkscape:label="Top"><use
         id="use9"
         inkscape:spray-origin="#g1"
         xlink:href="#g1"
         transform="matrix(0.44417364,1.2218619,-1.2218619,0.44417364,161.01946,-78.314061)"
         style="display:inline" /><use
         id="use14"
         inkscape:spray-origin="#g1"
         xlink:href="#g1"
         transform="matrix(0.39060853,0.97986376,-0.97986376,0.39060853,150.81458,-40.14929)" /><use
         id="use15"
         inkscape:spray-origin="#g1"
         xlink:href="#g1"
         transform="matrix(-0.54324458,-0.43241837,0.43241837,-0.54324458,123.88584,162.00923)"
         style="display:inline" /><use
         id="use16"
         inkscape:spray-origin="#g1"
         xlink:href="#g1"
         transform="matrix(1.3364513,0.19745456,-0.19745456,1.3364513,6.6809939,-44.587075)"
         style="display:inline" /></g><g
       id="g49"
       inkscape:label="Left"><use
         id="use43"
         inkscape:spray-origin="#g1"
         xlink:href="#use16"
         transform="matrix(1.0178379,0.50749833,-0.50749833,1.0178379,-4.0796871,77.819832)" /><use
         id="use44"
         inkscape:spray-origin="#g1"
         xlink:href="#use16"
         transform="matrix(0.62391753,-0.03165258,0.03165258,0.62391753,-21.538055,185.80764)"
         style="display:inline" /><use
         id="use45"
         inkscape:spray-origin="#g1"
         xlink:href="#use16"
         transform="matrix(0.18139506,0.7279183,-0.7279183,0.18139506,110.48714,112.88776)" /><use
         id="use46"
         inkscape:spray-origin="#g1"
         xlink:href="#use16"
         transform="matrix(-0.69159971,-0.26296369,0.26296369,-0.69159971,124.6557,324.72325)" /><use
         id="use47"
         inkscape:spray-origin="#g1"
         xlink:href="#use16"
         transform="matrix(0.13478688,0.85308774,-0.85308774,0.13478688,117.90749,117.46869)" /><use
         id="use48"
         inkscape:spray-origin="#g1"
         xlink:href="#use16"
         transform="matrix(0.36358416,-0.64441184,0.64441184,0.36358416,-20.603648,277.26249)" /></g><g
       id="g52"
       inkscape:label="Right"><use
         id="use49"
         inkscape:spray-origin="#g1"
         xlink:href="#use16"
         transform="matrix(0.36358416,-0.64441184,0.64441184,0.36358416,36.418674,276.53592)" /><use
         id="use50"
         inkscape:spray-origin="#g1"
         xlink:href="#use16"
         transform="matrix(0.38354052,0.78470275,-0.82629071,0.41557935,169.84045,105.33273)"
         inkscape:transform-center-x="-5.1904322"
         inkscape:transform-center-y="8.835995" /><use
         id="use51"
         inkscape:spray-origin="#g1"
         xlink:href="#use16"
         transform="matrix(1.4847703,-0.39665091,0.39665091,1.4847703,-65.951584,138.69787)" /><use
         id="use52"
         inkscape:spray-origin="#g1"
         xlink:href="#use16"
         transform="matrix(0.64768418,-0.75477704,0.80702607,0.67673124,8.4937823,263.40804)"
         inkscape:transform-center-x="-2.7171131"
         inkscape:transform-center-y="-0.69569005" /></g></g></svg>
