<?xml version="1.0" encoding="UTF-8" standalone="no"?>
<!-- Created with Inkscape (http://www.inkscape.org/) -->

<svg
   width="793.70099"
   height="1122.5197"
   viewBox="0 0 210.00005 296.99999"
   version="1.1"
   id="svg1"
   xml:space="preserve"
   inkscape:version="1.3 (0e150ed, 2023-07-21)"
   sodipodi:docname="rocket_shield.svg"
   inkscape:export-filename="../../../Games/Vertical Scroller/rocket.png"
   inkscape:export-xdpi="120"
   inkscape:export-ydpi="120"
   xmlns:inkscape="http://www.inkscape.org/namespaces/inkscape"
   xmlns:sodipodi="http://sodipodi.sourceforge.net/DTD/sodipodi-0.dtd"
   xmlns:xlink="http://www.w3.org/1999/xlink"
   xmlns="http://www.w3.org/2000/svg"
   xmlns:svg="http://www.w3.org/2000/svg"><sodipodi:namedview
     id="namedview1"
     pagecolor="#b3b3b3"
     bordercolor="#666666"
     borderopacity="1.0"
     inkscape:showpageshadow="2"
     inkscape:pageopacity="0.0"
     inkscape:pagecheckerboard="true"
     inkscape:deskcolor="#d1d1d1"
     inkscape:document-units="mm"
     inkscape:zoom="0.32044829"
     inkscape:cx="366.67382"
     inkscape:cy="494.61958"
     inkscape:window-width="1366"
     inkscape:window-height="699"
     inkscape:window-x="0"
     inkscape:window-y="0"
     inkscape:window-maximized="1"
     inkscape:current-layer="layer1"
     showgrid="false" /><defs
     id="defs1"><pattern
       inkscape:collect="always"
       xlink:href="#halftones"
       preserveAspectRatio="xMidYMid"
       id="pattern10"
       patternTransform="scale(1)"
       x="0"
       y="0" /><pattern
       patternUnits="userSpaceOnUse"
       width="10"
       height="10"
       preserveAspectRatio="xMidYMid"
       style="fill:#ffffff"
       id="halftones"
       x="0"
       y="0"
       inkscape:label="Halftones"
       inkscape:collect="always"
       inkscape:isstock="true"><g
         id="fullPattern"
         style="display:inline"
         transform="scale(0.1)"><circle
           style="fill-opacity:1;stroke:none;paint-order:markers fill stroke;stop-color:#000000"
           id="circle10"
           cx="50"
           cy="50"
           r="25" /><path
           id="circle37"
           style="paint-order:markers fill stroke"
           d="M 25,0 A 25,25 0 0 1 0,25 25,25 0 0 1 -25,0 25,25 0 0 1 0,-25 25,25 0 0 1 25,0 Z" /><path
           id="circle39"
           style="paint-order:markers fill stroke"
           d="M 125,0 A 25,25 0 0 1 100,25 25,25 0 0 1 75,0 25,25 0 0 1 100,-25 25,25 0 0 1 125,0 Z" /><path
           id="circle43"
           style="paint-order:markers fill stroke"
           d="M 25,100 A 25,25 0 0 1 0,125 25,25 0 0 1 -25,100 25,25 0 0 1 0,75 25,25 0 0 1 25,100 Z" /><path
           id="circle45"
           style="paint-order:markers fill stroke"
           d="m 125,100 a 25,25 0 0 1 -25,25 25,25 0 0 1 -25,-25 25,25 0 0 1 25,-25 25,25 0 0 1 25,25 z" /></g></pattern></defs><g
     inkscape:label="Layer 1"
     inkscape:groupmode="layer"
     id="layer1"><g
       id="path2"><path
         style="color:#000000;fill:#ffffff;stroke-linecap:round;stroke-linejoin:round;-inkscape-stroke:none;paint-order:stroke markers fill"
         d="M 105,11.751953 C 78.930304,11.752134 55.50692,34.06622 38.615234,69.835937 21.723549,105.60565 11.302775,154.93795 11.302734,209.42578 a 0.66152446,0.66152446 0 0 0 0,0.006 c 0.04381,6.81646 0.254322,13.62212 0.63086,20.39258 a 0.66152446,0.66152446 0 0 0 1.320312,-0.004 C 15.710264,179.75861 26.901123,130.91818 43.390625,94.632812 51.635376,76.490127 61.207013,61.488705 71.636719,51.044922 82.065843,40.601721 93.318799,34.729124 105,34.693359 c 11.69247,0.0054 22.95689,5.858057 33.39844,16.289063 10.44154,10.431005 20.02555,25.427708 28.28125,43.572265 16.51139,36.289113 27.71915,85.159073 30.17773,135.265623 a 0.66152446,0.66152446 0 0 0 1.32031,0 c 0.33936,-6.77453 0.51267,-13.5802 0.51954,-20.39258 a 0.66152446,0.66152446 0 0 0 0,-0.002 C 198.69723,154.93774 188.27656,105.60372 171.38477,69.833984 154.49298,34.064244 131.0698,11.751825 105,11.751953 Z m 0,1.322266 c 25.31281,-1.25e-4 48.40666,21.791377 65.1875,57.326172 16.78084,35.534799 27.18746,84.706159 27.1875,139.025389 -0.002,2.20771 -0.13067,4.40373 -0.16797,6.60938 C 193.53729,170.66262 182.96878,127.16409 167.88281,94.007812 159.58118,75.762297 149.93743,60.639612 139.33398,50.046875 128.73054,39.454138 117.13363,33.376736 105,33.371094 a 0.66152446,0.66152446 0 0 0 -0.002,0 C 92.875202,33.407535 81.290262,39.50599 70.699219,50.111328 60.108176,60.716666 50.476112,75.842437 42.185547,94.085937 27.040147,127.41359 16.462211,171.17433 12.851563,216.76758 12.792444,214.31749 12.640794,211.8796 12.625,209.42578 v -0.002 c -4e-6,-6.5e-4 4e-6,-0.001 0,-0.002 C 12.625546,155.10443 23.030217,105.9343 39.810547,70.400391 56.591283,34.865617 79.687294,13.074395 105,13.074219 Z"
         id="path10" /><path
         style="color:#000000;display:inline;fill:url(#pattern10);stroke-linecap:round;stroke-linejoin:round;-inkscape-stroke:none;paint-order:stroke markers fill"
         d="M 104.99974,12.413713 C 53.617286,12.41407 11.963643,100.61954 11.963561,209.42649 c 0.04374,6.80567 0.254003,13.60197 0.629935,20.36155 4.920287,-100.27773 44.796705,-195.612196 92.406244,-195.755309 47.65225,0.02216 87.59313,95.387729 92.51787,195.755309 0.33881,-6.76367 0.51198,-13.55995 0.51883,-20.36155 -8e-5,-108.80738 -41.65404,-197.01303 -93.0367,-197.012777 z"
         id="path11" /></g></g></svg>
