<?xml version="1.0" encoding="UTF-8" standalone="no"?>
<!-- Created with Inkscape (http://www.inkscape.org/) -->

<svg
   width="210mm"
   height="297mm"
   viewBox="0 0 210 297"
   version="1.1"
   id="svg1"
   inkscape:version="1.3 (0e150ed, 2023-07-21)"
   sodipodi:docname="clouds.svg"
   xmlns:inkscape="http://www.inkscape.org/namespaces/inkscape"
   xmlns:sodipodi="http://sodipodi.sourceforge.net/DTD/sodipodi-0.dtd"
   xmlns="http://www.w3.org/2000/svg"
   xmlns:svg="http://www.w3.org/2000/svg">
  <sodipodi:namedview
     id="namedview1"
     pagecolor="#212121"
     bordercolor="#666666"
     borderopacity="1.0"
     inkscape:showpageshadow="2"
     inkscape:pageopacity="0.0"
     inkscape:pagecheckerboard="true"
     inkscape:deskcolor="#d1d1d1"
     inkscape:document-units="mm"
     inkscape:zoom="0.14201578"
     inkscape:cx="-77.456184"
     inkscape:cy="66.893977"
     inkscape:window-width="1366"
     inkscape:window-height="699"
     inkscape:window-x="0"
     inkscape:window-y="0"
     inkscape:window-maximized="1"
     inkscape:current-layer="layer1"
     showgrid="false"
     showguides="false" />
  <defs
     id="defs1" />
  <g
     inkscape:label="Layer 1"
     inkscape:groupmode="layer"
     id="layer1">
    <path
       id="path8"
       style="fill:#ffffff;stroke-width:6.61458;stroke-linecap:round;stroke-linejoin:round;stroke-dashoffset:47.2176;fill-opacity:1"
       d="M 48.367343,7.3493822 A 16.791744,19.652252 0 0 0 32.579676,20.448324 25.47983,20.98094 0 0 0 7.2396204,41.420684 a 25.47983,20.98094 0 0 0 2.718698,9.22941 H 131.30285 a 38.631836,17.727488 0 0 0 -6.02392,-8.04292 17.018187,17.859024 0 0 0 4.21318,-11.75432 17.018187,17.859024 0 0 0 -17.01809,-17.858856 17.018187,17.859024 0 0 0 -8.27494,2.304252 13.967868,16.914957 0 0 0 -6.18774,-1.754931 13.967868,16.914957 0 0 0 -6.61872,2.068607 A 24.047911,22.644297 0 0 0 73.615414,8.2149622 24.047911,22.644297 0 0 0 59.670012,12.475684 16.791744,19.652252 0 0 0 48.367343,7.3493822 Z"
       inkscape:label="cloud1" />
    <path
       id="path14"
       style="fill:#ffffff;stroke-width:6.61458;stroke-linecap:round;stroke-linejoin:round;stroke-dashoffset:47.2176;fill-opacity:1"
       d="M 184.16964 53.437048 A 23.508442 24.236059 0 0 0 162.73632 67.742635 A 16.791744 19.652252 0 0 0 159.84606 67.386584 A 16.791744 19.652252 0 0 0 148.54339 72.512887 A 24.047911 22.644297 0 0 0 134.59799 68.252165 A 24.047911 22.644297 0 0 0 116.82078 75.649129 A 13.967868 16.914957 0 0 0 112.14148 73.884896 A 13.599898 12.690796 0 0 0 98.596049 62.291805 A 13.599898 12.690796 0 0 0 84.995846 74.982503 A 13.599898 12.690796 0 0 0 85.161727 76.9059 A 17.018187 17.859024 0 0 0 78.721293 90.890059 A 17.018187 17.859024 0 0 0 82.934473 102.64438 A 38.631836 17.727488 0 0 0 76.910551 110.6873 L 198.25508 110.6873 A 25.47983 20.98094 0 0 0 200.97378 101.45789 A 25.47983 20.98094 0 0 0 199.86222 95.682532 A 23.508442 24.236059 0 0 0 207.67828 77.673295 A 23.508442 24.236059 0 0 0 184.16964 53.437048 z "
       inkscape:label="cloud2" />
    <path
       id="path17"
       style="fill:#ffffff;stroke-width:6.61458;stroke-linecap:round;stroke-linejoin:round;stroke-dashoffset:47.2176;fill-opacity:1"
       d="m 70.92366,115.73625 a 21.745186,19.102795 0 0 0 -20.323824,12.44782 17.106436,19.710527 0 0 0 -2.843238,-0.27957 17.106436,19.710527 0 0 0 -16.994311,17.90434 19.877031,17.674208 0 0 0 -9.359636,-2.0867 19.877031,17.674208 0 0 0 -19.8768224,17.67438 19.877031,17.674208 0 0 0 3.544486,9.85831 H 157.87701 a 13.683149,14.775404 0 0 0 0.30696,-3.09335 13.683149,14.775404 0 0 0 -13.68289,-14.77533 13.683149,14.775404 0 0 0 -7.01817,2.12132 19.657248,19.310923 0 0 0 -19.64532,-18.83193 19.657248,19.310923 0 0 0 -11.23445,3.51193 15.787737,10.070052 0 0 0 -12.665382,-4.06125 15.787737,10.070052 0 0 0 -1.37821,0.0579 21.745186,19.102795 0 0 0 0.10955,-1.34462 A 21.745186,19.102795 0 0 0 70.92366,115.73625 Z M 40.675377,165.5544 a 17.106436,19.710527 0 0 0 0.08992,0.0388 67.578239,13.758076 0 0 0 -0.104903,0.0212 19.877031,17.674208 0 0 0 0.01499,-0.06 z" />
    <path
       id="path17-5"
       style="fill:#ffffff;stroke-width:6.61458;stroke-linecap:round;stroke-linejoin:round;stroke-dashoffset:47.2176;fill-opacity:1"
       d="m 136.04676,184.11934 a 21.745186,19.102795 0 0 1 20.32382,12.44782 17.106436,19.710527 0 0 1 2.84324,-0.27957 17.106436,19.710527 0 0 1 16.99431,17.90434 19.877031,17.674208 0 0 1 9.35964,-2.0867 19.877031,17.674208 0 0 1 19.87682,17.67438 19.877031,17.674208 0 0 1 -3.54449,9.85831 H 49.093406 a 13.683149,14.775404 0 0 1 -0.30696,-3.09335 13.683149,14.775404 0 0 1 13.68289,-14.77533 13.683149,14.775404 0 0 1 7.01817,2.12132 19.657248,19.310923 0 0 1 19.64532,-18.83193 19.657248,19.310923 0 0 1 11.234454,3.51193 15.787737,10.070052 0 0 1 12.66538,-4.06125 15.787737,10.070052 0 0 1 1.37821,0.0579 21.745186,19.102795 0 0 1 -0.10955,-1.34462 21.745186,19.102795 0 0 1 21.74544,-19.10323 z m 30.24828,49.81815 a 17.106436,19.710527 0 0 1 -0.0899,0.0388 67.578239,13.758076 0 0 1 0.1049,0.0212 19.877031,17.674208 0 0 1 -0.015,-0.0599 z" />
    <path
       id="path26"
       style="fill:#ffffff;stroke-width:6.61458;stroke-linecap:round;stroke-linejoin:round;stroke-dashoffset:47.2176;fill-opacity:1"
       d="M 27.758512 245.88732 A 10.929951 11.902197 0 0 0 16.828947 257.78943 A 10.929951 11.902197 0 0 0 17.492989 261.78971 A 13.317053 8.5693645 0 0 0 5.3330078 270.31012 A 13.317053 8.5693645 0 0 0 18.650024 278.87962 A 13.317053 8.5693645 0 0 0 23.038904 278.38197 A 13.514902 8.6019993 0 0 0 33.209859 281.34768 A 13.514902 8.6019993 0 0 0 46.5677 274.00291 A 12.129281 10.301049 0 0 0 56.571224 263.88053 A 12.129281 10.301049 0 0 0 44.441732 253.57935 A 12.129281 10.301049 0 0 0 38.379053 254.98547 A 10.929951 11.902197 0 0 0 27.758512 245.88732 z " />
    <path
       id="path30"
       style="fill:#ffffff;stroke-width:6.61458;stroke-linecap:round;stroke-linejoin:round;stroke-dashoffset:47.2176;fill-opacity:1"
       d="M 26.545667 189.07011 A 9.7279005 9.9155502 0 0 0 18.956982 192.81459 A 10.604282 8.5102129 0 0 0 17.101282 192.68126 A 10.604282 8.5102129 0 0 0 6.4972778 201.19185 A 10.604282 8.5102129 0 0 0 17.101282 209.70193 A 10.604282 8.5102129 0 0 0 17.923971 209.65439 A 9.7809324 3.9399765 0 0 0 26.930656 212.06251 A 9.7809324 3.9399765 0 0 0 33.809823 210.92149 A 13.01722 10.287453 0 0 0 40.771672 212.52191 A 13.01722 10.287453 0 0 0 53.788965 202.23468 A 13.01722 10.287453 0 0 0 40.771672 191.94746 A 13.01722 10.287453 0 0 0 34.48265 193.25745 A 9.7279005 9.9155502 0 0 0 26.545667 189.07011 z " />
    <path
       id="path34"
       style="fill:#ffffff;stroke-width:6.61458;stroke-linecap:round;stroke-linejoin:round;stroke-dashoffset:47.2176;fill-opacity:1"
       d="M 141.20482 251.53297 A 12.191151 12.054493 0 0 0 131.75475 256.00556 A 14.449754 9.9774218 0 0 0 127.80564 255.62574 A 14.449754 9.9774218 0 0 0 113.35587 265.60343 A 14.449754 9.9774218 0 0 0 119.09351 273.55798 A 12.805774 11.436471 0 0 0 118.39897 277.20117 A 12.805774 11.436471 0 0 0 131.20491 288.63768 A 12.805774 11.436471 0 0 0 141.07614 284.45964 A 7.2034597 8.7597332 0 0 0 145.12499 285.99133 A 7.2034597 8.7597332 0 0 0 152.15712 279.02741 A 12.25642 11.107403 0 0 0 156.81937 279.88576 A 12.25642 11.107403 0 0 0 166.66373 275.34805 A 13.118525 6.3821502 0 0 0 167.81456 275.38474 A 13.118525 6.3821502 0 0 0 180.93314 269.0027 A 13.118525 6.3821502 0 0 0 167.81456 262.62066 A 13.118525 6.3821502 0 0 0 167.03477 262.64547 A 12.25642 11.107403 0 0 0 156.81937 257.67109 A 12.25642 11.107403 0 0 0 152.25376 258.49688 A 12.191151 12.054493 0 0 0 141.20482 251.53297 z " />
    <path
       id="path30-2"
       style="fill:#ffffff;stroke-width:7.67953;stroke-linecap:round;stroke-linejoin:round;stroke-dashoffset:47.2176;fill-opacity:1"
       d="m 43.071811,75.93542 a 13.11244,9.9155502 0 0 1 10.228947,3.74448 14.293733,8.5102129 0 0 1 2.501336,-0.13333 14.293733,8.5102129 0 0 1 14.293359,8.51059 14.293733,8.5102129 0 0 1 -14.293359,8.51008 14.293733,8.5102129 0 0 1 -1.108919,-0.0475 13.183923,3.9399765 0 0 1 -12.140299,2.40812 13.183923,3.9399765 0 0 1 -9.272573,-1.14102 17.546183,10.287453 0 0 1 -9.384022,1.60042 A 17.546183,10.287453 0 0 1 6.3499999,89.10003 17.546183,10.287453 0 0 1 23.896281,78.81281 17.546183,10.287453 0 0 1 32.373385,80.1228 13.11244,9.9155502 0 0 1 43.071811,75.93546 Z" />
  </g>
</svg>
