<?xml version="1.0" encoding="UTF-8" standalone="no"?>
<!-- Created with Inkscape (http://www.inkscape.org/) -->

<svg
   width="210mm"
   height="297mm"
   viewBox="0 0 210 297"
   version="1.1"
   id="svg1"
   xml:space="preserve"
   inkscape:version="1.3 (0e150ed, 2023-07-21)"
   sodipodi:docname="blue.svg"
   inkscape:export-filename="../../../Games/Vertical Scroller/rocket.png"
   inkscape:export-xdpi="120"
   inkscape:export-ydpi="120"
   xmlns:inkscape="http://www.inkscape.org/namespaces/inkscape"
   xmlns:sodipodi="http://sodipodi.sourceforge.net/DTD/sodipodi-0.dtd"
   xmlns="http://www.w3.org/2000/svg"
   xmlns:svg="http://www.w3.org/2000/svg"><sodipodi:namedview
     id="namedview1"
     pagecolor="#8e8e8e"
     bordercolor="#666666"
     borderopacity="1.0"
     inkscape:showpageshadow="2"
     inkscape:pageopacity="0.0"
     inkscape:pagecheckerboard="true"
     inkscape:deskcolor="#d1d1d1"
     inkscape:document-units="mm"
     inkscape:zoom="0.4531823"
     inkscape:cx="209.62866"
     inkscape:cy="548.34445"
     inkscape:window-width="1366"
     inkscape:window-height="699"
     inkscape:window-x="0"
     inkscape:window-y="0"
     inkscape:window-maximized="1"
     inkscape:current-layer="layer1"
     showgrid="false" /><defs
     id="defs1" /><g
     inkscape:label="Layer 1"
     inkscape:groupmode="layer"
     id="layer1"><path
       id="path2"
       style="display:inline;stroke:#000000;stroke-width:2.26714;stroke-dasharray:none;stroke-opacity:1;fill:#1605f1;fill-opacity:1;stroke-linecap:round;stroke-linejoin:round;stroke-dashoffset:47.2176"
       inkscape:label="leg_right"
       d="M 135.30638 138.49345 C 135.11724 139.58897 134.91682 140.67532 134.69677 141.74261 C 134.45469 142.91679 134.19423 144.07285 133.91572 145.2093 C 133.63721 146.34579 133.34075 147.46263 133.02689 148.55766 C 132.71302 149.65273 132.38193 150.72608 132.03378 151.77598 C 131.68563 152.82588 131.32051 153.85231 130.93914 154.85332 C 130.55778 155.85432 130.15999 156.82998 129.74648 157.77835 C 129.33297 158.72671 128.90389 159.64776 128.45931 160.53975 C 128.01473 161.43174 127.55455 162.29472 127.07997 163.12659 C 126.60543 163.95846 126.11628 164.75913 125.61277 165.52714 C 125.10927 166.29516 124.59141 167.03048 124.06005 167.73087 C 123.53473 168.42332 122.99593 169.08066 122.44444 169.70342 C 132.34014 173.41095 157.7682 172.95414 157.7682 172.95414 C 150.49864 169.56041 138.61911 147.80807 135.30638 138.49345 z "
       transform="matrix(1.3232558,0,0,1.3232558,-39.52117,11.541872)" /><path
       id="path3"
       style="display:inline;stroke:#000000;stroke-width:2.26714;stroke-dasharray:none;stroke-opacity:1;fill:#1605f1;fill-opacity:1;stroke-linecap:round;stroke-linejoin:round;stroke-dashoffset:47.2176"
       inkscape:label="leg_left"
       d="M 83.314241 139.22685 C 79.838256 148.72222 68.151062 170.00143 60.969579 173.35404 C 60.969579 173.35404 86.409765 173.81101 96.300365 170.10058 C 96.574102 169.99789 96.830576 169.87033 97.075167 169.72607 L 96.057849 169.72607 C 95.499691 169.09699 94.954488 168.43128 94.423112 167.73087 C 93.891739 167.0305 93.373905 166.29554 92.870385 165.52753 C 92.366869 164.75953 91.877774 163.95845 91.403183 163.12659 C 90.928595 162.29473 90.468441 161.43173 90.023849 160.53975 C 89.579261 159.64777 89.150199 158.72671 88.736679 157.77835 C 88.323162 156.82999 87.925394 155.85432 87.544016 154.85332 C 87.162642 153.85232 86.797538 152.82627 86.449375 151.77637 C 86.101212 150.72647 85.770147 149.65273 85.45627 148.55766 C 85.142396 147.46263 84.845564 146.34619 84.567045 145.20969 C 84.288526 144.07323 84.028085 142.91679 83.785995 141.74261 C 83.61561 140.91623 83.466088 140.07038 83.314241 139.22685 z "
       transform="matrix(1.3232558,0,0,1.3232558,-39.52117,11.541872)" /><path
       id="path5"
       style="display:inline;stroke:#000000;stroke-width:2.26714;stroke-dasharray:none;stroke-opacity:1;fill:#1605f1;fill-opacity:1;stroke-linecap:round;stroke-linejoin:round;stroke-dashoffset:47.2176"
       inkscape:label="tip"
       d="m 109.24158,41.332808 c -5.92703,2.9e-5 -11.414976,6.902139 -15.919748,17.191687 a 22.435568,14.411161 0 0 0 1.813207,1.164545 22.435568,14.411161 0 0 0 4.253988,1.716748 22.435568,14.411161 0 0 0 4.742143,1.065742 22.435568,14.411161 0 0 0 4.99247,0.361626 22.435568,14.411161 0 0 0 4.99247,-0.361626 22.435568,14.411161 0 0 0 4.74175,-1.065742 22.435568,14.411161 0 0 0 4.25399,-1.716748 22.435568,14.411161 0 0 0 1.99754,-1.282874 C 120.6143,48.181807 115.14599,41.332831 109.24158,41.332808 Z m 1.50079,96.096462 c -0.73104,0 -1.31959,0.58855 -1.31959,1.31958 v 30.97722 h 2.63917 v -30.97722 c 0,-0.73103 -0.58855,-1.31958 -1.31958,-1.31958 z"
       transform="matrix(1.3232558,0,0,1.3232558,-39.52117,11.541872)" /><path
       id="circle8"
       style="display:inline;stroke:#000000;stroke-width:2.49385;stroke-dasharray:none;stroke-opacity:1;fill:#1605f1;fill-opacity:1;stroke-linecap:round;stroke-linejoin:round;stroke-dashoffset:47.2176"
       inkscape:label="outer ring"
       d="M 109.77504,85.973318 A 13.23053,13.23053 0 0 0 96.544443,99.20391 13.23053,13.23053 0 0 0 109.77504,112.4345 13.23053,13.23053 0 0 0 123.00563,99.20391 13.23053,13.23053 0 0 0 109.77504,85.973318 Z m 0,3.60845 a 9.6222038,9.6222038 0 0 1 9.62214,9.622142 9.6222038,9.6222038 0 0 1 -9.62214,9.62214 9.6222038,9.6222038 0 0 1 -9.62215,-9.62214 9.6222038,9.6222038 0 0 1 9.62215,-9.622142 z"
       transform="matrix(1.3232558,0,0,1.3232558,-39.52117,11.541872)" /><rect
       style="display:inline;stroke:#000000;stroke-width:2.26714;stroke-dasharray:none;stroke-opacity:1;fill:#1605f1;fill-opacity:1;stroke-linecap:round;stroke-linejoin:round;stroke-dashoffset:47.2176"
       id="rect1"
       width="2.6391168"
       height="37.317585"
       x="109.42294"
       y="137.4294"
       ry="1.3195584"
       transform="matrix(1.3232558,0,0,1.3232558,-39.52117,11.541872)" /></g></svg>
