<?xml version="1.0" encoding="UTF-8" standalone="no"?>
<!-- Created with Inkscape (http://www.inkscape.org/) -->

<svg
   width="200"
   height="200"
   viewBox="0 0 52.916665 52.916666"
   version="1.1"
   id="svg1"
   inkscape:version="1.3 (0e150ed, 2023-07-21)"
   sodipodi:docname="gear.svg"
   xmlns:inkscape="http://www.inkscape.org/namespaces/inkscape"
   xmlns:sodipodi="http://sodipodi.sourceforge.net/DTD/sodipodi-0.dtd"
   xmlns:xlink="http://www.w3.org/1999/xlink"
   xmlns="http://www.w3.org/2000/svg"
   xmlns:svg="http://www.w3.org/2000/svg">
  <sodipodi:namedview
     id="namedview1"
     pagecolor="#494949"
     bordercolor="#666666"
     borderopacity="1.0"
     inkscape:showpageshadow="2"
     inkscape:pageopacity="0.0"
     inkscape:pagecheckerboard="true"
     inkscape:deskcolor="#d1d1d1"
     inkscape:document-units="mm"
     inkscape:zoom="1.1817453"
     inkscape:cx="56.272702"
     inkscape:cy="95.19818"
     inkscape:window-width="1366"
     inkscape:window-height="699"
     inkscape:window-x="0"
     inkscape:window-y="0"
     inkscape:window-maximized="1"
     inkscape:current-layer="layer1"
     showgrid="false" />
  <defs
     id="defs1">
    <linearGradient
       id="linearGradient9"
       inkscape:collect="always">
      <stop
         style="stop-color:#94aaaa;stop-opacity:1;"
         offset="0"
         id="stop9" />
      <stop
         style="stop-color:#819999;stop-opacity:1;"
         offset="1"
         id="stop10" />
    </linearGradient>
    <radialGradient
       inkscape:collect="always"
       xlink:href="#linearGradient9"
       id="radialGradient10"
       cx="11.297624"
       cy="10.523136"
       fx="11.297624"
       fy="10.523136"
       r="32.16177"
       gradientTransform="matrix(1,0,0,0.97508855,0,0.26214654)"
       gradientUnits="userSpaceOnUse" />
  </defs>
  <g
     inkscape:label="Layer 1"
     inkscape:groupmode="layer"
     id="layer1">
    <path
       id="path6"
       style="fill:url(#radialGradient10);stroke-linecap:round;stroke-linejoin:round;paint-order:stroke markers fill;fill-opacity:1"
       inkscape:transform-center-x="-0.43603728"
       inkscape:transform-center-y="-1.7115522"
       d="M 4.1426848 -20.829415 C 3.8903773 -20.812858 3.6241836 -20.770148 3.3422851 -20.698321 C -1.1680918 -19.5491 1.461012 -13.751833 -2.4734826 -11.265075 C -6.4079764 -8.7783185 -10.515904 -13.640711 -13.48938 -10.059838 C -16.462856 -6.4789657 -10.928801 -3.3340096 -12.650195 0.99045726 C -14.371588 5.3149234 -20.552955 3.7960757 -20.853763 8.4408273 C -21.154571 13.085579 -14.829004 12.37672 -13.679784 16.887097 C -12.530562 21.397473 -18.424585 23.802484 -15.937828 27.736977 C -13.45107 31.671472 -8.7496218 27.37988 -5.1687492 30.353357 C -1.5878772 33.326833 -4.942573 38.736464 -0.61810671 40.457857 C 3.7063602 42.179251 4.9871936 35.943522 9.6319459 36.244332 C 14.276697 36.54514 14.742585 42.893992 19.252962 41.744771 C 23.763339 40.59555 21.134235 34.798282 25.06873 32.311525 C 29.003224 29.824767 33.111151 34.687159 36.084627 31.106287 C 39.058103 27.525415 33.524048 24.38046 35.245441 20.055992 C 36.966835 15.731526 43.148201 17.250374 43.44901 12.605622 C 43.749818 7.96087 37.424251 8.6697295 36.275031 4.1593526 C 35.12581 -0.35102367 41.019832 -2.7560339 38.533074 -6.6905276 C 36.046317 -10.625022 31.344869 -6.3334318 27.763996 -9.3069082 C 24.183124 -12.280384 27.537819 -17.690015 23.213354 -19.411408 C 18.888886 -21.132801 17.608053 -14.897074 12.963301 -15.197882 C 8.6088469 -15.479891 7.9272978 -21.077767 4.1426848 -20.829415 z M 11.297623 -2.758407 A 13.646414 13.281756 0 0 1 24.943909 10.523225 A 13.646414 13.281756 0 0 1 11.297623 23.804856 A 13.646414 13.281756 0 0 1 -2.3486625 10.523225 A 13.646414 13.281756 0 0 1 11.297623 -2.758407 z "
       transform="matrix(0.73279326,0,0,0.7529125,18.179511,18.535266)" />
    <path
       id="circle7"
       style="fill:#627171;stroke-linecap:round;stroke-linejoin:round;paint-order:stroke markers fill;fill-opacity:1"
       d="M 26.458333 11.458215 A 15 15 0 0 0 11.458215 26.458333 A 15 15 0 0 0 26.458333 41.458451 A 15 15 0 0 0 41.458451 26.458333 A 15 15 0 0 0 26.458333 11.458215 z M 26.458333 16.458427 A 10 10 0 0 1 36.45824 26.458333 A 10 10 0 0 1 26.458333 36.45824 A 10 10 0 0 1 16.458427 26.458333 A 10 10 0 0 1 26.458333 16.458427 z " />
  </g>
</svg>
