<?xml version="1.0" encoding="UTF-8" standalone="no"?>
<!-- Created with Inkscape (http://www.inkscape.org/) -->

<svg
   width="400mm"
   height="210mm"
   viewBox="0 0 400 210"
   version="1.1"
   id="svg1"
   xml:space="preserve"
   sodipodi:docname="title.svg"
   inkscape:version="1.3 (0e150ed, 2023-07-21)"
   inkscape:export-filename="../Icons/title.png"
   inkscape:export-xdpi="200"
   inkscape:export-ydpi="200"
   xmlns:inkscape="http://www.inkscape.org/namespaces/inkscape"
   xmlns:sodipodi="http://sodipodi.sourceforge.net/DTD/sodipodi-0.dtd"
   xmlns="http://www.w3.org/2000/svg"
   xmlns:svg="http://www.w3.org/2000/svg"><sodipodi:namedview
     id="namedview1"
     pagecolor="#ffffff"
     bordercolor="#666666"
     borderopacity="1.0"
     inkscape:showpageshadow="2"
     inkscape:pageopacity="0.0"
     inkscape:pagecheckerboard="0"
     inkscape:deskcolor="#d1d1d1"
     inkscape:document-units="mm"
     inkscape:zoom="0.32913018"
     inkscape:cx="612.21976"
     inkscape:cy="527.14704"
     inkscape:window-width="1366"
     inkscape:window-height="699"
     inkscape:window-x="0"
     inkscape:window-y="0"
     inkscape:window-maximized="1"
     inkscape:current-layer="layer1" /><defs
     id="defs1" /><g
     inkscape:label="Layer 1"
     inkscape:groupmode="layer"
     id="layer1"
     style="display:inline"><g
       id="g70"
       inkscape:label="Shadow"
       style="display:inline;opacity:0.377;stroke-width:13.2292;stroke-dasharray:none"
       transform="matrix(1.7264624,0,0,1.7264624,-126.36132,-46.407892)"><path
         id="path70"
         style="font-size:50.8px;line-height:1.25;font-family:Anton;-inkscape-font-specification:Anton;letter-spacing:1.38112px;word-spacing:0px;display:inline;opacity:1;fill:#ffffff;fill-opacity:1;stroke:#000000;stroke-width:13.2292;stroke-dasharray:none;stroke-opacity:1"
         inkscape:label="outliine"
         d="m 191.73558,41.024886 c -3.79353,-0.02145 -8.39645,1.223485 -6.84867,5.25756 1.53326,1.935718 3.77802,3.264521 6.26111,4.013709 -0.18882,1.184728 -0.37755,2.369581 -0.56637,3.554305 -1.30806,0.04504 -2.62876,0.265913 -3.94033,0.665592 l -0.87591,5.495789 c -0.76359,-0.28558 -1.85183,-0.28292 -2.59623,-0.484725 l 0.76636,-4.32015 c -8.65478,-1.532072 -17.23833,-3.109377 -25.90281,-4.634342 l -1.72237,9.7038 c -0.0562,-0.07323 -0.11152,-0.152214 -0.16795,-0.224276 -1.88205,-2.403322 -6.38223,-3.450303 -8.97206,-1.834513 -12.47982,7.78611 -15.64158,25.953271 -13.70615,42.080635 -1.23555,0.31345 -2.35175,0.37863 -3.05201,-0.472839 -8.1453,-9.90423 7.20916,-26.229036 7.42694,-37.746533 0.055,-2.909894 -8.01172,-2.820068 -8.73125,0 -0.41133,1.612154 -2.27329,5.527494 -4.32687,10.496 1.48174,-7.317451 0.0407,-14.671047 -2.61327,-17.575154 -6.31914,-6.91469 -27.714591,-4.647262 -27.714591,-4.647262 l -3.206005,61.510458 c 0.357301,-0.32569 0.714954,-0.63861 1.073319,-0.94361 1.194585,8.23512 8.354077,17.65768 15.426447,25.68473 7.89893,-10.13662 13.39715,-18.59766 14.28337,-25.82736 0.41405,0.34844 0.82875,0.70729 1.24437,1.08624 0,0 0.12891,-1.22293 0.21445,-3.05976 4.25288,2.65508 11.44519,2.1489 15.27556,-0.97772 1.02715,-0.16927 1.99541,-0.49601 2.56728,-0.95291 4.31703,-3.44916 -0.82816,-13.014495 3.71864,-16.154573 2.24605,-1.551155 6.24984,-0.886728 8.1132,1.107943 3.29464,3.526814 -2.51707,11.1192 0.97978,14.44563 1.49087,1.41821 4.7701,1.61602 6.17172,0.10955 0.57654,-0.61967 1.0943,-1.28344 1.57303,-1.97507 5.09181,3.06502 15.32003,2.1261 17.30489,0.41238 0.027,-0.0233 0.0504,-0.0493 0.077,-0.0729 l -0.43304,2.71715 c 0.018,0.006 0.0362,0.0112 0.0543,0.0171 0.14966,0.0955 0.30128,0.18888 0.45372,0.28112 0.70495,0.92036 2.51984,1.52777 3.90983,1.86552 2.90846,1.03391 6.03029,1.38142 8.97052,0.62787 0.0169,0.002 0.0337,0.004 0.0506,0.006 0.087,-0.54603 0.17394,-1.0921 0.26096,-1.63814 14.97552,2.31431 61.56982,2.28795 62.81994,-1.53324 0.0768,-0.2346 0.0229,-0.6945 -0.13642,-1.33222 0.12874,-0.10559 0.2633,-0.20629 0.38189,-0.32039 5.34164,-5.13969 -1.5916,-19.785913 0.42839,-22.234303 0.84517,-1.0244 4.5808,-0.308253 7.79384,0.236678 -0.32045,9.757824 0.11799,18.514905 2.27687,20.856095 3.31365,3.59346 11.1393,3.67132 14.66163,0.28215 5.77897,-5.560493 -1.72184,-21.405504 0.46354,-24.054346 1.63917,-1.986801 13.40145,2.101655 13.75007,0.2651 0.43509,-2.292107 1.81078,-9.055572 0.19688,-10.219015 -1.14477,-0.825256 -10.57151,3.03885 -13.75006,-0.264583 -1.95105,-2.027707 -1.86544,-6.489265 0.16226,-8.440312 3.48254,-3.350874 13.20284,1.499709 14.49628,0.279053 2.50695,-2.365884 2.99853,-8.328304 0.19895,-10.339421 -2.19974,-1.580215 -26.23995,-9.834531 -29.15739,-0.561723 -0.20734,0.659006 -0.47371,2.045288 -0.76326,3.892269 -6.91,-2.422249 -21.23164,-5.777037 -23.36499,1.003557 -0.59767,1.899651 -1.70391,9.977245 -2.43292,19.06757 -7.57716,-13.565941 -15.86263,-26.271982 -19.08876,-26.143107 -1.69648,0.06777 -5.33531,4.511023 -9.5896,10.834997 -3.42987,-0.599861 -6.86163,-1.201595 -10.29807,-1.812809 -0.24948,1.405879 -0.4988,2.811435 -0.74828,4.217314 -0.5077,-0.314083 -1.05058,-0.466489 -1.55288,-0.475424 0.24054,-1.509289 0.48086,-3.018606 0.72141,-4.527889 -1.07861,-0.957106 -2.22953,-1.700013 -3.42718,-2.253609 0.10923,-0.942104 0.17102,-2.000561 0.38757,-2.680456 -0.0518,-0.604618 -0.25805,-1.032714 -0.56689,-1.337386 2.05205,-0.02245 4.05207,-0.396579 5.76347,-1.112594 5.17867,-3.924318 -3.46193,-8.42993 -7.16184,-8.502323 -0.82687,-0.232175 -2.00143,-0.379908 -3.26595,-0.387057 z m -33.12356,22.669417 c 1.52734,0.270774 3.04985,0.544808 4.5744,0.817522 -0.76329,1.600265 -1.20595,3.365242 -1.32808,5.048787 -0.0155,0.214045 -0.0224,0.428221 -0.0253,0.642338 -0.96003,-2.34911 -2.05061,-4.544406 -3.221,-6.508647 z m 101.03466,1.153418 c 1.7149,-0.04287 3.66151,0.371521 5.41156,0.782382 -0.28612,2.813788 -0.54809,5.83159 -0.76688,8.92762 -2.92714,0.528822 -6.41655,0.926348 -8.07858,-0.800985 -1.80339,-1.874259 -1.72387,-5.997673 0.15038,-7.801074 0.80475,-0.774324 1.96989,-1.075107 3.28352,-1.107943 z M 198.73671,65.2632 c 0.91848,0.185814 1.92999,0.254067 1.32085,1.435054 -0.23665,1.333266 -0.47339,2.66649 -0.71004,3.999756 1.7334,0.307892 3.46351,0.610724 5.19452,0.91519 -3.43087,5.823881 -6.79463,11.977927 -9.61544,17.557068 1.27005,-7.969016 2.54,-15.938053 3.81011,-23.907068 z m -13.9945,1.167887 -2.94297,18.462439 c -0.0768,-0.145024 -0.14959,-0.292789 -0.22841,-0.436149 -0.74092,-1.347627 -1.76538,-2.538015 -2.71353,-3.763078 -1.60439,-2.072943 -3.49672,-3.941268 -5.02915,-6.062679 -0.68954,-0.954548 -1.48056,-1.888568 -1.865,-2.986898 -0.25112,-0.715086 -0.38702,-1.50519 -0.25322,-2.247924 0.10212,-0.566868 0.27671,-1.240156 0.78238,-1.557011 3.21306,-2.013357 8.84749,2.157521 11.5409,-0.453719 0.27968,-0.331666 0.50722,-0.647632 0.709,-0.954981 z m -20.04167,12.970268 c 0.2281,0.406409 0.46067,0.807705 0.69763,1.200444 1.29971,2.154136 3.95079,3.359495 5.31802,5.475634 0.59449,0.920105 0.99799,1.971241 1.18753,3.035474 0.21813,1.224847 0.15543,2.504017 -0.0806,3.725871 -0.16311,0.844335 -0.24612,1.843798 -0.91053,2.426208 -0.50706,0.444475 -1.33108,0.672037 -1.99988,0.510047 -1.39411,-0.337666 -2.27978,-1.936563 -3.1502,-3.379122 0.32066,-4.192344 -0.10576,-8.655091 -1.06195,-12.994556 z m -42.99789,1.299662 c -0.99018,2.934704 -1.85884,5.980637 -2.44636,8.974646 -1.32913,-1.187392 -3.04957,-1.791418 -5.27875,-1.475879 3.41228,-1.867885 5.93205,-4.506092 7.72511,-7.498767 z m 61.89441,12.069031 c 0.23935,0.117805 0.48077,0.231998 0.72812,0.334347 -0.0757,0.475218 -0.15112,0.950534 -0.22686,1.425752 -0.23306,-0.02361 -0.4672,-0.03779 -0.70073,-0.05736 0.10213,-0.561335 0.16698,-1.130458 0.19947,-1.702739 z m 8.82324,1.513603 h 0.006 c -0.29135,0.617581 -0.58026,1.231424 -0.84853,1.819527 -0.51272,-0.166484 -1.02509,-0.335776 -1.54254,-0.47749 0.0549,-0.44762 0.12266,-0.864049 0.22686,-1.191142 -0.002,-0.02586 -0.005,-0.05076 -0.008,-0.07596 0.72473,0.02988 1.44867,0.0067 2.1668,-0.07493 z m -50.16029,-12.86165 c 1.26811,2.484206 6.25774,3.344631 8.25065,1.393296 3.3518,-3.281877 2.58321,-13.190898 -2.05032,-13.922769 -4.60284,-0.727022 -8.31899,8.379062 -6.20033,12.529473 z"
         sodipodi:nodetypes="sccccccccccsccsscsccccccccssssscsccccccccsccscsssssssssscscsccccccccccsccsccsccsssccccccccssscsscccsssssscccccccccccccccccc" /></g><g
       id="g63"
       inkscape:label="Title"
       style="display:inline"
       transform="translate(5.699483,-1.2834166)"
       sodipodi:insensitive="true"><g
         id="g42"
         inkscape:label="Shadow"
         style="display:inline;stroke-width:13.2292;stroke-dasharray:none"
         transform="matrix(1.7264624,0,0,1.7264624,-141.15202,-56.537556)"><path
           id="path34"
           style="font-size:50.8px;line-height:1.25;font-family:Anton;-inkscape-font-specification:Anton;letter-spacing:1.38112px;word-spacing:0px;display:inline;opacity:1;fill:#ffffff;fill-opacity:1;stroke:#000000;stroke-width:13.2292;stroke-dasharray:none;stroke-opacity:1"
           inkscape:label="outliine"
           d="m 191.73558,41.024886 c -3.79353,-0.02145 -8.39645,1.223485 -6.84867,5.25756 1.53326,1.935718 3.77802,3.264521 6.26111,4.013709 -0.18882,1.184728 -0.37755,2.369581 -0.56637,3.554305 -1.30806,0.04504 -2.62876,0.265913 -3.94033,0.665592 l -0.87591,5.495789 c -0.76359,-0.28558 -1.85183,-0.28292 -2.59623,-0.484725 l 0.76636,-4.32015 c -8.65478,-1.532072 -17.23833,-3.109377 -25.90281,-4.634342 l -1.72237,9.7038 c -0.0562,-0.07323 -0.11152,-0.152214 -0.16795,-0.224276 -1.88205,-2.403322 -6.38223,-3.450303 -8.97206,-1.834513 -12.47982,7.78611 -15.64158,25.953271 -13.70615,42.080635 -1.23555,0.31345 -2.35175,0.37863 -3.05201,-0.472839 -8.1453,-9.90423 7.20916,-26.229036 7.42694,-37.746533 0.055,-2.909894 -8.01172,-2.820068 -8.73125,0 -0.41133,1.612154 -2.27329,5.527494 -4.32687,10.496 1.48174,-7.317451 0.0407,-14.671047 -2.61327,-17.575154 -6.31914,-6.91469 -27.714591,-4.647262 -27.714591,-4.647262 l -3.206005,61.510458 c 0.357301,-0.32569 0.714954,-0.63861 1.073319,-0.94361 1.194585,8.23512 8.354077,17.65768 15.426447,25.68473 7.89893,-10.13662 13.39715,-18.59766 14.28337,-25.82736 0.41405,0.34844 0.82875,0.70729 1.24437,1.08624 0,0 0.12891,-1.22293 0.21445,-3.05976 4.25288,2.65508 11.44519,2.1489 15.27556,-0.97772 1.02715,-0.16927 1.99541,-0.49601 2.56728,-0.95291 4.31703,-3.44916 -0.82816,-13.014495 3.71864,-16.154573 2.24605,-1.551155 6.24984,-0.886728 8.1132,1.107943 3.29464,3.526814 -2.51707,11.1192 0.97978,14.44563 1.49087,1.41821 4.7701,1.61602 6.17172,0.10955 0.57654,-0.61967 1.0943,-1.28344 1.57303,-1.97507 5.09181,3.06502 15.32003,2.1261 17.30489,0.41238 0.027,-0.0233 0.0504,-0.0493 0.077,-0.0729 l -0.43304,2.71715 c 0.018,0.006 0.0362,0.0112 0.0543,0.0171 0.14966,0.0955 0.30128,0.18888 0.45372,0.28112 0.70495,0.92036 2.51984,1.52777 3.90983,1.86552 2.90846,1.03391 6.03029,1.38142 8.97052,0.62787 0.0169,0.002 0.0337,0.004 0.0506,0.006 0.087,-0.54603 0.17394,-1.0921 0.26096,-1.63814 14.97552,2.31431 61.56982,2.28795 62.81994,-1.53324 0.0768,-0.2346 0.0229,-0.6945 -0.13642,-1.33222 0.12874,-0.10559 0.2633,-0.20629 0.38189,-0.32039 5.34164,-5.13969 -1.5916,-19.785913 0.42839,-22.234303 0.84517,-1.0244 4.5808,-0.308253 7.79384,0.236678 -0.32045,9.757824 0.11799,18.514905 2.27687,20.856095 3.31365,3.59346 11.1393,3.67132 14.66163,0.28215 5.77897,-5.560493 -1.72184,-21.405504 0.46354,-24.054346 1.63917,-1.986801 13.40145,2.101655 13.75007,0.2651 0.43509,-2.292107 1.81078,-9.055572 0.19688,-10.219015 -1.14477,-0.825256 -10.57151,3.03885 -13.75006,-0.264583 -1.95105,-2.027707 -1.86544,-6.489265 0.16226,-8.440312 3.48254,-3.350874 13.20284,1.499709 14.49628,0.279053 2.50695,-2.365884 2.99853,-8.328304 0.19895,-10.339421 -2.19974,-1.580215 -26.23995,-9.834531 -29.15739,-0.561723 -0.20734,0.659006 -0.47371,2.045288 -0.76326,3.892269 -6.91,-2.422249 -21.23164,-5.777037 -23.36499,1.003557 -0.59767,1.899651 -1.70391,9.977245 -2.43292,19.06757 -7.57716,-13.565941 -15.86263,-26.271982 -19.08876,-26.143107 -1.69648,0.06777 -5.33531,4.511023 -9.5896,10.834997 -3.42987,-0.599861 -6.86163,-1.201595 -10.29807,-1.812809 -0.24948,1.405879 -0.4988,2.811435 -0.74828,4.217314 -0.5077,-0.314083 -1.05058,-0.466489 -1.55288,-0.475424 0.24054,-1.509289 0.48086,-3.018606 0.72141,-4.527889 -1.07861,-0.957106 -2.22953,-1.700013 -3.42718,-2.253609 0.10923,-0.942104 0.17102,-2.000561 0.38757,-2.680456 -0.0518,-0.604618 -0.25805,-1.032714 -0.56689,-1.337386 2.05205,-0.02245 4.05207,-0.396579 5.76347,-1.112594 5.17867,-3.924318 -3.46193,-8.42993 -7.16184,-8.502323 -0.82687,-0.232175 -2.00143,-0.379908 -3.26595,-0.387057 z m -33.12356,22.669417 c 1.52734,0.270774 3.04985,0.544808 4.5744,0.817522 -0.76329,1.600265 -1.20595,3.365242 -1.32808,5.048787 -0.0155,0.214045 -0.0224,0.428221 -0.0253,0.642338 -0.96003,-2.34911 -2.05061,-4.544406 -3.221,-6.508647 z m 101.03466,1.153418 c 1.7149,-0.04287 3.66151,0.371521 5.41156,0.782382 -0.28612,2.813788 -0.54809,5.83159 -0.76688,8.92762 -2.92714,0.528822 -6.41655,0.926348 -8.07858,-0.800985 -1.80339,-1.874259 -1.72387,-5.997673 0.15038,-7.801074 0.80475,-0.774324 1.96989,-1.075107 3.28352,-1.107943 z M 198.73671,65.2632 c 0.91848,0.185814 1.92999,0.254067 1.32085,1.435054 -0.23665,1.333266 -0.47339,2.66649 -0.71004,3.999756 1.7334,0.307892 3.46351,0.610724 5.19452,0.91519 -3.43087,5.823881 -6.79463,11.977927 -9.61544,17.557068 1.27005,-7.969016 2.54,-15.938053 3.81011,-23.907068 z m -13.9945,1.167887 -2.94297,18.462439 c -0.0768,-0.145024 -0.14959,-0.292789 -0.22841,-0.436149 -0.74092,-1.347627 -1.76538,-2.538015 -2.71353,-3.763078 -1.60439,-2.072943 -3.49672,-3.941268 -5.02915,-6.062679 -0.68954,-0.954548 -1.48056,-1.888568 -1.865,-2.986898 -0.25112,-0.715086 -0.38702,-1.50519 -0.25322,-2.247924 0.10212,-0.566868 0.27671,-1.240156 0.78238,-1.557011 3.21306,-2.013357 8.84749,2.157521 11.5409,-0.453719 0.27968,-0.331666 0.50722,-0.647632 0.709,-0.954981 z m -20.04167,12.970268 c 0.2281,0.406409 0.46067,0.807705 0.69763,1.200444 1.29971,2.154136 3.95079,3.359495 5.31802,5.475634 0.59449,0.920105 0.99799,1.971241 1.18753,3.035474 0.21813,1.224847 0.15543,2.504017 -0.0806,3.725871 -0.16311,0.844335 -0.24612,1.843798 -0.91053,2.426208 -0.50706,0.444475 -1.33108,0.672037 -1.99988,0.510047 -1.39411,-0.337666 -2.27978,-1.936563 -3.1502,-3.379122 0.32066,-4.192344 -0.10576,-8.655091 -1.06195,-12.994556 z m -42.99789,1.299662 c -0.99018,2.934704 -1.85884,5.980637 -2.44636,8.974646 -1.32913,-1.187392 -3.04957,-1.791418 -5.27875,-1.475879 3.41228,-1.867885 5.93205,-4.506092 7.72511,-7.498767 z m 61.89441,12.069031 c 0.23935,0.117805 0.48077,0.231998 0.72812,0.334347 -0.0757,0.475218 -0.15112,0.950534 -0.22686,1.425752 -0.23306,-0.02361 -0.4672,-0.03779 -0.70073,-0.05736 0.10213,-0.561335 0.16698,-1.130458 0.19947,-1.702739 z m 8.82324,1.513603 h 0.006 c -0.29135,0.617581 -0.58026,1.231424 -0.84853,1.819527 -0.51272,-0.166484 -1.02509,-0.335776 -1.54254,-0.47749 0.0549,-0.44762 0.12266,-0.864049 0.22686,-1.191142 -0.002,-0.02586 -0.005,-0.05076 -0.008,-0.07596 0.72473,0.02988 1.44867,0.0067 2.1668,-0.07493 z m -50.16029,-12.86165 c 1.26811,2.484206 6.25774,3.344631 8.25065,1.393296 3.3518,-3.281877 2.58321,-13.190898 -2.05032,-13.922769 -4.60284,-0.727022 -8.31899,8.379062 -6.20033,12.529473 z"
           sodipodi:nodetypes="sccccccccccsccsscsccccccccssssscsccccccccsccscsssssssssscscsccccccccccsccsccsccsssccccccccssscsscccsssssscccccccccccccccccc" /></g><g
         id="g62"
         inkscape:label="Name"
         style="display:inline;stroke-width:1.32292;stroke-dasharray:none;paint-order:markers fill stroke"
         transform="matrix(1.7264624,0,0,1.7264624,-141.86517,-53.334656)"><path
           style="font-size:50.8px;line-height:1.25;font-family:Anton;-inkscape-font-specification:Anton;letter-spacing:1.38112px;word-spacing:0px;display:inline;opacity:1;fill:#ffffff;fill-opacity:1;stroke:#000000;stroke-width:1.32292;stroke-dasharray:none;stroke-opacity:1;paint-order:markers fill stroke"
           d="m 266.10164,104.29482 c -5.18577,-5.623677 -0.51453,-48.168513 1.02219,-53.052821 2.91745,-9.272818 26.95767,-1.018431 29.15741,0.561786 2.79958,2.011119 2.30775,7.973385 -0.19921,10.339271 -1.29344,1.220657 -11.01333,-3.630176 -14.49587,-0.279298 -2.02771,1.951049 -2.11367,6.412513 -0.16262,8.440222 3.17855,3.303436 12.60558,-0.560324 13.75036,0.264933 1.6139,1.163444 0.2382,7.926587 -0.19689,10.218696 -0.34862,1.836557 -12.11119,-2.251736 -13.75036,-0.264933 -2.18538,2.648845 5.3155,18.494136 -0.46347,24.054634 -3.52234,3.38917 -11.34788,3.31098 -14.66154,-0.28249 z"
           id="path48"
           sodipodi:nodetypes="ssssaasssas"
           inkscape:label="F" /><path
           style="font-size:50.8px;line-height:1.25;font-family:Anton;-inkscape-font-specification:Anton;letter-spacing:1.38112px;word-spacing:0px;display:inline;opacity:1;fill:#ffffff;fill-opacity:1;stroke:#000000;stroke-width:1.32292;stroke-dasharray:none;stroke-opacity:1;paint-order:markers fill stroke"
           d="m 242.05045,105.17553 c -4.79334,-5.198094 -0.47559,-44.523339 0.94483,-49.038026 2.69668,-8.571095 24.91765,-0.941361 26.95092,0.519273 2.58772,1.858927 2.13311,7.369997 -0.18413,9.556844 -1.19556,1.128284 -10.1799,-3.355461 -13.3989,-0.258162 -1.87426,1.803403 -1.95371,5.927245 -0.15031,7.801506 2.93801,3.053448 11.65165,-0.517921 12.7098,0.244884 1.49177,1.0754 0.22017,7.326741 -0.18199,9.445394 -0.32224,1.697575 -11.19467,-2.081335 -12.7098,-0.244884 -2.02,2.448393 4.91325,17.094591 -0.4284,22.234281 -3.25578,3.1327 -10.48912,3.06042 -13.55202,-0.26111 z"
           id="path49"
           sodipodi:nodetypes="ssssaasssas"
           inkscape:label="F" /><path
           id="path50"
           style="display:inline;fill:#ffffff;fill-opacity:1;stroke:#000000;stroke-width:3.06312;stroke-linecap:round;stroke-linejoin:round;stroke-dasharray:none;stroke-dashoffset:47.2176;stroke-opacity:1;paint-order:markers fill stroke"
           inkscape:transform-center-x="-3.007"
           inkscape:transform-center-y="-24.987513"
           transform="matrix(0.4318853,0,0,0.4318853,176.88257,10.552182)"
           d="M 181.70195,223.52485 C 178.37007,233.70923 35.868453,232.25564 26.117454,224.28969 18.260263,217.87086 89.190994,89.728659 103.24733,89.167147 118.71066,88.54943 184.43381,215.17453 181.70195,223.52485 Z"
           sodipodi:nodetypes="ssss"
           inkscape:label="Warning_board" /><path
           id="path51"
           style="display:inline;fill:#000000;fill-opacity:1;stroke:#000000;stroke-width:3.06312;stroke-linecap:round;stroke-linejoin:round;stroke-dasharray:none;stroke-dashoffset:47.2176;stroke-opacity:1;paint-order:markers fill stroke"
           d="m 104.99974,112.24749 c -4.76559,0 -8.602057,6.82243 -8.602057,15.29674 v 31.94327 c 0,8.47431 3.836467,15.29674 8.602057,15.29674 4.7656,0 8.60258,-6.82243 8.60258,-15.29674 v -31.94327 c 0,-8.47431 -3.83698,-15.29674 -8.60258,-15.29674 z m 0,70.11975 a 9.8974905,9.8974905 0 0 0 -9.897069,9.89707 9.8974905,9.8974905 0 0 0 9.897069,9.89759 9.8974905,9.8974905 0 0 0 9.89759,-9.89759 9.8974905,9.8974905 0 0 0 -9.89759,-9.89707 z"
           transform="matrix(0.4318853,0,0,0.4318853,176.41168,14.105915)"
           inkscape:label="Warning_mark" /><path
           id="path52"
           style="display:inline;fill:#ffffff;fill-opacity:1;stroke:#000000;stroke-width:3.37126;stroke-linecap:round;stroke-linejoin:round;stroke-dasharray:none;stroke-dashoffset:47.2176;stroke-opacity:1;paint-order:markers fill stroke"
           d="m 94.613847,90.113004 c -9.528066,1.635578 -20.523013,6.809122 -14.842905,16.241906 4.70923,4.17417 10.933398,6.50864 17.497455,7.28265 0.05382,3.05674 0.107931,6.11374 0.161747,9.17047 -3.262044,0.69554 -6.477498,1.83789 -9.590417,3.42483 l 0.249675,14.17978 c -2.043114,-0.37651 -4.772471,0.11475 -6.730151,-0.0601 l -0.001,-11.18114 c -22.398367,0.0101 -44.638053,-0.12505 -67.057581,-0.0928 l -4.43e-4,32.65729 c 22.414138,-0.034 44.677016,0.0829 67.058333,0.0819 l 3.7e-5,-12.83311 c 2.122404,-0.17526 4.879654,0.37012 6.879736,-0.10693 l 1.266028,71.94029 c -0.0033,0.001 -0.0068,0.002 -0.01014,0.003 0.0035,10e-4 0.0068,0.003 0.01023,0.005 l 0.01314,0.71456 c 2.457124,0.83604 4.926137,1.47385 7.401266,1.94983 0.755584,0.22696 1.520619,0.427 2.294122,0.59727 0.02159,1.22612 0.04413,2.45232 0.06572,3.67844 -2.686693,0.20109 -5.367576,0.50715 -8.037946,0.92105 l 0.596239,33.87148 c 0.0479,0.007 0.09584,0.012 0.143741,0.0186 0.418045,0.17293 0.840073,0.33975 1.263636,0.50331 2.178689,1.99535 7.003001,2.7112 10.641111,2.93966 7.75815,1.29898 15.74601,0.78066 22.78787,-2.41948 0.0432,-0.003 0.0866,-0.004 0.12983,-0.007 -0.19879,-11.29082 -0.39768,-22.58196 -0.59647,-33.87278 -3.8392,-0.88976 -7.69115,-1.4956 -11.5444,-1.84979 -0.0617,-1.14757 -0.077,-2.22264 0.0388,-3.08977 -0.0171,-0.0639 -0.0364,-0.12491 -0.0546,-0.18692 1.83174,-0.24778 3.63792,-0.62822 5.40342,-1.15296 1.41869,-0.25168 2.83264,-0.54271 4.24155,-0.87185 -0.004,-0.23508 -0.009,-0.47016 -0.0128,-0.70525 0.0103,-0.005 0.0207,-0.009 0.031,-0.0135 -0.0103,-0.005 -0.0206,-0.0106 -0.0309,-0.0159 -0.43442,-24.67429 -0.86951,-49.34843 -1.30393,-74.02271 2.38735,0.0572 4.95577,-0.22201 3.95327,3.01253 -4e-5,3.45074 -3.1e-4,6.9014 -3.4e-4,10.35214 22.38292,0.003 44.64493,-0.11513 67.05879,-0.0813 l 2.1e-4,-32.65859 c -22.41245,-0.0326 -44.67469,0.10158 -67.05931,0.0934 1.1e-4,3.63865 4.9e-4,7.27641 6e-4,10.91506 -1.41377,-0.56198 -2.84381,-0.70262 -4.10811,-0.50135 -0.0686,-3.89414 -0.13777,-7.78824 -0.20633,-11.68237 -3.13262,-1.92117 -6.35125,-3.27268 -9.60288,-4.12837 -0.14546,-2.41252 -0.4618,-5.09585 -0.22123,-6.89824 -0.39924,-1.494 -1.10739,-2.4763 -2.01799,-3.10323 5.1389,-0.97019 9.99059,-2.7996 13.96587,-5.35833 11.24637,-12.152913 -12.4406,-19.610144 -21.75642,-18.144091 -2.17813,-0.214323 -5.191071,-0.06193 -8.367093,0.483265 z"
           sodipodi:nodetypes="scccccccccccccccccccccccccccccccccccccccccccccccccs"
           transform="matrix(0.38637202,0.06857535,-0.06857535,0.38637202,161.35897,-0.28043579)"
           inkscape:label="Satellite" /><path
           style="font-size:50.8px;line-height:1.25;font-family:Anton;-inkscape-font-specification:Anton;letter-spacing:1.38112px;word-spacing:0px;opacity:1;fill:#ffffff;fill-opacity:1;stroke:#000000;stroke-width:1.32292;stroke-dasharray:none;stroke-opacity:1;paint-order:markers fill stroke"
           d="m 160.06167,102.841 c -2.73926,-3.489012 -1.87829,-11.497548 2.48281,-12.83903 2.79255,-0.858995 3.52406,5.08433 6.36846,5.773271 0.6688,0.161991 1.49259,-0.06597 1.99965,-0.510445 0.66442,-0.582411 0.74725,-1.581617 0.91036,-2.425953 0.23605,-1.221855 0.29873,-2.501042 0.0806,-3.72589 -0.18954,-1.064234 -0.59276,-2.115492 -1.18725,-3.035598 -1.36724,-2.116141 -4.01833,-3.321395 -5.31804,-5.475534 -2.01428,-3.338455 -3.81852,-7.203386 -3.54009,-11.041405 0.23704,-3.267403 1.67127,-6.846002 4.34273,-8.919073 2.4236,-1.880733 7.36474,-2.286025 9.13816,-2.057059 3.15575,0.407438 14.43401,1.994575 8.69403,8.801559 -2.69341,2.611243 -8.3275,-1.55951 -11.54056,0.453849 -0.50567,0.316856 -0.68064,0.990263 -0.78276,1.557131 -0.1338,0.742735 0.002,1.532654 0.25312,2.247741 0.38444,1.098331 1.17559,2.032341 1.86513,2.98689 1.53243,2.121413 3.42511,3.989691 5.0295,6.062636 0.94815,1.225064 1.9725,2.415767 2.71342,3.763395 0.7614,1.384882 1.44385,2.847666 1.74759,4.382928 0.37366,1.888628 0.42115,3.874283 0.0574,5.764651 -0.69141,3.593193 -1.3361,7.755506 -4.18287,10.213416 -2.26793,1.95813 -15.29842,2.90459 -19.13138,-1.97748 z"
           id="path53"
           sodipodi:nodetypes="aaaaaaaaaasaaaaaaaaaaa"
           inkscape:label="S" /><path
           d="m 134.55956,106.89738 c -3.73339,-17.453422 -1.61073,-39.807024 12.61063,-48.679674 2.58984,-1.615792 7.08994,-0.568681 8.97199,1.834644 8.48755,10.838402 14.7352,34.976994 4.17332,46.329 -1.40162,1.50647 -4.68116,1.3086 -6.17203,-0.10961 -3.49686,-3.32643 2.31517,-10.918905 -0.97948,-14.445723 -1.86336,-1.994673 -5.86749,-2.659343 -8.11354,-1.108187 -4.5468,3.140081 0.5983,12.70548 -3.71873,16.15464 -1.62558,1.29878 -6.43975,1.57892 -6.77216,0.0249 z m 8.92764,-25.375272 c 1.26811,2.484206 6.25774,3.344631 8.25065,1.393296 3.3518,-3.281877 2.58321,-13.190898 -2.05032,-13.922769 -4.60284,-0.727022 -8.31899,8.379062 -6.20033,12.529473 z"
           style="font-size:50.8px;line-height:1.25;font-family:Anton;-inkscape-font-specification:Anton;letter-spacing:1.38112px;word-spacing:0px;display:inline;opacity:1;fill:#ffffff;fill-opacity:1;stroke:#000000;stroke-width:1.32292;stroke-dasharray:none;stroke-opacity:1;paint-order:markers fill stroke"
           id="path54"
           inkscape:label="A"
           sodipodi:nodetypes="aasaaaaasaaaaa" /><path
           style="font-size:50.8px;line-height:1.25;font-family:Anton;-inkscape-font-specification:Anton;letter-spacing:1.38112px;word-spacing:0px;opacity:1;fill:#ffffff;fill-opacity:1;stroke:#000000;stroke-width:1.32292;stroke-dasharray:none;stroke-opacity:1;paint-order:markers fill stroke"
           d="m 121.68069,107.2666 c -9.87978,-11.636238 6.11835,-40.057617 7.42731,-45.187872 0.71953,-2.820071 8.78627,-2.909897 8.73125,0 -0.21778,11.517508 -15.57262,27.842229 -7.42731,37.746469 1.90119,2.311733 6.86285,-2.116439 8.97929,0 1.75396,1.753953 1.75396,5.687443 0,7.441403 -4.17441,4.17441 -13.88961,4.50022 -17.71054,0 z"
           id="path55"
           sodipodi:nodetypes="assaaaa"
           inkscape:label="L" /><g
           id="g58"
           inkscape:label="Flame"
           style="stroke-width:1.32292;stroke-dasharray:none;paint-order:markers fill stroke"><path
             id="path56"
             style="display:inline;fill:#ffffff;stroke:#000000;stroke-width:1.32292;stroke-linecap:round;stroke-linejoin:round;stroke-dasharray:none;stroke-dashoffset:47.2176;paint-order:markers fill stroke"
             inkscape:transform-center-x="0.3620864"
             inkscape:transform-center-y="4.6284626"
             d="m 93.566331,102.7199 c 4.343845,-8.067818 21.133359,-9.229254 26.228309,-1.67202 6.14717,9.11795 -0.30594,20.48809 -12.04779,35.55629 C 98.166164,125.73021 88.412159,112.29273 93.566331,102.7199 Z"
             sodipodi:nodetypes="cccc"
             inkscape:label="flameout" /><path
             id="path57"
             style="display:inline;fill:#ffffff;stroke:#000000;stroke-width:1.32292;stroke-linecap:round;stroke-linejoin:round;stroke-dasharray:none;stroke-dashoffset:47.2176;paint-order:markers fill stroke"
             inkscape:transform-center-x="0.18907065"
             inkscape:transform-center-y="2.5977103"
             d="m 99.640456,105.06168 c 2.268224,-4.52804 11.035214,-5.179889 13.695644,-0.93842 3.20987,5.11743 -0.15975,11.49888 -6.291,19.95586 -5.00275,-6.10297 -10.095999,-13.64472 -7.404644,-19.01744 z"
             sodipodi:nodetypes="cccc"
             inkscape:label="flame-short" /><path
             id="path58"
             style="display:inline;fill:#ffffff;stroke:#000000;stroke-width:1.32292;stroke-linecap:round;stroke-linejoin:round;stroke-dasharray:none;stroke-dashoffset:47.2176;paint-order:markers fill stroke"
             inkscape:transform-center-x="0.12349457"
             inkscape:transform-center-y="1.696743"
             d="m 102.13275,101.96839 c 1.48154,-2.957575 7.20787,-3.383345 8.94558,-0.61295 2.09659,3.34255 -0.10434,7.51072 -4.10909,13.03456 -3.26765,-3.98627 -6.59441,-8.91231 -4.83649,-12.42161 z"
             sodipodi:nodetypes="cccc"
             inkscape:label="flame-mid" /></g><path
           id="path59"
           style="display:inline;opacity:1;fill:#ffffff;fill-opacity:1;stroke:#000000;stroke-width:1.32292;stroke-linecap:round;stroke-linejoin:round;stroke-dasharray:none;stroke-dashoffset:47.2176;stroke-opacity:1;paint-order:markers fill stroke"
           d="m 94.453051,50.35236 c 0,0 21.395509,-2.267228 27.714649,4.647469 4.86613,5.324748 5.67865,25.608094 -8.18998,33.199794 12.13815,-1.71815 9.29689,23.663197 9.29689,23.663197 -11.20059,-10.21243 -21.8294,-9.29592 -32.027685,0 z"
           sodipodi:nodetypes="cscccc"
           inkscape:label="B" /><path
           id="path60"
           style="display:inline;fill:#000000;fill-opacity:1;stroke:#000000;stroke-width:1.32292;stroke-linecap:round;stroke-linejoin:round;stroke-dasharray:none;stroke-dashoffset:47.2176;paint-order:markers fill stroke"
           inkscape:transform-center-x="-0.065972512"
           inkscape:transform-center-y="-1.6823928"
           transform="rotate(-12.652367,118.07624,57.817486)"
           d="m 107.43277,99.781507 c -5.36793,-4.225176 -11.534123,-5.898735 -18.771843,-4.147145 -3.905255,0.945105 5.416624,-8.435052 9.53388,-7.97399 5.048493,0.565344 11.903823,9.114905 9.237963,12.121135 z"
           sodipodi:nodetypes="csac"
           inkscape:label="lower-B-Hole" /><g
           id="g61"
           inkscape:label="B-hole"
           style="stroke-width:1.32292;stroke-dasharray:none;paint-order:markers fill stroke"><circle
             style="display:inline;fill:#ffffff;fill-opacity:1;stroke:#000000;stroke-width:1.32292;stroke-linecap:round;stroke-linejoin:round;stroke-dasharray:none;stroke-dashoffset:47.2176;stroke-opacity:1;paint-order:markers fill stroke"
             id="circle60"
             cx="107.82015"
             cy="69.66095"
             inkscape:label="outer"
             r="10.22965" /><circle
             style="display:inline;fill:#000000;fill-opacity:1;stroke:#000000;stroke-width:1.32292;stroke-linecap:round;stroke-linejoin:round;stroke-dasharray:none;stroke-dashoffset:47.2176;stroke-opacity:1;paint-order:markers fill stroke"
             id="circle61"
             cx="107.82015"
             cy="69.66095"
             inkscape:label="inner"
             r="7.4397459" /></g></g></g></g></svg>
