<?xml version="1.0" encoding="UTF-8" standalone="no"?>
<!-- Created with Inkscape (http://www.inkscape.org/) -->

<svg
   width="210mm"
   height="297mm"
   viewBox="0 0 210 297"
   version="1.1"
   id="svg1"
   inkscape:version="1.3 (0e150ed, 2023-07-21)"
   sodipodi:docname="warning_sign.svg"
   xmlns:inkscape="http://www.inkscape.org/namespaces/inkscape"
   xmlns:sodipodi="http://sodipodi.sourceforge.net/DTD/sodipodi-0.dtd"
   xmlns="http://www.w3.org/2000/svg"
   xmlns:svg="http://www.w3.org/2000/svg">
  <sodipodi:namedview
     id="namedview1"
     pagecolor="#ffffff"
     bordercolor="#666666"
     borderopacity="1.0"
     inkscape:showpageshadow="2"
     inkscape:pageopacity="0.0"
     inkscape:pagecheckerboard="0"
     inkscape:deskcolor="#d1d1d1"
     inkscape:document-units="mm"
     inkscape:zoom="0.41829365"
     inkscape:cx="542.68096"
     inkscape:cy="711.22284"
     inkscape:window-width="1366"
     inkscape:window-height="699"
     inkscape:window-x="0"
     inkscape:window-y="0"
     inkscape:window-maximized="1"
     inkscape:current-layer="layer1" />
  <defs
     id="defs1" />
  <g
     inkscape:label="Layer 1"
     inkscape:groupmode="layer"
     id="layer1">
    <path
       sodipodi:type="star"
       style="fill:#f30000;fill-opacity:1;stroke:none;stroke-width:2.79929;stroke-linecap:round;stroke-linejoin:round;stroke-dashoffset:47.2176"
       id="path1"
       inkscape:flatsided="true"
       sodipodi:sides="3"
       sodipodi:cx="103.68891"
       sodipodi:cy="178.9939"
       sodipodi:r1="89.827835"
       sodipodi:r2="55.265171"
       sodipodi:arg1="0.51868292"
       sodipodi:arg2="1.5658804"
       inkscape:rounded="0"
       inkscape:randomized="0"
       d="M 181.70195,223.52485 26.117454,224.28969 103.24733,89.167147 Z"
       inkscape:transform-center-x="-3.007"
       inkscape:transform-center-y="-24.987513"
       transform="translate(1.0902991,-8.2284183)" />
    <path
       id="rect1"
       style="fill:#fffafa;fill-opacity:1;stroke:none;stroke-width:2.68622;stroke-linecap:round;stroke-linejoin:round;stroke-dashoffset:47.2176"
       d="m 104.99974,112.24749 c -4.76559,0 -8.602057,6.82243 -8.602057,15.29674 v 31.94327 c 0,8.47431 3.836467,15.29674 8.602057,15.29674 4.7656,0 8.60258,-6.82243 8.60258,-15.29674 v -31.94327 c 0,-8.47431 -3.83698,-15.29674 -8.60258,-15.29674 z m 0,70.11975 a 9.8974905,9.8974905 0 0 0 -9.897069,9.89707 9.8974905,9.8974905 0 0 0 9.897069,9.89759 9.8974905,9.8974905 0 0 0 9.89759,-9.89759 9.8974905,9.8974905 0 0 0 -9.89759,-9.89707 z" />
  </g>
</svg>
